<svg width="1004" height="436" viewBox="0 0 1004 436" fill="none" xmlns="http://www.w3.org/2000/svg">
<path d="M664.727 230.399C661.89 230.399 659.388 229.785 657.222 228.556C655.069 227.315 653.384 225.592 652.168 223.388C650.952 221.171 650.344 218.613 650.344 215.712C650.344 213.508 650.699 211.488 651.408 209.651C652.117 207.814 653.118 206.225 654.41 204.882C655.715 203.539 657.247 202.501 659.008 201.766C660.781 201.031 662.732 200.664 664.86 200.664C666.405 200.664 667.932 200.867 669.439 201.272C670.946 201.665 672.302 202.235 673.505 202.982H673.657L675.348 201.063H676.355V210.107H674.759C674.518 209.423 674.265 208.802 673.999 208.245C673.733 207.675 673.442 207.156 673.125 206.687C672.251 205.306 671.212 204.306 670.009 203.685C668.806 203.052 667.406 202.735 665.81 202.735C662.846 202.735 660.598 203.805 659.065 205.946C657.532 208.074 656.766 211.215 656.766 215.37C656.766 219.537 657.532 222.729 659.065 224.946C660.61 227.163 662.821 228.271 665.696 228.271C667.229 228.271 668.616 227.948 669.857 227.302C671.098 226.656 672.131 225.731 672.954 224.528C673.41 223.895 673.796 223.173 674.113 222.362C674.442 221.551 674.696 220.677 674.873 219.74H676.355V230H675.101L673.524 227.53C672.093 228.531 670.674 229.259 669.268 229.715C667.862 230.171 666.348 230.399 664.727 230.399ZM679.678 230V228.841L682.794 228.138V213.299L679.697 212.292V211.494L687.297 209.689H687.981V228.138L690.926 228.841V230H679.678ZM685.321 206.478C684.371 206.478 683.636 206.18 683.117 205.585C682.598 204.99 682.338 204.331 682.338 203.609C682.338 202.824 682.604 202.14 683.136 201.557C683.668 200.962 684.396 200.664 685.321 200.664C686.271 200.664 687.025 200.962 687.582 201.557C688.139 202.14 688.418 202.824 688.418 203.609C688.418 204.331 688.152 204.99 687.62 205.585C687.088 206.18 686.322 206.478 685.321 206.478ZM692.669 230V228.841L695.5 228.138V213.337L692.669 212.273V211.494L699.813 209.689H700.497V213.337L700.649 213.527V228.138L705.247 228.841V230H692.669ZM700.288 215.75V213.527C701.276 212.273 702.251 211.317 703.214 210.658C704.177 209.987 705.101 209.651 705.988 209.651C706.849 209.651 707.565 209.911 708.135 210.43C708.705 210.937 708.99 211.564 708.99 212.311C708.99 213.02 708.768 213.622 708.325 214.116C707.894 214.597 707.356 214.838 706.71 214.838C706.064 214.838 705.488 214.604 704.981 214.135C704.652 213.818 704.36 213.597 704.107 213.47C703.854 213.331 703.588 213.261 703.309 213.261C702.891 213.261 702.384 213.502 701.789 213.983C701.194 214.464 700.693 215.053 700.288 215.75ZM719.899 230.399C718.037 230.399 716.384 229.968 714.94 229.107C713.509 228.246 712.381 227.061 711.558 225.554C710.747 224.034 710.342 222.299 710.342 220.348C710.342 218.283 710.792 216.453 711.691 214.857C712.59 213.248 713.832 211.988 715.415 211.076C716.998 210.151 718.81 209.689 720.849 209.689C722.268 209.689 723.541 209.917 724.668 210.373C725.795 210.829 726.688 211.443 727.347 212.216C728.006 212.976 728.335 213.831 728.335 214.781C728.335 215.528 728.126 216.117 727.708 216.548C727.29 216.979 726.72 217.194 725.998 217.194C725.149 217.194 724.56 216.947 724.231 216.453C723.914 215.959 723.718 215.389 723.642 214.743C723.503 213.679 723.262 212.862 722.92 212.292C722.578 211.722 721.945 211.437 721.02 211.437C719.411 211.437 718.164 212.127 717.277 213.508C716.39 214.889 715.947 216.795 715.947 219.227C715.947 221.684 716.422 223.559 717.372 224.851C718.322 226.143 719.703 226.789 721.514 226.789C722.73 226.789 723.813 226.561 724.763 226.105C725.726 225.649 726.606 224.927 727.404 223.939L728.354 224.642C727.607 226.555 726.53 227.992 725.124 228.955C723.718 229.918 721.976 230.399 719.899 230.399ZM738.822 230.399C736.884 230.399 735.421 229.886 734.433 228.86C733.457 227.821 732.97 226.308 732.97 224.319V211.931L730.158 211.228V210.069H738.138V222.951C738.138 224.648 738.442 225.801 739.05 226.409C739.658 227.017 740.57 227.321 741.786 227.321C742.609 227.321 743.394 227.099 744.142 226.656C744.902 226.213 745.529 225.522 746.023 224.585V226.884C745.136 227.948 744.059 228.803 742.793 229.449C741.526 230.082 740.202 230.399 738.822 230.399ZM745.434 230.399V227.283L745.225 227.112V211.931L742.546 211.228V210.069H750.412V226.789L753.167 227.796V228.537L746.099 230.399H745.434ZM768.004 230V228.841L770.683 228.157V217.232C770.683 215.699 770.373 214.566 769.752 213.831C769.144 213.084 768.201 212.71 766.921 212.71C765.211 212.71 763.824 213.457 762.76 214.952V212.843C763.71 211.88 764.8 211.114 766.028 210.544C767.27 209.974 768.606 209.689 770.037 209.689C773.926 209.689 775.87 211.728 775.87 215.807V228.157L778.682 228.841V230H768.004ZM755.179 230V228.841L758.029 228.138V213.337L755.179 212.292V211.532L762.323 209.689H763.007V212.957L763.178 213.147V228.138L765.876 228.841V230H755.179ZM787.253 230.399C786.341 230.399 785.359 230.323 784.308 230.171C783.269 230.019 782.37 229.823 781.61 229.582L781.363 223.464H782.769C782.895 225.174 783.339 226.479 784.099 227.378C784.859 228.277 785.91 228.727 787.253 228.727C788.266 228.727 789.077 228.461 789.685 227.929C790.305 227.384 790.616 226.675 790.616 225.801C790.616 225.104 790.381 224.49 789.913 223.958C789.444 223.413 788.652 222.85 787.538 222.267L785.79 221.393C784.257 220.595 783.136 219.727 782.427 218.79C781.73 217.853 781.382 216.725 781.382 215.408C781.382 213.546 782.053 212.127 783.396 211.152C784.738 210.177 786.702 209.689 789.286 209.689C790.223 209.689 791.129 209.752 792.003 209.879C792.877 209.993 793.573 210.151 794.093 210.354V215.56H792.839C792.471 212.761 791.154 211.361 788.887 211.361C787.987 211.361 787.265 211.589 786.721 212.045C786.176 212.488 785.904 213.084 785.904 213.831C785.904 214.49 786.144 215.072 786.626 215.579C787.107 216.086 787.937 216.624 789.115 217.194L790.901 218.087C792.332 218.809 793.377 219.645 794.036 220.595C794.707 221.532 795.043 222.685 795.043 224.053C795.043 226.029 794.352 227.581 792.972 228.708C791.604 229.835 789.697 230.399 787.253 230.399ZM805.008 230.399C803.235 230.399 801.949 229.987 801.151 229.164C800.366 228.328 799.973 227.036 799.973 225.288V211.798H797.37L797.18 210.791L804.134 205.053L805.16 205.205V210.069H810.841L810.366 211.798H805.16V224.908C805.16 226.935 805.933 227.948 807.478 227.948C807.934 227.948 808.377 227.853 808.808 227.663C809.239 227.473 809.625 227.169 809.967 226.751L810.765 227.758C810.132 228.607 809.308 229.259 808.295 229.715C807.282 230.171 806.186 230.399 805.008 230.399ZM817.443 230.399C815.974 230.399 814.802 229.994 813.928 229.183C813.054 228.36 812.617 227.264 812.617 225.896C812.617 224.693 812.991 223.654 813.738 222.78C814.498 221.893 815.676 221.146 817.272 220.538C818.868 219.917 820.92 219.404 823.428 218.999V215.978C823.428 214.306 823.251 213.172 822.896 212.577C822.554 211.969 821.902 211.665 820.939 211.665C819.964 211.665 819.191 211.899 818.621 212.368C818.051 212.837 817.766 213.476 817.766 214.287C817.766 214.553 817.785 214.819 817.823 215.085C817.874 215.351 817.899 215.611 817.899 215.864C817.899 216.561 817.665 217.137 817.196 217.593C816.74 218.049 816.164 218.277 815.467 218.277C814.796 218.277 814.251 218.062 813.833 217.631C813.428 217.188 813.225 216.618 813.225 215.921C813.225 215.123 813.516 214.319 814.099 213.508C814.682 212.697 815.48 211.982 816.493 211.361C818.342 210.246 820.496 209.689 822.953 209.689C824.22 209.689 825.258 209.854 826.069 210.183C826.88 210.512 827.481 210.987 827.874 211.608C828.14 212.064 828.33 212.653 828.444 213.375C828.558 214.084 828.615 215.161 828.615 216.605V224.604C828.615 225.757 828.716 226.574 828.919 227.055C829.134 227.536 829.502 227.777 830.021 227.777C830.604 227.777 831.18 227.46 831.75 226.827L832.548 227.853C831.801 228.727 831.022 229.373 830.211 229.791C829.413 230.196 828.514 230.399 827.513 230.399C826.348 230.399 825.461 230.146 824.853 229.639C824.245 229.12 823.846 228.334 823.656 227.283H823.504C822.643 228.309 821.699 229.088 820.673 229.62C819.66 230.139 818.583 230.399 817.443 230.399ZM820.388 227.207C820.996 227.207 821.56 227.08 822.079 226.827C822.611 226.574 823.061 226.206 823.428 225.725V220.576C822.06 220.842 820.983 221.146 820.198 221.488C819.413 221.817 818.862 222.229 818.545 222.723C818.228 223.204 818.07 223.819 818.07 224.566C818.07 225.44 818.26 226.099 818.64 226.542C819.02 226.985 819.603 227.207 820.388 227.207ZM846.305 230V228.841L848.984 228.157V217.232C848.984 215.699 848.674 214.566 848.053 213.831C847.445 213.084 846.501 212.71 845.222 212.71C843.512 212.71 842.125 213.457 841.061 214.952V212.843C842.011 211.88 843.1 211.114 844.329 210.544C845.57 209.974 846.907 209.689 848.338 209.689C852.227 209.689 854.171 211.728 854.171 215.807V228.157L856.983 228.841V230H846.305ZM833.48 230V228.841L836.33 228.138V213.337L833.48 212.292V211.532L840.624 209.689H841.308V212.957L841.479 213.147V228.138L844.177 228.841V230H833.48ZM868.708 230.399C866.846 230.399 865.193 229.968 863.749 229.107C862.317 228.246 861.19 227.061 860.367 225.554C859.556 224.034 859.151 222.299 859.151 220.348C859.151 218.283 859.6 216.453 860.5 214.857C861.399 213.248 862.64 211.988 864.224 211.076C865.807 210.151 867.618 209.689 869.658 209.689C871.076 209.689 872.349 209.917 873.477 210.373C874.604 210.829 875.497 211.443 876.156 212.216C876.814 212.976 877.144 213.831 877.144 214.781C877.144 215.528 876.935 216.117 876.517 216.548C876.099 216.979 875.529 217.194 874.807 217.194C873.958 217.194 873.369 216.947 873.04 216.453C872.723 215.959 872.527 215.389 872.451 214.743C872.311 213.679 872.071 212.862 871.729 212.292C871.387 211.722 870.753 211.437 869.829 211.437C868.22 211.437 866.972 212.127 866.086 213.508C865.199 214.889 864.756 216.795 864.756 219.227C864.756 221.684 865.231 223.559 866.181 224.851C867.131 226.143 868.511 226.789 870.323 226.789C871.539 226.789 872.622 226.561 873.572 226.105C874.534 225.649 875.415 224.927 876.213 223.939L877.163 224.642C876.415 226.555 875.339 227.992 873.933 228.955C872.527 229.918 870.785 230.399 868.708 230.399ZM879.289 230V228.841L882.405 228.138V213.299L879.308 212.292V211.494L886.908 209.689H887.592V228.138L890.537 228.841V230H879.289ZM884.932 206.478C883.982 206.478 883.248 206.18 882.728 205.585C882.209 204.99 881.949 204.331 881.949 203.609C881.949 202.824 882.215 202.14 882.747 201.557C883.279 200.962 884.008 200.664 884.932 200.664C885.882 200.664 886.636 200.962 887.193 201.557C887.751 202.14 888.029 202.824 888.029 203.609C888.029 204.331 887.763 204.99 887.231 205.585C886.699 206.18 885.933 206.478 884.932 206.478ZM897.562 230.399C896.093 230.399 894.921 229.994 894.047 229.183C893.173 228.36 892.736 227.264 892.736 225.896C892.736 224.693 893.11 223.654 893.857 222.78C894.617 221.893 895.795 221.146 897.391 220.538C898.987 219.917 901.039 219.404 903.547 218.999V215.978C903.547 214.306 903.37 213.172 903.015 212.577C902.673 211.969 902.021 211.665 901.058 211.665C900.083 211.665 899.31 211.899 898.74 212.368C898.17 212.837 897.885 213.476 897.885 214.287C897.885 214.553 897.904 214.819 897.942 215.085C897.993 215.351 898.018 215.611 898.018 215.864C898.018 216.561 897.784 217.137 897.315 217.593C896.859 218.049 896.283 218.277 895.586 218.277C894.915 218.277 894.37 218.062 893.952 217.631C893.547 217.188 893.344 216.618 893.344 215.921C893.344 215.123 893.636 214.319 894.218 213.508C894.801 212.697 895.599 211.982 896.612 211.361C898.462 210.246 900.615 209.689 903.072 209.689C904.339 209.689 905.378 209.854 906.188 210.183C906.999 210.512 907.601 210.987 907.993 211.608C908.259 212.064 908.449 212.653 908.563 213.375C908.677 214.084 908.734 215.161 908.734 216.605V224.604C908.734 225.757 908.836 226.574 909.038 227.055C909.254 227.536 909.621 227.777 910.14 227.777C910.723 227.777 911.299 227.46 911.869 226.827L912.667 227.853C911.92 228.727 911.141 229.373 910.33 229.791C909.532 230.196 908.633 230.399 907.632 230.399C906.467 230.399 905.58 230.146 904.972 229.639C904.364 229.12 903.965 228.334 903.775 227.283H903.623C902.762 228.309 901.818 229.088 900.792 229.62C899.779 230.139 898.702 230.399 897.562 230.399ZM900.507 227.207C901.115 227.207 901.679 227.08 902.198 226.827C902.73 226.574 903.18 226.206 903.547 225.725V220.576C902.179 220.842 901.103 221.146 900.317 221.488C899.532 221.817 898.981 222.229 898.664 222.723C898.348 223.204 898.189 223.819 898.189 224.566C898.189 225.44 898.379 226.099 898.759 226.542C899.139 226.985 899.722 227.207 900.507 227.207ZM922.377 230.399C920.819 230.399 919.407 229.962 918.14 229.088C916.873 228.214 915.873 227.023 915.138 225.516C914.403 223.996 914.036 222.28 914.036 220.367C914.036 218.264 914.467 216.415 915.328 214.819C916.189 213.21 917.38 211.956 918.9 211.057C920.433 210.145 922.2 209.689 924.201 209.689C925.632 209.689 927.057 209.968 928.476 210.525V202.45L925.398 201.386V200.626L932.941 198.783H933.644V226.542L936.494 227.359V228.024L929.312 230.399H928.761V227.815L928.571 227.739C927.798 228.6 926.88 229.259 925.816 229.715C924.752 230.171 923.606 230.399 922.377 230.399ZM924.543 227.758C925.354 227.758 926.101 227.574 926.785 227.207C927.469 226.84 928.033 226.339 928.476 225.706V215.978C928.476 214.597 928.134 213.502 927.45 212.691C926.779 211.868 925.86 211.456 924.695 211.456C923.213 211.456 922.016 212.216 921.104 213.736C920.192 215.256 919.736 217.257 919.736 219.74C919.736 222.197 920.16 224.148 921.009 225.592C921.858 227.036 923.036 227.758 924.543 227.758ZM949.071 230.399C946.892 230.399 945.017 229.937 943.447 229.012C941.876 228.087 940.673 226.84 939.837 225.269C939.001 223.698 938.583 221.957 938.583 220.044C938.583 218.119 939.001 216.377 939.837 214.819C940.673 213.248 941.876 212.001 943.447 211.076C945.017 210.151 946.892 209.689 949.071 209.689C951.249 209.689 953.118 210.151 954.676 211.076C956.246 212.001 957.45 213.248 958.286 214.819C959.134 216.377 959.559 218.119 959.559 220.044C959.559 221.957 959.134 223.698 958.286 225.269C957.45 226.84 956.246 228.087 954.676 229.012C953.118 229.937 951.249 230.399 949.071 230.399ZM949.071 228.518C949.983 228.518 950.749 228.271 951.37 227.777C951.99 227.283 952.484 226.624 952.852 225.801C953.219 224.965 953.485 224.047 953.65 223.046C953.814 222.045 953.897 221.038 953.897 220.025C953.897 219.024 953.814 218.024 953.65 217.023C953.498 216.022 953.238 215.11 952.871 214.287C952.503 213.464 952.009 212.805 951.389 212.311C950.768 211.817 949.995 211.57 949.071 211.57C948.146 211.57 947.373 211.817 946.753 212.311C946.132 212.805 945.638 213.464 945.271 214.287C944.903 215.11 944.637 216.029 944.473 217.042C944.321 218.043 944.245 219.043 944.245 220.044C944.245 221.057 944.321 222.064 944.473 223.065C944.637 224.053 944.903 224.965 945.271 225.801C945.638 226.624 946.132 227.283 946.753 227.777C947.373 228.271 948.146 228.518 949.071 228.518Z" fill="#758EAB"/>
<path d="M386.075 312.672C381.275 312.672 377.051 311.648 373.403 309.6C369.776 307.552 366.95 304.704 364.923 301.056C362.918 297.387 361.915 293.141 361.915 288.32C361.915 284.565 362.523 281.12 363.739 277.984C364.955 274.848 366.672 272.128 368.891 269.824C371.131 267.52 373.766 265.739 376.795 264.48C379.846 263.221 383.195 262.592 386.843 262.592C389.552 262.592 392.091 262.944 394.459 263.648C396.848 264.331 398.8 265.28 400.315 266.496H400.539L403.515 263.264H405.371V278.496H402.939C401.51 275.445 400.07 273.024 398.619 271.232C397.168 269.44 395.579 268.149 393.851 267.36C392.144 266.549 390.16 266.144 387.899 266.144C382.907 266.144 379.152 267.979 376.635 271.648C374.139 275.317 372.891 280.811 372.891 288.128C372.891 295.381 373.99 300.715 376.187 304.128C378.406 307.52 381.808 309.216 386.395 309.216C388.294 309.216 390 308.885 391.515 308.224C393.03 307.563 394.171 306.645 394.939 305.472C395.216 305.088 395.387 304.672 395.451 304.224C395.536 303.776 395.579 303.051 395.579 302.048V290.848L389.883 289.632V287.584H410.875V289.632L405.243 290.848V306.848C403.963 307.957 402.267 308.949 400.155 309.824C398.064 310.699 395.782 311.392 393.307 311.904C390.854 312.416 388.443 312.672 386.075 312.672ZM427.868 312.672C424.604 312.672 422.14 311.808 420.476 310.08C418.833 308.331 418.012 305.781 418.012 302.432V281.568L413.276 280.384V278.432H426.716V300.128C426.716 302.987 427.228 304.928 428.252 305.952C429.276 306.976 430.812 307.488 432.86 307.488C434.246 307.488 435.569 307.115 436.828 306.368C438.108 305.621 439.164 304.459 439.996 302.88V306.752C438.502 308.544 436.689 309.984 434.556 311.072C432.422 312.139 430.193 312.672 427.868 312.672ZM439.004 312.672V307.424L438.652 307.136V281.568L434.14 280.384V278.432H447.388V306.592L452.028 308.288V309.536L440.124 312.672H439.004ZM455.257 312V310.048L460.505 308.864V283.872L455.289 282.176V280.832L468.089 277.792H469.241V308.864L474.201 310.048V312H455.257ZM464.761 272.384C463.161 272.384 461.924 271.883 461.049 270.88C460.174 269.877 459.737 268.768 459.737 267.552C459.737 266.229 460.185 265.077 461.081 264.096C461.977 263.093 463.204 262.592 464.761 262.592C466.361 262.592 467.63 263.093 468.569 264.096C469.508 265.077 469.977 266.229 469.977 267.552C469.977 268.768 469.529 269.877 468.633 270.88C467.737 271.883 466.446 272.384 464.761 272.384ZM476.497 312V310.048L481.745 308.864V265.504L476.497 263.808V262.464L489.297 259.424H490.417V308.864L495.409 310.048V312H476.497ZM497.936 312V310.048L502.704 308.864V265.568L497.968 263.808V262.496L510.288 259.424H511.44V308.864L515.952 310.048V312H497.936ZM520.08 312V310.048L524.592 308.896V290.496C524.592 287.915 524.069 286.005 523.024 284.768C522 283.509 520.41 282.88 518.256 282.88C516.848 282.88 515.514 283.179 514.256 283.776C513.018 284.373 511.845 285.195 510.736 286.24V282.72C512.485 281.248 514.48 280.064 516.72 279.168C518.96 278.251 521.221 277.792 523.504 277.792C530.053 277.792 533.328 281.227 533.328 288.096V308.896L538.064 310.048V312H520.08ZM558.514 312.672C555.143 312.672 552.199 311.968 549.682 310.56C547.165 309.131 545.202 307.147 543.794 304.608C542.407 302.048 541.714 299.093 541.714 295.744C541.714 292.181 542.482 289.056 544.018 286.368C545.575 283.68 547.73 281.579 550.482 280.064C553.255 278.549 556.466 277.792 560.114 277.792C564.743 277.792 568.274 279.072 570.706 281.632C573.159 284.192 574.45 287.957 574.578 292.928L574.098 293.312H547.41V290.784L565.138 290.144C565.287 289.653 565.362 288.843 565.362 287.712C565.362 283.019 563.367 280.672 559.378 280.672C556.711 280.672 554.653 281.792 553.202 284.032C551.773 286.251 551.058 289.408 551.058 293.504C551.058 302.272 554.461 306.656 561.266 306.656C565.874 306.656 569.469 305.056 572.05 301.856L573.618 303.104C572.487 306.133 570.589 308.491 567.922 310.176C565.277 311.84 562.141 312.672 558.514 312.672ZM578.512 312V310.048L583.28 308.864V283.936L578.512 282.144V280.832L590.544 277.792H591.696V283.936L591.952 284.256V308.864L599.696 310.048V312H578.512ZM591.344 288V284.256C593.008 282.144 594.65 280.533 596.272 279.424C597.893 278.293 599.45 277.728 600.944 277.728C602.394 277.728 603.6 278.165 604.56 279.04C605.52 279.893 606 280.949 606 282.208C606 283.403 605.626 284.416 604.88 285.248C604.154 286.059 603.248 286.464 602.16 286.464C601.072 286.464 600.101 286.069 599.248 285.28C598.693 284.747 598.202 284.373 597.776 284.16C597.349 283.925 596.901 283.808 596.432 283.808C595.728 283.808 594.874 284.213 593.872 285.024C592.869 285.835 592.026 286.827 591.344 288ZM608.323 312V310.048L613.059 308.864V283.936L608.419 282.176V280.896L619.555 277.792H621.539V282.592L621.795 282.912V308.864L626.339 310.048V312H608.323ZM629.187 312V310.048L633.731 308.896V291.296C633.731 288.245 633.272 286.059 632.355 284.736C631.437 283.413 629.933 282.752 627.843 282.752C626.264 282.752 624.867 283.115 623.651 283.84C622.456 284.544 621.389 285.589 620.451 286.976V283.36C622.051 281.653 623.992 280.299 626.275 279.296C628.557 278.293 630.84 277.792 633.123 277.792C636.301 277.792 638.648 278.688 640.163 280.48C641.677 282.272 642.435 285.077 642.435 288.896V308.896L646.979 310.048V312H629.187ZM649.859 312V310.048L654.371 308.896V291.232C654.371 288.16 653.944 285.995 653.091 284.736C652.237 283.456 650.765 282.816 648.675 282.816C647.096 282.816 645.677 283.168 644.419 283.872C643.181 284.555 642.072 285.6 641.09 287.008V283.36C642.627 281.632 644.547 280.277 646.851 279.296C649.176 278.293 651.523 277.792 653.891 277.792C657.027 277.792 659.331 278.699 660.803 280.512C662.275 282.304 663.032 285.131 663.075 288.992V308.896L667.619 310.048V312H649.859ZM688.202 312.672C684.831 312.672 681.887 311.968 679.37 310.56C676.852 309.131 674.89 307.147 673.482 304.608C672.095 302.048 671.402 299.093 671.402 295.744C671.402 292.181 672.17 289.056 673.706 286.368C675.263 283.68 677.418 281.579 680.17 280.064C682.943 278.549 686.154 277.792 689.802 277.792C694.431 277.792 697.962 279.072 700.394 281.632C702.847 284.192 704.138 287.957 704.266 292.928L703.786 293.312H677.098V290.784L694.826 290.144C694.975 289.653 695.05 288.843 695.05 287.712C695.05 283.019 693.055 280.672 689.066 280.672C686.399 280.672 684.34 281.792 682.89 284.032C681.46 286.251 680.746 289.408 680.746 293.504C680.746 302.272 684.148 306.656 690.954 306.656C695.562 306.656 699.156 305.056 701.738 301.856L703.306 303.104C702.175 306.133 700.276 308.491 697.61 310.176C694.964 311.84 691.828 312.672 688.202 312.672ZM725.534 312V309.92L730.942 308.576V266.624L725.534 265.312V263.264H747.294C750.622 263.264 753.555 263.797 756.094 264.864C758.633 265.909 760.617 267.467 762.046 269.536C763.475 271.584 764.19 274.112 764.19 277.12C764.19 280.213 763.369 282.795 761.726 284.864C760.105 286.912 757.811 288.405 754.846 289.344L767.422 308.672L773.598 309.92V312H757.342L744.158 290.496H740.606V308.576L747.806 309.92V312H725.534ZM740.606 287.36H742.43C744.819 287.36 746.729 287.051 748.158 286.432C749.609 285.813 750.782 284.981 751.678 283.936C752.617 282.891 753.278 281.728 753.662 280.448C754.046 279.147 754.238 277.824 754.238 276.48C754.238 274.112 753.726 272.149 752.702 270.592C751.678 269.013 750.323 267.883 748.638 267.2C747.913 266.901 747.123 266.699 746.27 266.592C745.417 266.464 744.329 266.4 743.006 266.4H740.606V287.36ZM781.908 312.672C779.433 312.672 777.46 311.989 775.988 310.624C774.516 309.237 773.78 307.392 773.78 305.088C773.78 303.061 774.409 301.312 775.668 299.84C776.948 298.347 778.932 297.088 781.62 296.064C784.308 295.019 787.764 294.155 791.988 293.472V288.384C791.988 285.568 791.689 283.659 791.092 282.656C790.516 281.632 789.417 281.12 787.796 281.12C786.153 281.12 784.852 281.515 783.892 282.304C782.932 283.093 782.452 284.171 782.452 285.536C782.452 285.984 782.484 286.432 782.548 286.88C782.633 287.328 782.676 287.765 782.676 288.192C782.676 289.365 782.281 290.336 781.492 291.104C780.724 291.872 779.753 292.256 778.58 292.256C777.449 292.256 776.532 291.893 775.828 291.168C775.145 290.421 774.804 289.461 774.804 288.288C774.804 286.944 775.294 285.589 776.276 284.224C777.257 282.859 778.601 281.653 780.308 280.608C783.422 278.731 787.049 277.792 791.188 277.792C793.321 277.792 795.07 278.069 796.436 278.624C797.801 279.179 798.814 279.979 799.476 281.024C799.924 281.792 800.244 282.784 800.436 284C800.628 285.195 800.724 287.008 800.724 289.44V302.912C800.724 304.853 800.894 306.229 801.236 307.04C801.598 307.851 802.217 308.256 803.092 308.256C804.073 308.256 805.044 307.723 806.004 306.656L807.347 308.384C806.089 309.856 804.777 310.944 803.412 311.648C802.068 312.331 800.553 312.672 798.868 312.672C796.905 312.672 795.412 312.245 794.388 311.392C793.364 310.517 792.692 309.195 792.372 307.424H792.116C790.665 309.152 789.076 310.464 787.347 311.36C785.641 312.235 783.828 312.672 781.908 312.672ZM786.868 307.296C787.892 307.296 788.841 307.083 789.716 306.656C790.612 306.229 791.369 305.611 791.988 304.8V296.128C789.684 296.576 787.87 297.088 786.548 297.664C785.225 298.219 784.297 298.912 783.764 299.744C783.23 300.555 782.964 301.589 782.964 302.848C782.964 304.32 783.284 305.429 783.924 306.176C784.564 306.923 785.545 307.296 786.868 307.296ZM830.517 312V310.048L835.029 308.896V290.496C835.029 287.915 834.506 286.005 833.461 284.768C832.437 283.509 830.848 282.88 828.693 282.88C825.813 282.88 823.477 284.139 821.685 286.656V283.104C823.285 281.483 825.12 280.192 827.189 279.232C829.28 278.272 831.53 277.792 833.941 277.792C840.49 277.792 843.765 281.227 843.765 288.096V308.896L848.501 310.048V312H830.517ZM808.917 312V310.048L813.717 308.864V283.936L808.917 282.176V280.896L820.949 277.792H822.101V283.296L822.389 283.616V308.864L826.933 310.048V312H808.917ZM869.784 312.672C866.114 312.672 862.957 311.893 860.312 310.336C857.666 308.779 855.64 306.677 854.232 304.032C852.824 301.387 852.12 298.453 852.12 295.232C852.12 291.989 852.824 289.056 854.232 286.432C855.64 283.787 857.666 281.685 860.312 280.128C862.957 278.571 866.114 277.792 869.784 277.792C873.453 277.792 876.6 278.571 879.224 280.128C881.869 281.685 883.896 283.787 885.304 286.432C886.733 289.056 887.448 291.989 887.448 295.232C887.448 298.453 886.733 301.387 885.304 304.032C883.896 306.677 881.869 308.779 879.224 310.336C876.6 311.893 873.453 312.672 869.784 312.672ZM869.784 309.504C871.32 309.504 872.61 309.088 873.656 308.256C874.701 307.424 875.533 306.315 876.152 304.928C876.77 303.52 877.218 301.973 877.496 300.288C877.773 298.603 877.912 296.907 877.912 295.2C877.912 293.515 877.773 291.829 877.496 290.144C877.24 288.459 876.802 286.923 876.184 285.536C875.565 284.149 874.733 283.04 873.688 282.208C872.642 281.376 871.341 280.96 869.784 280.96C868.226 280.96 866.925 281.376 865.88 282.208C864.834 283.04 864.002 284.149 863.384 285.536C862.765 286.923 862.317 288.469 862.04 290.176C861.784 291.861 861.656 293.547 861.656 295.232C861.656 296.939 861.784 298.635 862.04 300.32C862.317 301.984 862.765 303.52 863.384 304.928C864.002 306.315 864.834 307.424 865.88 308.256C866.925 309.088 868.226 309.504 869.784 309.504ZM896.791 328.48C894.871 328.48 893.25 328.043 891.927 327.168C890.604 326.293 889.943 325.024 889.943 323.36C889.943 322.208 890.327 321.28 891.095 320.576C891.863 319.893 892.802 319.552 893.911 319.552C894.807 319.552 895.586 319.808 896.247 320.32C896.908 320.832 897.378 321.632 897.655 322.72C897.89 323.659 898.124 324.267 898.359 324.544C898.615 324.843 899.01 324.992 899.543 324.992C900.268 324.992 900.972 324.608 901.655 323.84C902.359 323.072 902.967 321.952 903.479 320.48L906.007 313.408L892.823 282.912C892.46 282.123 891.916 281.536 891.191 281.152C890.487 280.768 889.388 280.512 887.895 280.384V278.432H907.127V280.384C905.74 280.469 904.706 280.619 904.023 280.832C903.34 281.045 902.935 281.365 902.807 281.792C902.679 282.197 902.754 282.773 903.031 283.52L910.519 301.664H910.807L917.079 285.376C917.762 283.712 917.751 282.496 917.047 281.728C916.343 280.939 914.86 280.491 912.599 280.384V278.432H927.543V280.384C925.964 280.661 924.748 280.981 923.895 281.344C923.063 281.707 922.412 282.208 921.943 282.848C921.474 283.467 921.015 284.331 920.567 285.44L906.615 320.928C906.06 322.293 905.463 323.445 904.823 324.384C904.204 325.323 903.532 326.08 902.807 326.656C901.314 327.872 899.308 328.48 896.791 328.48ZM935.783 312.672C933.308 312.672 931.335 311.989 929.863 310.624C928.391 309.237 927.655 307.392 927.655 305.088C927.655 303.061 928.284 301.312 929.543 299.84C930.823 298.347 932.807 297.088 935.495 296.064C938.183 295.019 941.639 294.155 945.863 293.472V288.384C945.863 285.568 945.564 283.659 944.967 282.656C944.391 281.632 943.292 281.12 941.671 281.12C940.028 281.12 938.727 281.515 937.767 282.304C936.807 283.093 936.327 284.171 936.327 285.536C936.327 285.984 936.359 286.432 936.423 286.88C936.508 287.328 936.551 287.765 936.551 288.192C936.551 289.365 936.156 290.336 935.367 291.104C934.599 291.872 933.628 292.256 932.455 292.256C931.324 292.256 930.407 291.893 929.703 291.168C929.02 290.421 928.679 289.461 928.679 288.288C928.679 286.944 929.169 285.589 930.151 284.224C931.132 282.859 932.476 281.653 934.183 280.608C937.297 278.731 940.924 277.792 945.062 277.792C947.196 277.792 948.945 278.069 950.311 278.624C951.676 279.179 952.689 279.979 953.351 281.024C953.799 281.792 954.119 282.784 954.311 284C954.503 285.195 954.599 287.008 954.599 289.44V302.912C954.599 304.853 954.769 306.229 955.111 307.04C955.473 307.851 956.092 308.256 956.967 308.256C957.948 308.256 958.919 307.723 959.879 306.656L961.222 308.384C959.964 309.856 958.652 310.944 957.287 311.648C955.943 312.331 954.428 312.672 952.743 312.672C950.78 312.672 949.287 312.245 948.263 311.392C947.239 310.517 946.567 309.195 946.247 307.424H945.991C944.54 309.152 942.951 310.464 941.222 311.36C939.516 312.235 937.703 312.672 935.783 312.672ZM940.743 307.296C941.767 307.296 942.716 307.083 943.591 306.656C944.487 306.229 945.244 305.611 945.863 304.8V296.128C943.559 296.576 941.745 297.088 940.423 297.664C939.1 298.219 938.172 298.912 937.639 299.744C937.105 300.555 936.839 301.589 936.839 302.848C936.839 304.32 937.159 305.429 937.799 306.176C938.439 306.923 939.42 307.296 940.743 307.296Z" fill="#173F6D"/>
<path d="M460.269 185.155L430.734 116.405H430.294V177.84L439.864 179.985V184H413.079V179.985L422.759 177.84V106.23L413.134 104.195V100.235H446.189L468.794 156.335H469.454L493.049 100.235H521.044V104.195L511.969 106.34V177.675L521.044 179.985V184H483.974V179.985L493.214 177.675V119.32H492.774L465.439 185.155H460.269ZM556.966 185.155C550.952 185.155 545.691 183.945 541.181 181.525C536.707 179.068 533.224 175.658 530.731 171.295C528.274 166.895 527.046 161.817 527.046 156.06C527.046 149.937 528.421 144.565 531.171 139.945C533.921 135.325 537.734 131.713 542.611 129.11C547.524 126.507 553.207 125.205 559.661 125.205C567.984 125.205 574.309 127.46 578.636 131.97C582.999 136.443 585.309 143.043 585.566 151.77L584.741 152.485H537.221V147.535L567.526 146.435C567.819 145.665 567.966 144.29 567.966 142.31C567.966 134.61 564.739 130.76 558.286 130.76C554.069 130.76 550.824 132.593 548.551 136.26C546.314 139.927 545.196 145.133 545.196 151.88C545.196 166.547 550.861 173.88 562.191 173.88C570.037 173.88 576.216 171.203 580.726 165.85L583.751 168.435C581.807 173.715 578.471 177.822 573.741 180.755C569.047 183.688 563.456 185.155 556.966 185.155ZM591.743 184V180.15L599.883 178.005V136.095L591.908 133.015V130.54L611.928 125.205H616.383V132.85L616.768 133.4V178.005L624.413 180.15V184H591.743ZM628.153 184V180.15L635.798 178.005V149.405C635.798 144.162 635.028 140.422 633.488 138.185C631.948 135.912 629.381 134.775 625.788 134.775C623.111 134.775 620.838 135.362 618.968 136.535C617.134 137.672 615.466 139.377 613.963 141.65V134.61C616.529 131.787 619.829 129.513 623.863 127.79C627.896 126.067 631.966 125.205 636.073 125.205C641.756 125.205 645.936 126.855 648.613 130.155C651.326 133.455 652.683 138.643 652.683 145.72V178.005L660.328 180.15V184H628.153ZM664.123 184V180.15L671.713 178.005V149.405C671.713 144.088 670.998 140.348 669.568 138.185C668.138 136.022 665.663 134.94 662.143 134.94C659.539 134.94 657.229 135.49 655.213 136.59C653.233 137.69 651.454 139.413 649.878 141.76V134.61C652.408 131.787 655.708 129.513 659.778 127.79C663.848 126.067 667.954 125.205 672.098 125.205C677.708 125.205 681.851 126.855 684.528 130.155C687.204 133.455 688.543 138.643 688.543 145.72V178.005L696.188 180.15V184H664.123ZM733.541 185.155C726.904 185.155 721.257 183.798 716.601 181.085C711.981 178.372 708.461 174.742 706.041 170.195C703.657 165.648 702.466 160.643 702.466 155.18C702.466 149.68 703.657 144.675 706.041 140.165C708.461 135.618 711.981 131.988 716.601 129.275C721.257 126.562 726.904 125.205 733.541 125.205C740.177 125.205 745.787 126.562 750.371 129.275C754.991 131.988 758.511 135.618 760.931 140.165C763.351 144.675 764.561 149.68 764.561 155.18C764.561 160.643 763.351 165.648 760.931 170.195C758.511 174.742 754.991 178.372 750.371 181.085C745.787 183.798 740.177 185.155 733.541 185.155ZM733.541 179.545C736.181 179.545 738.326 178.775 739.976 177.235C741.662 175.658 742.946 173.623 743.826 171.13C744.742 168.637 745.366 165.997 745.696 163.21C746.062 160.387 746.246 157.71 746.246 155.18C746.246 152.687 746.081 150.028 745.751 147.205C745.421 144.382 744.797 141.742 743.881 139.285C743.001 136.792 741.717 134.775 740.031 133.235C738.381 131.658 736.217 130.87 733.541 130.87C730.864 130.87 728.682 131.658 726.996 133.235C725.309 134.775 724.007 136.792 723.091 139.285C722.211 141.742 721.606 144.382 721.276 147.205C720.946 150.028 720.781 152.687 720.781 155.18C720.781 157.71 720.946 160.387 721.276 163.21C721.606 165.997 722.211 168.637 723.091 171.13C724.007 173.623 725.309 175.658 726.996 177.235C728.682 178.775 730.864 179.545 733.541 179.545ZM771.462 184V180.15L779.657 178.005V136.095L771.352 133.015V130.43L793.627 125.205H795.992V135.16L796.432 135.655V178.005L810.732 180.15V184H771.462ZM795.222 143.08L795.387 135.655C798.284 132.245 801.144 129.642 803.967 127.845C806.827 126.012 809.596 125.095 812.272 125.095C814.986 125.095 817.241 125.865 819.037 127.405C820.834 128.945 821.732 130.852 821.732 133.125C821.732 135.325 821.072 137.177 819.752 138.68C818.469 140.147 816.874 140.88 814.967 140.88C813.061 140.88 811.264 140.202 809.577 138.845C808.514 137.928 807.561 137.268 806.717 136.865C805.911 136.425 805.049 136.205 804.132 136.205C802.849 136.205 801.309 136.902 799.512 138.295C797.752 139.652 796.322 141.247 795.222 143.08ZM824.896 184V180.15L834.191 178.005V135.985L824.896 133.015V130.43L848.766 125.205H851.076V178.005L859.766 180.15V184H824.896ZM842.441 117.065C839.434 117.065 837.124 116.13 835.511 114.26C833.897 112.39 833.091 110.355 833.091 108.155C833.091 105.772 833.916 103.663 835.566 101.83C837.252 99.9967 839.544 99.08 842.441 99.08C845.411 99.08 847.757 99.9967 849.481 101.83C851.241 103.663 852.121 105.772 852.121 108.155C852.121 110.355 851.296 112.39 849.646 114.26C848.032 116.13 845.631 117.065 842.441 117.065ZM880 185.155C875.563 185.155 872.061 184 869.495 181.69C866.928 179.38 865.645 176.227 865.645 172.23C865.645 168.6 866.781 165.465 869.055 162.825C871.328 160.185 874.811 157.985 879.505 156.225C884.235 154.428 890.248 153.017 897.545 151.99V144.015C897.545 139.102 897.086 135.802 896.17 134.115C895.29 132.428 893.53 131.585 890.89 131.585C888.176 131.585 886.031 132.245 884.455 133.565C882.878 134.848 882.09 136.627 882.09 138.9C882.09 139.707 882.163 140.532 882.31 141.375C882.456 142.182 882.53 142.97 882.53 143.74C882.53 145.83 881.796 147.572 880.33 148.965C878.9 150.322 877.121 151 874.995 151C872.868 151 871.145 150.322 869.825 148.965C868.505 147.572 867.845 145.775 867.845 143.575C867.845 141.302 868.596 139.028 870.1 136.755C871.603 134.482 873.711 132.447 876.425 130.65C882.145 127.02 889.02 125.205 897.05 125.205C900.973 125.205 904.126 125.682 906.51 126.635C908.93 127.552 910.745 128.89 911.955 130.65C912.798 132.007 913.421 133.767 913.825 135.93C914.228 138.093 914.43 141.192 914.43 145.225V167.665C914.43 170.892 914.741 173.238 915.365 174.705C915.988 176.135 917.033 176.85 918.5 176.85C920.15 176.85 921.781 175.988 923.395 174.265L925.87 177.785C923.523 180.278 921.066 182.13 918.5 183.34C915.933 184.55 913.091 185.155 909.975 185.155C906.418 185.155 903.723 184.44 901.89 183.01C900.056 181.58 898.865 179.417 898.315 176.52H897.875C895.161 179.453 892.338 181.635 889.405 183.065C886.471 184.458 883.336 185.155 880 185.155ZM890.01 174.815C891.513 174.815 892.906 174.558 894.19 174.045C895.473 173.532 896.591 172.762 897.545 171.735V157.105C894.025 157.802 891.256 158.59 889.24 159.47C887.26 160.35 885.866 161.45 885.06 162.77C884.253 164.053 883.85 165.722 883.85 167.775C883.85 170.158 884.345 171.937 885.335 173.11C886.325 174.247 887.883 174.815 890.01 174.815ZM927.036 184V180.15L936.386 178.005V104.415L927.036 101.5V98.86L950.851 93.635H953.161V178.005L961.906 180.15V184H927.036Z" fill="#758EAB"/>
</svg>
