<svg width="1004" height="436" viewBox="0 0 1004 436" fill="none" xmlns="http://www.w3.org/2000/svg">
<path d="M664.727 230.399C661.89 230.399 659.388 229.785 657.222 228.556C655.069 227.315 653.384 225.592 652.168 223.388C650.952 221.171 650.344 218.613 650.344 215.712C650.344 213.508 650.699 211.488 651.408 209.651C652.117 207.814 653.118 206.225 654.41 204.882C655.715 203.539 657.247 202.501 659.008 201.766C660.781 201.031 662.732 200.664 664.86 200.664C666.405 200.664 667.932 200.867 669.439 201.272C670.946 201.665 672.302 202.235 673.505 202.982H673.657L675.348 201.063H676.355V210.107H674.759C674.518 209.423 674.265 208.802 673.999 208.245C673.733 207.675 673.442 207.156 673.125 206.687C672.251 205.306 671.212 204.306 670.009 203.685C668.806 203.052 667.406 202.735 665.81 202.735C662.846 202.735 660.598 203.805 659.065 205.946C657.532 208.074 656.766 211.215 656.766 215.37C656.766 219.537 657.532 222.729 659.065 224.946C660.61 227.163 662.821 228.271 665.696 228.271C667.229 228.271 668.616 227.948 669.857 227.302C671.098 226.656 672.131 225.731 672.954 224.528C673.41 223.895 673.796 223.173 674.113 222.362C674.442 221.551 674.696 220.677 674.873 219.74H676.355V230H675.101L673.524 227.53C672.093 228.531 670.674 229.259 669.268 229.715C667.862 230.171 666.348 230.399 664.727 230.399ZM679.678 230V228.841L682.794 228.138V213.299L679.697 212.292V211.494L687.297 209.689H687.981V228.138L690.926 228.841V230H679.678ZM685.321 206.478C684.371 206.478 683.636 206.18 683.117 205.585C682.598 204.99 682.338 204.331 682.338 203.609C682.338 202.824 682.604 202.14 683.136 201.557C683.668 200.962 684.396 200.664 685.321 200.664C686.271 200.664 687.025 200.962 687.582 201.557C688.139 202.14 688.418 202.824 688.418 203.609C688.418 204.331 688.152 204.99 687.62 205.585C687.088 206.18 686.322 206.478 685.321 206.478ZM692.669 230V228.841L695.5 228.138V213.337L692.669 212.273V211.494L699.813 209.689H700.497V213.337L700.649 213.527V228.138L705.247 228.841V230H692.669ZM700.288 215.75V213.527C701.276 212.273 702.251 211.317 703.214 210.658C704.177 209.987 705.101 209.651 705.988 209.651C706.849 209.651 707.565 209.911 708.135 210.43C708.705 210.937 708.99 211.564 708.99 212.311C708.99 213.02 708.768 213.622 708.325 214.116C707.894 214.597 707.356 214.838 706.71 214.838C706.064 214.838 705.488 214.604 704.981 214.135C704.652 213.818 704.36 213.597 704.107 213.47C703.854 213.331 703.588 213.261 703.309 213.261C702.891 213.261 702.384 213.502 701.789 213.983C701.194 214.464 700.693 215.053 700.288 215.75ZM719.899 230.399C718.037 230.399 716.384 229.968 714.94 229.107C713.509 228.246 712.381 227.061 711.558 225.554C710.747 224.034 710.342 222.299 710.342 220.348C710.342 218.283 710.792 216.453 711.691 214.857C712.59 213.248 713.832 211.988 715.415 211.076C716.998 210.151 718.81 209.689 720.849 209.689C722.268 209.689 723.541 209.917 724.668 210.373C725.795 210.829 726.688 211.443 727.347 212.216C728.006 212.976 728.335 213.831 728.335 214.781C728.335 215.528 728.126 216.117 727.708 216.548C727.29 216.979 726.72 217.194 725.998 217.194C725.149 217.194 724.56 216.947 724.231 216.453C723.914 215.959 723.718 215.389 723.642 214.743C723.503 213.679 723.262 212.862 722.92 212.292C722.578 211.722 721.945 211.437 721.02 211.437C719.411 211.437 718.164 212.127 717.277 213.508C716.39 214.889 715.947 216.795 715.947 219.227C715.947 221.684 716.422 223.559 717.372 224.851C718.322 226.143 719.703 226.789 721.514 226.789C722.73 226.789 723.813 226.561 724.763 226.105C725.726 225.649 726.606 224.927 727.404 223.939L728.354 224.642C727.607 226.555 726.53 227.992 725.124 228.955C723.718 229.918 721.976 230.399 719.899 230.399ZM738.822 230.399C736.884 230.399 735.421 229.886 734.433 228.86C733.457 227.821 732.97 226.308 732.97 224.319V211.931L730.158 211.228V210.069H738.138V222.951C738.138 224.648 738.442 225.801 739.05 226.409C739.658 227.017 740.57 227.321 741.786 227.321C742.609 227.321 743.394 227.099 744.142 226.656C744.902 226.213 745.529 225.522 746.023 224.585V226.884C745.136 227.948 744.059 228.803 742.793 229.449C741.526 230.082 740.202 230.399 738.822 230.399ZM745.434 230.399V227.283L745.225 227.112V211.931L742.546 211.228V210.069H750.412V226.789L753.167 227.796V228.537L746.099 230.399H745.434ZM768.004 230V228.841L770.683 228.157V217.232C770.683 215.699 770.373 214.566 769.752 213.831C769.144 213.084 768.201 212.71 766.921 212.71C765.211 212.71 763.824 213.457 762.76 214.952V212.843C763.71 211.88 764.8 211.114 766.028 210.544C767.27 209.974 768.606 209.689 770.037 209.689C773.926 209.689 775.87 211.728 775.87 215.807V228.157L778.682 228.841V230H768.004ZM755.179 230V228.841L758.029 228.138V213.337L755.179 212.292V211.532L762.323 209.689H763.007V212.957L763.178 213.147V228.138L765.876 228.841V230H755.179ZM787.253 230.399C786.341 230.399 785.359 230.323 784.308 230.171C783.269 230.019 782.37 229.823 781.61 229.582L781.363 223.464H782.769C782.895 225.174 783.339 226.479 784.099 227.378C784.859 228.277 785.91 228.727 787.253 228.727C788.266 228.727 789.077 228.461 789.685 227.929C790.305 227.384 790.616 226.675 790.616 225.801C790.616 225.104 790.381 224.49 789.913 223.958C789.444 223.413 788.652 222.85 787.538 222.267L785.79 221.393C784.257 220.595 783.136 219.727 782.427 218.79C781.73 217.853 781.382 216.725 781.382 215.408C781.382 213.546 782.053 212.127 783.396 211.152C784.738 210.177 786.702 209.689 789.286 209.689C790.223 209.689 791.129 209.752 792.003 209.879C792.877 209.993 793.573 210.151 794.093 210.354V215.56H792.839C792.471 212.761 791.154 211.361 788.887 211.361C787.987 211.361 787.265 211.589 786.721 212.045C786.176 212.488 785.904 213.084 785.904 213.831C785.904 214.49 786.144 215.072 786.626 215.579C787.107 216.086 787.937 216.624 789.115 217.194L790.901 218.087C792.332 218.809 793.377 219.645 794.036 220.595C794.707 221.532 795.043 222.685 795.043 224.053C795.043 226.029 794.352 227.581 792.972 228.708C791.604 229.835 789.697 230.399 787.253 230.399ZM805.008 230.399C803.235 230.399 801.949 229.987 801.151 229.164C800.366 228.328 799.973 227.036 799.973 225.288V211.798H797.37L797.18 210.791L804.134 205.053L805.16 205.205V210.069H810.841L810.366 211.798H805.16V224.908C805.16 226.935 805.933 227.948 807.478 227.948C807.934 227.948 808.377 227.853 808.808 227.663C809.239 227.473 809.625 227.169 809.967 226.751L810.765 227.758C810.132 228.607 809.308 229.259 808.295 229.715C807.282 230.171 806.186 230.399 805.008 230.399ZM817.443 230.399C815.974 230.399 814.802 229.994 813.928 229.183C813.054 228.36 812.617 227.264 812.617 225.896C812.617 224.693 812.991 223.654 813.738 222.78C814.498 221.893 815.676 221.146 817.272 220.538C818.868 219.917 820.92 219.404 823.428 218.999V215.978C823.428 214.306 823.251 213.172 822.896 212.577C822.554 211.969 821.902 211.665 820.939 211.665C819.964 211.665 819.191 211.899 818.621 212.368C818.051 212.837 817.766 213.476 817.766 214.287C817.766 214.553 817.785 214.819 817.823 215.085C817.874 215.351 817.899 215.611 817.899 215.864C817.899 216.561 817.665 217.137 817.196 217.593C816.74 218.049 816.164 218.277 815.467 218.277C814.796 218.277 814.251 218.062 813.833 217.631C813.428 217.188 813.225 216.618 813.225 215.921C813.225 215.123 813.516 214.319 814.099 213.508C814.682 212.697 815.48 211.982 816.493 211.361C818.342 210.246 820.496 209.689 822.953 209.689C824.22 209.689 825.258 209.854 826.069 210.183C826.88 210.512 827.481 210.987 827.874 211.608C828.14 212.064 828.33 212.653 828.444 213.375C828.558 214.084 828.615 215.161 828.615 216.605V224.604C828.615 225.757 828.716 226.574 828.919 227.055C829.134 227.536 829.502 227.777 830.021 227.777C830.604 227.777 831.18 227.46 831.75 226.827L832.548 227.853C831.801 228.727 831.022 229.373 830.211 229.791C829.413 230.196 828.514 230.399 827.513 230.399C826.348 230.399 825.461 230.146 824.853 229.639C824.245 229.12 823.846 228.334 823.656 227.283H823.504C822.643 228.309 821.699 229.088 820.673 229.62C819.66 230.139 818.583 230.399 817.443 230.399ZM820.388 227.207C820.996 227.207 821.56 227.08 822.079 226.827C822.611 226.574 823.061 226.206 823.428 225.725V220.576C822.06 220.842 820.983 221.146 820.198 221.488C819.413 221.817 818.862 222.229 818.545 222.723C818.228 223.204 818.07 223.819 818.07 224.566C818.07 225.44 818.26 226.099 818.64 226.542C819.02 226.985 819.603 227.207 820.388 227.207ZM846.305 230V228.841L848.984 228.157V217.232C848.984 215.699 848.674 214.566 848.053 213.831C847.445 213.084 846.501 212.71 845.222 212.71C843.512 212.71 842.125 213.457 841.061 214.952V212.843C842.011 211.88 843.1 211.114 844.329 210.544C845.57 209.974 846.907 209.689 848.338 209.689C852.227 209.689 854.171 211.728 854.171 215.807V228.157L856.983 228.841V230H846.305ZM833.48 230V228.841L836.33 228.138V213.337L833.48 212.292V211.532L840.624 209.689H841.308V212.957L841.479 213.147V228.138L844.177 228.841V230H833.48ZM868.708 230.399C866.846 230.399 865.193 229.968 863.749 229.107C862.317 228.246 861.19 227.061 860.367 225.554C859.556 224.034 859.151 222.299 859.151 220.348C859.151 218.283 859.6 216.453 860.5 214.857C861.399 213.248 862.64 211.988 864.224 211.076C865.807 210.151 867.618 209.689 869.658 209.689C871.076 209.689 872.349 209.917 873.477 210.373C874.604 210.829 875.497 211.443 876.156 212.216C876.814 212.976 877.144 213.831 877.144 214.781C877.144 215.528 876.935 216.117 876.517 216.548C876.099 216.979 875.529 217.194 874.807 217.194C873.958 217.194 873.369 216.947 873.04 216.453C872.723 215.959 872.527 215.389 872.451 214.743C872.311 213.679 872.071 212.862 871.729 212.292C871.387 211.722 870.753 211.437 869.829 211.437C868.22 211.437 866.972 212.127 866.086 213.508C865.199 214.889 864.756 216.795 864.756 219.227C864.756 221.684 865.231 223.559 866.181 224.851C867.131 226.143 868.511 226.789 870.323 226.789C871.539 226.789 872.622 226.561 873.572 226.105C874.534 225.649 875.415 224.927 876.213 223.939L877.163 224.642C876.415 226.555 875.339 227.992 873.933 228.955C872.527 229.918 870.785 230.399 868.708 230.399ZM879.289 230V228.841L882.405 228.138V213.299L879.308 212.292V211.494L886.908 209.689H887.592V228.138L890.537 228.841V230H879.289ZM884.932 206.478C883.982 206.478 883.248 206.18 882.728 205.585C882.209 204.99 881.949 204.331 881.949 203.609C881.949 202.824 882.215 202.14 882.747 201.557C883.279 200.962 884.008 200.664 884.932 200.664C885.882 200.664 886.636 200.962 887.193 201.557C887.751 202.14 888.029 202.824 888.029 203.609C888.029 204.331 887.763 204.99 887.231 205.585C886.699 206.18 885.933 206.478 884.932 206.478ZM897.562 230.399C896.093 230.399 894.921 229.994 894.047 229.183C893.173 228.36 892.736 227.264 892.736 225.896C892.736 224.693 893.11 223.654 893.857 222.78C894.617 221.893 895.795 221.146 897.391 220.538C898.987 219.917 901.039 219.404 903.547 218.999V215.978C903.547 214.306 903.37 213.172 903.015 212.577C902.673 211.969 902.021 211.665 901.058 211.665C900.083 211.665 899.31 211.899 898.74 212.368C898.17 212.837 897.885 213.476 897.885 214.287C897.885 214.553 897.904 214.819 897.942 215.085C897.993 215.351 898.018 215.611 898.018 215.864C898.018 216.561 897.784 217.137 897.315 217.593C896.859 218.049 896.283 218.277 895.586 218.277C894.915 218.277 894.37 218.062 893.952 217.631C893.547 217.188 893.344 216.618 893.344 215.921C893.344 215.123 893.636 214.319 894.218 213.508C894.801 212.697 895.599 211.982 896.612 211.361C898.462 210.246 900.615 209.689 903.072 209.689C904.339 209.689 905.378 209.854 906.188 210.183C906.999 210.512 907.601 210.987 907.993 211.608C908.259 212.064 908.449 212.653 908.563 213.375C908.677 214.084 908.734 215.161 908.734 216.605V224.604C908.734 225.757 908.836 226.574 909.038 227.055C909.254 227.536 909.621 227.777 910.14 227.777C910.723 227.777 911.299 227.46 911.869 226.827L912.667 227.853C911.92 228.727 911.141 229.373 910.33 229.791C909.532 230.196 908.633 230.399 907.632 230.399C906.467 230.399 905.58 230.146 904.972 229.639C904.364 229.12 903.965 228.334 903.775 227.283H903.623C902.762 228.309 901.818 229.088 900.792 229.62C899.779 230.139 898.702 230.399 897.562 230.399ZM900.507 227.207C901.115 227.207 901.679 227.08 902.198 226.827C902.73 226.574 903.18 226.206 903.547 225.725V220.576C902.179 220.842 901.103 221.146 900.317 221.488C899.532 221.817 898.981 222.229 898.664 222.723C898.348 223.204 898.189 223.819 898.189 224.566C898.189 225.44 898.379 226.099 898.759 226.542C899.139 226.985 899.722 227.207 900.507 227.207ZM922.377 230.399C920.819 230.399 919.407 229.962 918.14 229.088C916.873 228.214 915.873 227.023 915.138 225.516C914.403 223.996 914.036 222.28 914.036 220.367C914.036 218.264 914.467 216.415 915.328 214.819C916.189 213.21 917.38 211.956 918.9 211.057C920.433 210.145 922.2 209.689 924.201 209.689C925.632 209.689 927.057 209.968 928.476 210.525V202.45L925.398 201.386V200.626L932.941 198.783H933.644V226.542L936.494 227.359V228.024L929.312 230.399H928.761V227.815L928.571 227.739C927.798 228.6 926.88 229.259 925.816 229.715C924.752 230.171 923.606 230.399 922.377 230.399ZM924.543 227.758C925.354 227.758 926.101 227.574 926.785 227.207C927.469 226.84 928.033 226.339 928.476 225.706V215.978C928.476 214.597 928.134 213.502 927.45 212.691C926.779 211.868 925.86 211.456 924.695 211.456C923.213 211.456 922.016 212.216 921.104 213.736C920.192 215.256 919.736 217.257 919.736 219.74C919.736 222.197 920.16 224.148 921.009 225.592C921.858 227.036 923.036 227.758 924.543 227.758ZM949.071 230.399C946.892 230.399 945.017 229.937 943.447 229.012C941.876 228.087 940.673 226.84 939.837 225.269C939.001 223.698 938.583 221.957 938.583 220.044C938.583 218.119 939.001 216.377 939.837 214.819C940.673 213.248 941.876 212.001 943.447 211.076C945.017 210.151 946.892 209.689 949.071 209.689C951.249 209.689 953.118 210.151 954.676 211.076C956.246 212.001 957.45 213.248 958.286 214.819C959.134 216.377 959.559 218.119 959.559 220.044C959.559 221.957 959.134 223.698 958.286 225.269C957.45 226.84 956.246 228.087 954.676 229.012C953.118 229.937 951.249 230.399 949.071 230.399ZM949.071 228.518C949.983 228.518 950.749 228.271 951.37 227.777C951.99 227.283 952.484 226.624 952.852 225.801C953.219 224.965 953.485 224.047 953.65 223.046C953.814 222.045 953.897 221.038 953.897 220.025C953.897 219.024 953.814 218.024 953.65 217.023C953.498 216.022 953.238 215.11 952.871 214.287C952.503 213.464 952.009 212.805 951.389 212.311C950.768 211.817 949.995 211.57 949.071 211.57C948.146 211.57 947.373 211.817 946.753 212.311C946.132 212.805 945.638 213.464 945.271 214.287C944.903 215.11 944.637 216.029 944.473 217.042C944.321 218.043 944.245 219.043 944.245 220.044C944.245 221.057 944.321 222.064 944.473 223.065C944.637 224.053 944.903 224.965 945.271 225.801C945.638 226.624 946.132 227.283 946.753 227.777C947.373 228.271 948.146 228.518 949.071 228.518Z" fill="#FFBABA"/>
<path d="M322.7 255.672C317.9 255.672 313.676 254.648 310.028 252.6C306.401 250.552 303.575 247.704 301.548 244.056C299.543 240.387 298.54 236.141 298.54 231.32C298.54 227.565 299.148 224.12 300.364 220.984C301.58 217.848 303.297 215.128 305.516 212.824C307.756 210.52 310.391 208.739 313.42 207.48C316.471 206.221 319.82 205.592 323.468 205.592C326.177 205.592 328.716 205.944 331.084 206.648C333.473 207.331 335.425 208.28 336.94 209.496H337.164L340.14 206.264H341.996V221.496H339.564C338.135 218.445 336.695 216.024 335.244 214.232C333.793 212.44 332.204 211.149 330.476 210.36C328.769 209.549 326.785 209.144 324.524 209.144C319.532 209.144 315.777 210.979 313.26 214.648C310.764 218.317 309.516 223.811 309.516 231.128C309.516 238.381 310.615 243.715 312.812 247.128C315.031 250.52 318.433 252.216 323.02 252.216C324.919 252.216 326.625 251.885 328.14 251.224C329.655 250.563 330.796 249.645 331.564 248.472C331.841 248.088 332.012 247.672 332.076 247.224C332.161 246.776 332.204 246.051 332.204 245.048V233.848L326.508 232.632V230.584H347.5V232.632L341.868 233.848V249.848C340.588 250.957 338.892 251.949 336.78 252.824C334.689 253.699 332.407 254.392 329.932 254.904C327.479 255.416 325.068 255.672 322.7 255.672ZM364.493 255.672C361.229 255.672 358.765 254.808 357.101 253.08C355.458 251.331 354.637 248.781 354.637 245.432V224.568L349.901 223.384V221.432H363.341V243.128C363.341 245.987 363.853 247.928 364.877 248.952C365.901 249.976 367.437 250.488 369.485 250.488C370.871 250.488 372.194 250.115 373.453 249.368C374.733 248.621 375.789 247.459 376.621 245.88V249.752C375.127 251.544 373.314 252.984 371.181 254.072C369.047 255.139 366.818 255.672 364.493 255.672ZM375.629 255.672V250.424L375.277 250.136V224.568L370.765 223.384V221.432H384.013V249.592L388.653 251.288V252.536L376.749 255.672H375.629ZM391.882 255V253.048L397.13 251.864V226.872L391.914 225.176V223.832L404.714 220.792H405.866V251.864L410.826 253.048V255H391.882ZM401.386 215.384C399.786 215.384 398.549 214.883 397.674 213.88C396.799 212.877 396.362 211.768 396.362 210.552C396.362 209.229 396.81 208.077 397.706 207.096C398.602 206.093 399.829 205.592 401.386 205.592C402.986 205.592 404.255 206.093 405.194 207.096C406.133 208.077 406.602 209.229 406.602 210.552C406.602 211.768 406.154 212.877 405.258 213.88C404.362 214.883 403.071 215.384 401.386 215.384ZM413.122 255V253.048L418.37 251.864V208.504L413.122 206.808V205.464L425.922 202.424H427.042V251.864L432.034 253.048V255H413.122ZM434.561 255V253.048L439.329 251.864V208.568L434.593 206.808V205.496L446.913 202.424H448.065V251.864L452.577 253.048V255H434.561ZM456.705 255V253.048L461.217 251.896V233.496C461.217 230.915 460.694 229.005 459.649 227.768C458.625 226.509 457.035 225.88 454.881 225.88C453.473 225.88 452.139 226.179 450.881 226.776C449.643 227.373 448.47 228.195 447.361 229.24V225.72C449.11 224.248 451.105 223.064 453.345 222.168C455.585 221.251 457.846 220.792 460.129 220.792C466.678 220.792 469.953 224.227 469.953 231.096V251.896L474.689 253.048V255H456.705ZM495.139 255.672C491.768 255.672 488.824 254.968 486.307 253.56C483.79 252.131 481.827 250.147 480.419 247.608C479.032 245.048 478.339 242.093 478.339 238.744C478.339 235.181 479.107 232.056 480.643 229.368C482.2 226.68 484.355 224.579 487.107 223.064C489.88 221.549 493.091 220.792 496.739 220.792C501.368 220.792 504.899 222.072 507.331 224.632C509.784 227.192 511.075 230.957 511.203 235.928L510.723 236.312H484.035V233.784L501.763 233.144C501.912 232.653 501.987 231.843 501.987 230.712C501.987 226.019 499.992 223.672 496.003 223.672C493.336 223.672 491.278 224.792 489.827 227.032C488.398 229.251 487.683 232.408 487.683 236.504C487.683 245.272 491.086 249.656 497.891 249.656C502.499 249.656 506.094 248.056 508.675 244.856L510.243 246.104C509.112 249.133 507.214 251.491 504.547 253.176C501.902 254.84 498.766 255.672 495.139 255.672ZM515.137 255V253.048L519.905 251.864V226.936L515.137 225.144V223.832L527.169 220.792H528.321V226.936L528.577 227.256V251.864L536.321 253.048V255H515.137ZM527.969 231V227.256C529.633 225.144 531.275 223.533 532.897 222.424C534.518 221.293 536.075 220.728 537.569 220.728C539.019 220.728 540.225 221.165 541.185 222.04C542.145 222.893 542.625 223.949 542.625 225.208C542.625 226.403 542.251 227.416 541.505 228.248C540.779 229.059 539.873 229.464 538.785 229.464C537.697 229.464 536.726 229.069 535.873 228.28C535.318 227.747 534.827 227.373 534.401 227.16C533.974 226.925 533.526 226.808 533.057 226.808C532.353 226.808 531.499 227.213 530.497 228.024C529.494 228.835 528.651 229.827 527.969 231ZM544.948 255V253.048L549.684 251.864V226.936L545.044 225.176V223.896L556.18 220.792H558.164V225.592L558.42 225.912V251.864L562.964 253.048V255H544.948ZM565.812 255V253.048L570.356 251.896V234.296C570.356 231.245 569.897 229.059 568.98 227.736C568.062 226.413 566.558 225.752 564.468 225.752C562.889 225.752 561.492 226.115 560.276 226.84C559.081 227.544 558.014 228.589 557.076 229.976V226.36C558.676 224.653 560.617 223.299 562.9 222.296C565.182 221.293 567.465 220.792 569.748 220.792C572.926 220.792 575.273 221.688 576.788 223.48C578.302 225.272 579.06 228.077 579.06 231.896V251.896L583.604 253.048V255H565.812ZM586.484 255V253.048L590.996 251.896V234.232C590.996 231.16 590.569 228.995 589.716 227.736C588.862 226.456 587.39 225.816 585.3 225.816C583.721 225.816 582.302 226.168 581.044 226.872C579.806 227.555 578.697 228.6 577.715 230.008V226.36C579.252 224.632 581.172 223.277 583.476 222.296C585.801 221.293 588.148 220.792 590.516 220.792C593.652 220.792 595.956 221.699 597.428 223.512C598.9 225.304 599.657 228.131 599.7 231.992V251.896L604.244 253.048V255H586.484ZM624.827 255.672C621.456 255.672 618.512 254.968 615.995 253.56C613.477 252.131 611.515 250.147 610.107 247.608C608.72 245.048 608.027 242.093 608.027 238.744C608.027 235.181 608.795 232.056 610.331 229.368C611.888 226.68 614.043 224.579 616.795 223.064C619.568 221.549 622.779 220.792 626.427 220.792C631.056 220.792 634.587 222.072 637.019 224.632C639.472 227.192 640.763 230.957 640.891 235.928L640.411 236.312H613.723V233.784L631.451 233.144C631.6 232.653 631.675 231.843 631.675 230.712C631.675 226.019 629.68 223.672 625.691 223.672C623.024 223.672 620.965 224.792 619.515 227.032C618.085 229.251 617.371 232.408 617.371 236.504C617.371 245.272 620.773 249.656 627.579 249.656C632.187 249.656 635.781 248.056 638.363 244.856L639.931 246.104C638.8 249.133 636.901 251.491 634.235 253.176C631.589 254.84 628.453 255.672 624.827 255.672Z" fill="#5D6F84"/>
<path d="M651.951 311V308.27L659.049 306.506V251.444L651.951 249.722V247.034H680.511C684.879 247.034 688.729 247.734 692.061 249.134C695.393 250.506 697.997 252.55 699.873 255.266C701.749 257.954 702.687 261.272 702.687 265.22C702.687 269.28 701.609 272.668 699.453 275.384C697.325 278.072 694.315 280.032 690.423 281.264L706.929 306.632L715.035 308.27V311H693.699L676.395 282.776H671.733V306.506L681.183 308.27V311H651.951ZM671.733 278.66H674.127C677.263 278.66 679.769 278.254 681.645 277.442C683.549 276.63 685.089 275.538 686.265 274.166C687.497 272.794 688.365 271.268 688.869 269.588C689.373 267.88 689.625 266.144 689.625 264.38C689.625 261.272 688.953 258.696 687.609 256.652C686.265 254.58 684.487 253.096 682.275 252.2C681.323 251.808 680.287 251.542 679.167 251.402C678.047 251.234 676.619 251.15 674.883 251.15H671.733V278.66ZM725.941 311.882C722.693 311.882 720.103 310.986 718.171 309.194C716.239 307.374 715.273 304.952 715.273 301.928C715.273 299.268 716.099 296.972 717.751 295.04C719.431 293.08 722.035 291.428 725.563 290.084C729.091 288.712 733.627 287.578 739.171 286.682V280.004C739.171 276.308 738.779 273.802 737.995 272.486C737.239 271.142 735.797 270.47 733.669 270.47C731.513 270.47 729.805 270.988 728.545 272.024C727.285 273.06 726.655 274.474 726.655 276.266C726.655 276.854 726.697 277.442 726.781 278.03C726.893 278.618 726.949 279.192 726.949 279.752C726.949 281.292 726.431 282.566 725.395 283.574C724.387 284.582 723.113 285.086 721.573 285.086C720.089 285.086 718.885 284.61 717.961 283.658C717.065 282.678 716.617 281.418 716.617 279.878C716.617 278.114 717.261 276.336 718.549 274.544C719.837 272.752 721.601 271.17 723.841 269.798C727.929 267.334 732.689 266.102 738.121 266.102C740.921 266.102 743.217 266.466 745.009 267.194C746.801 267.922 748.131 268.972 748.999 270.344C749.587 271.352 750.007 272.654 750.259 274.25C750.511 275.818 750.637 278.198 750.637 281.39V299.072C750.637 301.62 750.861 303.426 751.309 304.49C751.785 305.554 752.597 306.086 753.745 306.086C755.033 306.086 756.307 305.386 757.567 303.986L759.331 306.254C757.679 308.186 755.957 309.614 754.165 310.538C752.401 311.434 750.413 311.882 748.201 311.882C745.625 311.882 743.665 311.322 742.321 310.202C740.977 309.054 740.095 307.318 739.675 304.994H739.339C737.435 307.262 735.349 308.984 733.081 310.16C730.841 311.308 728.461 311.882 725.941 311.882ZM732.451 304.826C733.795 304.826 735.041 304.546 736.189 303.986C737.365 303.426 738.359 302.614 739.171 301.55V290.168C736.147 290.756 733.767 291.428 732.031 292.184C730.295 292.912 729.077 293.822 728.377 294.914C727.677 295.978 727.327 297.336 727.327 298.988C727.327 300.92 727.747 302.376 728.587 303.356C729.427 304.336 730.715 304.826 732.451 304.826ZM789.741 311V308.438L795.663 306.926V282.776C795.663 279.388 794.977 276.882 793.605 275.258C792.261 273.606 790.175 272.78 787.347 272.78C783.567 272.78 780.501 274.432 778.149 277.736V273.074C780.249 270.946 782.657 269.252 785.373 267.992C788.117 266.732 791.071 266.102 794.235 266.102C802.831 266.102 807.129 270.61 807.129 279.626V306.926L813.345 308.438V311H789.741ZM761.391 311V308.438L767.691 306.884V274.166L761.391 271.856V270.176L777.183 266.102H778.695V273.326L779.073 273.746V306.884L785.037 308.438V311H761.391ZM841.278 311.882C836.462 311.882 832.318 310.86 828.846 308.816C825.374 306.772 822.714 304.014 820.866 300.542C819.018 297.07 818.094 293.22 818.094 288.992C818.094 284.736 819.018 280.886 820.866 277.442C822.714 273.97 825.374 271.212 828.846 269.168C832.318 267.124 836.462 266.102 841.278 266.102C846.094 266.102 850.224 267.124 853.668 269.168C857.14 271.212 859.8 273.97 861.648 277.442C863.524 280.886 864.462 284.736 864.462 288.992C864.462 293.22 863.524 297.07 861.648 300.542C859.8 304.014 857.14 306.772 853.668 308.816C850.224 310.86 846.094 311.882 841.278 311.882ZM841.278 307.724C843.294 307.724 844.988 307.178 846.36 306.086C847.732 304.994 848.824 303.538 849.636 301.718C850.448 299.87 851.036 297.84 851.4 295.628C851.764 293.416 851.946 291.19 851.946 288.95C851.946 286.738 851.764 284.526 851.4 282.314C851.064 280.102 850.49 278.086 849.678 276.266C848.866 274.446 847.774 272.99 846.402 271.898C845.03 270.806 843.322 270.26 841.278 270.26C839.234 270.26 837.526 270.806 836.154 271.898C834.782 272.99 833.69 274.446 832.878 276.266C832.066 278.086 831.478 280.116 831.114 282.356C830.778 284.568 830.61 286.78 830.61 288.992C830.61 291.232 830.778 293.458 831.114 295.67C831.478 297.854 832.066 299.87 832.878 301.718C833.69 303.538 834.782 304.994 836.154 306.086C837.526 307.178 839.234 307.724 841.278 307.724ZM876.726 332.63C874.206 332.63 872.078 332.056 870.342 330.908C868.606 329.76 867.738 328.094 867.738 325.91C867.738 324.398 868.242 323.18 869.25 322.256C870.258 321.36 871.49 320.912 872.946 320.912C874.122 320.912 875.144 321.248 876.012 321.92C876.88 322.592 877.496 323.642 877.86 325.07C878.168 326.302 878.476 327.1 878.784 327.464C879.12 327.856 879.638 328.052 880.338 328.052C881.29 328.052 882.214 327.548 883.11 326.54C884.034 325.532 884.832 324.062 885.504 322.13L888.822 312.848L871.518 272.822C871.042 271.786 870.328 271.016 869.376 270.512C868.452 270.008 867.01 269.672 865.05 269.504V266.942H890.292V269.504C888.472 269.616 887.114 269.812 886.218 270.092C885.322 270.372 884.79 270.792 884.622 271.352C884.454 271.884 884.552 272.64 884.916 273.62L894.744 297.434H895.122L903.354 276.056C904.25 273.872 904.236 272.276 903.312 271.268C902.388 270.232 900.442 269.644 897.474 269.504V266.942H917.088V269.504C915.016 269.868 913.42 270.288 912.3 270.764C911.208 271.24 910.354 271.898 909.738 272.738C909.122 273.55 908.52 274.684 907.932 276.14L889.62 322.718C888.892 324.51 888.108 326.022 887.268 327.254C886.456 328.486 885.574 329.48 884.622 330.236C882.662 331.832 880.03 332.63 876.726 332.63ZM927.902 311.882C924.654 311.882 922.064 310.986 920.132 309.194C918.2 307.374 917.234 304.952 917.234 301.928C917.234 299.268 918.06 296.972 919.712 295.04C921.392 293.08 923.996 291.428 927.524 290.084C931.052 288.712 935.588 287.578 941.132 286.682V280.004C941.132 276.308 940.74 273.802 939.956 272.486C939.2 271.142 937.758 270.47 935.63 270.47C933.474 270.47 931.766 270.988 930.506 272.024C929.246 273.06 928.616 274.474 928.616 276.266C928.616 276.854 928.658 277.442 928.742 278.03C928.854 278.618 928.91 279.192 928.91 279.752C928.91 281.292 928.392 282.566 927.356 283.574C926.348 284.582 925.074 285.086 923.534 285.086C922.05 285.086 920.846 284.61 919.922 283.658C919.026 282.678 918.578 281.418 918.578 279.878C918.578 278.114 919.222 276.336 920.51 274.544C921.798 272.752 923.562 271.17 925.802 269.798C929.89 267.334 934.65 266.102 940.082 266.102C942.882 266.102 945.178 266.466 946.97 267.194C948.762 267.922 950.092 268.972 950.96 270.344C951.548 271.352 951.968 272.654 952.22 274.25C952.472 275.818 952.598 278.198 952.598 281.39V299.072C952.598 301.62 952.822 303.426 953.27 304.49C953.746 305.554 954.558 306.086 955.706 306.086C956.994 306.086 958.268 305.386 959.528 303.986L961.292 306.254C959.64 308.186 957.918 309.614 956.126 310.538C954.362 311.434 952.374 311.882 950.162 311.882C947.586 311.882 945.626 311.322 944.282 310.202C942.938 309.054 942.056 307.318 941.636 304.994H941.3C939.396 307.262 937.31 308.984 935.042 310.16C932.802 311.308 930.422 311.882 927.902 311.882ZM934.412 304.826C935.756 304.826 937.002 304.546 938.15 303.986C939.326 303.426 940.32 302.614 941.132 301.55V290.168C938.108 290.756 935.728 291.428 933.992 292.184C932.256 292.912 931.038 293.822 930.338 294.914C929.638 295.978 929.288 297.336 929.288 298.988C929.288 300.92 929.708 302.376 930.548 303.356C931.388 304.336 932.676 304.826 934.412 304.826Z" fill="#5D6F84"/>
<path d="M455.689 186.166L425.886 116.79H425.442V178.784L435.099 180.948V185H408.07V180.948L417.838 178.784V106.523L408.126 104.469V100.473H441.481L464.292 157.083H464.958L488.767 100.473H517.017V104.469L507.859 106.634V178.617L517.017 180.948V185H479.61V180.948L488.934 178.617V119.732H488.49L460.906 186.166H455.689ZM553.265 186.166C547.197 186.166 541.888 184.945 537.337 182.502C532.823 180.023 529.308 176.582 526.792 172.179C524.313 167.739 523.073 162.615 523.073 156.806C523.073 150.627 524.461 145.206 527.236 140.544C530.011 135.882 533.859 132.238 538.78 129.611C543.738 126.984 549.473 125.67 555.985 125.67C564.384 125.67 570.766 127.946 575.132 132.497C579.535 137.011 581.866 143.671 582.125 152.477L581.293 153.198H533.341V148.203L563.921 147.093C564.217 146.316 564.365 144.929 564.365 142.931C564.365 135.161 561.109 131.276 554.597 131.276C550.342 131.276 547.068 133.126 544.774 136.826C542.517 140.526 541.388 145.78 541.388 152.588C541.388 167.388 547.105 174.788 558.538 174.788C566.456 174.788 572.69 172.087 577.241 166.685L580.294 169.293C578.333 174.621 574.966 178.765 570.193 181.725C565.457 184.685 559.814 186.166 553.265 186.166ZM588.359 185V181.115L596.573 178.95V136.659L588.525 133.551V131.054L608.727 125.67H613.223V133.385L613.611 133.94V178.95L621.326 181.115V185H588.359ZM625.1 185V181.115L632.814 178.95V150.09C632.814 144.799 632.037 141.025 630.483 138.768C628.929 136.474 626.339 135.327 622.713 135.327C620.012 135.327 617.718 135.919 615.831 137.103C613.981 138.25 612.298 139.971 610.781 142.265V135.161C613.371 132.312 616.701 130.018 620.771 128.279C624.841 126.54 628.948 125.67 633.092 125.67C638.827 125.67 643.045 127.335 645.746 130.665C648.484 133.995 649.853 139.231 649.853 146.372V178.95L657.567 181.115V185H625.1ZM661.397 185V181.115L669.056 178.95V150.09C669.056 144.725 668.334 140.951 666.891 138.768C665.448 136.585 662.951 135.494 659.399 135.494C656.772 135.494 654.441 136.049 652.406 137.159C650.408 138.269 648.613 140.008 647.022 142.376V135.161C649.575 132.312 652.905 130.018 657.012 128.279C661.119 126.54 665.263 125.67 669.444 125.67C675.105 125.67 679.286 127.335 681.987 130.665C684.688 133.995 686.039 139.231 686.039 146.372V178.95L693.753 181.115V185H661.397ZM731.445 186.166C724.748 186.166 719.05 184.797 714.351 182.058C709.689 179.32 706.137 175.657 703.695 171.069C701.29 166.481 700.088 161.431 700.088 155.918C700.088 150.368 701.29 145.317 703.695 140.766C706.137 136.178 709.689 132.515 714.351 129.777C719.05 127.039 724.748 125.67 731.445 125.67C738.142 125.67 743.803 127.039 748.428 129.777C753.09 132.515 756.642 136.178 759.084 140.766C761.526 145.317 762.747 150.368 762.747 155.918C762.747 161.431 761.526 166.481 759.084 171.069C756.642 175.657 753.09 179.32 748.428 182.058C743.803 184.797 738.142 186.166 731.445 186.166ZM731.445 180.504C734.109 180.504 736.274 179.727 737.939 178.173C739.641 176.582 740.936 174.529 741.824 172.013C742.749 169.497 743.378 166.833 743.711 164.021C744.081 161.172 744.266 158.471 744.266 155.918C744.266 153.402 744.099 150.719 743.766 147.87C743.433 145.021 742.804 142.357 741.879 139.878C740.991 137.362 739.696 135.327 737.994 133.773C736.329 132.182 734.146 131.387 731.445 131.387C728.744 131.387 726.543 132.182 724.841 133.773C723.139 135.327 721.825 137.362 720.9 139.878C720.012 142.357 719.402 145.021 719.069 147.87C718.736 150.719 718.569 153.402 718.569 155.918C718.569 158.471 718.736 161.172 719.069 164.021C719.402 166.833 720.012 169.497 720.9 172.013C721.825 174.529 723.139 176.582 724.841 178.173C726.543 179.727 728.744 180.504 731.445 180.504ZM769.712 185V181.115L777.981 178.95V136.659L769.601 133.551V130.943L792.078 125.67H794.465V135.716L794.909 136.215V178.95L809.339 181.115V185H769.712ZM793.688 143.708L793.854 136.215C796.777 132.774 799.663 130.147 802.512 128.334C805.398 126.484 808.192 125.559 810.893 125.559C813.631 125.559 815.906 126.336 817.719 127.89C819.532 129.444 820.439 131.368 820.439 133.662C820.439 135.882 819.773 137.751 818.441 139.268C817.146 140.748 815.536 141.488 813.612 141.488C811.688 141.488 809.875 140.803 808.173 139.434C807.1 138.509 806.138 137.843 805.287 137.436C804.473 136.992 803.604 136.77 802.679 136.77C801.384 136.77 799.83 137.473 798.017 138.879C796.241 140.248 794.798 141.858 793.688 143.708ZM823.631 185V181.115L833.01 178.95V136.548L823.631 133.551V130.943L847.718 125.67H850.049V178.95L858.818 181.115V185H823.631ZM841.335 117.456C838.301 117.456 835.97 116.513 834.342 114.626C832.714 112.739 831.9 110.685 831.9 108.465C831.9 106.06 832.733 103.933 834.398 102.083C836.1 100.233 838.412 99.308 841.335 99.308C844.332 99.308 846.7 100.233 848.439 102.083C850.215 103.933 851.103 106.06 851.103 108.465C851.103 110.685 850.271 112.739 848.606 114.626C846.978 116.513 844.554 117.456 841.335 117.456ZM879.236 186.166C874.759 186.166 871.225 185 868.635 182.669C866.045 180.338 864.75 177.156 864.75 173.123C864.75 169.46 865.897 166.296 868.191 163.632C870.485 160.968 874 158.748 878.736 156.973C883.509 155.159 889.577 153.735 896.94 152.699V144.651C896.94 139.693 896.478 136.363 895.553 134.661C894.665 132.959 892.889 132.108 890.225 132.108C887.487 132.108 885.322 132.774 883.731 134.106C882.14 135.401 881.345 137.196 881.345 139.49C881.345 140.304 881.419 141.136 881.567 141.987C881.715 142.801 881.789 143.597 881.789 144.374C881.789 146.483 881.049 148.24 879.569 149.646C878.126 151.015 876.331 151.7 874.185 151.7C872.039 151.7 870.3 151.015 868.968 149.646C867.636 148.24 866.97 146.427 866.97 144.207C866.97 141.913 867.729 139.619 869.246 137.325C870.763 135.031 872.89 132.978 875.628 131.165C881.4 127.502 888.338 125.67 896.441 125.67C900.4 125.67 903.582 126.151 905.987 127.113C908.429 128.038 910.26 129.389 911.481 131.165C912.332 132.534 912.961 134.31 913.368 136.493C913.775 138.676 913.979 141.802 913.979 145.872V168.516C913.979 171.772 914.293 174.14 914.922 175.62C915.551 177.063 916.606 177.785 918.086 177.785C919.751 177.785 921.397 176.915 923.025 175.176L925.523 178.728C923.155 181.244 920.676 183.113 918.086 184.334C915.496 185.555 912.628 186.166 909.483 186.166C905.894 186.166 903.175 185.444 901.325 184.001C899.475 182.558 898.272 180.375 897.717 177.452H897.273C894.535 180.412 891.686 182.613 888.726 184.056C885.766 185.463 882.603 186.166 879.236 186.166ZM889.337 175.731C890.854 175.731 892.26 175.472 893.555 174.954C894.85 174.436 895.978 173.659 896.94 172.623V157.86C893.388 158.563 890.595 159.359 888.56 160.247C886.562 161.135 885.156 162.245 884.342 163.577C883.528 164.872 883.121 166.555 883.121 168.627C883.121 171.032 883.62 172.827 884.619 174.011C885.618 175.158 887.191 175.731 889.337 175.731ZM926.7 185V181.115L936.135 178.95V104.691L926.7 101.75V99.086L950.731 93.8135H953.062V178.95L961.887 181.115V185H926.7Z" fill="#FFB5B5"/>
</svg>
