<svg width="3745" height="1780" viewBox="0 0 3745 1780" fill="none" xmlns="http://www.w3.org/2000/svg">
<path d="M2840.96 841.24C2835.27 841.24 2829.81 840.307 2824.58 838.44C2819.35 836.48 2814.69 833.54 2810.58 829.62C2806.47 825.7 2803.25 820.707 2800.92 814.64C2798.59 808.573 2797.42 801.387 2797.42 793.08C2797.42 784.773 2798.63 777.587 2801.06 771.52C2803.58 765.36 2806.94 760.32 2811.14 756.4C2815.34 752.48 2820.01 749.587 2825.14 747.72C2830.27 745.76 2835.55 744.78 2840.96 744.78C2844.97 744.78 2848.89 745.2 2852.72 746.04C2856.64 746.88 2860.28 748.327 2863.64 750.38L2865.18 772.78H2862.1L2850.9 748.56L2859.3 751.36L2859.86 754.3C2856.87 752.06 2853.84 750.52 2850.76 749.68C2847.68 748.84 2844.83 748.42 2842.22 748.42C2838.02 748.42 2834.05 750.007 2830.32 753.18C2826.68 756.26 2823.74 761.113 2821.5 767.74C2819.26 774.273 2818.14 782.767 2818.14 793.22C2818.14 803.673 2819.21 812.167 2821.36 818.7C2823.6 825.233 2826.54 830.04 2830.18 833.12C2833.82 836.107 2837.83 837.6 2842.22 837.6C2844.93 837.6 2847.82 837.18 2850.9 836.34C2854.07 835.407 2857.11 833.82 2860 831.58L2859.58 834.66L2851.32 837.32L2862.38 811.84H2865.46L2864.06 835.64C2860.79 837.507 2857.15 838.907 2853.14 839.84C2849.13 840.773 2845.07 841.24 2840.96 841.24ZM2909.87 841.1C2903.15 841.1 2897.36 839.7 2892.51 836.9C2887.75 834.007 2884.06 830.04 2881.45 825C2878.93 819.867 2877.67 813.893 2877.67 807.08C2877.67 800.267 2879.02 794.293 2881.73 789.16C2884.53 784.027 2888.35 780.06 2893.21 777.26C2898.06 774.367 2903.61 772.92 2909.87 772.92C2916.77 772.92 2922.61 774.32 2927.37 777.12C2932.13 779.92 2935.77 783.887 2938.29 789.02C2940.9 794.06 2942.21 800.033 2942.21 806.94C2942.21 813.66 2940.81 819.587 2938.01 824.72C2935.21 829.853 2931.38 833.867 2926.53 836.76C2921.67 839.653 2916.12 841.1 2909.87 841.1ZM2909.87 837.46C2912.48 837.46 2914.67 836.527 2916.45 834.66C2918.31 832.7 2919.71 829.527 2920.65 825.14C2921.58 820.66 2922.05 814.593 2922.05 806.94C2922.05 799.1 2921.58 792.987 2920.65 788.6C2919.71 784.213 2918.31 781.087 2916.45 779.22C2914.67 777.353 2912.48 776.42 2909.87 776.42C2907.35 776.42 2905.15 777.4 2903.29 779.36C2901.51 781.227 2900.11 784.4 2899.09 788.88C2898.15 793.267 2897.69 799.333 2897.69 807.08C2897.69 814.733 2898.15 820.8 2899.09 825.28C2900.11 829.667 2901.51 832.793 2903.29 834.66C2905.15 836.527 2907.35 837.46 2909.87 837.46ZM2977.22 841.1C2972.46 841.1 2968.26 839.887 2964.62 837.46C2961.07 834.94 2958.27 831.3 2956.22 826.54C2954.16 821.687 2953.14 815.807 2953.14 808.9C2953.14 801.433 2954.3 795.04 2956.64 789.72C2958.97 784.307 2962.1 780.153 2966.02 777.26C2970.03 774.367 2974.6 772.92 2979.74 772.92C2982.35 772.92 2984.73 773.433 2986.88 774.46C2989.12 775.393 2991.17 776.933 2993.04 779.08C2994.9 781.227 2996.58 784.027 2998.08 787.48H2999.76L2998.08 789.86C2995.84 787.153 2993.88 785.24 2992.2 784.12C2990.52 782.907 2988.37 782.3 2985.76 782.3C2983.42 782.3 2981.23 783.14 2979.18 784.82C2977.22 786.5 2975.63 789.207 2974.42 792.94C2973.3 796.673 2972.74 801.62 2972.74 807.78C2972.74 813.753 2973.25 818.467 2974.28 821.92C2975.4 825.373 2976.94 827.847 2978.9 829.34C2980.95 830.833 2983.24 831.58 2985.76 831.58C2988.18 831.58 2990.38 830.787 2992.34 829.2C2994.3 827.52 2996.12 825.467 2997.8 823.04L2998.78 825.98H2997.52C2996.12 829.06 2994.44 831.767 2992.48 834.1C2990.52 836.34 2988.28 838.067 2985.76 839.28C2983.24 840.493 2980.39 841.1 2977.22 841.1ZM2995.56 840.82V828.36V827.8V785.94L2995.84 784.4V748.14L2987.58 745.9V743.38L3012.92 736.66L3014.74 738.2L3014.18 766.9V834.8L3021.46 835.92V839L2995.56 840.82ZM3058.98 841.1C3053.29 841.1 3048.11 839.84 3043.44 837.32C3038.87 834.707 3035.18 830.927 3032.38 825.98C3029.68 821.033 3028.32 815.013 3028.32 807.92C3028.32 800.267 3029.77 793.873 3032.66 788.74C3035.56 783.513 3039.34 779.593 3044 776.98C3048.67 774.273 3053.62 772.92 3058.84 772.92C3064.16 772.92 3068.74 773.993 3072.56 776.14C3076.48 778.287 3079.47 781.273 3081.52 785.1C3083.58 788.833 3084.6 793.127 3084.6 797.98C3084.6 799.38 3084.56 800.5 3084.46 801.34C3084.37 802.18 3084.18 803.207 3083.9 804.42H3035.74V800.92H3058C3061.83 800.92 3064.49 800.267 3065.98 798.96C3067.48 797.56 3068.22 794.947 3068.22 791.12C3068.22 787.573 3067.85 784.773 3067.1 782.72C3066.36 780.573 3065.28 779.033 3063.88 778.1C3062.58 777.073 3060.99 776.56 3059.12 776.56C3057.07 776.56 3055.16 777.447 3053.38 779.22C3051.7 780.9 3050.35 783.793 3049.32 787.9C3048.39 791.913 3047.92 797.467 3047.92 804.56C3047.92 810.16 3048.76 814.92 3050.44 818.84C3052.12 822.76 3054.41 825.747 3057.3 827.8C3060.2 829.76 3063.51 830.74 3067.24 830.74C3070.42 830.74 3073.22 830.133 3075.64 828.92C3078.16 827.613 3080.36 825.933 3082.22 823.88L3084.32 825.56C3082.64 829.2 3080.5 832.187 3077.88 834.52C3075.27 836.76 3072.38 838.393 3069.2 839.42C3066.03 840.54 3062.62 841.1 3058.98 841.1ZM3134.09 839V835.92L3149.49 833.96H3160.27L3175.67 835.92V839H3134.09ZM3144.45 839C3144.64 835.36 3144.78 831.067 3144.87 826.12C3144.96 821.173 3145.01 816.04 3145.01 810.72C3145.1 805.4 3145.15 800.36 3145.15 795.6V789.44C3145.15 784.68 3145.1 779.733 3145.01 774.6C3145.01 769.467 3144.96 764.52 3144.87 759.76C3144.78 754.907 3144.64 750.66 3144.45 747.02H3165.31C3165.12 750.66 3164.98 754.907 3164.89 759.76C3164.8 764.52 3164.75 769.467 3164.75 774.6C3164.75 779.733 3164.75 784.68 3164.75 789.44V795.6C3164.75 800.36 3164.75 805.4 3164.75 810.72C3164.75 816.04 3164.8 821.173 3164.89 826.12C3164.98 831.067 3165.12 835.36 3165.31 839H3144.45ZM3117.15 774.04L3118.83 747.02H3191.07L3192.75 774.04H3189.67L3178.89 748.7L3184.07 750.8H3125.83L3130.87 748.7L3120.09 774.04H3117.15ZM3224.05 841.1C3217.33 841.1 3211.54 839.7 3206.69 836.9C3201.93 834.007 3198.24 830.04 3195.63 825C3193.11 819.867 3191.85 813.893 3191.85 807.08C3191.85 800.267 3193.2 794.293 3195.91 789.16C3198.71 784.027 3202.53 780.06 3207.39 777.26C3212.24 774.367 3217.79 772.92 3224.05 772.92C3230.95 772.92 3236.79 774.32 3241.55 777.12C3246.31 779.92 3249.95 783.887 3252.47 789.02C3255.08 794.06 3256.39 800.033 3256.39 806.94C3256.39 813.66 3254.99 819.587 3252.19 824.72C3249.39 829.853 3245.56 833.867 3240.71 836.76C3235.85 839.653 3230.3 841.1 3224.05 841.1ZM3224.05 837.46C3226.66 837.46 3228.85 836.527 3230.63 834.66C3232.49 832.7 3233.89 829.527 3234.83 825.14C3235.76 820.66 3236.23 814.593 3236.23 806.94C3236.23 799.1 3235.76 792.987 3234.83 788.6C3233.89 784.213 3232.49 781.087 3230.63 779.22C3228.85 777.353 3226.66 776.42 3224.05 776.42C3221.53 776.42 3219.33 777.4 3217.47 779.36C3215.69 781.227 3214.29 784.4 3213.27 788.88C3212.33 793.267 3211.87 799.333 3211.87 807.08C3211.87 814.733 3212.33 820.8 3213.27 825.28C3214.29 829.667 3215.69 832.793 3217.47 834.66C3219.33 836.527 3221.53 837.46 3224.05 837.46ZM3288.35 841.1C3282.84 841.1 3278.5 839.373 3275.33 835.92C3272.16 832.373 3270.57 826.493 3270.57 818.28L3271.13 779.78L3275.19 783.84L3263.57 781.46V778.52L3288.07 772.92L3289.89 774.18L3289.33 792.8V820.24C3289.33 824.347 3290.08 827.147 3291.57 828.64C3293.06 830.04 3295.16 830.74 3297.87 830.74C3299.36 830.74 3300.95 830.46 3302.63 829.9C3304.4 829.247 3306.13 828.22 3307.81 826.82C3309.58 825.42 3311.26 823.6 3312.85 821.36L3313.13 827.24H3311.45C3309.68 830.04 3307.62 832.513 3305.29 834.66C3302.96 836.713 3300.39 838.3 3297.59 839.42C3294.79 840.54 3291.71 841.1 3288.35 841.1ZM3310.19 840.82V827.52V827.24V783L3302.49 781.46V778.52L3327.55 772.92L3329.37 774.18L3328.81 792.8V834.66L3335.95 835.92V839L3310.19 840.82ZM3342.34 839V835.92L3354.24 833.96H3364.6L3377.62 835.92V839H3342.34ZM3349.48 839C3349.67 836.573 3349.81 833.68 3349.9 830.32C3349.99 826.96 3350.04 823.46 3350.04 819.82C3350.13 816.18 3350.18 812.82 3350.18 809.74V805.4C3350.18 802.507 3350.18 799.94 3350.18 797.7C3350.18 795.367 3350.13 793.22 3350.04 791.26C3350.04 789.207 3349.99 787.153 3349.9 785.1L3341.78 782.72V780.2L3366.84 772.92L3368.8 774.32V792.52V792.94V809.74C3368.8 812.82 3368.8 816.18 3368.8 819.82C3368.89 823.46 3368.99 826.96 3369.08 830.32C3369.17 833.68 3369.31 836.573 3369.5 839H3349.48ZM3368.1 800.5L3366 793.92H3367.96C3369.45 789.16 3371.13 785.24 3373 782.16C3374.96 779.08 3377.11 776.793 3379.44 775.3C3381.87 773.713 3384.48 772.92 3387.28 772.92C3390.17 772.92 3392.55 773.667 3394.42 775.16C3396.29 776.56 3397.5 778.847 3398.06 782.02C3397.87 785.473 3396.8 787.993 3394.84 789.58C3392.97 791.167 3390.78 791.96 3388.26 791.96C3386.21 791.96 3384.29 791.447 3382.52 790.42C3380.84 789.393 3379.3 787.573 3377.9 784.96L3375.52 780.76L3379.3 781.32C3377.25 782.813 3375.05 785.333 3372.72 788.88C3370.48 792.427 3368.94 796.3 3368.1 800.5Z" fill="black"/>
<path d="M1904.31 958V955.91L1915.75 954.48H1921.36L1934.01 955.91V958H1904.31ZM1912.34 958C1912.49 955.067 1912.6 951.657 1912.67 947.77C1912.75 943.883 1912.78 939.85 1912.78 935.67C1912.78 931.417 1912.78 927.383 1912.78 923.57V918.73C1912.78 914.917 1912.78 910.957 1912.78 906.85C1912.78 902.743 1912.75 898.82 1912.67 895.08C1912.6 891.267 1912.49 887.893 1912.34 884.96H1924.66C1924.52 887.893 1924.41 891.267 1924.33 895.08C1924.26 898.893 1924.19 902.853 1924.11 906.96C1924.11 910.993 1924.11 914.917 1924.11 918.73V923.57C1924.11 927.383 1924.11 931.417 1924.11 935.67C1924.19 939.85 1924.26 943.883 1924.33 947.77C1924.41 951.657 1924.52 955.067 1924.66 958H1912.34ZM1917.51 926.98V924.12H1929.28C1932.95 924.12 1935.92 923.313 1938.19 921.7C1940.47 920.013 1942.12 917.74 1943.14 914.88C1944.24 911.947 1944.79 908.72 1944.79 905.2C1944.79 899.7 1943.47 895.41 1940.83 892.33C1938.27 889.25 1934.27 887.71 1928.84 887.71H1917.51V884.96H1930.16C1936.18 884.96 1941.13 885.803 1945.01 887.49C1948.9 889.103 1951.76 891.413 1953.59 894.42C1955.5 897.427 1956.45 900.983 1956.45 905.09C1956.45 908.977 1955.54 912.607 1953.7 915.98C1951.87 919.28 1948.9 921.957 1944.79 924.01C1940.76 925.99 1935.26 926.98 1928.29 926.98H1917.51ZM1904.31 887.05V884.96H1921.14V888.48H1915.75L1904.31 887.05ZM1962.52 958V955.91L1972.53 954.48H1977.37L1988.48 955.91V958H1962.52ZM1969.23 958C1969.38 956.24 1969.45 954.003 1969.45 951.29C1969.53 948.503 1969.56 945.68 1969.56 942.82C1969.64 939.887 1969.67 937.21 1969.67 934.79V930.61C1969.67 928.41 1969.67 926.467 1969.67 924.78C1969.67 923.093 1969.64 921.517 1969.56 920.05C1969.56 918.51 1969.53 916.97 1969.45 915.43L1962.08 913.56V911.8L1979.35 906.52L1980.45 907.51V923.13V923.46V934.79C1980.45 937.21 1980.45 939.887 1980.45 942.82C1980.53 945.68 1980.6 948.503 1980.67 951.29C1980.75 954.003 1980.86 956.24 1981 958H1969.23ZM1979.79 929.07L1978.36 923.35H1979.9C1981.08 919.537 1982.47 916.42 1984.08 914C1985.7 911.507 1987.49 909.637 1989.47 908.39C1991.45 907.143 1993.54 906.52 1995.74 906.52C1997.65 906.52 1999.26 906.997 2000.58 907.95C2001.98 908.83 2002.89 910.297 2003.33 912.35C2003.19 914.477 2002.45 916.09 2001.13 917.19C1999.81 918.29 1998.31 918.84 1996.62 918.84C1995.23 918.84 1993.95 918.51 1992.77 917.85C1991.6 917.19 1990.5 916.09 1989.47 914.55L1987.27 911.58L1990.9 911.47C1988.85 912.57 1986.72 914.697 1984.52 917.85C1982.4 920.93 1980.82 924.67 1979.79 929.07ZM2031 959.43C2026.38 959.43 2022.27 958.403 2018.68 956.35C2015.09 954.297 2012.23 951.327 2010.1 947.44C2008.05 943.48 2007.02 938.713 2007.02 933.14C2007.02 927.567 2008.08 922.8 2010.21 918.84C2012.41 914.88 2015.31 911.837 2018.9 909.71C2022.49 907.583 2026.53 906.52 2031 906.52C2035.69 906.52 2039.84 907.583 2043.43 909.71C2047.02 911.763 2049.85 914.733 2051.9 918.62C2053.95 922.507 2054.98 927.237 2054.98 932.81C2054.98 938.31 2053.88 943.077 2051.68 947.11C2049.55 951.07 2046.69 954.113 2043.1 956.24C2039.51 958.367 2035.47 959.43 2031 959.43ZM2031 956.9C2033.57 956.9 2035.77 956.057 2037.6 954.37C2039.43 952.683 2040.83 950.08 2041.78 946.56C2042.81 942.967 2043.32 938.383 2043.32 932.81C2043.32 927.237 2042.81 922.727 2041.78 919.28C2040.83 915.76 2039.43 913.193 2037.6 911.58C2035.77 909.893 2033.57 909.05 2031 909.05C2028.51 909.05 2026.31 909.893 2024.4 911.58C2022.57 913.267 2021.14 915.907 2020.11 919.5C2019.16 923.02 2018.68 927.567 2018.68 933.14C2018.68 938.64 2019.16 943.15 2020.11 946.67C2021.14 950.19 2022.57 952.793 2024.4 954.48C2026.31 956.093 2028.51 956.9 2031 956.9ZM2082.55 985.83C2077.49 985.83 2073.39 985.28 2070.23 984.18C2067.15 983.08 2064.92 981.577 2063.52 979.67C2062.2 977.837 2061.54 975.673 2061.54 973.18C2061.54 971.053 2062.17 969.183 2063.41 967.57C2064.66 966.03 2066.38 964.637 2068.58 963.39C2070.78 962.217 2073.24 961.117 2075.95 960.09L2076.39 960.64C2075.29 961.52 2074.19 962.437 2073.09 963.39C2072.07 964.417 2071.22 965.59 2070.56 966.91C2069.98 968.23 2069.68 969.917 2069.68 971.97C2069.68 974.317 2070.2 976.333 2071.22 978.02C2072.32 979.78 2073.9 981.1 2075.95 981.98C2078.08 982.933 2080.57 983.41 2083.43 983.41C2087.32 983.41 2090.58 982.787 2093.22 981.54C2095.86 980.293 2097.84 978.643 2099.16 976.59C2100.48 974.61 2101.14 972.447 2101.14 970.1C2101.14 967.387 2100.26 965.333 2098.5 963.94C2096.74 962.547 2094.03 961.85 2090.36 961.85H2078.7C2078.12 961.85 2077.38 961.813 2076.5 961.74C2075.7 961.74 2074.89 961.667 2074.08 961.52L2073.97 961.3C2071.11 961.007 2068.69 960.017 2066.71 958.33C2064.81 956.717 2063.85 954.443 2063.85 951.51C2063.85 948.797 2064.7 946.377 2066.38 944.25C2068.14 942.123 2070.45 939.997 2073.31 937.87V936.99L2074.85 938.97C2073.53 940.07 2072.54 941.28 2071.88 942.6C2071.22 943.847 2070.89 945.167 2070.89 946.56C2070.89 948.32 2071.55 949.64 2072.87 950.52C2074.19 951.4 2076.17 951.84 2078.81 951.84H2092.56C2096.38 951.84 2099.57 952.39 2102.13 953.49C2104.7 954.517 2106.64 956.02 2107.96 958C2109.28 960.053 2109.94 962.657 2109.94 965.81C2109.94 968.303 2109.36 970.723 2108.18 973.07C2107.08 975.49 2105.4 977.653 2103.12 979.56C2100.85 981.54 2097.99 983.08 2094.54 984.18C2091.17 985.28 2087.17 985.83 2082.55 985.83ZM2083.76 941.83C2080.1 941.83 2076.8 941.133 2073.86 939.74C2071 938.347 2068.73 936.33 2067.04 933.69C2065.43 931.05 2064.62 927.86 2064.62 924.12C2064.62 920.453 2065.47 917.3 2067.15 914.66C2068.91 912.02 2071.22 910.003 2074.08 908.61C2077.02 907.217 2080.24 906.52 2083.76 906.52C2086.11 906.52 2088.24 906.777 2090.14 907.29C2092.12 907.803 2093.88 908.537 2095.42 909.49C2097.04 910.443 2098.36 911.653 2099.38 913.12L2099.82 913.56C2100.92 914.953 2101.73 916.53 2102.24 918.29C2102.76 920.05 2103.01 921.993 2103.01 924.12C2103.01 927.787 2102.17 930.977 2100.48 933.69C2098.8 936.33 2096.49 938.347 2093.55 939.74C2090.62 941.133 2087.36 941.83 2083.76 941.83ZM2083.76 939.41C2085.6 939.41 2087.17 938.86 2088.49 937.76C2089.89 936.66 2090.95 934.973 2091.68 932.7C2092.42 930.427 2092.78 927.53 2092.78 924.01C2092.78 920.49 2092.42 917.63 2091.68 915.43C2090.95 913.23 2089.89 911.617 2088.49 910.59C2087.17 909.49 2085.6 908.94 2083.76 908.94C2082 908.94 2080.46 909.49 2079.14 910.59C2077.82 911.69 2076.76 913.377 2075.95 915.65C2075.22 917.923 2074.85 920.783 2074.85 924.23C2074.85 927.75 2075.22 930.647 2075.95 932.92C2076.76 935.12 2077.82 936.77 2079.14 937.87C2080.46 938.897 2082 939.41 2083.76 939.41ZM2097.73 915.21L2097.4 913.12H2097.84L2109.94 906.52L2110.93 907.4V915.21H2097.73ZM2116.78 958V955.91L2126.79 954.48H2131.63L2142.74 955.91V958H2116.78ZM2123.49 958C2123.64 956.24 2123.71 954.003 2123.71 951.29C2123.79 948.503 2123.82 945.68 2123.82 942.82C2123.9 939.887 2123.93 937.21 2123.93 934.79V930.61C2123.93 928.41 2123.93 926.467 2123.93 924.78C2123.93 923.093 2123.9 921.517 2123.82 920.05C2123.82 918.51 2123.79 916.97 2123.71 915.43L2116.34 913.56V911.8L2133.61 906.52L2134.71 907.51V923.13V923.46V934.79C2134.71 937.21 2134.71 939.887 2134.71 942.82C2134.79 945.68 2134.86 948.503 2134.93 951.29C2135.01 954.003 2135.12 956.24 2135.26 958H2123.49ZM2134.05 929.07L2132.62 923.35H2134.16C2135.34 919.537 2136.73 916.42 2138.34 914C2139.96 911.507 2141.75 909.637 2143.73 908.39C2145.71 907.143 2147.8 906.52 2150 906.52C2151.91 906.52 2153.52 906.997 2154.84 907.95C2156.24 908.83 2157.15 910.297 2157.59 912.35C2157.45 914.477 2156.71 916.09 2155.39 917.19C2154.07 918.29 2152.57 918.84 2150.88 918.84C2149.49 918.84 2148.21 918.51 2147.03 917.85C2145.86 917.19 2144.76 916.09 2143.73 914.55L2141.53 911.58L2145.16 911.47C2143.11 912.57 2140.98 914.697 2138.78 917.85C2136.66 920.93 2135.08 924.67 2134.05 929.07ZM2173.39 959.43C2169.65 959.43 2166.53 958.367 2164.04 956.24C2161.62 954.113 2160.41 951.033 2160.41 947C2160.41 944.727 2160.88 942.6 2161.84 940.62C2162.86 938.64 2164.62 936.807 2167.12 935.12C2169.68 933.36 2173.28 931.783 2177.9 930.39C2179.14 929.95 2180.57 929.51 2182.19 929.07C2183.8 928.63 2185.6 928.153 2187.58 927.64C2189.63 927.053 2191.76 926.503 2193.96 925.99V927.97C2190.66 928.997 2187.87 929.877 2185.6 930.61C2183.4 931.27 2181.75 931.857 2180.65 932.37C2178.15 933.47 2176.21 934.643 2174.82 935.89C2173.42 937.137 2172.43 938.457 2171.85 939.85C2171.26 941.243 2170.97 942.783 2170.97 944.47C2170.97 947.477 2171.7 949.677 2173.17 951.07C2174.63 952.39 2176.47 953.05 2178.67 953.05C2180.06 953.05 2181.34 952.903 2182.52 952.61C2183.69 952.243 2184.97 951.62 2186.37 950.74C2187.76 949.787 2189.37 948.393 2191.21 946.56L2192.09 950.85H2188.79C2187.25 952.903 2185.67 954.59 2184.06 955.91C2182.44 957.157 2180.76 958.037 2179 958.55C2177.24 959.137 2175.37 959.43 2173.39 959.43ZM2197.81 959.21C2194.65 959.21 2192.27 958.44 2190.66 956.9C2189.04 955.287 2188.16 953.087 2188.02 950.3V949.97V923.68C2188.02 920.087 2187.69 917.263 2187.03 915.21C2186.44 913.157 2185.49 911.69 2184.17 910.81C2182.85 909.93 2181.05 909.49 2178.78 909.49C2177.53 909.49 2176.32 909.673 2175.15 910.04C2173.97 910.333 2172.76 910.7 2171.52 911.14L2174.71 908.72L2173.17 917.08C2172.95 919.427 2172.25 921.15 2171.08 922.25C2169.98 923.277 2168.69 923.79 2167.23 923.79C2165.76 923.79 2164.62 923.387 2163.82 922.58C2163.08 921.773 2162.57 920.637 2162.28 919.17C2162.86 915.43 2164.99 912.387 2168.66 910.04C2172.4 907.693 2177.02 906.52 2182.52 906.52C2186.26 906.52 2189.34 907.18 2191.76 908.5C2194.18 909.747 2195.94 911.727 2197.04 914.44C2198.21 917.153 2198.8 920.637 2198.8 924.89V949.42C2198.8 951.18 2199.05 952.427 2199.57 953.16C2200.15 953.82 2200.89 954.15 2201.77 954.15C2202.57 954.15 2203.27 953.967 2203.86 953.6C2204.52 953.16 2205.29 952.427 2206.17 951.4L2207.49 952.5C2206.68 954.48 2205.47 956.093 2203.86 957.34C2202.24 958.587 2200.23 959.21 2197.81 959.21ZM2211.21 958V955.91L2221.22 954.48H2226.06L2235.85 955.91V958H2211.21ZM2217.92 958C2218.06 956.24 2218.14 954.003 2218.14 951.29C2218.21 948.503 2218.25 945.68 2218.25 942.82C2218.32 939.887 2218.36 937.21 2218.36 934.79V930.61C2218.36 928.41 2218.36 926.467 2218.36 924.78C2218.36 923.093 2218.32 921.517 2218.25 920.05C2218.25 918.51 2218.21 916.97 2218.14 915.43L2210.77 913.56V911.8L2228.04 906.52L2229.14 907.51V917.74V918.4V934.79C2229.14 937.21 2229.14 939.887 2229.14 942.82C2229.21 945.68 2229.28 948.503 2229.36 951.29C2229.43 954.003 2229.54 956.24 2229.69 958H2217.92ZM2242.34 958V955.91L2252.13 954.48H2257.08L2266.76 955.91V958H2242.34ZM2248.72 958C2248.94 956.24 2249.08 954.003 2249.16 951.29C2249.23 948.503 2249.27 945.68 2249.27 942.82C2249.34 939.887 2249.38 937.21 2249.38 934.79V923.9C2249.38 919.793 2248.75 917.007 2247.51 915.54C2246.33 914.073 2244.39 913.34 2241.68 913.34C2240.06 913.34 2238.45 913.633 2236.84 914.22C2235.3 914.807 2233.76 915.687 2232.22 916.86C2230.68 917.96 2229.1 919.317 2227.49 920.93L2226.94 918.73H2227.6C2229.21 916.383 2231.01 914.293 2232.99 912.46C2235.04 910.627 2237.24 909.197 2239.59 908.17C2241.93 907.07 2244.39 906.52 2246.96 906.52C2251.14 906.52 2254.36 907.84 2256.64 910.48C2258.91 913.12 2260.05 917.52 2260.05 923.68V934.79C2260.05 937.21 2260.05 939.887 2260.05 942.82C2260.12 945.68 2260.19 948.503 2260.27 951.29C2260.34 954.003 2260.45 956.24 2260.6 958H2248.72ZM2273.25 958V955.91L2283.04 954.48H2287.88L2297.78 955.91V958H2273.25ZM2279.74 958C2279.88 956.24 2279.99 954.003 2280.07 951.29C2280.14 948.503 2280.18 945.68 2280.18 942.82C2280.18 939.887 2280.18 937.21 2280.18 934.79V923.9C2280.18 919.793 2279.59 917.007 2278.42 915.54C2277.24 914.073 2275.3 913.34 2272.59 913.34C2271.05 913.34 2269.47 913.633 2267.86 914.22C2266.32 914.807 2264.74 915.687 2263.13 916.86C2261.59 918.033 2260.01 919.427 2258.4 921.04L2257.74 918.73H2258.51C2260.12 916.383 2261.92 914.293 2263.9 912.46C2265.95 910.627 2268.15 909.197 2270.5 908.17C2272.84 907.07 2275.34 906.52 2277.98 906.52C2282.16 906.52 2285.38 907.84 2287.66 910.48C2289.93 913.12 2291.07 917.52 2291.07 923.68V934.79C2291.07 937.21 2291.07 939.887 2291.07 942.82C2291.14 945.68 2291.21 948.503 2291.29 951.29C2291.36 954.003 2291.43 956.24 2291.51 958H2279.74ZM2317.01 959.43C2313.27 959.43 2310.15 958.367 2307.66 956.24C2305.24 954.113 2304.03 951.033 2304.03 947C2304.03 944.727 2304.51 942.6 2305.46 940.62C2306.49 938.64 2308.25 936.807 2310.74 935.12C2313.31 933.36 2316.9 931.783 2321.52 930.39C2322.77 929.95 2324.2 929.51 2325.81 929.07C2327.42 928.63 2329.22 928.153 2331.2 927.64C2333.25 927.053 2335.38 926.503 2337.58 925.99V927.97C2334.28 928.997 2331.49 929.877 2329.22 930.61C2327.02 931.27 2325.37 931.857 2324.27 932.37C2321.78 933.47 2319.83 934.643 2318.44 935.89C2317.05 937.137 2316.06 938.457 2315.47 939.85C2314.88 941.243 2314.59 942.783 2314.59 944.47C2314.59 947.477 2315.32 949.677 2316.79 951.07C2318.26 952.39 2320.09 953.05 2322.29 953.05C2323.68 953.05 2324.97 952.903 2326.14 952.61C2327.31 952.243 2328.6 951.62 2329.99 950.74C2331.38 949.787 2333 948.393 2334.83 946.56L2335.71 950.85H2332.41C2330.87 952.903 2329.29 954.59 2327.68 955.91C2326.07 957.157 2324.38 958.037 2322.62 958.55C2320.86 959.137 2318.99 959.43 2317.01 959.43ZM2341.43 959.21C2338.28 959.21 2335.89 958.44 2334.28 956.9C2332.67 955.287 2331.79 953.087 2331.64 950.3V949.97V923.68C2331.64 920.087 2331.31 917.263 2330.65 915.21C2330.06 913.157 2329.11 911.69 2327.79 910.81C2326.47 909.93 2324.67 909.49 2322.4 909.49C2321.15 909.49 2319.94 909.673 2318.77 910.04C2317.6 910.333 2316.39 910.7 2315.14 911.14L2318.33 908.72L2316.79 917.08C2316.57 919.427 2315.87 921.15 2314.7 922.25C2313.6 923.277 2312.32 923.79 2310.85 923.79C2309.38 923.79 2308.25 923.387 2307.44 922.58C2306.71 921.773 2306.19 920.637 2305.9 919.17C2306.49 915.43 2308.61 912.387 2312.28 910.04C2316.02 907.693 2320.64 906.52 2326.14 906.52C2329.88 906.52 2332.96 907.18 2335.38 908.5C2337.8 909.747 2339.56 911.727 2340.66 914.44C2341.83 917.153 2342.42 920.637 2342.42 924.89V949.42C2342.42 951.18 2342.68 952.427 2343.19 953.16C2343.78 953.82 2344.51 954.15 2345.39 954.15C2346.2 954.15 2346.89 953.967 2347.48 953.6C2348.14 953.16 2348.91 952.427 2349.79 951.4L2351.11 952.5C2350.3 954.48 2349.09 956.093 2347.48 957.34C2345.87 958.587 2343.85 959.21 2341.43 959.21ZM2378.7 959.43C2374.23 959.43 2370.23 958.44 2366.71 956.46C2363.19 954.48 2360.44 951.583 2358.46 947.77C2356.48 943.883 2355.49 939.19 2355.49 933.69C2355.49 927.75 2356.63 922.763 2358.9 918.73C2361.25 914.697 2364.29 911.653 2368.03 909.6C2371.77 907.547 2375.88 906.52 2380.35 906.52C2383.58 906.52 2386.36 907.107 2388.71 908.28C2391.13 909.38 2393.04 910.92 2394.43 912.9C2395.82 914.807 2396.67 916.97 2396.96 919.39C2396.74 920.857 2396.19 921.957 2395.31 922.69C2394.5 923.423 2393.37 923.79 2391.9 923.79C2390.43 923.79 2389.15 923.277 2388.05 922.25C2386.95 921.15 2386.25 919.427 2385.96 917.08L2384.53 908.61L2388.93 911.69C2387.68 910.59 2386.36 909.893 2384.97 909.6C2383.58 909.307 2382.26 909.16 2381.01 909.16C2378.15 909.16 2375.66 910.077 2373.53 911.91C2371.4 913.67 2369.75 916.237 2368.58 919.61C2367.41 922.91 2366.82 926.87 2366.82 931.49C2366.82 935.523 2367.41 939.153 2368.58 942.38C2369.75 945.607 2371.51 948.173 2373.86 950.08C2376.28 951.913 2379.25 952.83 2382.77 952.83C2384.68 952.83 2386.4 952.573 2387.94 952.06C2389.55 951.473 2390.98 950.703 2392.23 949.75C2393.55 948.723 2394.76 947.513 2395.86 946.12L2397.51 947.22C2396.19 950.007 2394.58 952.317 2392.67 954.15C2390.84 955.983 2388.75 957.303 2386.4 958.11C2384.05 958.99 2381.49 959.43 2378.7 959.43ZM2375.73 967.57L2377.38 957.78H2380.46L2379.25 965.04L2377.27 963.72C2379.84 963.867 2382.04 964.343 2383.87 965.15C2385.7 966.03 2387.1 967.093 2388.05 968.34C2389 969.66 2389.48 971.237 2389.48 973.07C2389.48 975.71 2388.53 977.873 2386.62 979.56C2384.71 981.32 2381.71 982.2 2377.6 982.2C2376.13 982.2 2374.85 982.09 2373.75 981.87C2372.65 981.65 2371.62 981.357 2370.67 980.99L2371.33 977.91C2372.14 978.13 2372.94 978.277 2373.75 978.35C2374.56 978.497 2375.36 978.57 2376.17 978.57C2378.52 978.57 2380.24 978.093 2381.34 977.14C2382.51 976.26 2383.1 975.013 2383.1 973.4C2383.1 971.713 2382.48 970.393 2381.23 969.44C2379.98 968.56 2378.15 967.937 2375.73 967.57ZM2417.13 959.43C2413.39 959.43 2410.27 958.367 2407.78 956.24C2405.36 954.113 2404.15 951.033 2404.15 947C2404.15 944.727 2404.62 942.6 2405.58 940.62C2406.6 938.64 2408.36 936.807 2410.86 935.12C2413.42 933.36 2417.02 931.783 2421.64 930.39C2422.88 929.95 2424.31 929.51 2425.93 929.07C2427.54 928.63 2429.34 928.153 2431.32 927.64C2433.37 927.053 2435.5 926.503 2437.7 925.99V927.97C2434.4 928.997 2431.61 929.877 2429.34 930.61C2427.14 931.27 2425.49 931.857 2424.39 932.37C2421.89 933.47 2419.95 934.643 2418.56 935.89C2417.16 937.137 2416.17 938.457 2415.59 939.85C2415 941.243 2414.71 942.783 2414.71 944.47C2414.71 947.477 2415.44 949.677 2416.91 951.07C2418.37 952.39 2420.21 953.05 2422.41 953.05C2423.8 953.05 2425.08 952.903 2426.26 952.61C2427.43 952.243 2428.71 951.62 2430.11 950.74C2431.5 949.787 2433.11 948.393 2434.95 946.56L2435.83 950.85H2432.53C2430.99 952.903 2429.41 954.59 2427.8 955.91C2426.18 957.157 2424.5 958.037 2422.74 958.55C2420.98 959.137 2419.11 959.43 2417.13 959.43ZM2441.55 959.21C2438.39 959.21 2436.01 958.44 2434.4 956.9C2432.78 955.287 2431.9 953.087 2431.76 950.3V949.97V923.68C2431.76 920.087 2431.43 917.263 2430.77 915.21C2430.18 913.157 2429.23 911.69 2427.91 910.81C2426.59 909.93 2424.79 909.49 2422.52 909.49C2421.27 909.49 2420.06 909.673 2418.89 910.04C2417.71 910.333 2416.5 910.7 2415.26 911.14L2418.45 908.72L2416.91 917.08C2416.69 919.427 2415.99 921.15 2414.82 922.25C2413.72 923.277 2412.43 923.79 2410.97 923.79C2409.5 923.79 2408.36 923.387 2407.56 922.58C2406.82 921.773 2406.31 920.637 2406.02 919.17C2406.6 915.43 2408.73 912.387 2412.4 910.04C2416.14 907.693 2420.76 906.52 2426.26 906.52C2430 906.52 2433.08 907.18 2435.5 908.5C2437.92 909.747 2439.68 911.727 2440.78 914.44C2441.95 917.153 2442.54 920.637 2442.54 924.89V949.42C2442.54 951.18 2442.79 952.427 2443.31 953.16C2443.89 953.82 2444.63 954.15 2445.51 954.15C2446.31 954.15 2447.01 953.967 2447.6 953.6C2448.26 953.16 2449.03 952.427 2449.91 951.4L2451.23 952.5C2450.42 954.48 2449.21 956.093 2447.6 957.34C2445.98 958.587 2443.97 959.21 2441.55 959.21ZM2408 896.62C2408.66 892.293 2409.83 888.957 2411.52 886.61C2413.2 884.19 2415.4 882.98 2418.12 882.98C2419.8 882.98 2421.23 883.31 2422.41 883.97C2423.65 884.63 2424.94 885.547 2426.26 886.72C2427.58 887.893 2428.79 888.92 2429.89 889.8C2430.99 890.68 2432.16 891.12 2433.41 891.12C2435.17 891.12 2436.56 890.423 2437.59 889.03C2438.69 887.563 2439.64 885.657 2440.45 883.31L2442.54 884.08C2441.88 888.407 2440.7 891.78 2439.02 894.2C2437.33 896.547 2435.13 897.72 2432.42 897.72C2430.73 897.72 2429.26 897.39 2428.02 896.73C2426.77 895.997 2425.45 895.007 2424.06 893.76C2422.88 892.733 2421.75 891.78 2420.65 890.9C2419.55 890.02 2418.37 889.58 2417.13 889.58C2415.37 889.58 2413.94 890.277 2412.84 891.67C2411.81 893.063 2410.89 894.97 2410.09 897.39L2408 896.62ZM2479.92 959.43C2475.3 959.43 2471.19 958.403 2467.6 956.35C2464 954.297 2461.14 951.327 2459.02 947.44C2456.96 943.48 2455.94 938.713 2455.94 933.14C2455.94 927.567 2457 922.8 2459.13 918.84C2461.33 914.88 2464.22 911.837 2467.82 909.71C2471.41 907.583 2475.44 906.52 2479.92 906.52C2484.61 906.52 2488.75 907.583 2492.35 909.71C2495.94 911.763 2498.76 914.733 2500.82 918.62C2502.87 922.507 2503.9 927.237 2503.9 932.81C2503.9 938.31 2502.8 943.077 2500.6 947.11C2498.47 951.07 2495.61 954.113 2492.02 956.24C2488.42 958.367 2484.39 959.43 2479.92 959.43ZM2479.92 956.9C2482.48 956.9 2484.68 956.057 2486.52 954.37C2488.35 952.683 2489.74 950.08 2490.7 946.56C2491.72 942.967 2492.24 938.383 2492.24 932.81C2492.24 927.237 2491.72 922.727 2490.7 919.28C2489.74 915.76 2488.35 913.193 2486.52 911.58C2484.68 909.893 2482.48 909.05 2479.92 909.05C2477.42 909.05 2475.22 909.893 2473.32 911.58C2471.48 913.267 2470.05 915.907 2469.03 919.5C2468.07 923.02 2467.6 927.567 2467.6 933.14C2467.6 938.64 2468.07 943.15 2469.03 946.67C2470.05 950.19 2471.48 952.793 2473.32 954.48C2475.22 956.093 2477.42 956.9 2479.92 956.9ZM2558.44 959.43C2553.82 959.43 2549.72 958.403 2546.12 956.35C2542.53 954.297 2539.67 951.327 2537.54 947.44C2535.49 943.48 2534.46 938.713 2534.46 933.14C2534.46 927.567 2535.53 922.8 2537.65 918.84C2539.85 914.88 2542.75 911.837 2546.34 909.71C2549.94 907.583 2553.97 906.52 2558.44 906.52C2563.14 906.52 2567.28 907.583 2570.87 909.71C2574.47 911.763 2577.29 914.733 2579.34 918.62C2581.4 922.507 2582.42 927.237 2582.42 932.81C2582.42 938.31 2581.32 943.077 2579.12 947.11C2577 951.07 2574.14 954.113 2570.54 956.24C2566.95 958.367 2562.92 959.43 2558.44 959.43ZM2558.44 956.9C2561.01 956.9 2563.21 956.057 2565.04 954.37C2566.88 952.683 2568.27 950.08 2569.22 946.56C2570.25 942.967 2570.76 938.383 2570.76 932.81C2570.76 927.237 2570.25 922.727 2569.22 919.28C2568.27 915.76 2566.88 913.193 2565.04 911.58C2563.21 909.893 2561.01 909.05 2558.44 909.05C2555.95 909.05 2553.75 909.893 2551.84 911.58C2550.01 913.267 2548.58 915.907 2547.55 919.5C2546.6 923.02 2546.12 927.567 2546.12 933.14C2546.12 938.64 2546.6 943.15 2547.55 946.67C2548.58 950.19 2550.01 952.793 2551.84 954.48C2553.75 956.093 2555.95 956.9 2558.44 956.9ZM2589.98 958V955.91L2599.99 954.48H2604.83L2615.94 955.91V958H2589.98ZM2596.69 958C2596.83 956.24 2596.91 954.003 2596.91 951.29C2596.98 948.503 2597.02 945.68 2597.02 942.82C2597.09 939.887 2597.13 937.21 2597.13 934.79V930.61C2597.13 928.41 2597.13 926.467 2597.13 924.78C2597.13 923.093 2597.09 921.517 2597.02 920.05C2597.02 918.51 2596.98 916.97 2596.91 915.43L2589.54 913.56V911.8L2606.81 906.52L2607.91 907.51V923.13V923.46V934.79C2607.91 937.21 2607.91 939.887 2607.91 942.82C2607.98 945.68 2608.05 948.503 2608.13 951.29C2608.2 954.003 2608.31 956.24 2608.46 958H2596.69ZM2607.25 929.07L2605.82 923.35H2607.36C2608.53 919.537 2609.92 916.42 2611.54 914C2613.15 911.507 2614.95 909.637 2616.93 908.39C2618.91 907.143 2621 906.52 2623.2 906.52C2625.1 906.52 2626.72 906.997 2628.04 907.95C2629.43 908.83 2630.35 910.297 2630.79 912.35C2630.64 914.477 2629.91 916.09 2628.59 917.19C2627.27 918.29 2625.76 918.84 2624.08 918.84C2622.68 918.84 2621.4 918.51 2620.23 917.85C2619.05 917.19 2617.95 916.09 2616.93 914.55L2614.73 911.58L2618.36 911.47C2616.3 912.57 2614.18 914.697 2611.98 917.85C2609.85 920.93 2608.27 924.67 2607.25 929.07ZM2635.42 958V955.91L2645.43 954.48H2650.27L2660.06 955.91V958H2635.42ZM2642.13 958C2642.27 956.24 2642.35 954.003 2642.35 951.29C2642.42 948.503 2642.46 945.68 2642.46 942.82C2642.53 939.887 2642.57 937.21 2642.57 934.79V930.61C2642.57 927.31 2642.57 924.56 2642.57 922.36C2642.57 920.087 2642.49 917.777 2642.35 915.43L2634.98 913.56V911.8L2652.69 906.52L2653.79 907.51L2653.35 921.7V934.79C2653.35 937.21 2653.35 939.887 2653.35 942.82C2653.42 945.68 2653.49 948.503 2653.57 951.29C2653.64 954.003 2653.75 956.24 2653.9 958H2642.13ZM2647.85 896.51C2646.01 896.51 2644.44 895.923 2643.12 894.75C2641.8 893.503 2641.14 891.89 2641.14 889.91C2641.14 887.93 2641.8 886.353 2643.12 885.18C2644.44 883.933 2646.01 883.31 2647.85 883.31C2649.75 883.31 2651.33 883.933 2652.58 885.18C2653.9 886.353 2654.56 887.893 2654.56 889.8C2654.56 891.853 2653.9 893.503 2652.58 894.75C2651.33 895.923 2649.75 896.51 2647.85 896.51ZM2689.69 959.43C2685.36 959.43 2681.44 958.44 2677.92 956.46C2674.4 954.407 2671.61 951.51 2669.56 947.77C2667.51 943.957 2666.48 939.337 2666.48 933.91C2666.48 928.19 2667.54 923.313 2669.67 919.28C2671.87 915.173 2674.69 912.02 2678.14 909.82C2681.66 907.62 2685.44 906.52 2689.47 906.52C2693.21 906.52 2696.51 907.327 2699.37 908.94C2702.3 910.553 2704.58 912.79 2706.19 915.65C2707.8 918.437 2708.61 921.737 2708.61 925.55C2708.61 926.723 2708.54 927.713 2708.39 928.52C2708.32 929.327 2708.17 930.097 2707.95 930.83H2670.77V928.3H2692.22C2694.79 928.3 2696.55 927.823 2697.5 926.87C2698.45 925.917 2698.93 924.23 2698.93 921.81C2698.93 919.023 2698.53 916.713 2697.72 914.88C2696.99 912.973 2695.92 911.543 2694.53 910.59C2693.14 909.637 2691.49 909.16 2689.58 909.16C2687.6 909.16 2685.69 909.893 2683.86 911.36C2682.03 912.827 2680.52 915.21 2679.35 918.51C2678.25 921.737 2677.7 926.137 2677.7 931.71C2677.7 936.11 2678.4 939.887 2679.79 943.04C2681.18 946.193 2683.09 948.613 2685.51 950.3C2687.93 951.987 2690.68 952.83 2693.76 952.83C2696.77 952.83 2699.33 952.207 2701.46 950.96C2703.66 949.713 2705.6 948.1 2707.29 946.12L2708.83 947.22C2707.51 950.08 2705.86 952.427 2703.88 954.26C2701.97 956.02 2699.81 957.303 2697.39 958.11C2694.97 958.99 2692.4 959.43 2689.69 959.43ZM2716.52 958V955.91L2726.53 954.48H2731.37L2741.16 955.91V958H2716.52ZM2723.23 958C2723.38 956.24 2723.45 954.003 2723.45 951.29C2723.52 948.503 2723.56 945.68 2723.56 942.82C2723.63 939.887 2723.67 937.21 2723.67 934.79V930.61C2723.67 928.41 2723.67 926.467 2723.67 924.78C2723.67 923.093 2723.63 921.517 2723.56 920.05C2723.56 918.51 2723.52 916.97 2723.45 915.43L2716.08 913.56V911.8L2733.35 906.52L2734.45 907.51V918.18V918.4V934.79C2734.45 937.21 2734.45 939.887 2734.45 942.82C2734.52 945.68 2734.6 948.503 2734.67 951.29C2734.74 954.003 2734.85 956.24 2735 958H2723.23ZM2747.87 958V955.91L2757.77 954.48H2762.61L2772.4 955.91V958H2747.87ZM2754.36 958C2754.51 956.24 2754.62 954.003 2754.69 951.29C2754.76 948.503 2754.8 945.68 2754.8 942.82C2754.87 939.887 2754.91 937.21 2754.91 934.79V923.9C2754.91 919.793 2754.29 917.007 2753.04 915.54C2751.79 914.073 2749.81 913.34 2747.1 913.34C2745.56 913.34 2743.98 913.633 2742.37 914.22C2740.76 914.807 2739.14 915.687 2737.53 916.86C2735.99 917.96 2734.41 919.317 2732.8 920.93L2732.25 918.73H2732.91C2734.52 916.383 2736.32 914.293 2738.3 912.46C2740.35 910.627 2742.55 909.197 2744.9 908.17C2747.32 907.07 2749.85 906.52 2752.49 906.52C2756.67 906.52 2759.9 907.84 2762.17 910.48C2764.52 913.12 2765.69 917.52 2765.69 923.68V934.79C2765.69 937.21 2765.69 939.887 2765.69 942.82C2765.76 945.68 2765.84 948.503 2765.91 951.29C2765.98 954.003 2766.09 956.24 2766.24 958H2754.36ZM2789.07 910.92V907.95H2806.78V910.92H2789.07ZM2795.89 959.43C2791.93 959.43 2788.82 958.403 2786.54 956.35C2784.27 954.297 2783.13 951.217 2783.13 947.11C2783.13 944.91 2783.13 942.93 2783.13 941.17C2783.13 939.41 2783.13 937.21 2783.13 934.57L2783.35 910.92H2775.87V908.83L2786.87 906.85L2783.13 909.27L2790.83 891.23H2794.46L2794.02 909.27V910.04V946.67C2794.02 949.383 2794.57 951.327 2795.67 952.5C2796.85 953.6 2798.31 954.15 2800.07 954.15C2801.54 954.15 2802.82 953.857 2803.92 953.27C2805.1 952.683 2806.16 951.84 2807.11 950.74L2808.54 951.84C2807.74 953.453 2806.75 954.847 2805.57 956.02C2804.47 957.12 2803.12 957.963 2801.5 958.55C2799.96 959.137 2798.09 959.43 2795.89 959.43ZM2827.16 959.43C2823.42 959.43 2820.3 958.367 2817.81 956.24C2815.39 954.113 2814.18 951.033 2814.18 947C2814.18 944.727 2814.65 942.6 2815.61 940.62C2816.63 938.64 2818.39 936.807 2820.89 935.12C2823.45 933.36 2827.05 931.783 2831.67 930.39C2832.91 929.95 2834.34 929.51 2835.96 929.07C2837.57 928.63 2839.37 928.153 2841.35 927.64C2843.4 927.053 2845.53 926.503 2847.73 925.99V927.97C2844.43 928.997 2841.64 929.877 2839.37 930.61C2837.17 931.27 2835.52 931.857 2834.42 932.37C2831.92 933.47 2829.98 934.643 2828.59 935.89C2827.19 937.137 2826.2 938.457 2825.62 939.85C2825.03 941.243 2824.74 942.783 2824.74 944.47C2824.74 947.477 2825.47 949.677 2826.94 951.07C2828.4 952.39 2830.24 953.05 2832.44 953.05C2833.83 953.05 2835.11 952.903 2836.29 952.61C2837.46 952.243 2838.74 951.62 2840.14 950.74C2841.53 949.787 2843.14 948.393 2844.98 946.56L2845.86 950.85H2842.56C2841.02 952.903 2839.44 954.59 2837.83 955.91C2836.21 957.157 2834.53 958.037 2832.77 958.55C2831.01 959.137 2829.14 959.43 2827.16 959.43ZM2851.58 959.21C2848.42 959.21 2846.04 958.44 2844.43 956.9C2842.81 955.287 2841.93 953.087 2841.79 950.3V949.97V923.68C2841.79 920.087 2841.46 917.263 2840.8 915.21C2840.21 913.157 2839.26 911.69 2837.94 910.81C2836.62 909.93 2834.82 909.49 2832.55 909.49C2831.3 909.49 2830.09 909.673 2828.92 910.04C2827.74 910.333 2826.53 910.7 2825.29 911.14L2828.48 908.72L2826.94 917.08C2826.72 919.427 2826.02 921.15 2824.85 922.25C2823.75 923.277 2822.46 923.79 2821 923.79C2819.53 923.79 2818.39 923.387 2817.59 922.58C2816.85 921.773 2816.34 920.637 2816.05 919.17C2816.63 915.43 2818.76 912.387 2822.43 910.04C2826.17 907.693 2830.79 906.52 2836.29 906.52C2840.03 906.52 2843.11 907.18 2845.53 908.5C2847.95 909.747 2849.71 911.727 2850.81 914.44C2851.98 917.153 2852.57 920.637 2852.57 924.89V949.42C2852.57 951.18 2852.82 952.427 2853.34 953.16C2853.92 953.82 2854.66 954.15 2855.54 954.15C2856.34 954.15 2857.04 953.967 2857.63 953.6C2858.29 953.16 2859.06 952.427 2859.94 951.4L2861.26 952.5C2860.45 954.48 2859.24 956.093 2857.63 957.34C2856.01 958.587 2854 959.21 2851.58 959.21ZM2885.44 959.43C2881.77 959.43 2878.47 958.513 2875.54 956.68C2872.6 954.773 2870.26 951.95 2868.5 948.21C2866.81 944.47 2865.97 939.813 2865.97 934.24C2865.97 928.447 2866.92 923.497 2868.83 919.39C2870.73 915.21 2873.26 912.02 2876.42 909.82C2879.64 907.62 2883.2 906.52 2887.09 906.52C2889.07 906.52 2890.94 906.887 2892.7 907.62C2894.53 908.353 2896.22 909.49 2897.76 911.03C2899.37 912.57 2900.8 914.66 2902.05 917.3H2903.48L2902.49 919.61C2900.21 916.897 2898.2 914.99 2896.44 913.89C2894.68 912.79 2892.51 912.24 2889.95 912.24C2887.67 912.24 2885.55 913.01 2883.57 914.55C2881.66 916.017 2880.12 918.327 2878.95 921.48C2877.85 924.633 2877.3 928.703 2877.3 933.69C2877.3 938.457 2877.81 942.343 2878.84 945.35C2879.94 948.283 2881.44 950.447 2883.35 951.84C2885.33 953.16 2887.53 953.82 2889.95 953.82C2892.44 953.82 2894.68 953.013 2896.66 951.4C2898.64 949.787 2900.47 947.733 2902.16 945.24L2902.82 947.99H2901.61C2900.51 950.263 2899.15 952.28 2897.54 954.04C2896 955.727 2894.2 957.047 2892.15 958C2890.17 958.953 2887.93 959.43 2885.44 959.43ZM2900.4 959.21V949.09V948.76V916.53L2900.51 915.43V884.96L2893.03 883.2V881.44L2910.41 876.82L2911.62 877.92L2911.18 899.92V955.03L2917.89 955.91V958L2900.4 959.21ZM2937.37 959.43C2933.63 959.43 2930.51 958.367 2928.02 956.24C2925.6 954.113 2924.39 951.033 2924.39 947C2924.39 944.727 2924.87 942.6 2925.82 940.62C2926.85 938.64 2928.61 936.807 2931.1 935.12C2933.67 933.36 2937.26 931.783 2941.88 930.39C2943.13 929.95 2944.56 929.51 2946.17 929.07C2947.78 928.63 2949.58 928.153 2951.56 927.64C2953.61 927.053 2955.74 926.503 2957.94 925.99V927.97C2954.64 928.997 2951.85 929.877 2949.58 930.61C2947.38 931.27 2945.73 931.857 2944.63 932.37C2942.14 933.47 2940.19 934.643 2938.8 935.89C2937.41 937.137 2936.42 938.457 2935.83 939.85C2935.24 941.243 2934.95 942.783 2934.95 944.47C2934.95 947.477 2935.68 949.677 2937.15 951.07C2938.62 952.39 2940.45 953.05 2942.65 953.05C2944.04 953.05 2945.33 952.903 2946.5 952.61C2947.67 952.243 2948.96 951.62 2950.35 950.74C2951.74 949.787 2953.36 948.393 2955.19 946.56L2956.07 950.85H2952.77C2951.23 952.903 2949.65 954.59 2948.04 955.91C2946.43 957.157 2944.74 958.037 2942.98 958.55C2941.22 959.137 2939.35 959.43 2937.37 959.43ZM2961.79 959.21C2958.64 959.21 2956.25 958.44 2954.64 956.9C2953.03 955.287 2952.15 953.087 2952 950.3V949.97V923.68C2952 920.087 2951.67 917.263 2951.01 915.21C2950.42 913.157 2949.47 911.69 2948.15 910.81C2946.83 909.93 2945.03 909.49 2942.76 909.49C2941.51 909.49 2940.3 909.673 2939.13 910.04C2937.96 910.333 2936.75 910.7 2935.5 911.14L2938.69 908.72L2937.15 917.08C2936.93 919.427 2936.23 921.15 2935.06 922.25C2933.96 923.277 2932.68 923.79 2931.21 923.79C2929.74 923.79 2928.61 923.387 2927.8 922.58C2927.07 921.773 2926.55 920.637 2926.26 919.17C2926.85 915.43 2928.97 912.387 2932.64 910.04C2936.38 907.693 2941 906.52 2946.5 906.52C2950.24 906.52 2953.32 907.18 2955.74 908.5C2958.16 909.747 2959.92 911.727 2961.02 914.44C2962.19 917.153 2962.78 920.637 2962.78 924.89V949.42C2962.78 951.18 2963.04 952.427 2963.55 953.16C2964.14 953.82 2964.87 954.15 2965.75 954.15C2966.56 954.15 2967.25 953.967 2967.84 953.6C2968.5 953.16 2969.27 952.427 2970.15 951.4L2971.47 952.5C2970.66 954.48 2969.45 956.093 2967.84 957.34C2966.23 958.587 2964.21 959.21 2961.79 959.21ZM3010.95 959.43C3007.21 959.43 3004.1 958.367 3001.6 956.24C2999.18 954.113 2997.97 951.033 2997.97 947C2997.97 944.727 2998.45 942.6 2999.4 940.62C3000.43 938.64 3002.19 936.807 3004.68 935.12C3007.25 933.36 3010.84 931.783 3015.46 930.39C3016.71 929.95 3018.14 929.51 3019.75 929.07C3021.37 928.63 3023.16 928.153 3025.14 927.64C3027.2 927.053 3029.32 926.503 3031.52 925.99V927.97C3028.22 928.997 3025.44 929.877 3023.16 930.61C3020.96 931.27 3019.31 931.857 3018.21 932.37C3015.72 933.47 3013.78 934.643 3012.38 935.89C3010.99 937.137 3010 938.457 3009.41 939.85C3008.83 941.243 3008.53 942.783 3008.53 944.47C3008.53 947.477 3009.27 949.677 3010.73 951.07C3012.2 952.39 3014.03 953.05 3016.23 953.05C3017.63 953.05 3018.91 952.903 3020.08 952.61C3021.26 952.243 3022.54 951.62 3023.93 950.74C3025.33 949.787 3026.94 948.393 3028.77 946.56L3029.65 950.85H3026.35C3024.81 952.903 3023.24 954.59 3021.62 955.91C3020.01 957.157 3018.32 958.037 3016.56 958.55C3014.8 959.137 3012.93 959.43 3010.95 959.43ZM3035.37 959.21C3032.22 959.21 3029.84 958.44 3028.22 956.9C3026.61 955.287 3025.73 953.087 3025.58 950.3V949.97V923.68C3025.58 920.087 3025.25 917.263 3024.59 915.21C3024.01 913.157 3023.05 911.69 3021.73 910.81C3020.41 909.93 3018.62 909.49 3016.34 909.49C3015.1 909.49 3013.89 909.673 3012.71 910.04C3011.54 910.333 3010.33 910.7 3009.08 911.14L3012.27 908.72L3010.73 917.08C3010.51 919.427 3009.82 921.15 3008.64 922.25C3007.54 923.277 3006.26 923.79 3004.79 923.79C3003.33 923.79 3002.19 923.387 3001.38 922.58C3000.65 921.773 3000.14 920.637 2999.84 919.17C3000.43 915.43 3002.56 912.387 3006.22 910.04C3009.96 907.693 3014.58 906.52 3020.08 906.52C3023.82 906.52 3026.9 907.18 3029.32 908.5C3031.74 909.747 3033.5 911.727 3034.6 914.44C3035.78 917.153 3036.36 920.637 3036.36 924.89V949.42C3036.36 951.18 3036.62 952.427 3037.13 953.16C3037.72 953.82 3038.45 954.15 3039.33 954.15C3040.14 954.15 3040.84 953.967 3041.42 953.6C3042.08 953.16 3042.85 952.427 3043.73 951.4L3045.05 952.5C3044.25 954.48 3043.04 956.093 3041.42 957.34C3039.81 958.587 3037.79 959.21 3035.37 959.21ZM3096.09 959.43C3091.47 959.43 3087.36 958.403 3083.77 956.35C3080.18 954.297 3077.32 951.327 3075.19 947.44C3073.14 943.48 3072.11 938.713 3072.11 933.14C3072.11 927.567 3073.17 922.8 3075.3 918.84C3077.5 914.88 3080.4 911.837 3083.99 909.71C3087.58 907.583 3091.62 906.52 3096.09 906.52C3100.78 906.52 3104.93 907.583 3108.52 909.71C3112.11 911.763 3114.94 914.733 3116.99 918.62C3119.04 922.507 3120.07 927.237 3120.07 932.81C3120.07 938.31 3118.97 943.077 3116.77 947.11C3114.64 951.07 3111.78 954.113 3108.19 956.24C3104.6 958.367 3100.56 959.43 3096.09 959.43ZM3096.09 956.9C3098.66 956.9 3100.86 956.057 3102.69 954.37C3104.52 952.683 3105.92 950.08 3106.87 946.56C3107.9 942.967 3108.41 938.383 3108.41 932.81C3108.41 927.237 3107.9 922.727 3106.87 919.28C3105.92 915.76 3104.52 913.193 3102.69 911.58C3100.86 909.893 3098.66 909.05 3096.09 909.05C3093.6 909.05 3091.4 909.893 3089.49 911.58C3087.66 913.267 3086.23 915.907 3085.2 919.5C3084.25 923.02 3083.77 927.567 3083.77 933.14C3083.77 938.64 3084.25 943.15 3085.2 946.67C3086.23 950.19 3087.66 952.793 3089.49 954.48C3091.4 956.093 3093.6 956.9 3096.09 956.9ZM3126.98 958V955.91L3133.8 954.92C3133.88 952.867 3133.91 950.667 3133.91 948.32C3133.99 945.973 3134.02 943.663 3134.02 941.39C3134.1 939.043 3134.13 936.953 3134.13 935.12V884.96L3126.54 883.2V881.44L3144.03 876.82L3145.24 877.92L3144.8 899.92V916.75V916.97V949.53V949.75V959.21L3126.98 958ZM3158.88 959.43C3156.83 959.43 3154.85 959.063 3152.94 958.33C3151.11 957.67 3149.39 956.533 3147.77 954.92C3146.16 953.307 3144.69 951.217 3143.37 948.65H3141.83L3142.82 946.34C3145.1 949.053 3147.15 950.96 3148.98 952.06C3150.82 953.16 3153.02 953.71 3155.58 953.71C3157.93 953.71 3160.02 952.94 3161.85 951.4C3163.76 949.86 3165.26 947.513 3166.36 944.36C3167.54 941.207 3168.12 937.21 3168.12 932.37C3168.12 925.183 3166.91 920.013 3164.49 916.86C3162.07 913.707 3159.03 912.13 3155.36 912.13C3153.68 912.13 3152.1 912.497 3150.63 913.23C3149.24 913.963 3147.92 914.99 3146.67 916.31C3145.43 917.557 3144.22 919.023 3143.04 920.71L3142.38 917.96H3143.59C3144.69 915.687 3146.05 913.707 3147.66 912.02C3149.28 910.333 3151.11 909.013 3153.16 908.06C3155.22 907.033 3157.49 906.52 3159.98 906.52C3163.65 906.52 3166.95 907.473 3169.88 909.38C3172.82 911.287 3175.13 914.11 3176.81 917.85C3178.57 921.517 3179.45 926.137 3179.45 931.71C3179.45 937.503 3178.54 942.49 3176.7 946.67C3174.94 950.777 3172.52 953.93 3169.44 956.13C3166.36 958.33 3162.84 959.43 3158.88 959.43ZM3186.37 985.83C3184.68 985.83 3183.18 985.61 3181.86 985.17C3180.54 984.803 3179.44 984.217 3178.56 983.41C3177.68 982.603 3177.02 981.577 3176.58 980.33C3176.72 978.863 3177.38 977.69 3178.56 976.81C3179.66 976.003 3181.05 975.6 3182.74 975.6C3184.13 975.6 3185.38 975.857 3186.48 976.37C3187.58 976.883 3188.71 977.91 3189.89 979.45L3193.08 983.3V983.96H3191.1V982.97C3191.61 982.603 3192.01 982.127 3192.31 981.54C3192.6 981.027 3192.86 980.293 3193.08 979.34C3193.66 977.287 3194.03 974.94 3194.18 972.3C3194.32 969.66 3194.36 966.69 3194.29 963.39C3194.21 960.163 3194.18 956.533 3194.18 952.5V930.39C3194.18 927.09 3194.14 924.377 3194.07 922.25C3194.07 920.05 3194.03 917.777 3193.96 915.43L3186.59 913.56V911.8L3204.3 906.52L3205.4 907.51L3204.96 921.7V955.91C3204.96 960.31 3204.77 964.013 3204.41 967.02C3204.11 970.1 3203.53 972.667 3202.65 974.72C3201.77 976.773 3200.59 978.607 3199.13 980.22C3197.15 982.2 3195.06 983.63 3192.86 984.51C3190.73 985.39 3188.57 985.83 3186.37 985.83ZM3199.35 896.51C3197.51 896.51 3195.94 895.923 3194.62 894.75C3193.3 893.503 3192.64 891.89 3192.64 889.91C3192.64 887.93 3193.3 886.353 3194.62 885.18C3195.94 883.933 3197.51 883.31 3199.35 883.31C3201.18 883.31 3202.76 883.933 3204.08 885.18C3205.4 886.353 3206.06 887.93 3206.06 889.91C3206.06 891.89 3205.4 893.503 3204.08 894.75C3202.76 895.923 3201.18 896.51 3199.35 896.51ZM3240.77 959.43C3236.44 959.43 3232.52 958.44 3229 956.46C3225.48 954.407 3222.69 951.51 3220.63 947.77C3218.58 943.957 3217.56 939.337 3217.56 933.91C3217.56 928.19 3218.62 923.313 3220.75 919.28C3222.95 915.173 3225.77 912.02 3229.22 909.82C3232.74 907.62 3236.51 906.52 3240.55 906.52C3244.29 906.52 3247.59 907.327 3250.45 908.94C3253.38 910.553 3255.65 912.79 3257.27 915.65C3258.88 918.437 3259.69 921.737 3259.69 925.55C3259.69 926.723 3259.61 927.713 3259.47 928.52C3259.39 929.327 3259.25 930.097 3259.03 930.83H3221.85V928.3H3243.3C3245.86 928.3 3247.62 927.823 3248.58 926.87C3249.53 925.917 3250.01 924.23 3250.01 921.81C3250.01 919.023 3249.6 916.713 3248.8 914.88C3248.06 912.973 3247 911.543 3245.61 910.59C3244.21 909.637 3242.56 909.16 3240.66 909.16C3238.68 909.16 3236.77 909.893 3234.94 911.36C3233.1 912.827 3231.6 915.21 3230.43 918.51C3229.33 921.737 3228.78 926.137 3228.78 931.71C3228.78 936.11 3229.47 939.887 3230.87 943.04C3232.26 946.193 3234.17 948.613 3236.59 950.3C3239.01 951.987 3241.76 952.83 3244.84 952.83C3247.84 952.83 3250.41 952.207 3252.54 950.96C3254.74 949.713 3256.68 948.1 3258.37 946.12L3259.91 947.22C3258.59 950.08 3256.94 952.427 3254.96 954.26C3253.05 956.02 3250.89 957.303 3248.47 958.11C3246.05 958.99 3243.48 959.43 3240.77 959.43ZM3278.7 910.92V907.95H3296.41V910.92H3278.7ZM3285.52 959.43C3281.56 959.43 3278.45 958.403 3276.17 956.35C3273.9 954.297 3272.76 951.217 3272.76 947.11C3272.76 944.91 3272.76 942.93 3272.76 941.17C3272.76 939.41 3272.76 937.21 3272.76 934.57L3272.98 910.92H3265.5V908.83L3276.5 906.85L3272.76 909.27L3280.46 891.23H3284.09L3283.65 909.27V910.04V946.67C3283.65 949.383 3284.2 951.327 3285.3 952.5C3286.48 953.6 3287.94 954.15 3289.7 954.15C3291.17 954.15 3292.45 953.857 3293.55 953.27C3294.73 952.683 3295.79 951.84 3296.74 950.74L3298.17 951.84C3297.37 953.453 3296.38 954.847 3295.2 956.02C3294.1 957.12 3292.75 957.963 3291.13 958.55C3289.59 959.137 3287.72 959.43 3285.52 959.43ZM3327.15 959.43C3322.53 959.43 3318.43 958.403 3314.83 956.35C3311.24 954.297 3308.38 951.327 3306.25 947.44C3304.2 943.48 3303.17 938.713 3303.17 933.14C3303.17 927.567 3304.24 922.8 3306.36 918.84C3308.56 914.88 3311.46 911.837 3315.05 909.71C3318.65 907.583 3322.68 906.52 3327.15 906.52C3331.85 906.52 3335.99 907.583 3339.58 909.71C3343.18 911.763 3346 914.733 3348.05 918.62C3350.11 922.507 3351.13 927.237 3351.13 932.81C3351.13 938.31 3350.03 943.077 3347.83 947.11C3345.71 951.07 3342.85 954.113 3339.25 956.24C3335.66 958.367 3331.63 959.43 3327.15 959.43ZM3327.15 956.9C3329.72 956.9 3331.92 956.057 3333.75 954.37C3335.59 952.683 3336.98 950.08 3337.93 946.56C3338.96 942.967 3339.47 938.383 3339.47 932.81C3339.47 927.237 3338.96 922.727 3337.93 919.28C3336.98 915.76 3335.59 913.193 3333.75 911.58C3331.92 909.893 3329.72 909.05 3327.15 909.05C3324.66 909.05 3322.46 909.893 3320.55 911.58C3318.72 913.267 3317.29 915.907 3316.26 919.5C3315.31 923.02 3314.83 927.567 3314.83 933.14C3314.83 938.64 3315.31 943.15 3316.26 946.67C3317.29 950.19 3318.72 952.793 3320.55 954.48C3322.46 956.093 3324.66 956.9 3327.15 956.9ZM3375.85 959.43C3372.77 959.43 3370.02 959.063 3367.6 958.33C3365.18 957.67 3362.72 956.643 3360.23 955.25L3360.89 941.61H3362.65L3367.82 956.24H3364.08V954.15C3365.91 955.103 3367.67 955.837 3369.36 956.35C3371.12 956.863 3373.28 957.12 3375.85 957.12C3378.12 957.12 3380.03 956.717 3381.57 955.91C3383.11 955.103 3384.28 954.04 3385.09 952.72C3385.89 951.327 3386.3 949.75 3386.3 947.99C3386.3 945.13 3385.27 943.003 3383.22 941.61C3381.24 940.217 3378.89 938.933 3376.18 937.76L3373.1 936.44C3371.04 935.56 3369.03 934.533 3367.05 933.36C3365.14 932.187 3363.56 930.683 3362.32 928.85C3361.14 926.943 3360.56 924.56 3360.56 921.7C3360.56 918.767 3361.22 916.163 3362.54 913.89C3363.86 911.617 3365.8 909.82 3368.37 908.5C3371.01 907.18 3374.31 906.52 3378.27 906.52C3381.05 906.52 3383.55 906.85 3385.75 907.51C3387.95 908.17 3390.11 909.123 3392.24 910.37L3391.8 923.13H3389.93L3384.98 909.49H3389.05V912.57C3387.43 911.25 3385.78 910.333 3384.1 909.82C3382.41 909.233 3380.47 908.94 3378.27 908.94C3375.19 908.94 3372.8 909.71 3371.12 911.25C3369.43 912.717 3368.59 914.697 3368.59 917.19C3368.59 919.977 3369.58 922.103 3371.56 923.57C3373.54 924.963 3375.88 926.247 3378.6 927.42L3381.68 928.74C3383.8 929.693 3385.86 930.757 3387.84 931.93C3389.89 933.03 3391.54 934.533 3392.79 936.44C3394.11 938.273 3394.77 940.693 3394.77 943.7C3394.77 946.853 3394.03 949.64 3392.57 952.06C3391.1 954.407 3388.97 956.24 3386.19 957.56C3383.4 958.807 3379.95 959.43 3375.85 959.43ZM2483.22 1079.43C2478.75 1079.43 2474.75 1078.44 2471.23 1076.46C2467.71 1074.48 2464.96 1071.58 2462.98 1067.77C2461 1063.88 2460.01 1059.19 2460.01 1053.69C2460.01 1047.75 2461.15 1042.76 2463.42 1038.73C2465.77 1034.7 2468.81 1031.65 2472.55 1029.6C2476.29 1027.55 2480.4 1026.52 2484.87 1026.52C2488.1 1026.52 2490.88 1027.11 2493.23 1028.28C2495.65 1029.38 2497.56 1030.92 2498.95 1032.9C2500.34 1034.81 2501.19 1036.97 2501.48 1039.39C2501.26 1040.86 2500.71 1041.96 2499.83 1042.69C2499.02 1043.42 2497.89 1043.79 2496.42 1043.79C2494.95 1043.79 2493.67 1043.28 2492.57 1042.25C2491.47 1041.15 2490.77 1039.43 2490.48 1037.08L2489.05 1028.61L2493.45 1031.69C2492.2 1030.59 2490.88 1029.89 2489.49 1029.6C2488.1 1029.31 2486.78 1029.16 2485.53 1029.16C2482.67 1029.16 2480.18 1030.08 2478.05 1031.91C2475.92 1033.67 2474.27 1036.24 2473.1 1039.61C2471.93 1042.91 2471.34 1046.87 2471.34 1051.49C2471.34 1055.52 2471.93 1059.15 2473.1 1062.38C2474.27 1065.61 2476.03 1068.17 2478.38 1070.08C2480.8 1071.91 2483.77 1072.83 2487.29 1072.83C2489.2 1072.83 2490.92 1072.57 2492.46 1072.06C2494.07 1071.47 2495.5 1070.7 2496.75 1069.75C2498.07 1068.72 2499.28 1067.51 2500.38 1066.12L2502.03 1067.22C2500.71 1070.01 2499.1 1072.32 2497.19 1074.15C2495.36 1075.98 2493.27 1077.3 2490.92 1078.11C2488.57 1078.99 2486.01 1079.43 2483.22 1079.43ZM2533.31 1079.43C2528.69 1079.43 2524.58 1078.4 2520.99 1076.35C2517.39 1074.3 2514.53 1071.33 2512.41 1067.44C2510.35 1063.48 2509.33 1058.71 2509.33 1053.14C2509.33 1047.57 2510.39 1042.8 2512.52 1038.84C2514.72 1034.88 2517.61 1031.84 2521.21 1029.71C2524.8 1027.58 2528.83 1026.52 2533.31 1026.52C2538 1026.52 2542.14 1027.58 2545.74 1029.71C2549.33 1031.76 2552.15 1034.73 2554.21 1038.62C2556.26 1042.51 2557.29 1047.24 2557.29 1052.81C2557.29 1058.31 2556.19 1063.08 2553.99 1067.11C2551.86 1071.07 2549 1074.11 2545.41 1076.24C2541.81 1078.37 2537.78 1079.43 2533.31 1079.43ZM2533.31 1076.9C2535.87 1076.9 2538.07 1076.06 2539.91 1074.37C2541.74 1072.68 2543.13 1070.08 2544.09 1066.56C2545.11 1062.97 2545.63 1058.38 2545.63 1052.81C2545.63 1047.24 2545.11 1042.73 2544.09 1039.28C2543.13 1035.76 2541.74 1033.19 2539.91 1031.58C2538.07 1029.89 2535.87 1029.05 2533.31 1029.05C2530.81 1029.05 2528.61 1029.89 2526.71 1031.58C2524.87 1033.27 2523.44 1035.91 2522.42 1039.5C2521.46 1043.02 2520.99 1047.57 2520.99 1053.14C2520.99 1058.64 2521.46 1063.15 2522.42 1066.67C2523.44 1070.19 2524.87 1072.79 2526.71 1074.48C2528.61 1076.09 2530.81 1076.9 2533.31 1076.9ZM2564.84 1078V1075.91L2574.85 1074.48H2579.69L2589.48 1075.91V1078H2564.84ZM2571.55 1078C2571.7 1076.24 2571.77 1074 2571.77 1071.29C2571.84 1068.5 2571.88 1065.68 2571.88 1062.82C2571.95 1059.89 2571.99 1057.21 2571.99 1054.79V1050.61C2571.99 1048.41 2571.99 1046.47 2571.99 1044.78C2571.99 1043.09 2571.95 1041.52 2571.88 1040.05C2571.88 1038.51 2571.84 1036.97 2571.77 1035.43L2564.4 1033.56V1031.8L2581.67 1026.52L2582.77 1027.51V1037.74V1038.4V1054.79C2582.77 1057.21 2582.77 1059.89 2582.77 1062.82C2582.84 1065.68 2582.92 1068.5 2582.99 1071.29C2583.06 1074 2583.17 1076.24 2583.32 1078H2571.55ZM2595.97 1078V1075.91L2605.76 1074.48H2610.71L2620.39 1075.91V1078H2595.97ZM2602.35 1078C2602.57 1076.24 2602.72 1074 2602.79 1071.29C2602.86 1068.5 2602.9 1065.68 2602.9 1062.82C2602.97 1059.89 2603.01 1057.21 2603.01 1054.79V1043.9C2603.01 1039.79 2602.39 1037.01 2601.14 1035.54C2599.97 1034.07 2598.02 1033.34 2595.31 1033.34C2593.7 1033.34 2592.08 1033.63 2590.47 1034.22C2588.93 1034.81 2587.39 1035.69 2585.85 1036.86C2584.31 1037.96 2582.73 1039.32 2581.12 1040.93L2580.57 1038.73H2581.23C2582.84 1036.38 2584.64 1034.29 2586.62 1032.46C2588.67 1030.63 2590.87 1029.2 2593.22 1028.17C2595.57 1027.07 2598.02 1026.52 2600.59 1026.52C2604.77 1026.52 2608 1027.84 2610.27 1030.48C2612.54 1033.12 2613.68 1037.52 2613.68 1043.68V1054.79C2613.68 1057.21 2613.68 1059.89 2613.68 1062.82C2613.75 1065.68 2613.83 1068.5 2613.9 1071.29C2613.97 1074 2614.08 1076.24 2614.23 1078H2602.35ZM2626.88 1078V1075.91L2636.67 1074.48H2641.51L2651.41 1075.91V1078H2626.88ZM2633.37 1078C2633.52 1076.24 2633.63 1074 2633.7 1071.29C2633.77 1068.5 2633.81 1065.68 2633.81 1062.82C2633.81 1059.89 2633.81 1057.21 2633.81 1054.79V1043.9C2633.81 1039.79 2633.22 1037.01 2632.05 1035.54C2630.88 1034.07 2628.93 1033.34 2626.22 1033.34C2624.68 1033.34 2623.1 1033.63 2621.49 1034.22C2619.95 1034.81 2618.37 1035.69 2616.76 1036.86C2615.22 1038.03 2613.64 1039.43 2612.03 1041.04L2611.37 1038.73H2612.14C2613.75 1036.38 2615.55 1034.29 2617.53 1032.46C2619.58 1030.63 2621.78 1029.2 2624.13 1028.17C2626.48 1027.07 2628.97 1026.52 2631.61 1026.52C2635.79 1026.52 2639.02 1027.84 2641.29 1030.48C2643.56 1033.12 2644.7 1037.52 2644.7 1043.68V1054.79C2644.7 1057.21 2644.7 1059.89 2644.7 1062.82C2644.77 1065.68 2644.85 1068.5 2644.92 1071.29C2644.99 1074 2645.07 1076.24 2645.14 1078H2633.37ZM2678.8 1105.83C2677.11 1105.83 2675.61 1105.61 2674.29 1105.17C2672.97 1104.8 2671.87 1104.22 2670.99 1103.41C2670.11 1102.6 2669.45 1101.58 2669.01 1100.33C2669.15 1098.86 2669.81 1097.69 2670.99 1096.81C2672.09 1096 2673.48 1095.6 2675.17 1095.6C2676.56 1095.6 2677.81 1095.86 2678.91 1096.37C2680.01 1096.88 2681.14 1097.91 2682.32 1099.45L2685.51 1103.3V1103.96H2683.53V1102.97C2684.04 1102.6 2684.44 1102.13 2684.74 1101.54C2685.03 1101.03 2685.29 1100.29 2685.51 1099.34C2686.09 1097.29 2686.46 1094.94 2686.61 1092.3C2686.75 1089.66 2686.79 1086.69 2686.72 1083.39C2686.64 1080.16 2686.61 1076.53 2686.61 1072.5V1050.39C2686.61 1047.09 2686.57 1044.38 2686.5 1042.25C2686.5 1040.05 2686.46 1037.78 2686.39 1035.43L2679.02 1033.56V1031.8L2696.73 1026.52L2697.83 1027.51L2697.39 1041.7V1075.91C2697.39 1080.31 2697.2 1084.01 2696.84 1087.02C2696.54 1090.1 2695.96 1092.67 2695.08 1094.72C2694.2 1096.77 2693.02 1098.61 2691.56 1100.22C2689.58 1102.2 2687.49 1103.63 2685.29 1104.51C2683.16 1105.39 2681 1105.83 2678.8 1105.83ZM2691.78 1016.51C2689.94 1016.51 2688.37 1015.92 2687.05 1014.75C2685.73 1013.5 2685.07 1011.89 2685.07 1009.91C2685.07 1007.93 2685.73 1006.35 2687.05 1005.18C2688.37 1003.93 2689.94 1003.31 2691.78 1003.31C2693.61 1003.31 2695.19 1003.93 2696.51 1005.18C2697.83 1006.35 2698.49 1007.93 2698.49 1009.91C2698.49 1011.89 2697.83 1013.5 2696.51 1014.75C2695.19 1015.92 2693.61 1016.51 2691.78 1016.51ZM2722.2 1079.43C2718.46 1079.43 2715.35 1078.37 2712.85 1076.24C2710.43 1074.11 2709.22 1071.03 2709.22 1067C2709.22 1064.73 2709.7 1062.6 2710.65 1060.62C2711.68 1058.64 2713.44 1056.81 2715.93 1055.12C2718.5 1053.36 2722.09 1051.78 2726.71 1050.39C2727.96 1049.95 2729.39 1049.51 2731 1049.07C2732.62 1048.63 2734.41 1048.15 2736.39 1047.64C2738.45 1047.05 2740.57 1046.5 2742.77 1045.99V1047.97C2739.47 1049 2736.69 1049.88 2734.41 1050.61C2732.21 1051.27 2730.56 1051.86 2729.46 1052.37C2726.97 1053.47 2725.03 1054.64 2723.63 1055.89C2722.24 1057.14 2721.25 1058.46 2720.66 1059.85C2720.08 1061.24 2719.78 1062.78 2719.78 1064.47C2719.78 1067.48 2720.52 1069.68 2721.98 1071.07C2723.45 1072.39 2725.28 1073.05 2727.48 1073.05C2728.88 1073.05 2730.16 1072.9 2731.33 1072.61C2732.51 1072.24 2733.79 1071.62 2735.18 1070.74C2736.58 1069.79 2738.19 1068.39 2740.02 1066.56L2740.9 1070.85H2737.6C2736.06 1072.9 2734.49 1074.59 2732.87 1075.91C2731.26 1077.16 2729.57 1078.04 2727.81 1078.55C2726.05 1079.14 2724.18 1079.43 2722.2 1079.43ZM2746.62 1079.21C2743.47 1079.21 2741.09 1078.44 2739.47 1076.9C2737.86 1075.29 2736.98 1073.09 2736.83 1070.3V1069.97V1043.68C2736.83 1040.09 2736.5 1037.26 2735.84 1035.21C2735.26 1033.16 2734.3 1031.69 2732.98 1030.81C2731.66 1029.93 2729.87 1029.49 2727.59 1029.49C2726.35 1029.49 2725.14 1029.67 2723.96 1030.04C2722.79 1030.33 2721.58 1030.7 2720.33 1031.14L2723.52 1028.72L2721.98 1037.08C2721.76 1039.43 2721.07 1041.15 2719.89 1042.25C2718.79 1043.28 2717.51 1043.79 2716.04 1043.79C2714.58 1043.79 2713.44 1043.39 2712.63 1042.58C2711.9 1041.77 2711.39 1040.64 2711.09 1039.17C2711.68 1035.43 2713.81 1032.39 2717.47 1030.04C2721.21 1027.69 2725.83 1026.52 2731.33 1026.52C2735.07 1026.52 2738.15 1027.18 2740.57 1028.5C2742.99 1029.75 2744.75 1031.73 2745.85 1034.44C2747.03 1037.15 2747.61 1040.64 2747.61 1044.89V1069.42C2747.61 1071.18 2747.87 1072.43 2748.38 1073.16C2748.97 1073.82 2749.7 1074.15 2750.58 1074.15C2751.39 1074.15 2752.09 1073.97 2752.67 1073.6C2753.33 1073.16 2754.1 1072.43 2754.98 1071.4L2756.3 1072.5C2755.5 1074.48 2754.29 1076.09 2752.67 1077.34C2751.06 1078.59 2749.04 1079.21 2746.62 1079.21ZM2779 1078.33L2758.98 1027.95H2770.97L2785.93 1068.1H2783.95L2784.39 1066.67L2798.47 1027.95H2801.77L2783.07 1078.33H2779ZM2755.02 1030.04V1027.95H2780.43V1029.93L2770.09 1031.47H2763.93L2755.02 1030.04ZM2790 1029.93V1027.95H2806.28V1030.04L2799.68 1031.03H2798.58L2790 1029.93ZM2822.32 1079.43C2818.58 1079.43 2815.46 1078.37 2812.97 1076.24C2810.55 1074.11 2809.34 1071.03 2809.34 1067C2809.34 1064.73 2809.82 1062.6 2810.77 1060.62C2811.8 1058.64 2813.56 1056.81 2816.05 1055.12C2818.62 1053.36 2822.21 1051.78 2826.83 1050.39C2828.08 1049.95 2829.51 1049.51 2831.12 1049.07C2832.73 1048.63 2834.53 1048.15 2836.51 1047.64C2838.56 1047.05 2840.69 1046.5 2842.89 1045.99V1047.97C2839.59 1049 2836.8 1049.88 2834.53 1050.61C2832.33 1051.27 2830.68 1051.86 2829.58 1052.37C2827.09 1053.47 2825.14 1054.64 2823.75 1055.89C2822.36 1057.14 2821.37 1058.46 2820.78 1059.85C2820.19 1061.24 2819.9 1062.78 2819.9 1064.47C2819.9 1067.48 2820.63 1069.68 2822.1 1071.07C2823.57 1072.39 2825.4 1073.05 2827.6 1073.05C2828.99 1073.05 2830.28 1072.9 2831.45 1072.61C2832.62 1072.24 2833.91 1071.62 2835.3 1070.74C2836.69 1069.79 2838.31 1068.39 2840.14 1066.56L2841.02 1070.85H2837.72C2836.18 1072.9 2834.6 1074.59 2832.99 1075.91C2831.38 1077.16 2829.69 1078.04 2827.93 1078.55C2826.17 1079.14 2824.3 1079.43 2822.32 1079.43ZM2846.74 1079.21C2843.59 1079.21 2841.2 1078.44 2839.59 1076.9C2837.98 1075.29 2837.1 1073.09 2836.95 1070.3V1069.97V1043.68C2836.95 1040.09 2836.62 1037.26 2835.96 1035.21C2835.37 1033.16 2834.42 1031.69 2833.1 1030.81C2831.78 1029.93 2829.98 1029.49 2827.71 1029.49C2826.46 1029.49 2825.25 1029.67 2824.08 1030.04C2822.91 1030.33 2821.7 1030.7 2820.45 1031.14L2823.64 1028.72L2822.1 1037.08C2821.88 1039.43 2821.18 1041.15 2820.01 1042.25C2818.91 1043.28 2817.63 1043.79 2816.16 1043.79C2814.69 1043.79 2813.56 1043.39 2812.75 1042.58C2812.02 1041.77 2811.5 1040.64 2811.21 1039.17C2811.8 1035.43 2813.92 1032.39 2817.59 1030.04C2821.33 1027.69 2825.95 1026.52 2831.45 1026.52C2835.19 1026.52 2838.27 1027.18 2840.69 1028.5C2843.11 1029.75 2844.87 1031.73 2845.97 1034.44C2847.14 1037.15 2847.73 1040.64 2847.73 1044.89V1069.42C2847.73 1071.18 2847.99 1072.43 2848.5 1073.16C2849.09 1073.82 2849.82 1074.15 2850.7 1074.15C2851.51 1074.15 2852.2 1073.97 2852.79 1073.6C2853.45 1073.16 2854.22 1072.43 2855.1 1071.4L2856.42 1072.5C2855.61 1074.48 2854.4 1076.09 2852.79 1077.34C2851.18 1078.59 2849.16 1079.21 2846.74 1079.21ZM2877.95 1079.43C2874.87 1079.43 2872.12 1079.06 2869.7 1078.33C2867.28 1077.67 2864.82 1076.64 2862.33 1075.25L2862.99 1061.61H2864.75L2869.92 1076.24H2866.18V1074.15C2868.01 1075.1 2869.77 1075.84 2871.46 1076.35C2873.22 1076.86 2875.38 1077.12 2877.95 1077.12C2880.22 1077.12 2882.13 1076.72 2883.67 1075.91C2885.21 1075.1 2886.38 1074.04 2887.19 1072.72C2887.99 1071.33 2888.4 1069.75 2888.4 1067.99C2888.4 1065.13 2887.37 1063 2885.32 1061.61C2883.34 1060.22 2880.99 1058.93 2878.28 1057.76L2875.2 1056.44C2873.14 1055.56 2871.13 1054.53 2869.15 1053.36C2867.24 1052.19 2865.66 1050.68 2864.42 1048.85C2863.24 1046.94 2862.66 1044.56 2862.66 1041.7C2862.66 1038.77 2863.32 1036.16 2864.64 1033.89C2865.96 1031.62 2867.9 1029.82 2870.47 1028.5C2873.11 1027.18 2876.41 1026.52 2880.37 1026.52C2883.15 1026.52 2885.65 1026.85 2887.85 1027.51C2890.05 1028.17 2892.21 1029.12 2894.34 1030.37L2893.9 1043.13H2892.03L2887.08 1029.49H2891.15V1032.57C2889.53 1031.25 2887.88 1030.33 2886.2 1029.82C2884.51 1029.23 2882.57 1028.94 2880.37 1028.94C2877.29 1028.94 2874.9 1029.71 2873.22 1031.25C2871.53 1032.72 2870.69 1034.7 2870.69 1037.19C2870.69 1039.98 2871.68 1042.1 2873.66 1043.57C2875.64 1044.96 2877.98 1046.25 2880.7 1047.42L2883.78 1048.74C2885.9 1049.69 2887.96 1050.76 2889.94 1051.93C2891.99 1053.03 2893.64 1054.53 2894.89 1056.44C2896.21 1058.27 2896.87 1060.69 2896.87 1063.7C2896.87 1066.85 2896.13 1069.64 2894.67 1072.06C2893.2 1074.41 2891.07 1076.24 2888.29 1077.56C2885.5 1078.81 2882.05 1079.43 2877.95 1079.43ZM2928.27 1079.43C2923.8 1079.43 2919.8 1078.44 2916.28 1076.46C2912.76 1074.48 2910.01 1071.58 2908.03 1067.77C2906.05 1063.88 2905.06 1059.19 2905.06 1053.69C2905.06 1047.75 2906.2 1042.76 2908.47 1038.73C2910.82 1034.7 2913.86 1031.65 2917.6 1029.6C2921.34 1027.55 2925.45 1026.52 2929.92 1026.52C2933.15 1026.52 2935.93 1027.11 2938.28 1028.28C2940.7 1029.38 2942.61 1030.92 2944 1032.9C2945.39 1034.81 2946.24 1036.97 2946.53 1039.39C2946.31 1040.86 2945.76 1041.96 2944.88 1042.69C2944.07 1043.42 2942.94 1043.79 2941.47 1043.79C2940 1043.79 2938.72 1043.28 2937.62 1042.25C2936.52 1041.15 2935.82 1039.43 2935.53 1037.08L2934.1 1028.61L2938.5 1031.69C2937.25 1030.59 2935.93 1029.89 2934.54 1029.6C2933.15 1029.31 2931.83 1029.16 2930.58 1029.16C2927.72 1029.16 2925.23 1030.08 2923.1 1031.91C2920.97 1033.67 2919.32 1036.24 2918.15 1039.61C2916.98 1042.91 2916.39 1046.87 2916.39 1051.49C2916.39 1055.52 2916.98 1059.15 2918.15 1062.38C2919.32 1065.61 2921.08 1068.17 2923.43 1070.08C2925.85 1071.91 2928.82 1072.83 2932.34 1072.83C2934.25 1072.83 2935.97 1072.57 2937.51 1072.06C2939.12 1071.47 2940.55 1070.7 2941.8 1069.75C2943.12 1068.72 2944.33 1067.51 2945.43 1066.12L2947.08 1067.22C2945.76 1070.01 2944.15 1072.32 2942.24 1074.15C2940.41 1075.98 2938.32 1077.3 2935.97 1078.11C2933.62 1078.99 2931.06 1079.43 2928.27 1079.43ZM2953.38 1078V1075.91L2963.39 1074.48H2968.23L2979.34 1075.91V1078H2953.38ZM2960.09 1078C2960.24 1076.24 2960.31 1074 2960.31 1071.29C2960.39 1068.5 2960.42 1065.68 2960.42 1062.82C2960.5 1059.89 2960.53 1057.21 2960.53 1054.79V1050.61C2960.53 1048.41 2960.53 1046.47 2960.53 1044.78C2960.53 1043.09 2960.5 1041.52 2960.42 1040.05C2960.42 1038.51 2960.39 1036.97 2960.31 1035.43L2952.94 1033.56V1031.8L2970.21 1026.52L2971.31 1027.51V1043.13V1043.46V1054.79C2971.31 1057.21 2971.31 1059.89 2971.31 1062.82C2971.39 1065.68 2971.46 1068.5 2971.53 1071.29C2971.61 1074 2971.72 1076.24 2971.86 1078H2960.09ZM2970.65 1049.07L2969.22 1043.35H2970.76C2971.94 1039.54 2973.33 1036.42 2974.94 1034C2976.56 1031.51 2978.35 1029.64 2980.33 1028.39C2982.31 1027.14 2984.4 1026.52 2986.6 1026.52C2988.51 1026.52 2990.12 1027 2991.44 1027.95C2992.84 1028.83 2993.75 1030.3 2994.19 1032.35C2994.05 1034.48 2993.31 1036.09 2991.99 1037.19C2990.67 1038.29 2989.17 1038.84 2987.48 1038.84C2986.09 1038.84 2984.81 1038.51 2983.63 1037.85C2982.46 1037.19 2981.36 1036.09 2980.33 1034.55L2978.13 1031.58L2981.76 1031.47C2979.71 1032.57 2977.58 1034.7 2975.38 1037.85C2973.26 1040.93 2971.68 1044.67 2970.65 1049.07ZM2998.82 1078V1075.91L3008.83 1074.48H3013.67L3023.46 1075.91V1078H2998.82ZM3005.53 1078C3005.68 1076.24 3005.75 1074 3005.75 1071.29C3005.83 1068.5 3005.86 1065.68 3005.86 1062.82C3005.94 1059.89 3005.97 1057.21 3005.97 1054.79V1050.61C3005.97 1047.31 3005.97 1044.56 3005.97 1042.36C3005.97 1040.09 3005.9 1037.78 3005.75 1035.43L2998.38 1033.56V1031.8L3016.09 1026.52L3017.19 1027.51L3016.75 1041.7V1054.79C3016.75 1057.21 3016.75 1059.89 3016.75 1062.82C3016.83 1065.68 3016.9 1068.5 3016.97 1071.29C3017.05 1074 3017.16 1076.24 3017.3 1078H3005.53ZM3011.25 1016.51C3009.42 1016.51 3007.84 1015.92 3006.52 1014.75C3005.2 1013.5 3004.54 1011.89 3004.54 1009.91C3004.54 1007.93 3005.2 1006.35 3006.52 1005.18C3007.84 1003.93 3009.42 1003.31 3011.25 1003.31C3013.16 1003.31 3014.74 1003.93 3015.98 1005.18C3017.3 1006.35 3017.96 1007.89 3017.96 1009.8C3017.96 1011.85 3017.3 1013.5 3015.98 1014.75C3014.74 1015.92 3013.16 1016.51 3011.25 1016.51ZM3028.79 1105.83V1103.74L3038.8 1102.31H3043.53L3054.64 1103.74V1105.83H3028.79ZM3035.5 1105.83C3035.65 1104 3035.72 1101.72 3035.72 1099.01C3035.8 1096.37 3035.83 1093.58 3035.83 1090.65C3035.91 1087.72 3035.94 1085.04 3035.94 1082.62V1050.61C3035.94 1048.41 3035.94 1046.47 3035.94 1044.78C3035.94 1043.09 3035.91 1041.52 3035.83 1040.05C3035.83 1038.51 3035.8 1036.97 3035.72 1035.43L3028.35 1033.56V1031.8L3045.62 1026.52L3046.72 1027.51V1036.64V1037.08V1069.31L3046.61 1069.75V1082.62C3046.61 1085.04 3046.61 1087.72 3046.61 1090.65C3046.69 1093.58 3046.76 1096.37 3046.83 1099.01C3046.91 1101.72 3047.02 1104 3047.16 1105.83H3035.5ZM3060.58 1079.43C3058.6 1079.43 3056.66 1079.06 3054.75 1078.33C3052.92 1077.67 3051.2 1076.53 3049.58 1074.92C3048.04 1073.31 3046.58 1071.22 3045.18 1068.65H3043.86L3044.63 1066.34C3046.91 1069.05 3048.96 1070.96 3050.79 1072.06C3052.7 1073.16 3054.9 1073.71 3057.39 1073.71C3059.74 1073.71 3061.83 1072.94 3063.66 1071.4C3065.57 1069.86 3067.07 1067.51 3068.17 1064.36C3069.27 1061.21 3069.82 1057.21 3069.82 1052.37C3069.82 1045.18 3068.61 1040.01 3066.19 1036.86C3063.85 1033.71 3060.84 1032.13 3057.17 1032.13C3055.56 1032.13 3054.02 1032.5 3052.55 1033.23C3051.16 1033.96 3049.84 1034.99 3048.59 1036.31C3047.35 1037.56 3046.14 1039.02 3044.96 1040.71L3044.3 1037.96H3045.51C3046.61 1035.69 3047.93 1033.71 3049.47 1032.02C3051.09 1030.33 3052.88 1029.01 3054.86 1028.06C3056.92 1027.03 3059.19 1026.52 3061.68 1026.52C3065.35 1026.52 3068.65 1027.47 3071.58 1029.38C3074.52 1031.29 3076.83 1034.11 3078.51 1037.85C3080.27 1041.52 3081.15 1046.14 3081.15 1051.71C3081.15 1057.5 3080.24 1062.49 3078.4 1066.67C3076.64 1070.78 3074.19 1073.93 3071.03 1076.13C3067.95 1078.33 3064.47 1079.43 3060.58 1079.43ZM3099.85 1030.92V1027.95H3117.56V1030.92H3099.85ZM3106.67 1079.43C3102.71 1079.43 3099.59 1078.4 3097.32 1076.35C3095.04 1074.3 3093.91 1071.22 3093.91 1067.11C3093.91 1064.91 3093.91 1062.93 3093.91 1061.17C3093.91 1059.41 3093.91 1057.21 3093.91 1054.57L3094.13 1030.92H3086.65V1028.83L3097.65 1026.85L3093.91 1029.27L3101.61 1011.23H3105.24L3104.8 1029.27V1030.04V1066.67C3104.8 1069.38 3105.35 1071.33 3106.45 1072.5C3107.62 1073.6 3109.09 1074.15 3110.85 1074.15C3112.31 1074.15 3113.6 1073.86 3114.7 1073.27C3115.87 1072.68 3116.93 1071.84 3117.89 1070.74L3119.32 1071.84C3118.51 1073.45 3117.52 1074.85 3116.35 1076.02C3115.25 1077.12 3113.89 1077.96 3112.28 1078.55C3110.74 1079.14 3108.87 1079.43 3106.67 1079.43ZM3160.41 1047.64C3160.41 1053.8 3161 1059.74 3162.17 1065.46C3163.35 1071.18 3165.11 1076.64 3167.45 1081.85C3169.8 1087.13 3172.7 1092.19 3176.14 1097.03L3174.6 1098.13C3169.76 1093.51 3165.58 1088.52 3162.06 1083.17C3158.54 1077.89 3155.83 1072.28 3153.92 1066.34C3152.09 1060.33 3151.17 1054.09 3151.17 1047.64C3151.17 1041.11 3152.09 1034.88 3153.92 1028.94C3155.83 1023 3158.54 1017.35 3162.06 1012C3165.58 1006.65 3169.76 1001.7 3174.6 997.15L3176.14 998.25C3172.7 1003.09 3169.8 1008.15 3167.45 1013.43C3165.11 1018.64 3163.35 1024.1 3162.17 1029.82C3161 1035.47 3160.41 1041.41 3160.41 1047.64ZM3204.24 1079.43C3199.91 1079.43 3195.99 1078.44 3192.47 1076.46C3188.95 1074.41 3186.16 1071.51 3184.11 1067.77C3182.06 1063.96 3181.03 1059.34 3181.03 1053.91C3181.03 1048.19 3182.09 1043.31 3184.22 1039.28C3186.42 1035.17 3189.24 1032.02 3192.69 1029.82C3196.21 1027.62 3199.99 1026.52 3204.02 1026.52C3207.76 1026.52 3211.06 1027.33 3213.92 1028.94C3216.85 1030.55 3219.13 1032.79 3220.74 1035.65C3222.35 1038.44 3223.16 1041.74 3223.16 1045.55C3223.16 1046.72 3223.09 1047.71 3222.94 1048.52C3222.87 1049.33 3222.72 1050.1 3222.5 1050.83H3185.32V1048.3H3206.77C3209.34 1048.3 3211.1 1047.82 3212.05 1046.87C3213 1045.92 3213.48 1044.23 3213.48 1041.81C3213.48 1039.02 3213.08 1036.71 3212.27 1034.88C3211.54 1032.97 3210.47 1031.54 3209.08 1030.59C3207.69 1029.64 3206.04 1029.16 3204.13 1029.16C3202.15 1029.16 3200.24 1029.89 3198.41 1031.36C3196.58 1032.83 3195.07 1035.21 3193.9 1038.51C3192.8 1041.74 3192.25 1046.14 3192.25 1051.71C3192.25 1056.11 3192.95 1059.89 3194.34 1063.04C3195.73 1066.19 3197.64 1068.61 3200.06 1070.3C3202.48 1071.99 3205.23 1072.83 3208.31 1072.83C3211.32 1072.83 3213.88 1072.21 3216.01 1070.96C3218.21 1069.71 3220.15 1068.1 3221.84 1066.12L3223.38 1067.22C3222.06 1070.08 3220.41 1072.43 3218.43 1074.26C3216.52 1076.02 3214.36 1077.3 3211.94 1078.11C3209.52 1078.99 3206.95 1079.43 3204.24 1079.43ZM3253.53 1078V1075.91L3264.97 1074.48H3270.58L3283.23 1075.91V1078H3253.53ZM3261.56 1078C3261.71 1075.07 3261.82 1071.66 3261.89 1067.77C3261.96 1063.88 3262 1059.85 3262 1055.67C3262 1051.42 3262 1047.38 3262 1043.57V1038.73C3262 1034.92 3262 1030.96 3262 1026.85C3262 1022.74 3261.96 1018.82 3261.89 1015.08C3261.82 1011.27 3261.71 1007.89 3261.56 1004.96H3273.88C3273.73 1007.89 3273.62 1011.27 3273.55 1015.08C3273.48 1018.89 3273.4 1022.85 3273.33 1026.96C3273.33 1030.99 3273.33 1034.92 3273.33 1038.73V1043.57C3273.33 1047.38 3273.33 1051.42 3273.33 1055.67C3273.4 1059.85 3273.48 1063.88 3273.55 1067.77C3273.62 1071.66 3273.73 1075.07 3273.88 1078H3261.56ZM3266.73 1046.98V1044.12H3278.5C3282.17 1044.12 3285.14 1043.31 3287.41 1041.7C3289.68 1040.01 3291.33 1037.74 3292.36 1034.88C3293.46 1031.95 3294.01 1028.72 3294.01 1025.2C3294.01 1019.7 3292.69 1015.41 3290.05 1012.33C3287.48 1009.25 3283.49 1007.71 3278.06 1007.71H3266.73V1004.96H3279.38C3285.39 1004.96 3290.34 1005.8 3294.23 1007.49C3298.12 1009.1 3300.98 1011.41 3302.81 1014.42C3304.72 1017.43 3305.67 1020.98 3305.67 1025.09C3305.67 1028.98 3304.75 1032.61 3302.92 1035.98C3301.09 1039.28 3298.12 1041.96 3294.01 1044.01C3289.98 1045.99 3284.48 1046.98 3277.51 1046.98H3266.73ZM3253.53 1007.05V1004.96H3270.36V1008.48H3264.97L3253.53 1007.05ZM3331.88 1079.43C3326.16 1079.43 3321.58 1078.15 3318.13 1075.58C3314.68 1073.01 3312.63 1069.2 3311.97 1064.14C3312.41 1062.82 3313.07 1061.9 3313.95 1061.39C3314.83 1060.8 3315.82 1060.51 3316.92 1060.51C3318.46 1060.51 3319.71 1061.06 3320.66 1062.16C3321.61 1063.26 3322.35 1065.17 3322.86 1067.88L3324.95 1077.67L3321.54 1074.7C3323.15 1075.58 3324.69 1076.17 3326.16 1076.46C3327.7 1076.75 3329.13 1076.9 3330.45 1076.9C3333.9 1076.9 3336.76 1075.98 3339.03 1074.15C3341.3 1072.32 3342.99 1069.93 3344.09 1067C3345.26 1063.99 3345.85 1060.8 3345.85 1057.43C3345.85 1054.28 3345.26 1051.38 3344.09 1048.74C3342.99 1046.03 3341.3 1043.86 3339.03 1042.25C3336.83 1040.64 3334.04 1039.83 3330.67 1039.83C3328.84 1039.83 3326.93 1040.01 3324.95 1040.38C3323.04 1040.75 3321.14 1041.37 3319.23 1042.25L3317.58 1041.37L3319.78 1007.71H3355.64V1017.17H3320.77L3322.31 1011.45L3320.33 1040.71L3318.35 1039.39C3320.84 1038.14 3323.37 1037.26 3325.94 1036.75C3328.58 1036.16 3331.33 1035.87 3334.19 1035.87C3338.81 1035.87 3342.84 1036.68 3346.29 1038.29C3349.81 1039.83 3352.56 1042.18 3354.54 1045.33C3356.52 1048.41 3357.51 1052.26 3357.51 1056.88C3357.51 1061.57 3356.45 1065.61 3354.32 1068.98C3352.19 1072.35 3349.19 1074.96 3345.3 1076.79C3341.49 1078.55 3337.01 1079.43 3331.88 1079.43ZM3380.86 1047.53C3380.86 1041.37 3380.28 1035.43 3379.1 1029.71C3377.93 1023.99 3376.17 1018.53 3373.82 1013.32C3371.48 1008.04 3368.58 1002.98 3365.13 998.14L3366.67 997.04C3371.51 1001.66 3375.69 1006.65 3379.21 1012C3382.73 1017.28 3385.41 1022.93 3387.24 1028.94C3389.15 1034.88 3390.1 1041.08 3390.1 1047.53C3390.1 1054.06 3389.15 1060.29 3387.24 1066.23C3385.41 1072.17 3382.73 1077.82 3379.21 1083.17C3375.69 1088.52 3371.51 1093.47 3366.67 1098.02L3365.13 1096.92C3368.58 1092.08 3371.48 1087.02 3373.82 1081.74C3376.17 1076.53 3377.93 1071.11 3379.1 1065.46C3380.28 1059.74 3380.86 1053.76 3380.86 1047.53Z" fill="black"/>
</svg>
