<svg width="3745" height="1780" viewBox="0 0 3745 1780" fill="none" xmlns="http://www.w3.org/2000/svg">
<path d="M2429.34 853.76C2424.86 853.76 2420.57 853.027 2416.47 851.56C2412.36 850.02 2408.69 847.71 2405.47 844.63C2402.24 841.55 2399.71 837.627 2397.88 832.86C2396.04 828.093 2395.13 822.447 2395.13 815.92C2395.13 809.393 2396.08 803.747 2397.99 798.98C2399.97 794.14 2402.61 790.18 2405.91 787.1C2409.21 784.02 2412.87 781.747 2416.91 780.28C2420.94 778.74 2425.08 777.97 2429.34 777.97C2432.49 777.97 2435.57 778.3 2438.58 778.96C2441.66 779.62 2444.52 780.757 2447.16 782.37L2448.37 799.97H2445.95L2437.15 780.94L2443.75 783.14L2444.19 785.45C2441.84 783.69 2439.46 782.48 2437.04 781.82C2434.62 781.16 2432.38 780.83 2430.33 780.83C2427.03 780.83 2423.91 782.077 2420.98 784.57C2418.12 786.99 2415.81 790.803 2414.05 796.01C2412.29 801.143 2411.41 807.817 2411.41 816.03C2411.41 824.243 2412.25 830.917 2413.94 836.05C2415.7 841.183 2418.01 844.96 2420.87 847.38C2423.73 849.727 2426.88 850.9 2430.33 850.9C2432.45 850.9 2434.73 850.57 2437.15 849.91C2439.64 849.177 2442.02 847.93 2444.3 846.17L2443.97 848.59L2437.48 850.68L2446.17 830.66H2448.59L2447.49 849.36C2444.92 850.827 2442.06 851.927 2438.91 852.66C2435.75 853.393 2432.56 853.76 2429.34 853.76ZM2483.48 853.65C2478.2 853.65 2473.65 852.55 2469.84 850.35C2466.1 848.077 2463.2 844.96 2461.15 841C2459.17 836.967 2458.18 832.273 2458.18 826.92C2458.18 821.567 2459.24 816.873 2461.37 812.84C2463.57 808.807 2466.58 805.69 2470.39 803.49C2474.2 801.217 2478.57 800.08 2483.48 800.08C2488.91 800.08 2493.49 801.18 2497.23 803.38C2500.97 805.58 2503.83 808.697 2505.81 812.73C2507.86 816.69 2508.89 821.383 2508.89 826.81C2508.89 832.09 2507.79 836.747 2505.59 840.78C2503.39 844.813 2500.38 847.967 2496.57 850.24C2492.76 852.513 2488.39 853.65 2483.48 853.65ZM2483.48 850.79C2485.53 850.79 2487.26 850.057 2488.65 848.59C2490.12 847.05 2491.22 844.557 2491.95 841.11C2492.68 837.59 2493.05 832.823 2493.05 826.81C2493.05 820.65 2492.68 815.847 2491.95 812.4C2491.22 808.953 2490.12 806.497 2488.65 805.03C2487.26 803.563 2485.53 802.83 2483.48 802.83C2481.5 802.83 2479.78 803.6 2478.31 805.14C2476.92 806.607 2475.82 809.1 2475.01 812.62C2474.28 816.067 2473.91 820.833 2473.91 826.92C2473.91 832.933 2474.28 837.7 2475.01 841.22C2475.82 844.667 2476.92 847.123 2478.31 848.59C2479.78 850.057 2481.5 850.79 2483.48 850.79ZM2515.3 852V849.58L2524.65 848.04H2532.79L2541.7 849.58V852H2515.3ZM2520.91 852C2521.06 850.093 2521.17 847.82 2521.24 845.18C2521.32 842.54 2521.35 839.79 2521.35 836.93C2521.43 834.07 2521.46 831.43 2521.46 829.01V825.6C2521.46 823.327 2521.46 821.31 2521.46 819.55C2521.46 817.717 2521.43 816.03 2521.35 814.49C2521.35 812.877 2521.32 811.263 2521.24 809.65L2514.86 807.78V805.8L2534.55 800.08L2536.09 801.18V811.08V811.96V829.01C2536.09 831.43 2536.09 834.07 2536.09 836.93C2536.17 839.79 2536.24 842.54 2536.31 845.18C2536.39 847.82 2536.5 850.093 2536.64 852H2520.91ZM2546.54 852V849.58L2555.56 848.04H2563.59L2572.61 849.58V852H2546.54ZM2551.71 852C2551.93 850.093 2552.08 847.82 2552.15 845.18C2552.23 842.54 2552.26 839.79 2552.26 836.93C2552.34 834.07 2552.37 831.43 2552.37 829.01V817.24C2552.37 813.867 2551.82 811.557 2550.72 810.31C2549.7 809.063 2548.08 808.44 2545.88 808.44C2544.49 808.44 2543.06 808.733 2541.59 809.32C2540.2 809.833 2538.81 810.64 2537.41 811.74C2536.02 812.767 2534.66 814.013 2533.34 815.48L2533.12 812.73H2534.11C2535.95 809.87 2537.82 807.523 2539.72 805.69C2541.7 803.783 2543.83 802.39 2546.1 801.51C2548.38 800.557 2550.76 800.08 2553.25 800.08C2557.43 800.08 2560.73 801.437 2563.15 804.15C2565.65 806.79 2566.89 811.043 2566.89 816.91V829.01C2566.89 831.43 2566.89 834.07 2566.89 836.93C2566.97 839.79 2567.04 842.54 2567.11 845.18C2567.19 847.82 2567.33 850.093 2567.55 852H2551.71ZM2577.34 852V849.58L2586.36 848.04H2594.39L2603.41 849.58V852H2577.34ZM2582.51 852C2582.73 850.093 2582.88 847.82 2582.95 845.18C2583.1 842.54 2583.17 839.79 2583.17 836.93C2583.17 834.07 2583.17 831.43 2583.17 829.01V817.24C2583.17 813.867 2582.62 811.557 2581.52 810.31C2580.5 809.063 2578.88 808.44 2576.68 808.44C2575.36 808.44 2573.97 808.733 2572.5 809.32C2571.04 809.907 2569.61 810.75 2568.21 811.85C2566.82 812.877 2565.5 814.16 2564.25 815.7L2563.92 812.73H2565.02C2566.78 809.87 2568.65 807.523 2570.63 805.69C2572.61 803.783 2574.7 802.39 2576.9 801.51C2579.18 800.557 2581.6 800.08 2584.16 800.08C2588.34 800.08 2591.64 801.437 2594.06 804.15C2596.56 806.79 2597.8 811.043 2597.8 816.91V829.01C2597.8 831.43 2597.8 834.07 2597.8 836.93C2597.8 839.79 2597.84 842.54 2597.91 845.18C2598.06 847.82 2598.21 850.093 2598.35 852H2582.51ZM2633.51 853.65C2629.04 853.65 2624.97 852.66 2621.3 850.68C2617.71 848.627 2614.81 845.657 2612.61 841.77C2610.49 837.883 2609.42 833.153 2609.42 827.58C2609.42 821.567 2610.56 816.543 2612.83 812.51C2615.11 808.403 2618.08 805.323 2621.74 803.27C2625.41 801.143 2629.3 800.08 2633.4 800.08C2637.58 800.08 2641.18 800.923 2644.18 802.61C2647.26 804.297 2649.61 806.643 2651.22 809.65C2652.84 812.583 2653.64 815.957 2653.64 819.77C2653.64 820.87 2653.61 821.75 2653.53 822.41C2653.46 823.07 2653.31 823.877 2653.09 824.83H2615.25V822.08H2632.74C2635.75 822.08 2637.84 821.567 2639.01 820.54C2640.19 819.44 2640.77 817.387 2640.77 814.38C2640.77 811.593 2640.48 809.393 2639.89 807.78C2639.31 806.093 2638.46 804.883 2637.36 804.15C2636.34 803.343 2635.09 802.94 2633.62 802.94C2632.01 802.94 2630.51 803.637 2629.11 805.03C2627.79 806.35 2626.73 808.623 2625.92 811.85C2625.19 815.003 2624.82 819.367 2624.82 824.94C2624.82 829.34 2625.48 833.08 2626.8 836.16C2628.12 839.24 2629.92 841.587 2632.19 843.2C2634.47 844.74 2637.07 845.51 2640 845.51C2642.5 845.51 2644.7 845.033 2646.6 844.08C2648.58 843.053 2650.31 841.733 2651.77 840.12L2653.42 841.44C2652.1 844.3 2650.42 846.647 2648.36 848.48C2646.31 850.24 2644.04 851.523 2641.54 852.33C2639.05 853.21 2636.37 853.65 2633.51 853.65ZM2685.17 853.65C2680.7 853.65 2676.67 852.66 2673.07 850.68C2669.48 848.627 2666.66 845.657 2664.6 841.77C2662.55 837.883 2661.52 833.117 2661.52 827.47C2661.52 821.53 2662.66 816.543 2664.93 812.51C2667.21 808.403 2670.29 805.323 2674.17 803.27C2678.13 801.143 2682.57 800.08 2687.48 800.08C2691.08 800.08 2694.12 800.703 2696.61 801.95C2699.11 803.123 2701.01 804.773 2702.33 806.9C2703.73 808.953 2704.5 811.227 2704.64 813.72C2704.2 815.407 2703.47 816.653 2702.44 817.46C2701.49 818.267 2700.13 818.67 2698.37 818.67C2696.69 818.67 2695.11 818.047 2693.64 816.8C2692.25 815.48 2691.44 813.133 2691.22 809.76L2690.56 801.73L2696.83 805.14C2695.51 804.26 2694.19 803.673 2692.87 803.38C2691.63 803.087 2690.27 802.94 2688.8 802.94C2686.75 802.94 2684.81 803.673 2682.97 805.14C2681.14 806.607 2679.64 808.99 2678.46 812.29C2677.36 815.517 2676.81 819.733 2676.81 824.94C2676.81 829.193 2677.4 832.86 2678.57 835.94C2679.75 839.02 2681.43 841.403 2683.63 843.09C2685.83 844.703 2688.51 845.51 2691.66 845.51C2693.28 845.51 2694.74 845.29 2696.06 844.85C2697.46 844.41 2698.74 843.787 2699.91 842.98C2701.09 842.173 2702.15 841.22 2703.1 840.12L2704.75 841.44C2703.43 844.3 2701.78 846.647 2699.8 848.48C2697.82 850.24 2695.62 851.523 2693.2 852.33C2690.78 853.21 2688.11 853.65 2685.17 853.65ZM2682.31 861.57L2683.96 851.89H2687.48L2686.38 858.6L2683.96 857.28C2687.34 857.5 2689.98 858.05 2691.88 858.93C2693.79 859.883 2695.15 861.02 2695.95 862.34C2696.83 863.66 2697.27 865.127 2697.27 866.74C2697.27 869.38 2696.28 871.653 2694.3 873.56C2692.32 875.467 2689.1 876.42 2684.62 876.42C2682.86 876.42 2681.36 876.237 2680.11 875.87C2678.94 875.577 2677.84 875.21 2676.81 874.77L2677.47 871.36C2678.35 871.653 2679.16 871.873 2679.89 872.02C2680.7 872.167 2681.54 872.24 2682.42 872.24C2684.77 872.24 2686.49 871.8 2687.59 870.92C2688.69 870.04 2689.24 868.757 2689.24 867.07C2689.24 865.457 2688.62 864.21 2687.37 863.33C2686.2 862.45 2684.51 861.863 2682.31 861.57ZM2723.91 853.65C2720.03 853.65 2716.84 852.55 2714.34 850.35C2711.92 848.077 2710.71 844.96 2710.71 841C2710.71 838.507 2711.34 836.197 2712.58 834.07C2713.83 831.943 2715.85 830 2718.63 828.24C2721.49 826.407 2725.31 824.757 2730.07 823.29C2731.39 822.923 2732.93 822.483 2734.69 821.97C2736.53 821.457 2738.43 820.943 2740.41 820.43C2742.47 819.917 2744.41 819.403 2746.24 818.89V821.31C2743.46 822.117 2740.89 822.887 2738.54 823.62C2736.27 824.28 2734.58 824.867 2733.48 825.38C2731.65 826.26 2730.07 827.25 2728.75 828.35C2727.43 829.45 2726.41 830.77 2725.67 832.31C2724.94 833.777 2724.57 835.573 2724.57 837.7C2724.57 840.633 2725.23 842.797 2726.55 844.19C2727.87 845.51 2729.52 846.17 2731.5 846.17C2732.6 846.17 2733.63 846.023 2734.58 845.73C2735.54 845.363 2736.56 844.813 2737.66 844.08C2738.76 843.273 2740.05 842.173 2741.51 840.78L2742.39 845.18H2739.09C2737.63 847.233 2736.09 848.883 2734.47 850.13C2732.93 851.377 2731.28 852.257 2729.52 852.77C2727.84 853.357 2725.97 853.65 2723.91 853.65ZM2749.43 853.54C2745.91 853.54 2743.24 852.77 2741.4 851.23C2739.57 849.617 2738.51 847.527 2738.21 844.96V844.52V817.24C2738.21 813.647 2737.96 810.86 2737.44 808.88C2736.93 806.827 2736.09 805.36 2734.91 804.48C2733.74 803.6 2732.09 803.16 2729.96 803.16C2728.86 803.16 2727.76 803.307 2726.66 803.6C2725.64 803.893 2724.68 804.26 2723.8 804.7L2726.99 801.73L2726.22 809.65C2726.15 813.097 2725.34 815.48 2723.8 816.8C2722.26 818.047 2720.61 818.67 2718.85 818.67C2717.17 818.67 2715.81 818.267 2714.78 817.46C2713.83 816.58 2713.1 815.297 2712.58 813.61C2713.02 809.577 2715.19 806.313 2719.07 803.82C2723.03 801.327 2728.24 800.08 2734.69 800.08C2738.95 800.08 2742.39 800.777 2745.03 802.17C2747.75 803.49 2749.73 805.58 2750.97 808.44C2752.22 811.3 2752.84 814.967 2752.84 819.44V844.08C2752.84 845.18 2753.06 846.023 2753.5 846.61C2753.94 847.123 2754.49 847.38 2755.15 847.38C2755.96 847.38 2756.62 847.197 2757.13 846.83C2757.72 846.463 2758.38 845.803 2759.11 844.85L2760.65 846.06C2759.77 848.333 2758.38 850.167 2756.47 851.56C2754.57 852.88 2752.22 853.54 2749.43 853.54ZM2763.55 852V849.58L2772.9 848.04H2781.04L2789.95 849.58V852H2763.55ZM2769.16 852C2769.31 850.093 2769.42 847.82 2769.49 845.18C2769.57 842.54 2769.6 839.79 2769.6 836.93C2769.68 834.07 2769.71 831.43 2769.71 829.01V825.6C2769.71 823.327 2769.71 821.31 2769.71 819.55C2769.71 817.717 2769.68 816.03 2769.6 814.49C2769.6 812.877 2769.57 811.263 2769.49 809.65L2763.11 807.78V805.8L2782.8 800.08L2784.34 801.18V811.74V811.96V829.01C2784.34 831.43 2784.34 834.07 2784.34 836.93C2784.42 839.79 2784.49 842.54 2784.56 845.18C2784.64 847.82 2784.75 850.093 2784.89 852H2769.16ZM2794.9 852V849.58L2803.92 848.04H2811.95L2820.97 849.58V852H2794.9ZM2800.07 852C2800.29 850.093 2800.44 847.82 2800.51 845.18C2800.59 842.54 2800.62 839.79 2800.62 836.93C2800.62 834.07 2800.62 831.43 2800.62 829.01V817.24C2800.62 813.867 2800.07 811.557 2798.97 810.31C2797.95 809.063 2796.33 808.44 2794.13 808.44C2792.81 808.44 2791.42 808.733 2789.95 809.32C2788.49 809.833 2787.06 810.64 2785.66 811.74C2784.27 812.767 2782.91 814.013 2781.59 815.48L2781.37 812.73H2782.36C2784.2 809.87 2786.1 807.523 2788.08 805.69C2790.06 803.783 2792.15 802.39 2794.35 801.51C2796.63 800.557 2799.05 800.08 2801.61 800.08C2805.79 800.08 2809.13 801.437 2811.62 804.15C2814.12 806.79 2815.36 811.043 2815.36 816.91V829.01C2815.36 831.43 2815.36 834.07 2815.36 836.93C2815.44 839.79 2815.51 842.54 2815.58 845.18C2815.66 847.82 2815.77 850.093 2815.91 852H2800.07ZM2846.09 853.65C2842.35 853.65 2839.05 852.697 2836.19 850.79C2833.41 848.81 2831.21 845.95 2829.59 842.21C2827.98 838.397 2827.17 833.777 2827.17 828.35C2827.17 822.483 2828.09 817.46 2829.92 813.28C2831.76 809.027 2834.21 805.763 2837.29 803.49C2840.45 801.217 2844.04 800.08 2848.07 800.08C2850.13 800.08 2852 800.483 2853.68 801.29C2855.44 802.023 2857.06 803.233 2858.52 804.92C2859.99 806.607 2861.31 808.807 2862.48 811.52H2863.8L2862.48 813.39C2860.72 811.263 2859.18 809.76 2857.86 808.88C2856.54 807.927 2854.86 807.45 2852.8 807.45C2850.97 807.45 2849.25 808.11 2847.63 809.43C2846.09 810.75 2844.85 812.877 2843.89 815.81C2843.01 818.743 2842.57 822.63 2842.57 827.47C2842.57 832.163 2842.98 835.867 2843.78 838.58C2844.66 841.293 2845.87 843.237 2847.41 844.41C2849.03 845.583 2850.82 846.17 2852.8 846.17C2854.71 846.17 2856.43 845.547 2857.97 844.3C2859.51 842.98 2860.94 841.367 2862.26 839.46L2863.03 841.77H2862.04C2860.94 844.19 2859.62 846.317 2858.08 848.15C2856.54 849.91 2854.78 851.267 2852.8 852.22C2850.82 853.173 2848.59 853.65 2846.09 853.65ZM2860.5 853.43V843.64V843.2V810.31L2860.72 809.1V780.61L2854.23 778.85V776.87L2874.14 771.59L2875.57 772.8L2875.13 795.35V848.7L2880.85 849.58V852L2860.5 853.43ZM2911.77 853.65C2906.49 853.65 2901.94 852.55 2898.13 850.35C2894.39 848.077 2891.49 844.96 2889.44 841C2887.46 836.967 2886.47 832.273 2886.47 826.92C2886.47 821.567 2887.53 816.873 2889.66 812.84C2891.86 808.807 2894.87 805.69 2898.68 803.49C2902.49 801.217 2906.86 800.08 2911.77 800.08C2917.2 800.08 2921.78 801.18 2925.52 803.38C2929.26 805.58 2932.12 808.697 2934.1 812.73C2936.15 816.69 2937.18 821.383 2937.18 826.81C2937.18 832.09 2936.08 836.747 2933.88 840.78C2931.68 844.813 2928.67 847.967 2924.86 850.24C2921.05 852.513 2916.68 853.65 2911.77 853.65ZM2911.77 850.79C2913.82 850.79 2915.55 850.057 2916.94 848.59C2918.41 847.05 2919.51 844.557 2920.24 841.11C2920.97 837.59 2921.34 832.823 2921.34 826.81C2921.34 820.65 2920.97 815.847 2920.24 812.4C2919.51 808.953 2918.41 806.497 2916.94 805.03C2915.55 803.563 2913.82 802.83 2911.77 802.83C2909.79 802.83 2908.07 803.6 2906.6 805.14C2905.21 806.607 2904.11 809.1 2903.3 812.62C2902.57 816.067 2902.2 820.833 2902.2 826.92C2902.2 832.933 2902.57 837.7 2903.3 841.22C2904.11 844.667 2905.21 847.123 2906.6 848.59C2908.07 850.057 2909.79 850.79 2911.77 850.79ZM2985.2 853.65C2981.46 853.65 2978.16 852.697 2975.3 850.79C2972.52 848.81 2970.32 845.95 2968.7 842.21C2967.09 838.397 2966.28 833.777 2966.28 828.35C2966.28 822.483 2967.2 817.46 2969.03 813.28C2970.87 809.027 2973.32 805.763 2976.4 803.49C2979.56 801.217 2983.15 800.08 2987.18 800.08C2989.24 800.08 2991.11 800.483 2992.79 801.29C2994.55 802.023 2996.17 803.233 2997.63 804.92C2999.1 806.607 3000.42 808.807 3001.59 811.52H3002.91L3001.59 813.39C2999.83 811.263 2998.29 809.76 2996.97 808.88C2995.65 807.927 2993.97 807.45 2991.91 807.45C2990.08 807.45 2988.36 808.11 2986.74 809.43C2985.2 810.75 2983.96 812.877 2983 815.81C2982.12 818.743 2981.68 822.63 2981.68 827.47C2981.68 832.163 2982.09 835.867 2982.89 838.58C2983.77 841.293 2984.98 843.237 2986.52 844.41C2988.14 845.583 2989.93 846.17 2991.91 846.17C2993.82 846.17 2995.54 845.547 2997.08 844.3C2998.62 842.98 3000.05 841.367 3001.37 839.46L3002.14 841.77H3001.15C3000.05 844.19 2998.73 846.317 2997.19 848.15C2995.65 849.91 2993.89 851.267 2991.91 852.22C2989.93 853.173 2987.7 853.65 2985.2 853.65ZM2999.61 853.43V843.64V843.2V810.31L2999.83 809.1V780.61L2993.34 778.85V776.87L3013.25 771.59L3014.68 772.8L3014.24 795.35V848.7L3019.96 849.58V852L2999.61 853.43ZM3050.88 853.65C3045.6 853.65 3041.06 852.55 3037.24 850.35C3033.5 848.077 3030.61 844.96 3028.55 841C3026.57 836.967 3025.58 832.273 3025.58 826.92C3025.58 821.567 3026.65 816.873 3028.77 812.84C3030.97 808.807 3033.98 805.69 3037.79 803.49C3041.61 801.217 3045.97 800.08 3050.88 800.08C3056.31 800.08 3060.89 801.18 3064.63 803.38C3068.37 805.58 3071.23 808.697 3073.21 812.73C3075.27 816.69 3076.29 821.383 3076.29 826.81C3076.29 832.09 3075.19 836.747 3072.99 840.78C3070.79 844.813 3067.79 847.967 3063.97 850.24C3060.16 852.513 3055.8 853.65 3050.88 853.65ZM3050.88 850.79C3052.94 850.79 3054.66 850.057 3056.05 848.59C3057.52 847.05 3058.62 844.557 3059.35 841.11C3060.09 837.59 3060.45 832.823 3060.45 826.81C3060.45 820.65 3060.09 815.847 3059.35 812.4C3058.62 808.953 3057.52 806.497 3056.05 805.03C3054.66 803.563 3052.94 802.83 3050.88 802.83C3048.9 802.83 3047.18 803.6 3045.71 805.14C3044.32 806.607 3043.22 809.1 3042.41 812.62C3041.68 816.067 3041.31 820.833 3041.31 826.92C3041.31 832.933 3041.68 837.7 3042.41 841.22C3043.22 844.667 3044.32 847.123 3045.71 848.59C3047.18 850.057 3048.9 850.79 3050.88 850.79ZM3104.74 852V849.58L3110.46 848.59C3110.53 846.683 3110.57 844.63 3110.57 842.43C3110.64 840.23 3110.68 838.03 3110.68 835.83C3110.75 833.557 3110.79 831.467 3110.79 829.56V780.61L3104.3 778.85V776.87L3124.21 771.59L3125.64 772.8L3125.2 795.35V809.98H3125.42V843.2V843.42V853.43L3104.74 852ZM3138.84 853.65C3136.78 853.65 3134.84 853.247 3133.01 852.44C3131.25 851.633 3129.56 850.387 3127.95 848.7C3126.41 847.013 3125.01 844.813 3123.77 842.1H3122.45L3123.44 840.23C3125.2 842.357 3126.74 843.897 3128.06 844.85C3129.45 845.73 3131.17 846.17 3133.23 846.17C3135.13 846.17 3136.86 845.51 3138.4 844.19C3140.01 842.797 3141.29 840.633 3142.25 837.7C3143.2 834.693 3143.68 830.843 3143.68 826.15C3143.68 819.33 3142.69 814.527 3140.71 811.74C3138.73 808.88 3136.2 807.45 3133.12 807.45C3131.87 807.45 3130.7 807.743 3129.6 808.33C3128.5 808.917 3127.43 809.723 3126.41 810.75C3125.45 811.703 3124.54 812.84 3123.66 814.16L3122.89 811.85H3123.88C3124.98 809.43 3126.33 807.34 3127.95 805.58C3129.56 803.82 3131.39 802.463 3133.45 801.51C3135.5 800.557 3137.74 800.08 3140.16 800.08C3143.9 800.08 3147.16 801.033 3149.95 802.94C3152.81 804.847 3155.04 807.67 3156.66 811.41C3158.27 815.15 3159.08 819.807 3159.08 825.38C3159.08 831.173 3158.23 836.197 3156.55 840.45C3154.86 844.703 3152.48 847.967 3149.4 850.24C3146.39 852.513 3142.87 853.65 3138.84 853.65ZM3178.84 853.65C3174.96 853.65 3171.77 852.55 3169.27 850.35C3166.85 848.077 3165.64 844.96 3165.64 841C3165.64 838.507 3166.27 836.197 3167.51 834.07C3168.76 831.943 3170.78 830 3173.56 828.24C3176.42 826.407 3180.24 824.757 3185 823.29C3186.32 822.923 3187.86 822.483 3189.62 821.97C3191.46 821.457 3193.36 820.943 3195.34 820.43C3197.4 819.917 3199.34 819.403 3201.17 818.89V821.31C3198.39 822.117 3195.82 822.887 3193.47 823.62C3191.2 824.28 3189.51 824.867 3188.41 825.38C3186.58 826.26 3185 827.25 3183.68 828.35C3182.36 829.45 3181.34 830.77 3180.6 832.31C3179.87 833.777 3179.5 835.573 3179.5 837.7C3179.5 840.633 3180.16 842.797 3181.48 844.19C3182.8 845.51 3184.45 846.17 3186.43 846.17C3187.53 846.17 3188.56 846.023 3189.51 845.73C3190.47 845.363 3191.49 844.813 3192.59 844.08C3193.69 843.273 3194.98 842.173 3196.44 840.78L3197.32 845.18H3194.02C3192.56 847.233 3191.02 848.883 3189.4 850.13C3187.86 851.377 3186.21 852.257 3184.45 852.77C3182.77 853.357 3180.9 853.65 3178.84 853.65ZM3204.36 853.54C3200.84 853.54 3198.17 852.77 3196.33 851.23C3194.5 849.617 3193.44 847.527 3193.14 844.96V844.52V817.24C3193.14 813.647 3192.89 810.86 3192.37 808.88C3191.86 806.827 3191.02 805.36 3189.84 804.48C3188.67 803.6 3187.02 803.16 3184.89 803.16C3183.79 803.16 3182.69 803.307 3181.59 803.6C3180.57 803.893 3179.61 804.26 3178.73 804.7L3181.92 801.73L3181.15 809.65C3181.08 813.097 3180.27 815.48 3178.73 816.8C3177.19 818.047 3175.54 818.67 3173.78 818.67C3172.1 818.67 3170.74 818.267 3169.71 817.46C3168.76 816.58 3168.03 815.297 3167.51 813.61C3167.95 809.577 3170.12 806.313 3174 803.82C3177.96 801.327 3183.17 800.08 3189.62 800.08C3193.88 800.08 3197.32 800.777 3199.96 802.17C3202.68 803.49 3204.66 805.58 3205.9 808.44C3207.15 811.3 3207.77 814.967 3207.77 819.44V844.08C3207.77 845.18 3207.99 846.023 3208.43 846.61C3208.87 847.123 3209.42 847.38 3210.08 847.38C3210.89 847.38 3211.55 847.197 3212.06 846.83C3212.65 846.463 3213.31 845.803 3214.04 844.85L3215.58 846.06C3214.7 848.333 3213.31 850.167 3211.4 851.56C3209.5 852.88 3207.15 853.54 3204.36 853.54ZM3183.24 792.05C3183.83 791.023 3184.49 789.923 3185.22 788.75C3185.96 787.503 3186.8 786 3187.75 784.24C3188.78 782.48 3189.99 780.39 3191.38 777.97C3192.63 775.77 3193.84 774.12 3195.01 773.02C3196.19 771.92 3197.51 771.37 3198.97 771.37C3200.29 771.37 3201.47 771.81 3202.49 772.69C3203.59 773.57 3204.14 774.89 3204.14 776.65C3204.14 778.043 3203.52 779.4 3202.27 780.72C3201.03 781.967 3199.38 783.36 3197.32 784.9C3195.2 786.513 3193.4 787.87 3191.93 788.97C3190.54 789.997 3189.29 790.877 3188.19 791.61C3187.17 792.27 3186.14 792.967 3185.11 793.7L3183.24 792.05ZM3236.84 853.65C3233.76 853.65 3230.9 853.247 3228.26 852.44C3225.62 851.633 3223.01 850.497 3220.45 849.03L3220.89 835.39H3223.09L3229.03 850.02H3225.29V847.71C3227.12 848.737 3228.84 849.543 3230.46 850.13C3232.07 850.717 3234.16 851.01 3236.73 851.01C3238.71 851.01 3240.39 850.68 3241.79 850.02C3243.18 849.36 3244.24 848.407 3244.98 847.16C3245.78 845.913 3246.19 844.447 3246.19 842.76C3246.19 840.12 3245.2 838.14 3243.22 836.82C3241.31 835.5 3239.04 834.253 3236.4 833.08L3233.32 831.76C3231.26 830.88 3229.28 829.853 3227.38 828.68C3225.47 827.433 3223.89 825.857 3222.65 823.95C3221.4 821.97 3220.78 819.44 3220.78 816.36C3220.78 813.207 3221.47 810.42 3222.87 808C3224.26 805.507 3226.39 803.563 3229.25 802.17C3232.11 800.777 3235.66 800.08 3239.92 800.08C3242.78 800.08 3245.31 800.41 3247.51 801.07C3249.78 801.73 3252.02 802.683 3254.22 803.93L3253.78 816.91H3251.58L3245.75 802.83H3249.6V806.13C3248.2 804.883 3246.77 804.003 3245.31 803.49C3243.84 802.977 3242.04 802.72 3239.92 802.72C3237.28 802.72 3235.15 803.38 3233.54 804.7C3232 805.947 3231.23 807.743 3231.23 810.09C3231.23 812.73 3232.22 814.747 3234.2 816.14C3236.18 817.46 3238.49 818.67 3241.13 819.77L3244.21 821.09C3246.33 822.043 3248.35 823.107 3250.26 824.28C3252.24 825.453 3253.85 827.03 3255.1 829.01C3256.34 830.917 3256.97 833.447 3256.97 836.6C3256.97 840.193 3256.16 843.273 3254.55 845.84C3253.01 848.333 3250.73 850.277 3247.73 851.67C3244.72 852.99 3241.09 853.65 3236.84 853.65ZM3262.85 852V849.58L3272.2 848.04H3280.34L3289.25 849.58V852H3262.85ZM3268.46 852C3268.61 850.093 3268.72 847.82 3268.79 845.18C3268.86 842.54 3268.9 839.79 3268.9 836.93C3268.97 834.07 3269.01 831.43 3269.01 829.01V825.71C3269.01 822.263 3269.01 819.33 3269.01 816.91C3269.01 814.49 3268.94 812.07 3268.79 809.65L3262.41 807.78V805.8L3282.54 800.08L3284.08 801.18L3283.64 815.7V829.01C3283.64 831.43 3283.64 834.07 3283.64 836.93C3283.71 839.79 3283.79 842.54 3283.86 845.18C3283.93 847.82 3284.04 850.093 3284.19 852H3268.46ZM3276.27 791.72C3274.14 791.72 3272.31 791.06 3270.77 789.74C3269.3 788.347 3268.57 786.477 3268.57 784.13C3268.57 781.93 3269.3 780.133 3270.77 778.74C3272.31 777.347 3274.14 776.65 3276.27 776.65C3278.4 776.65 3280.19 777.347 3281.66 778.74C3283.2 780.133 3283.97 781.93 3283.97 784.13C3283.97 786.403 3283.2 788.237 3281.66 789.63C3280.19 791.023 3278.4 791.72 3276.27 791.72ZM3318.32 853.65C3313.85 853.65 3309.81 852.66 3306.22 850.68C3302.63 848.627 3299.8 845.657 3297.75 841.77C3295.7 837.883 3294.67 833.117 3294.67 827.47C3294.67 821.53 3295.81 816.543 3298.08 812.51C3300.35 808.403 3303.43 805.323 3307.32 803.27C3311.28 801.143 3315.72 800.08 3320.63 800.08C3324.22 800.08 3327.27 800.703 3329.76 801.95C3332.25 803.123 3334.16 804.773 3335.48 806.9C3336.87 808.953 3337.64 811.227 3337.79 813.72C3337.35 815.407 3336.62 816.653 3335.59 817.46C3334.64 818.267 3333.28 818.67 3331.52 818.67C3329.83 818.67 3328.26 818.047 3326.79 816.8C3325.4 815.48 3324.59 813.133 3324.37 809.76L3323.71 801.73L3329.98 805.14C3328.66 804.26 3327.34 803.673 3326.02 803.38C3324.77 803.087 3323.42 802.94 3321.95 802.94C3319.9 802.94 3317.95 803.673 3316.12 805.14C3314.29 806.607 3312.78 808.99 3311.61 812.29C3310.51 815.517 3309.96 819.733 3309.96 824.94C3309.96 829.193 3310.55 832.86 3311.72 835.94C3312.89 839.02 3314.58 841.403 3316.78 843.09C3318.98 844.703 3321.66 845.51 3324.81 845.51C3326.42 845.51 3327.89 845.29 3329.21 844.85C3330.6 844.41 3331.89 843.787 3333.06 842.98C3334.23 842.173 3335.3 841.22 3336.25 840.12L3337.9 841.44C3336.58 844.3 3334.93 846.647 3332.95 848.48C3330.97 850.24 3328.77 851.523 3326.35 852.33C3323.93 853.21 3321.25 853.65 3318.32 853.65ZM3369.82 853.65C3364.54 853.65 3359.99 852.55 3356.18 850.35C3352.44 848.077 3349.54 844.96 3347.49 841C3345.51 836.967 3344.52 832.273 3344.52 826.92C3344.52 821.567 3345.58 816.873 3347.71 812.84C3349.91 808.807 3352.91 805.69 3356.73 803.49C3360.54 801.217 3364.9 800.08 3369.82 800.08C3375.24 800.08 3379.83 801.18 3383.57 803.38C3387.31 805.58 3390.17 808.697 3392.15 812.73C3394.2 816.69 3395.23 821.383 3395.23 826.81C3395.23 832.09 3394.13 836.747 3391.93 840.78C3389.73 844.813 3386.72 847.967 3382.91 850.24C3379.09 852.513 3374.73 853.65 3369.82 853.65ZM3369.82 850.79C3371.87 850.79 3373.59 850.057 3374.99 848.59C3376.45 847.05 3377.55 844.557 3378.29 841.11C3379.02 837.59 3379.39 832.823 3379.39 826.81C3379.39 820.65 3379.02 815.847 3378.29 812.4C3377.55 808.953 3376.45 806.497 3374.99 805.03C3373.59 803.563 3371.87 802.83 3369.82 802.83C3367.84 802.83 3366.11 803.6 3364.65 805.14C3363.25 806.607 3362.15 809.1 3361.35 812.62C3360.61 816.067 3360.25 820.833 3360.25 826.92C3360.25 832.933 3360.61 837.7 3361.35 841.22C3362.15 844.667 3363.25 847.123 3364.65 848.59C3366.11 850.057 3367.84 850.79 3369.82 850.79Z" fill="black"/>
<path d="M1985 969V967.24L1996.44 965.92H1999.52V969H1985ZM1993.8 969C1993.95 966.067 1994.06 962.657 1994.13 958.77C1994.2 954.81 1994.24 950.703 1994.24 946.45C1994.24 942.197 1994.24 938.127 1994.24 934.24V929.4C1994.24 925.587 1994.24 921.627 1994.24 917.52C1994.24 913.34 1994.2 909.343 1994.13 905.53C1994.06 901.643 1993.95 898.233 1993.8 895.3H2002.49C2002.34 898.233 2002.23 901.643 2002.16 905.53C2002.09 909.343 2002.05 913.34 2002.05 917.52C2002.05 921.627 2002.05 925.587 2002.05 929.4V934.24C2002.05 938.127 2002.05 942.197 2002.05 946.45C2002.05 950.703 2002.09 954.81 2002.16 958.77C2002.23 962.657 2002.34 966.067 2002.49 969H1993.8ZM1999.19 969V966.36H2010.19C2016.06 966.36 2020.93 964.967 2024.82 962.18C2028.78 959.32 2031.75 955.323 2033.73 950.19C2035.71 945.057 2036.7 939.08 2036.7 932.26C2036.7 920.453 2034.5 911.8 2030.1 906.3C2025.77 900.727 2019.47 897.94 2011.18 897.94H1999.19V895.3H2012.06C2018.73 895.3 2024.56 896.73 2029.55 899.59C2034.54 902.45 2038.42 906.63 2041.21 912.13C2044.07 917.557 2045.5 924.267 2045.5 932.26C2045.5 940.18 2043.96 946.89 2040.88 952.39C2037.87 957.817 2033.77 961.96 2028.56 964.82C2023.43 967.607 2017.67 969 2011.29 969H1999.19ZM1985 897.06V895.3H1999.52V898.38H1996.44L1985 897.06ZM2077.81 970.32C2073.63 970.32 2069.82 969.33 2066.37 967.35C2063 965.297 2060.32 962.4 2058.34 958.66C2056.36 954.92 2055.37 950.447 2055.37 945.24C2055.37 939.74 2056.4 934.973 2058.45 930.94C2060.5 926.833 2063.18 923.643 2066.48 921.37C2069.85 919.097 2073.52 917.96 2077.48 917.96C2080.85 917.96 2083.9 918.73 2086.61 920.27C2089.4 921.737 2091.6 923.863 2093.21 926.65C2094.82 929.363 2095.63 932.627 2095.63 936.44C2095.63 937.613 2095.56 938.677 2095.41 939.63C2095.34 940.51 2095.19 941.28 2094.97 941.94H2058.23V939.52H2083.31C2085.36 939.52 2086.79 939.08 2087.6 938.2C2088.41 937.32 2088.81 935.963 2088.81 934.13C2088.81 931.343 2088.33 928.923 2087.38 926.87C2086.5 924.817 2085.22 923.24 2083.53 922.14C2081.84 920.967 2079.83 920.38 2077.48 920.38C2075.13 920.38 2072.82 921.15 2070.55 922.69C2068.35 924.23 2066.55 926.687 2065.16 930.06C2063.77 933.433 2063.07 937.87 2063.07 943.37C2063.07 947.843 2063.8 951.693 2065.27 954.92C2066.74 958.147 2068.72 960.64 2071.21 962.4C2073.78 964.087 2076.67 964.93 2079.9 964.93C2083.2 964.93 2086.06 964.233 2088.48 962.84C2090.9 961.373 2092.99 959.467 2094.75 957.12L2096.29 958C2095.04 960.86 2093.47 963.207 2091.56 965.04C2089.65 966.8 2087.53 968.12 2085.18 969C2082.91 969.88 2080.45 970.32 2077.81 970.32ZM2121.59 970.32C2118.44 970.32 2115.76 969.99 2113.56 969.33C2111.44 968.743 2109.13 967.79 2106.63 966.47L2107.4 952.72H2108.94L2113.34 967.46H2109.6V965.48C2111.36 966.433 2113.16 967.13 2114.99 967.57C2116.9 968.01 2119.1 968.23 2121.59 968.23C2124.16 968.23 2126.25 967.79 2127.86 966.91C2129.55 965.957 2130.8 964.747 2131.6 963.28C2132.48 961.74 2132.92 960.09 2132.92 958.33C2132.92 955.323 2131.86 953.087 2129.73 951.62C2127.68 950.08 2125.26 948.723 2122.47 947.55L2119.39 946.23C2117.34 945.35 2115.36 944.36 2113.45 943.26C2111.55 942.087 2109.97 940.62 2108.72 938.86C2107.55 937.1 2106.96 934.863 2106.96 932.15C2106.96 929.437 2107.59 927.017 2108.83 924.89C2110.08 922.763 2111.91 921.077 2114.33 919.83C2116.75 918.583 2119.76 917.96 2123.35 917.96C2126.07 917.96 2128.49 918.29 2130.61 918.95C2132.81 919.537 2134.98 920.453 2137.1 921.7L2136.66 934.24H2135.01L2130.83 921.04H2135.23V923.9C2133.4 922.58 2131.53 921.627 2129.62 921.04C2127.72 920.453 2125.63 920.16 2123.35 920.16C2119.91 920.16 2117.3 921.04 2115.54 922.8C2113.78 924.487 2112.9 926.577 2112.9 929.07C2112.9 932.003 2113.89 934.24 2115.87 935.78C2117.85 937.32 2120.2 938.677 2122.91 939.85L2125.99 941.17C2128.19 942.123 2130.32 943.187 2132.37 944.36C2134.43 945.46 2136.08 946.927 2137.32 948.76C2138.64 950.52 2139.3 952.83 2139.3 955.69C2139.3 958.477 2138.64 960.97 2137.32 963.17C2136 965.37 2134.02 967.13 2131.38 968.45C2128.74 969.697 2125.48 970.32 2121.59 970.32ZM2171.16 970.32C2166.98 970.32 2163.17 969.33 2159.72 967.35C2156.35 965.297 2153.67 962.4 2151.69 958.66C2149.71 954.92 2148.72 950.447 2148.72 945.24C2148.72 939.74 2149.75 934.973 2151.8 930.94C2153.85 926.833 2156.53 923.643 2159.83 921.37C2163.2 919.097 2166.87 917.96 2170.83 917.96C2174.2 917.96 2177.25 918.73 2179.96 920.27C2182.75 921.737 2184.95 923.863 2186.56 926.65C2188.17 929.363 2188.98 932.627 2188.98 936.44C2188.98 937.613 2188.91 938.677 2188.76 939.63C2188.69 940.51 2188.54 941.28 2188.32 941.94H2151.58V939.52H2176.66C2178.71 939.52 2180.14 939.08 2180.95 938.2C2181.76 937.32 2182.16 935.963 2182.16 934.13C2182.16 931.343 2181.68 928.923 2180.73 926.87C2179.85 924.817 2178.57 923.24 2176.88 922.14C2175.19 920.967 2173.18 920.38 2170.83 920.38C2168.48 920.38 2166.17 921.15 2163.9 922.69C2161.7 924.23 2159.9 926.687 2158.51 930.06C2157.12 933.433 2156.42 937.87 2156.42 943.37C2156.42 947.843 2157.15 951.693 2158.62 954.92C2160.09 958.147 2162.07 960.64 2164.56 962.4C2167.13 964.087 2170.02 964.93 2173.25 964.93C2176.55 964.93 2179.41 964.233 2181.83 962.84C2184.25 961.373 2186.34 959.467 2188.1 957.12L2189.64 958C2188.39 960.86 2186.82 963.207 2184.91 965.04C2183 966.8 2180.88 968.12 2178.53 969C2176.26 969.88 2173.8 970.32 2171.16 970.32ZM2198.11 969V967.24L2208.67 965.92H2210.76L2221.21 967.24V969H2198.11ZM2205.81 969C2205.96 967.313 2206.03 965.077 2206.03 962.29C2206.11 959.503 2206.14 956.643 2206.14 953.71C2206.22 950.703 2206.25 948.027 2206.25 945.68V940.62C2206.25 938.567 2206.22 936.733 2206.14 935.12C2206.14 933.507 2206.11 932.003 2206.03 930.61C2206.03 929.143 2206 927.677 2205.92 926.21L2197.67 924.34V922.8L2212.74 917.96L2213.62 918.84V929.62V929.84V945.68C2213.62 948.027 2213.62 950.703 2213.62 953.71C2213.7 956.643 2213.77 959.503 2213.84 962.29C2213.92 965.077 2213.99 967.313 2214.06 969H2205.81ZM2229.57 969V967.24L2240.13 965.92H2242.11L2252.67 967.24V969H2229.57ZM2237.16 969C2237.31 967.313 2237.38 965.077 2237.38 962.29C2237.46 959.503 2237.49 956.643 2237.49 953.71C2237.57 950.703 2237.6 948.027 2237.6 945.68V935.45C2237.6 930.683 2236.91 927.493 2235.51 925.88C2234.19 924.193 2231.92 923.35 2228.69 923.35C2226.93 923.35 2225.17 923.68 2223.41 924.34C2221.73 924.927 2220 925.843 2218.24 927.09C2216.56 928.263 2214.76 929.693 2212.85 931.38L2211.97 929.84H2212.41C2213.88 927.933 2215.64 926.063 2217.69 924.23C2219.75 922.397 2222.02 920.893 2224.51 919.72C2227.01 918.547 2229.57 917.96 2232.21 917.96C2236.39 917.96 2239.58 919.28 2241.78 921.92C2243.98 924.487 2245.08 928.997 2245.08 935.45V945.68C2245.08 948.027 2245.08 950.703 2245.08 953.71C2245.16 956.643 2245.23 959.503 2245.3 962.29C2245.38 965.077 2245.45 967.313 2245.52 969H2237.16ZM2259.45 969V967.24L2270.01 965.92H2272.1L2282.55 967.24V969H2259.45ZM2267.15 969C2267.3 967.313 2267.37 965.077 2267.37 962.29C2267.44 959.503 2267.48 956.643 2267.48 953.71C2267.55 950.703 2267.59 948.027 2267.59 945.68V894.53L2259.01 892.66V891.12L2274.52 887.16L2275.4 888.04L2274.96 909.6V929.29V929.4V945.68C2274.96 948.027 2274.96 950.703 2274.96 953.71C2275.03 956.643 2275.11 959.503 2275.18 962.29C2275.25 965.077 2275.33 967.313 2275.4 969H2267.15ZM2290.91 969V967.24L2301.47 965.92H2303.45L2314.01 967.24V969H2290.91ZM2298.5 969C2298.65 967.313 2298.72 965.077 2298.72 962.29C2298.79 959.503 2298.83 956.643 2298.83 953.71C2298.9 950.703 2298.94 948.027 2298.94 945.68V935.45C2298.94 930.683 2298.24 927.493 2296.85 925.88C2295.53 924.193 2293.26 923.35 2290.03 923.35C2288.27 923.35 2286.51 923.68 2284.75 924.34C2283.06 924.927 2281.34 925.843 2279.58 927.09C2277.89 928.263 2276.1 929.693 2274.19 931.38L2273.31 929.84H2273.75C2275.22 927.933 2276.98 926.063 2279.03 924.23C2281.08 922.397 2283.36 920.893 2285.85 919.72C2288.34 918.547 2290.91 917.96 2293.55 917.96C2297.73 917.96 2300.92 919.28 2303.12 921.92C2305.32 924.487 2306.42 928.997 2306.42 935.45V945.68C2306.42 948.027 2306.42 950.703 2306.42 953.71C2306.49 956.643 2306.57 959.503 2306.64 962.29C2306.71 965.077 2306.79 967.313 2306.86 969H2298.5ZM2334.1 970.32C2330.51 970.32 2327.46 969.293 2324.97 967.24C2322.48 965.113 2321.23 962.033 2321.23 958C2321.23 955.947 2321.63 954.003 2322.44 952.17C2323.25 950.337 2324.79 948.613 2327.06 947C2329.33 945.313 2332.71 943.737 2337.18 942.27C2338.28 941.903 2339.56 941.5 2341.03 941.06C2342.5 940.62 2344.22 940.143 2346.2 939.63C2348.25 939.043 2350.56 938.457 2353.13 937.87V939.63C2349.39 940.73 2346.38 941.647 2344.11 942.38C2341.91 943.113 2340.3 943.7 2339.27 944.14C2336.19 945.46 2333.92 946.817 2332.45 948.21C2331.06 949.603 2330.14 950.96 2329.7 952.28C2329.26 953.6 2329.04 954.883 2329.04 956.13C2329.04 959.283 2329.81 961.557 2331.35 962.95C2332.96 964.27 2334.94 964.93 2337.29 964.93C2338.9 964.93 2340.41 964.747 2341.8 964.38C2343.19 964.013 2344.7 963.317 2346.31 962.29C2347.92 961.19 2349.83 959.54 2352.03 957.34L2352.91 961.52H2349.61C2348.07 963.573 2346.46 965.26 2344.77 966.58C2343.16 967.9 2341.43 968.853 2339.6 969.44C2337.84 970.027 2336.01 970.32 2334.1 970.32ZM2357.53 969.88C2354.74 969.88 2352.62 969.11 2351.15 967.57C2349.76 965.957 2349.02 963.683 2348.95 960.75V960.53V935.12C2348.95 931.527 2348.58 928.703 2347.85 926.65C2347.19 924.523 2346.13 923.02 2344.66 922.14C2343.19 921.26 2341.29 920.82 2338.94 920.82C2337.55 920.82 2336.19 921.003 2334.87 921.37C2333.55 921.663 2332.16 922.067 2330.69 922.58L2333.77 920.49L2331.68 929.29C2331.39 930.757 2330.84 931.893 2330.03 932.7C2329.22 933.507 2328.2 933.91 2326.95 933.91C2325.7 933.91 2324.79 933.543 2324.2 932.81C2323.61 932.077 2323.25 931.087 2323.1 929.84C2323.91 926.247 2326.03 923.387 2329.48 921.26C2332.93 919.06 2337 917.96 2341.69 917.96C2345.06 917.96 2347.81 918.583 2349.94 919.83C2352.14 921.003 2353.75 922.873 2354.78 925.44C2355.88 928.007 2356.43 931.307 2356.43 935.34V959.87C2356.43 962.143 2356.72 963.72 2357.31 964.6C2357.97 965.407 2358.81 965.81 2359.84 965.81C2360.79 965.81 2361.6 965.59 2362.26 965.15C2362.92 964.71 2363.73 963.977 2364.68 962.95L2365.78 963.83C2365.05 965.59 2364.02 967.057 2362.7 968.23C2361.38 969.33 2359.66 969.88 2357.53 969.88ZM2370.2 969V967.24L2380.76 965.92H2382.85L2393.3 967.24V969H2370.2ZM2377.9 969C2378.05 967.313 2378.12 965.077 2378.12 962.29C2378.2 959.503 2378.23 956.643 2378.23 953.71C2378.31 950.703 2378.34 948.027 2378.34 945.68V940.62C2378.34 938.567 2378.31 936.733 2378.23 935.12C2378.23 933.507 2378.2 932.003 2378.12 930.61C2378.12 929.143 2378.09 927.677 2378.01 926.21L2369.76 924.34V922.8L2384.83 917.96L2385.71 918.84V929.62V929.84V945.68C2385.71 948.027 2385.71 950.703 2385.71 953.71C2385.79 956.643 2385.86 959.503 2385.93 962.29C2386.01 965.077 2386.08 967.313 2386.15 969H2377.9ZM2401.66 969V967.24L2412.22 965.92H2414.2L2424.76 967.24V969H2401.66ZM2409.25 969C2409.4 967.313 2409.47 965.077 2409.47 962.29C2409.55 959.503 2409.58 956.643 2409.58 953.71C2409.66 950.703 2409.69 948.027 2409.69 945.68V935.45C2409.69 930.683 2409 927.493 2407.6 925.88C2406.28 924.193 2404.01 923.35 2400.78 923.35C2399.02 923.35 2397.26 923.68 2395.5 924.34C2393.82 924.927 2392.09 925.843 2390.33 927.09C2388.65 928.263 2386.85 929.693 2384.94 931.38L2384.06 929.84H2384.5C2385.97 927.933 2387.73 926.063 2389.78 924.23C2391.84 922.397 2394.11 920.893 2396.6 919.72C2399.1 918.547 2401.66 917.96 2404.3 917.96C2408.48 917.96 2411.67 919.28 2413.87 921.92C2416.07 924.487 2417.17 928.997 2417.17 935.45V945.68C2417.17 948.027 2417.17 950.703 2417.17 953.71C2417.25 956.643 2417.32 959.503 2417.39 962.29C2417.47 965.077 2417.54 967.313 2417.61 969H2409.25ZM2452.44 970.32C2448.85 970.32 2445.55 969.403 2442.54 967.57C2439.53 965.663 2437.11 962.877 2435.28 959.21C2433.45 955.47 2432.53 950.813 2432.53 945.24C2432.53 939.447 2433.48 934.533 2435.39 930.5C2437.37 926.393 2439.97 923.277 2443.2 921.15C2446.43 919.023 2449.95 917.96 2453.76 917.96C2455.74 917.96 2457.65 918.29 2459.48 918.95C2461.39 919.61 2463.15 920.673 2464.76 922.14C2466.45 923.607 2467.95 925.587 2469.27 928.08H2470.81L2470.04 930.83C2467.33 927.603 2464.87 925.367 2462.67 924.12C2460.54 922.8 2457.98 922.14 2454.97 922.14C2452.33 922.14 2449.87 922.983 2447.6 924.67C2445.4 926.283 2443.64 928.777 2442.32 932.15C2441 935.523 2440.34 939.74 2440.34 944.8C2440.34 949.713 2440.96 953.747 2442.21 956.9C2443.46 960.053 2445.18 962.4 2447.38 963.94C2449.65 965.48 2452.18 966.25 2454.97 966.25C2457.98 966.25 2460.65 965.297 2463 963.39C2465.35 961.483 2467.55 959.027 2469.6 956.02L2470.26 959.21H2468.83C2467.73 961.263 2466.37 963.133 2464.76 964.82C2463.15 966.507 2461.31 967.863 2459.26 968.89C2457.21 969.843 2454.93 970.32 2452.44 970.32ZM2467.84 970.1V959.65V959.32V927.64V926.76V894.53L2459.59 892.66V891.12L2474.77 887.16L2475.65 888.04L2475.21 909.6V966.25L2482.8 967.24V969L2467.84 970.1ZM2512.99 970.32C2508.95 970.32 2505.21 969.367 2501.77 967.46C2498.32 965.48 2495.53 962.583 2493.41 958.77C2491.28 954.883 2490.22 950.08 2490.22 944.36C2490.22 938.64 2491.28 933.837 2493.41 929.95C2495.53 925.99 2498.32 923.02 2501.77 921.04C2505.21 918.987 2508.95 917.96 2512.99 917.96C2517.02 917.96 2520.76 918.95 2524.21 920.93C2527.65 922.837 2530.44 925.697 2532.57 929.51C2534.69 933.323 2535.76 938.127 2535.76 943.92C2535.76 949.567 2534.69 954.37 2532.57 958.33C2530.44 962.29 2527.65 965.297 2524.21 967.35C2520.76 969.33 2517.02 970.32 2512.99 970.32ZM2512.99 968.01C2515.99 968.01 2518.6 967.093 2520.8 965.26C2523 963.353 2524.68 960.603 2525.86 957.01C2527.03 953.417 2527.62 949.053 2527.62 943.92C2527.62 938.787 2527.03 934.497 2525.86 931.05C2524.68 927.53 2523 924.853 2520.8 923.02C2518.6 921.187 2515.99 920.27 2512.99 920.27C2509.98 920.27 2507.34 921.223 2505.07 923.13C2502.87 924.963 2501.18 927.677 2500.01 931.27C2498.83 934.863 2498.25 939.227 2498.25 944.36C2498.25 949.42 2498.83 953.71 2500.01 957.23C2501.18 960.75 2502.87 963.427 2505.07 965.26C2507.34 967.093 2509.98 968.01 2512.99 968.01ZM2568.44 969V964.05C2571 961.043 2573.57 958.073 2576.14 955.14C2578.7 952.133 2581.27 949.163 2583.84 946.23C2587.21 942.27 2590.07 938.567 2592.42 935.12C2594.76 931.673 2596.56 928.373 2597.81 925.22C2599.05 922.067 2599.68 919.06 2599.68 916.2C2599.68 910.407 2598.47 906.08 2596.05 903.22C2593.63 900.287 2590.4 898.82 2586.37 898.82C2584.75 898.82 2583.07 899.077 2581.31 899.59C2579.55 900.03 2577.71 900.8 2575.81 901.9L2579.66 898.27L2577.02 908.39C2576.65 909.93 2576.25 911.213 2575.81 912.24C2575.44 913.193 2574.93 913.927 2574.27 914.44C2573.68 914.88 2572.91 915.1 2571.96 915.1C2570.93 915.1 2570.09 914.843 2569.43 914.33C2568.84 913.817 2568.33 913.047 2567.89 912.02C2568.33 909.013 2569.39 906.373 2571.08 904.1C2572.76 901.753 2575 899.92 2577.79 898.6C2580.65 897.207 2583.91 896.51 2587.58 896.51C2592.49 896.51 2596.38 897.317 2599.24 898.93C2602.17 900.543 2604.26 902.78 2605.51 905.64C2606.83 908.5 2607.49 911.763 2607.49 915.43C2607.49 918.657 2606.79 921.883 2605.4 925.11C2604 928.337 2601.69 931.893 2598.47 935.78C2595.31 939.667 2591.06 944.287 2585.71 949.64C2584.09 951.253 2582.44 952.903 2580.76 954.59C2579.07 956.203 2577.38 957.853 2575.7 959.54C2574.08 961.153 2572.43 962.767 2570.75 964.38L2572.4 960.86V961.96H2610.46V969H2568.44ZM2664.12 970.32C2659.64 970.32 2655.68 969.33 2652.24 967.35C2648.86 965.37 2646.22 962.473 2644.32 958.66C2642.41 954.847 2641.46 950.227 2641.46 944.8C2641.46 938.933 2642.59 934.02 2644.87 930.06C2647.21 926.027 2650.18 923.02 2653.78 921.04C2657.44 918.987 2661.29 917.96 2665.33 917.96C2668.26 917.96 2670.83 918.473 2673.03 919.5C2675.3 920.527 2677.13 921.957 2678.53 923.79C2679.99 925.623 2680.95 927.713 2681.39 930.06C2681.31 931.307 2680.91 932.26 2680.18 932.92C2679.52 933.58 2678.56 933.91 2677.32 933.91C2676.14 933.91 2675.15 933.507 2674.35 932.7C2673.54 931.893 2672.95 930.757 2672.59 929.29L2670.5 920.49L2673.14 923.24C2671.96 921.92 2670.64 921.113 2669.18 920.82C2667.71 920.527 2666.43 920.38 2665.33 920.38C2661.81 920.38 2658.84 921.443 2656.42 923.57C2654.07 925.623 2652.27 928.373 2651.03 931.82C2649.85 935.193 2649.27 938.897 2649.27 942.93C2649.27 946.817 2649.85 950.447 2651.03 953.82C2652.27 957.193 2654.14 959.907 2656.64 961.96C2659.13 963.94 2662.28 964.93 2666.1 964.93C2668.3 964.93 2670.28 964.637 2672.04 964.05C2673.8 963.39 2675.37 962.473 2676.77 961.3C2678.23 960.127 2679.55 958.733 2680.73 957.12L2682.27 958C2681.02 960.787 2679.48 963.097 2677.65 964.93C2675.89 966.763 2673.87 968.12 2671.6 969C2669.32 969.88 2666.83 970.32 2664.12 970.32ZM2702.23 970.32C2698.64 970.32 2695.6 969.293 2693.1 967.24C2690.61 965.113 2689.36 962.033 2689.36 958C2689.36 955.947 2689.77 954.003 2690.57 952.17C2691.38 950.337 2692.92 948.613 2695.19 947C2697.47 945.313 2700.84 943.737 2705.31 942.27C2706.41 941.903 2707.7 941.5 2709.16 941.06C2710.63 940.62 2712.35 940.143 2714.33 939.63C2716.39 939.043 2718.7 938.457 2721.26 937.87V939.63C2717.52 940.73 2714.52 941.647 2712.24 942.38C2710.04 943.113 2708.43 943.7 2707.4 944.14C2704.32 945.46 2702.05 946.817 2700.58 948.21C2699.19 949.603 2698.27 950.96 2697.83 952.28C2697.39 953.6 2697.17 954.883 2697.17 956.13C2697.17 959.283 2697.94 961.557 2699.48 962.95C2701.1 964.27 2703.08 964.93 2705.42 964.93C2707.04 964.93 2708.54 964.747 2709.93 964.38C2711.33 964.013 2712.83 963.317 2714.44 962.29C2716.06 961.19 2717.96 959.54 2720.16 957.34L2721.04 961.52H2717.74C2716.2 963.573 2714.59 965.26 2712.9 966.58C2711.29 967.9 2709.57 968.853 2707.73 969.44C2705.97 970.027 2704.14 970.32 2702.23 970.32ZM2725.66 969.88C2722.88 969.88 2720.75 969.11 2719.28 967.57C2717.89 965.957 2717.16 963.683 2717.08 960.75V960.53V935.12C2717.08 931.527 2716.72 928.703 2715.98 926.65C2715.32 924.523 2714.26 923.02 2712.79 922.14C2711.33 921.26 2709.42 920.82 2707.07 920.82C2705.68 920.82 2704.32 921.003 2703 921.37C2701.68 921.663 2700.29 922.067 2698.82 922.58L2701.9 920.49L2699.81 929.29C2699.52 930.757 2698.97 931.893 2698.16 932.7C2697.36 933.507 2696.33 933.91 2695.08 933.91C2693.84 933.91 2692.92 933.543 2692.33 932.81C2691.75 932.077 2691.38 931.087 2691.23 929.84C2692.04 926.247 2694.17 923.387 2697.61 921.26C2701.06 919.06 2705.13 917.96 2709.82 917.96C2713.2 917.96 2715.95 918.583 2718.07 919.83C2720.27 921.003 2721.89 922.873 2722.91 925.44C2724.01 928.007 2724.56 931.307 2724.56 935.34V959.87C2724.56 962.143 2724.86 963.72 2725.44 964.6C2726.1 965.407 2726.95 965.81 2727.97 965.81C2728.93 965.81 2729.73 965.59 2730.39 965.15C2731.05 964.71 2731.86 963.977 2732.81 962.95L2733.91 963.83C2733.18 965.59 2732.15 967.057 2730.83 968.23C2729.51 969.33 2727.79 969.88 2725.66 969.88ZM2738.34 969V967.24L2748.9 965.92H2750.99L2762.76 967.24V969H2738.34ZM2746.04 969C2746.18 967.313 2746.26 965.077 2746.26 962.29C2746.33 959.503 2746.37 956.643 2746.37 953.71C2746.44 950.703 2746.48 948.027 2746.48 945.68V940.62C2746.48 938.567 2746.44 936.733 2746.37 935.12C2746.37 933.507 2746.33 932.003 2746.26 930.61C2746.26 929.143 2746.22 927.677 2746.15 926.21L2737.9 924.34V922.8L2752.97 917.96L2753.85 918.84V935.56V935.89V945.68C2753.85 948.027 2753.85 950.703 2753.85 953.71C2753.92 956.643 2753.99 959.503 2754.07 962.29C2754.14 965.077 2754.21 967.313 2754.29 969H2746.04ZM2753.08 941.17L2751.76 935.01H2753.3C2754.54 931.197 2756.01 928.043 2757.7 925.55C2759.38 923.057 2761.25 921.187 2763.31 919.94C2765.36 918.62 2767.52 917.96 2769.8 917.96C2771.41 917.96 2772.8 918.327 2773.98 919.06C2775.22 919.72 2776.07 920.857 2776.51 922.47C2776.43 924.157 2775.81 925.477 2774.64 926.43C2773.46 927.383 2772.14 927.86 2770.68 927.86C2769.5 927.86 2768.4 927.603 2767.38 927.09C2766.42 926.503 2765.47 925.733 2764.52 924.78L2761.88 922.03L2766.17 921.37C2763.67 922.397 2761.18 924.633 2758.69 928.08C2756.19 931.453 2754.32 935.817 2753.08 941.17ZM2781.84 969V967.24L2792.4 965.92H2794.49L2806.26 967.24V969H2781.84ZM2789.54 969C2789.69 967.313 2789.76 965.077 2789.76 962.29C2789.84 959.503 2789.87 956.643 2789.87 953.71C2789.95 950.703 2789.98 948.027 2789.98 945.68V940.62C2789.98 938.567 2789.95 936.733 2789.87 935.12C2789.87 933.507 2789.84 932.003 2789.76 930.61C2789.76 929.143 2789.73 927.677 2789.65 926.21L2781.4 924.34V922.8L2796.47 917.96L2797.35 918.84V935.56V935.89V945.68C2797.35 948.027 2797.35 950.703 2797.35 953.71C2797.43 956.643 2797.5 959.503 2797.57 962.29C2797.65 965.077 2797.72 967.313 2797.79 969H2789.54ZM2796.58 941.17L2795.26 935.01H2796.8C2798.05 931.197 2799.52 928.043 2801.2 925.55C2802.89 923.057 2804.76 921.187 2806.81 919.94C2808.87 918.62 2811.03 917.96 2813.3 917.96C2814.92 917.96 2816.31 918.327 2817.48 919.06C2818.73 919.72 2819.57 920.857 2820.01 922.47C2819.94 924.157 2819.32 925.477 2818.14 926.43C2816.97 927.383 2815.65 927.86 2814.18 927.86C2813.01 927.86 2811.91 927.603 2810.88 927.09C2809.93 926.503 2808.98 925.733 2808.02 924.78L2805.38 922.03L2809.67 921.37C2807.18 922.397 2804.69 924.633 2802.19 928.08C2799.7 931.453 2797.83 935.817 2796.58 941.17ZM2847.5 970.32C2843.47 970.32 2839.73 969.367 2836.28 967.46C2832.83 965.48 2830.05 962.583 2827.92 958.77C2825.79 954.883 2824.73 950.08 2824.73 944.36C2824.73 938.64 2825.79 933.837 2827.92 929.95C2830.05 925.99 2832.83 923.02 2836.28 921.04C2839.73 918.987 2843.47 917.96 2847.5 917.96C2851.53 917.96 2855.27 918.95 2858.72 920.93C2862.17 922.837 2864.95 925.697 2867.08 929.51C2869.21 933.323 2870.27 938.127 2870.27 943.92C2870.27 949.567 2869.21 954.37 2867.08 958.33C2864.95 962.29 2862.17 965.297 2858.72 967.35C2855.27 969.33 2851.53 970.32 2847.5 970.32ZM2847.5 968.01C2850.51 968.01 2853.11 967.093 2855.31 965.26C2857.51 963.353 2859.2 960.603 2860.37 957.01C2861.54 953.417 2862.13 949.053 2862.13 943.92C2862.13 938.787 2861.54 934.497 2860.37 931.05C2859.2 927.53 2857.51 924.853 2855.31 923.02C2853.11 921.187 2850.51 920.27 2847.5 920.27C2844.49 920.27 2841.85 921.223 2839.58 923.13C2837.38 924.963 2835.69 927.677 2834.52 931.27C2833.35 934.863 2832.76 939.227 2832.76 944.36C2832.76 949.42 2833.35 953.71 2834.52 957.23C2835.69 960.75 2837.38 963.427 2839.58 965.26C2841.85 967.093 2844.49 968.01 2847.5 968.01ZM2895.68 970.32C2892.52 970.32 2889.85 969.99 2887.65 969.33C2885.52 968.743 2883.21 967.79 2880.72 966.47L2881.49 952.72H2883.03L2887.43 967.46H2883.69V965.48C2885.45 966.433 2887.24 967.13 2889.08 967.57C2890.98 968.01 2893.18 968.23 2895.68 968.23C2898.24 968.23 2900.33 967.79 2901.95 966.91C2903.63 965.957 2904.88 964.747 2905.69 963.28C2906.57 961.74 2907.01 960.09 2907.01 958.33C2907.01 955.323 2905.94 953.087 2903.82 951.62C2901.76 950.08 2899.34 948.723 2896.56 947.55L2893.48 946.23C2891.42 945.35 2889.44 944.36 2887.54 943.26C2885.63 942.087 2884.05 940.62 2882.81 938.86C2881.63 937.1 2881.05 934.863 2881.05 932.15C2881.05 929.437 2881.67 927.017 2882.92 924.89C2884.16 922.763 2886 921.077 2888.42 919.83C2890.84 918.583 2893.84 917.96 2897.44 917.96C2900.15 917.96 2902.57 918.29 2904.7 918.95C2906.9 919.537 2909.06 920.453 2911.19 921.7L2910.75 934.24H2909.1L2904.92 921.04H2909.32V923.9C2907.48 922.58 2905.61 921.627 2903.71 921.04C2901.8 920.453 2899.71 920.16 2897.44 920.16C2893.99 920.16 2891.39 921.04 2889.63 922.8C2887.87 924.487 2886.99 926.577 2886.99 929.07C2886.99 932.003 2887.98 934.24 2889.96 935.78C2891.94 937.32 2894.28 938.677 2897 939.85L2900.08 941.17C2902.28 942.123 2904.4 943.187 2906.46 944.36C2908.51 945.46 2910.16 946.927 2911.41 948.76C2912.73 950.52 2913.39 952.83 2913.39 955.69C2913.39 958.477 2912.73 960.97 2911.41 963.17C2910.09 965.37 2908.11 967.13 2905.47 968.45C2902.83 969.697 2899.56 970.32 2895.68 970.32ZM2965.27 970.32C2961.68 970.32 2958.38 969.403 2955.37 967.57C2952.37 965.663 2949.95 962.877 2948.11 959.21C2946.28 955.47 2945.36 950.813 2945.36 945.24C2945.36 939.447 2946.32 934.533 2948.22 930.5C2950.2 926.393 2952.81 923.277 2956.03 921.15C2959.26 919.023 2962.78 917.96 2966.59 917.96C2968.57 917.96 2970.48 918.29 2972.31 918.95C2974.22 919.61 2975.98 920.673 2977.59 922.14C2979.28 923.607 2980.78 925.587 2982.1 928.08H2983.64L2982.87 930.83C2980.16 927.603 2977.7 925.367 2975.5 924.12C2973.38 922.8 2970.81 922.14 2967.8 922.14C2965.16 922.14 2962.71 922.983 2960.43 924.67C2958.23 926.283 2956.47 928.777 2955.15 932.15C2953.83 935.523 2953.17 939.74 2953.17 944.8C2953.17 949.713 2953.8 953.747 2955.04 956.9C2956.29 960.053 2958.01 962.4 2960.21 963.94C2962.49 965.48 2965.02 966.25 2967.8 966.25C2970.81 966.25 2973.49 965.297 2975.83 963.39C2978.18 961.483 2980.38 959.027 2982.43 956.02L2983.09 959.21H2981.66C2980.56 961.263 2979.21 963.133 2977.59 964.82C2975.98 966.507 2974.15 967.863 2972.09 968.89C2970.04 969.843 2967.77 970.32 2965.27 970.32ZM2980.67 970.1V959.65V959.32V927.64V926.76V894.53L2972.42 892.66V891.12L2987.6 887.16L2988.48 888.04L2988.04 909.6V966.25L2995.63 967.24V969L2980.67 970.1ZM3025.38 970.32C3021.2 970.32 3017.39 969.33 3013.94 967.35C3010.57 965.297 3007.89 962.4 3005.91 958.66C3003.93 954.92 3002.94 950.447 3002.94 945.24C3002.94 939.74 3003.97 934.973 3006.02 930.94C3008.07 926.833 3010.75 923.643 3014.05 921.37C3017.42 919.097 3021.09 917.96 3025.05 917.96C3028.42 917.96 3031.47 918.73 3034.18 920.27C3036.97 921.737 3039.17 923.863 3040.78 926.65C3042.39 929.363 3043.2 932.627 3043.2 936.44C3043.2 937.613 3043.13 938.677 3042.98 939.63C3042.91 940.51 3042.76 941.28 3042.54 941.94H3005.8V939.52H3030.88C3032.93 939.52 3034.36 939.08 3035.17 938.2C3035.98 937.32 3036.38 935.963 3036.38 934.13C3036.38 931.343 3035.9 928.923 3034.95 926.87C3034.07 924.817 3032.79 923.24 3031.1 922.14C3029.41 920.967 3027.4 920.38 3025.05 920.38C3022.7 920.38 3020.39 921.15 3018.12 922.69C3015.92 924.23 3014.12 926.687 3012.73 930.06C3011.34 933.433 3010.64 937.87 3010.64 943.37C3010.64 947.843 3011.37 951.693 3012.84 954.92C3014.31 958.147 3016.29 960.64 3018.78 962.4C3021.35 964.087 3024.24 964.93 3027.47 964.93C3030.77 964.93 3033.63 964.233 3036.05 962.84C3038.47 961.373 3040.56 959.467 3042.32 957.12L3043.86 958C3042.61 960.86 3041.04 963.207 3039.13 965.04C3037.22 966.8 3035.1 968.12 3032.75 969C3030.48 969.88 3028.02 970.32 3025.38 970.32ZM3097.99 970.32C3093.52 970.32 3089.56 969.33 3086.11 967.35C3082.74 965.37 3080.1 962.473 3078.19 958.66C3076.29 954.847 3075.33 950.227 3075.33 944.8C3075.33 938.933 3076.47 934.02 3078.74 930.06C3081.09 926.027 3084.06 923.02 3087.65 921.04C3091.32 918.987 3095.17 917.96 3099.2 917.96C3102.14 917.96 3104.7 918.473 3106.9 919.5C3109.18 920.527 3111.01 921.957 3112.4 923.79C3113.87 925.623 3114.82 927.713 3115.26 930.06C3115.19 931.307 3114.79 932.26 3114.05 932.92C3113.39 933.58 3112.44 933.91 3111.19 933.91C3110.02 933.91 3109.03 933.507 3108.22 932.7C3107.42 931.893 3106.83 930.757 3106.46 929.29L3104.37 920.49L3107.01 923.24C3105.84 921.92 3104.52 921.113 3103.05 920.82C3101.59 920.527 3100.3 920.38 3099.2 920.38C3095.68 920.38 3092.71 921.443 3090.29 923.57C3087.95 925.623 3086.15 928.373 3084.9 931.82C3083.73 935.193 3083.14 938.897 3083.14 942.93C3083.14 946.817 3083.73 950.447 3084.9 953.82C3086.15 957.193 3088.02 959.907 3090.51 961.96C3093.01 963.94 3096.16 964.93 3099.97 964.93C3102.17 964.93 3104.15 964.637 3105.91 964.05C3107.67 963.39 3109.25 962.473 3110.64 961.3C3112.11 960.127 3113.43 958.733 3114.6 957.12L3116.14 958C3114.9 960.787 3113.36 963.097 3111.52 964.93C3109.76 966.763 3107.75 968.12 3105.47 969C3103.2 969.88 3100.71 970.32 3097.99 970.32ZM3146.78 970.32C3142.74 970.32 3139 969.367 3135.56 967.46C3132.11 965.48 3129.32 962.583 3127.2 958.77C3125.07 954.883 3124.01 950.08 3124.01 944.36C3124.01 938.64 3125.07 933.837 3127.2 929.95C3129.32 925.99 3132.11 923.02 3135.56 921.04C3139 918.987 3142.74 917.96 3146.78 917.96C3150.81 917.96 3154.55 918.95 3158 920.93C3161.44 922.837 3164.23 925.697 3166.36 929.51C3168.48 933.323 3169.55 938.127 3169.55 943.92C3169.55 949.567 3168.48 954.37 3166.36 958.33C3164.23 962.29 3161.44 965.297 3158 967.35C3154.55 969.33 3150.81 970.32 3146.78 970.32ZM3146.78 968.01C3149.78 968.01 3152.39 967.093 3154.59 965.26C3156.79 963.353 3158.47 960.603 3159.65 957.01C3160.82 953.417 3161.41 949.053 3161.41 943.92C3161.41 938.787 3160.82 934.497 3159.65 931.05C3158.47 927.53 3156.79 924.853 3154.59 923.02C3152.39 921.187 3149.78 920.27 3146.78 920.27C3143.77 920.27 3141.13 921.223 3138.86 923.13C3136.66 924.963 3134.97 927.677 3133.8 931.27C3132.62 934.863 3132.04 939.227 3132.04 944.36C3132.04 949.42 3132.62 953.71 3133.8 957.23C3134.97 960.75 3136.66 963.427 3138.86 965.26C3141.13 967.093 3143.77 968.01 3146.78 968.01ZM3178.12 969V967.24L3188.68 965.92H3190.77L3202.54 967.24V969H3178.12ZM3185.82 969C3185.97 967.313 3186.04 965.077 3186.04 962.29C3186.12 959.503 3186.15 956.643 3186.15 953.71C3186.23 950.703 3186.26 948.027 3186.26 945.68V940.62C3186.26 938.567 3186.23 936.733 3186.15 935.12C3186.15 933.507 3186.12 932.003 3186.04 930.61C3186.04 929.143 3186.01 927.677 3185.93 926.21L3177.68 924.34V922.8L3192.75 917.96L3193.63 918.84V935.56V935.89V945.68C3193.63 948.027 3193.63 950.703 3193.63 953.71C3193.71 956.643 3193.78 959.503 3193.85 962.29C3193.93 965.077 3194 967.313 3194.07 969H3185.82ZM3192.86 941.17L3191.54 935.01H3193.08C3194.33 931.197 3195.8 928.043 3197.48 925.55C3199.17 923.057 3201.04 921.187 3203.09 919.94C3205.15 918.62 3207.31 917.96 3209.58 917.96C3211.2 917.96 3212.59 918.327 3213.76 919.06C3215.01 919.72 3215.85 920.857 3216.29 922.47C3216.22 924.157 3215.6 925.477 3214.42 926.43C3213.25 927.383 3211.93 927.86 3210.46 927.86C3209.29 927.86 3208.19 927.603 3207.16 927.09C3206.21 926.503 3205.26 925.733 3204.3 924.78L3201.66 922.03L3205.95 921.37C3203.46 922.397 3200.97 924.633 3198.47 928.08C3195.98 931.453 3194.11 935.817 3192.86 941.17ZM3221.63 969V967.24L3232.19 965.92H3234.28L3246.05 967.24V969H3221.63ZM3229.33 969C3229.48 967.313 3229.55 965.077 3229.55 962.29C3229.62 959.503 3229.66 956.643 3229.66 953.71C3229.73 950.703 3229.77 948.027 3229.77 945.68V940.62C3229.77 938.567 3229.73 936.733 3229.66 935.12C3229.66 933.507 3229.62 932.003 3229.55 930.61C3229.55 929.143 3229.51 927.677 3229.44 926.21L3221.19 924.34V922.8L3236.26 917.96L3237.14 918.84V935.56V935.89V945.68C3237.14 948.027 3237.14 950.703 3237.14 953.71C3237.21 956.643 3237.29 959.503 3237.36 962.29C3237.43 965.077 3237.51 967.313 3237.58 969H3229.33ZM3236.37 941.17L3235.05 935.01H3236.59C3237.84 931.197 3239.3 928.043 3240.99 925.55C3242.68 923.057 3244.55 921.187 3246.6 919.94C3248.65 918.62 3250.82 917.96 3253.09 917.96C3254.7 917.96 3256.1 918.327 3257.27 919.06C3258.52 919.72 3259.36 920.857 3259.8 922.47C3259.73 924.157 3259.1 925.477 3257.93 926.43C3256.76 927.383 3255.44 927.86 3253.97 927.86C3252.8 927.86 3251.7 927.603 3250.67 927.09C3249.72 926.503 3248.76 925.733 3247.81 924.78L3245.17 922.03L3249.46 921.37C3246.97 922.397 3244.47 924.633 3241.98 928.08C3239.49 931.453 3237.62 935.817 3236.37 941.17ZM3265.14 969V967.24L3275.7 965.92H3277.79L3288.24 967.24V969H3265.14ZM3272.84 969C3272.98 967.313 3273.06 965.077 3273.06 962.29C3273.13 959.503 3273.17 956.643 3273.17 953.71C3273.24 950.703 3273.28 948.027 3273.28 945.68V940.62C3273.28 937.54 3273.24 934.937 3273.17 932.81C3273.17 930.683 3273.09 928.483 3272.95 926.21L3264.7 924.34V922.8L3280.21 917.96L3281.09 918.84L3280.65 932.7V945.68C3280.65 948.027 3280.65 950.703 3280.65 953.71C3280.72 956.643 3280.79 959.503 3280.87 962.29C3280.94 965.077 3281.01 967.313 3281.09 969H3272.84ZM3276.69 906.41C3275.07 906.41 3273.68 905.897 3272.51 904.87C3271.41 903.843 3270.86 902.413 3270.86 900.58C3270.86 898.82 3271.41 897.427 3272.51 896.4C3273.68 895.373 3275.07 894.86 3276.69 894.86C3278.37 894.86 3279.77 895.373 3280.87 896.4C3281.97 897.427 3282.52 898.82 3282.52 900.58C3282.52 902.413 3281.97 903.843 3280.87 904.87C3279.77 905.897 3278.37 906.41 3276.69 906.41ZM3315.58 970.32C3311.98 970.32 3308.68 969.403 3305.68 967.57C3302.67 965.663 3300.25 962.877 3298.42 959.21C3296.58 955.47 3295.67 950.813 3295.67 945.24C3295.67 939.447 3296.62 934.533 3298.53 930.5C3300.51 926.393 3303.11 923.277 3306.34 921.15C3309.56 919.023 3313.08 917.96 3316.9 917.96C3318.88 917.96 3320.78 918.29 3322.62 918.95C3324.52 919.61 3326.28 920.673 3327.9 922.14C3329.58 923.607 3331.09 925.587 3332.41 928.08H3333.95L3333.18 930.83C3330.46 927.603 3328.01 925.367 3325.81 924.12C3323.68 922.8 3321.11 922.14 3318.11 922.14C3315.47 922.14 3313.01 922.983 3310.74 924.67C3308.54 926.283 3306.78 928.777 3305.46 932.15C3304.14 935.523 3303.48 939.74 3303.48 944.8C3303.48 949.713 3304.1 953.747 3305.35 956.9C3306.59 960.053 3308.32 962.4 3310.52 963.94C3312.79 965.48 3315.32 966.25 3318.11 966.25C3321.11 966.25 3323.79 965.297 3326.14 963.39C3328.48 961.483 3330.68 959.027 3332.74 956.02L3333.4 959.21H3331.97C3330.87 961.263 3329.51 963.133 3327.9 964.82C3326.28 966.507 3324.45 967.863 3322.4 968.89C3320.34 969.843 3318.07 970.32 3315.58 970.32ZM3330.98 970.1V959.65V959.32V927.64V926.76V894.53L3322.73 892.66V891.12L3337.91 887.16L3338.79 888.04L3338.35 909.6V966.25L3345.94 967.24V969L3330.98 970.1ZM3366.21 970.32C3362.62 970.32 3359.57 969.293 3357.08 967.24C3354.59 965.113 3353.34 962.033 3353.34 958C3353.34 955.947 3353.74 954.003 3354.55 952.17C3355.36 950.337 3356.9 948.613 3359.17 947C3361.44 945.313 3364.82 943.737 3369.29 942.27C3370.39 941.903 3371.67 941.5 3373.14 941.06C3374.61 940.62 3376.33 940.143 3378.31 939.63C3380.36 939.043 3382.67 938.457 3385.24 937.87V939.63C3381.5 940.73 3378.49 941.647 3376.22 942.38C3374.02 943.113 3372.41 943.7 3371.38 944.14C3368.3 945.46 3366.03 946.817 3364.56 948.21C3363.17 949.603 3362.25 950.96 3361.81 952.28C3361.37 953.6 3361.15 954.883 3361.15 956.13C3361.15 959.283 3361.92 961.557 3363.46 962.95C3365.07 964.27 3367.05 964.93 3369.4 964.93C3371.01 964.93 3372.52 964.747 3373.91 964.38C3375.3 964.013 3376.81 963.317 3378.42 962.29C3380.03 961.19 3381.94 959.54 3384.14 957.34L3385.02 961.52H3381.72C3380.18 963.573 3378.57 965.26 3376.88 966.58C3375.27 967.9 3373.54 968.853 3371.71 969.44C3369.95 970.027 3368.12 970.32 3366.21 970.32ZM3389.64 969.88C3386.85 969.88 3384.73 969.11 3383.26 967.57C3381.87 965.957 3381.13 963.683 3381.06 960.75V960.53V935.12C3381.06 931.527 3380.69 928.703 3379.96 926.65C3379.3 924.523 3378.24 923.02 3376.77 922.14C3375.3 921.26 3373.4 920.82 3371.05 920.82C3369.66 920.82 3368.3 921.003 3366.98 921.37C3365.66 921.663 3364.27 922.067 3362.8 922.58L3365.88 920.49L3363.79 929.29C3363.5 930.757 3362.95 931.893 3362.14 932.7C3361.33 933.507 3360.31 933.91 3359.06 933.91C3357.81 933.91 3356.9 933.543 3356.31 932.81C3355.72 932.077 3355.36 931.087 3355.21 929.84C3356.02 926.247 3358.14 923.387 3361.59 921.26C3365.04 919.06 3369.11 917.96 3373.8 917.96C3377.17 917.96 3379.92 918.583 3382.05 919.83C3384.25 921.003 3385.86 922.873 3386.89 925.44C3387.99 928.007 3388.54 931.307 3388.54 935.34V959.87C3388.54 962.143 3388.83 963.72 3389.42 964.6C3390.08 965.407 3390.92 965.81 3391.95 965.81C3392.9 965.81 3393.71 965.59 3394.37 965.15C3395.03 964.71 3395.84 963.977 3396.79 962.95L3397.89 963.83C3397.16 965.59 3396.13 967.057 3394.81 968.23C3393.49 969.33 3391.77 969.88 3389.64 969.88Z" fill="black"/>
</svg>
