<svg width="3745" height="1780" viewBox="0 0 3745 1780" fill="none" xmlns="http://www.w3.org/2000/svg">
<path d="M1709.08 852V849.58L1721.18 848.04H1729.65L1741.75 849.58V852H1709.08ZM1717.22 852C1717.37 849.14 1717.48 845.767 1717.55 841.88C1717.62 837.993 1717.66 833.96 1717.66 829.78C1717.73 825.6 1717.77 821.64 1717.77 817.9V813.06C1717.77 809.32 1717.73 805.433 1717.66 801.4C1717.66 797.367 1717.62 793.48 1717.55 789.74C1717.48 785.927 1717.37 782.59 1717.22 779.73H1733.61C1733.46 782.59 1733.35 785.927 1733.28 789.74C1733.21 793.48 1733.17 797.367 1733.17 801.4C1733.17 805.433 1733.17 809.32 1733.17 813.06V817.9C1733.17 821.64 1733.17 825.6 1733.17 829.78C1733.17 833.96 1733.21 837.993 1733.28 841.88C1733.35 845.767 1733.46 849.14 1733.61 852H1717.22ZM1695.77 800.96L1697.09 779.73H1753.85L1755.17 800.96H1752.75L1744.28 781.05L1748.35 782.7H1702.59L1706.55 781.05L1698.08 800.96H1695.77ZM1757.44 852V849.58L1766.79 848.04H1774.93L1785.16 849.58V852H1757.44ZM1763.05 852C1763.2 850.093 1763.31 847.82 1763.38 845.18C1763.45 842.54 1763.49 839.79 1763.49 836.93C1763.56 834.07 1763.6 831.43 1763.6 829.01V825.6C1763.6 823.327 1763.6 821.31 1763.6 819.55C1763.6 817.717 1763.56 816.03 1763.49 814.49C1763.49 812.877 1763.45 811.263 1763.38 809.65L1757 807.78V805.8L1776.69 800.08L1778.23 801.18V815.48V815.81V829.01C1778.23 831.43 1778.23 834.07 1778.23 836.93C1778.3 839.79 1778.38 842.54 1778.45 845.18C1778.52 847.82 1778.63 850.093 1778.78 852H1763.05ZM1777.68 821.75L1776.03 816.58H1777.57C1778.74 812.84 1780.06 809.76 1781.53 807.34C1783.07 804.92 1784.76 803.123 1786.59 801.95C1788.5 800.703 1790.55 800.08 1792.75 800.08C1795.02 800.08 1796.89 800.667 1798.36 801.84C1799.83 802.94 1800.78 804.737 1801.22 807.23C1801.07 809.943 1800.23 811.923 1798.69 813.17C1797.22 814.417 1795.5 815.04 1793.52 815.04C1791.91 815.04 1790.4 814.637 1789.01 813.83C1787.69 813.023 1786.48 811.593 1785.38 809.54L1783.51 806.24L1786.48 806.68C1784.87 807.853 1783.14 809.833 1781.31 812.62C1779.55 815.407 1778.34 818.45 1777.68 821.75ZM1815.88 853.65C1811.99 853.65 1808.8 852.55 1806.31 850.35C1803.89 848.077 1802.68 844.96 1802.68 841C1802.68 838.507 1803.3 836.197 1804.55 834.07C1805.79 831.943 1807.81 830 1810.6 828.24C1813.46 826.407 1817.27 824.757 1822.04 823.29C1823.36 822.923 1824.9 822.483 1826.66 821.97C1828.49 821.457 1830.4 820.943 1832.38 820.43C1834.43 819.917 1836.37 819.403 1838.21 818.89V821.31C1835.42 822.117 1832.85 822.887 1830.51 823.62C1828.23 824.28 1826.55 824.867 1825.45 825.38C1823.61 826.26 1822.04 827.25 1820.72 828.35C1819.4 829.45 1818.37 830.77 1817.64 832.31C1816.9 833.777 1816.54 835.573 1816.54 837.7C1816.54 840.633 1817.2 842.797 1818.52 844.19C1819.84 845.51 1821.49 846.17 1823.47 846.17C1824.57 846.17 1825.59 846.023 1826.55 845.73C1827.5 845.363 1828.53 844.813 1829.63 844.08C1830.73 843.273 1832.01 842.173 1833.48 840.78L1834.36 845.18H1831.06C1829.59 847.233 1828.05 848.883 1826.44 850.13C1824.9 851.377 1823.25 852.257 1821.49 852.77C1819.8 853.357 1817.93 853.65 1815.88 853.65ZM1841.4 853.54C1837.88 853.54 1835.2 852.77 1833.37 851.23C1831.53 849.617 1830.47 847.527 1830.18 844.96V844.52V817.24C1830.18 813.647 1829.92 810.86 1829.41 808.88C1828.89 806.827 1828.05 805.36 1826.88 804.48C1825.7 803.6 1824.05 803.16 1821.93 803.16C1820.83 803.16 1819.73 803.307 1818.63 803.6C1817.6 803.893 1816.65 804.26 1815.77 804.7L1818.96 801.73L1818.19 809.65C1818.11 813.097 1817.31 815.48 1815.77 816.8C1814.23 818.047 1812.58 818.67 1810.82 818.67C1809.13 818.67 1807.77 818.267 1806.75 817.46C1805.79 816.58 1805.06 815.297 1804.55 813.61C1804.99 809.577 1807.15 806.313 1811.04 803.82C1815 801.327 1820.2 800.08 1826.66 800.08C1830.91 800.08 1834.36 800.777 1837 802.17C1839.71 803.49 1841.69 805.58 1842.94 808.44C1844.18 811.3 1844.81 814.967 1844.81 819.44V844.08C1844.81 845.18 1845.03 846.023 1845.47 846.61C1845.91 847.123 1846.46 847.38 1847.12 847.38C1847.92 847.38 1848.58 847.197 1849.1 846.83C1849.68 846.463 1850.34 845.803 1851.08 844.85L1852.62 846.06C1851.74 848.333 1850.34 850.167 1848.44 851.56C1846.53 852.88 1844.18 853.54 1841.4 853.54ZM1855.52 852V849.58L1864.87 848.04H1873.01L1881.92 849.58V852H1855.52ZM1861.13 852C1861.27 850.093 1861.38 847.82 1861.46 845.18C1861.53 842.54 1861.57 839.79 1861.57 836.93C1861.64 834.07 1861.68 831.43 1861.68 829.01V825.6C1861.68 823.327 1861.68 821.31 1861.68 819.55C1861.68 817.717 1861.64 816.03 1861.57 814.49C1861.57 812.877 1861.53 811.263 1861.46 809.65L1855.08 807.78V805.8L1874.77 800.08L1876.31 801.18V811.74V811.96V829.01C1876.31 831.43 1876.31 834.07 1876.31 836.93C1876.38 839.79 1876.45 842.54 1876.53 845.18C1876.6 847.82 1876.71 850.093 1876.86 852H1861.13ZM1886.87 852V849.58L1895.89 848.04H1903.92L1912.94 849.58V852H1886.87ZM1892.04 852C1892.26 850.093 1892.4 847.82 1892.48 845.18C1892.55 842.54 1892.59 839.79 1892.59 836.93C1892.59 834.07 1892.59 831.43 1892.59 829.01V817.24C1892.59 813.867 1892.04 811.557 1890.94 810.31C1889.91 809.063 1888.3 808.44 1886.1 808.44C1884.78 808.44 1883.38 808.733 1881.92 809.32C1880.45 809.833 1879.02 810.64 1877.63 811.74C1876.23 812.767 1874.88 814.013 1873.56 815.48L1873.34 812.73H1874.33C1876.16 809.87 1878.07 807.523 1880.05 805.69C1882.03 803.783 1884.12 802.39 1886.32 801.51C1888.59 800.557 1891.01 800.08 1893.58 800.08C1897.76 800.08 1901.09 801.437 1903.59 804.15C1906.08 806.79 1907.33 811.043 1907.33 816.91V829.01C1907.33 831.43 1907.33 834.07 1907.33 836.93C1907.4 839.79 1907.47 842.54 1907.55 845.18C1907.62 847.82 1907.73 850.093 1907.88 852H1892.04ZM1935.64 853.65C1932.56 853.65 1929.7 853.247 1927.06 852.44C1924.42 851.633 1921.81 850.497 1919.25 849.03L1919.69 835.39H1921.89L1927.83 850.02H1924.09V847.71C1925.92 848.737 1927.64 849.543 1929.26 850.13C1930.87 850.717 1932.96 851.01 1935.53 851.01C1937.51 851.01 1939.19 850.68 1940.59 850.02C1941.98 849.36 1943.04 848.407 1943.78 847.16C1944.58 845.913 1944.99 844.447 1944.99 842.76C1944.99 840.12 1944 838.14 1942.02 836.82C1940.11 835.5 1937.84 834.253 1935.2 833.08L1932.12 831.76C1930.06 830.88 1928.08 829.853 1926.18 828.68C1924.27 827.433 1922.69 825.857 1921.45 823.95C1920.2 821.97 1919.58 819.44 1919.58 816.36C1919.58 813.207 1920.27 810.42 1921.67 808C1923.06 805.507 1925.19 803.563 1928.05 802.17C1930.91 800.777 1934.46 800.08 1938.72 800.08C1941.58 800.08 1944.11 800.41 1946.31 801.07C1948.58 801.73 1950.82 802.683 1953.02 803.93L1952.58 816.91H1950.38L1944.55 802.83H1948.4V806.13C1947 804.883 1945.57 804.003 1944.11 803.49C1942.64 802.977 1940.84 802.72 1938.72 802.72C1936.08 802.72 1933.95 803.38 1932.34 804.7C1930.8 805.947 1930.03 807.743 1930.03 810.09C1930.03 812.73 1931.02 814.747 1933 816.14C1934.98 817.46 1937.29 818.67 1939.93 819.77L1943.01 821.09C1945.13 822.043 1947.15 823.107 1949.06 824.28C1951.04 825.453 1952.65 827.03 1953.9 829.01C1955.14 830.917 1955.77 833.447 1955.77 836.6C1955.77 840.193 1954.96 843.273 1953.35 845.84C1951.81 848.333 1949.53 850.277 1946.53 851.67C1943.52 852.99 1939.89 853.65 1935.64 853.65ZM1961.97 852V849.58L1971.32 848.04H1980.56L1991.67 849.58V852H1961.97ZM1967.58 852C1967.73 850.093 1967.84 847.82 1967.91 845.18C1967.99 842.54 1968.02 839.79 1968.02 836.93C1968.1 834.07 1968.13 831.43 1968.13 829.01V804.92H1961.53V802.5L1970.99 800.63L1968.24 804.26L1968.46 800.3C1968.68 796.487 1969.2 793.077 1970 790.07C1970.81 786.99 1971.84 784.313 1973.08 782.04C1974.4 779.767 1975.87 777.86 1977.48 776.32C1979.68 774.34 1982.07 772.873 1984.63 771.92C1987.27 770.967 1990.1 770.49 1993.1 770.49C1995.82 770.49 1998.38 771.077 2000.8 772.25C2003.3 773.423 2004.8 775.33 2005.31 777.97C2005.24 779.73 2004.58 781.087 2003.33 782.04C2002.09 782.92 2000.58 783.36 1998.82 783.36C1997.06 783.36 1995.45 782.883 1993.98 781.93C1992.59 780.903 1991.16 779.217 1989.69 776.87L1986.83 772.58V772.03H1989.8V772.58C1989.44 772.653 1989 772.8 1988.48 773.02C1987.97 773.24 1987.38 773.827 1986.72 774.78C1985.7 776.247 1984.89 777.897 1984.3 779.73C1983.72 781.563 1983.28 783.617 1982.98 785.89C1982.69 788.163 1982.51 790.73 1982.43 793.59C1982.43 796.377 1982.54 799.567 1982.76 803.16V829.01C1982.76 831.43 1982.76 834.07 1982.76 836.93C1982.84 839.79 1982.91 842.54 1982.98 845.18C1983.06 847.82 1983.17 850.093 1983.31 852H1967.58ZM1975.83 804.92V801.62H1994.2V804.92H1975.83ZM2024.25 853.65C2018.97 853.65 2014.42 852.55 2010.61 850.35C2006.87 848.077 2003.97 844.96 2001.92 841C1999.94 836.967 1998.95 832.273 1998.95 826.92C1998.95 821.567 2000.01 816.873 2002.14 812.84C2004.34 808.807 2007.35 805.69 2011.16 803.49C2014.97 801.217 2019.34 800.08 2024.25 800.08C2029.68 800.08 2034.26 801.18 2038 803.38C2041.74 805.58 2044.6 808.697 2046.58 812.73C2048.63 816.69 2049.66 821.383 2049.66 826.81C2049.66 832.09 2048.56 836.747 2046.36 840.78C2044.16 844.813 2041.15 847.967 2037.34 850.24C2033.53 852.513 2029.16 853.65 2024.25 853.65ZM2024.25 850.79C2026.3 850.79 2028.03 850.057 2029.42 848.59C2030.89 847.05 2031.99 844.557 2032.72 841.11C2033.45 837.59 2033.82 832.823 2033.82 826.81C2033.82 820.65 2033.45 815.847 2032.72 812.4C2031.99 808.953 2030.89 806.497 2029.42 805.03C2028.03 803.563 2026.3 802.83 2024.25 802.83C2022.27 802.83 2020.55 803.6 2019.08 805.14C2017.69 806.607 2016.59 809.1 2015.78 812.62C2015.05 816.067 2014.68 820.833 2014.68 826.92C2014.68 832.933 2015.05 837.7 2015.78 841.22C2016.59 844.667 2017.69 847.123 2019.08 848.59C2020.55 850.057 2022.27 850.79 2024.25 850.79ZM2056.07 852V849.58L2065.42 848.04H2073.56L2083.79 849.58V852H2056.07ZM2061.68 852C2061.83 850.093 2061.94 847.82 2062.01 845.18C2062.09 842.54 2062.12 839.79 2062.12 836.93C2062.2 834.07 2062.23 831.43 2062.23 829.01V825.6C2062.23 823.327 2062.23 821.31 2062.23 819.55C2062.23 817.717 2062.2 816.03 2062.12 814.49C2062.12 812.877 2062.09 811.263 2062.01 809.65L2055.63 807.78V805.8L2075.32 800.08L2076.86 801.18V815.48V815.81V829.01C2076.86 831.43 2076.86 834.07 2076.86 836.93C2076.94 839.79 2077.01 842.54 2077.08 845.18C2077.16 847.82 2077.27 850.093 2077.41 852H2061.68ZM2076.31 821.75L2074.66 816.58H2076.2C2077.38 812.84 2078.7 809.76 2080.16 807.34C2081.7 804.92 2083.39 803.123 2085.22 801.95C2087.13 800.703 2089.18 800.08 2091.38 800.08C2093.66 800.08 2095.53 800.667 2096.99 801.84C2098.46 802.94 2099.41 804.737 2099.85 807.23C2099.71 809.943 2098.86 811.923 2097.32 813.17C2095.86 814.417 2094.13 815.04 2092.15 815.04C2090.54 815.04 2089.04 814.637 2087.64 813.83C2086.32 813.023 2085.11 811.593 2084.01 809.54L2082.14 806.24L2085.11 806.68C2083.5 807.853 2081.78 809.833 2079.94 812.62C2078.18 815.407 2076.97 818.45 2076.31 821.75ZM2103.77 852V849.58L2113.12 848.04H2121.26L2130.17 849.58V852H2103.77ZM2109.38 852C2109.53 850.093 2109.64 847.82 2109.71 845.18C2109.78 842.54 2109.82 839.79 2109.82 836.93C2109.89 834.07 2109.93 831.43 2109.93 829.01V825.6C2109.93 823.327 2109.93 821.31 2109.93 819.55C2109.93 817.717 2109.89 816.03 2109.82 814.49C2109.82 812.877 2109.78 811.263 2109.71 809.65L2103.33 807.78V805.8L2123.02 800.08L2124.56 801.18V811.08V811.96V829.01C2124.56 831.43 2124.56 834.07 2124.56 836.93C2124.63 839.79 2124.71 842.54 2124.78 845.18C2124.85 847.82 2124.96 850.093 2125.11 852H2109.38ZM2135.01 852V849.58L2144.03 848.04H2152.06L2161.08 849.58V852H2135.01ZM2140.18 852C2140.4 850.093 2140.55 847.82 2140.62 845.18C2140.69 842.54 2140.73 839.79 2140.73 836.93C2140.8 834.07 2140.84 831.43 2140.84 829.01V817.24C2140.84 813.867 2140.29 811.557 2139.19 810.31C2138.16 809.063 2136.55 808.44 2134.35 808.44C2132.96 808.44 2131.53 808.733 2130.06 809.32C2128.67 809.833 2127.27 810.64 2125.88 811.74C2124.49 812.767 2123.13 814.013 2121.81 815.48L2121.59 812.73H2122.58C2124.41 809.87 2126.28 807.523 2128.19 805.69C2130.17 803.783 2132.3 802.39 2134.57 801.51C2136.84 800.557 2139.23 800.08 2141.72 800.08C2145.9 800.08 2149.2 801.437 2151.62 804.15C2154.11 806.79 2155.36 811.043 2155.36 816.91V829.01C2155.36 831.43 2155.36 834.07 2155.36 836.93C2155.43 839.79 2155.51 842.54 2155.58 845.18C2155.65 847.82 2155.8 850.093 2156.02 852H2140.18ZM2165.81 852V849.58L2174.83 848.04H2182.86L2191.88 849.58V852H2165.81ZM2170.98 852C2171.2 850.093 2171.35 847.82 2171.42 845.18C2171.57 842.54 2171.64 839.79 2171.64 836.93C2171.64 834.07 2171.64 831.43 2171.64 829.01V817.24C2171.64 813.867 2171.09 811.557 2169.99 810.31C2168.96 809.063 2167.35 808.44 2165.15 808.44C2163.83 808.44 2162.44 808.733 2160.97 809.32C2159.5 809.907 2158.07 810.75 2156.68 811.85C2155.29 812.877 2153.97 814.16 2152.72 815.7L2152.39 812.73H2153.49C2155.25 809.87 2157.12 807.523 2159.1 805.69C2161.08 803.783 2163.17 802.39 2165.37 801.51C2167.64 800.557 2170.06 800.08 2172.63 800.08C2176.81 800.08 2180.11 801.437 2182.53 804.15C2185.02 806.79 2186.27 811.043 2186.27 816.91V829.01C2186.27 831.43 2186.27 834.07 2186.27 836.93C2186.27 839.79 2186.31 842.54 2186.38 845.18C2186.53 847.82 2186.67 850.093 2186.82 852H2170.98ZM2210.22 853.65C2206.33 853.65 2203.14 852.55 2200.65 850.35C2198.23 848.077 2197.02 844.96 2197.02 841C2197.02 838.507 2197.64 836.197 2198.89 834.07C2200.14 831.943 2202.15 830 2204.94 828.24C2207.8 826.407 2211.61 824.757 2216.38 823.29C2217.7 822.923 2219.24 822.483 2221 821.97C2222.83 821.457 2224.74 820.943 2226.72 820.43C2228.77 819.917 2230.72 819.403 2232.55 818.89V821.31C2229.76 822.117 2227.2 822.887 2224.85 823.62C2222.58 824.28 2220.89 824.867 2219.79 825.38C2217.96 826.26 2216.38 827.25 2215.06 828.35C2213.74 829.45 2212.71 830.77 2211.98 832.31C2211.25 833.777 2210.88 835.573 2210.88 837.7C2210.88 840.633 2211.54 842.797 2212.86 844.19C2214.18 845.51 2215.83 846.17 2217.81 846.17C2218.91 846.17 2219.94 846.023 2220.89 845.73C2221.84 845.363 2222.87 844.813 2223.97 844.08C2225.07 843.273 2226.35 842.173 2227.82 840.78L2228.7 845.18H2225.4C2223.93 847.233 2222.39 848.883 2220.78 850.13C2219.24 851.377 2217.59 852.257 2215.83 852.77C2214.14 853.357 2212.27 853.65 2210.22 853.65ZM2235.74 853.54C2232.22 853.54 2229.54 852.77 2227.71 851.23C2225.88 849.617 2224.81 847.527 2224.52 844.96V844.52V817.24C2224.52 813.647 2224.26 810.86 2223.75 808.88C2223.24 806.827 2222.39 805.36 2221.22 804.48C2220.05 803.6 2218.4 803.16 2216.27 803.16C2215.17 803.16 2214.07 803.307 2212.97 803.6C2211.94 803.893 2210.99 804.26 2210.11 804.7L2213.3 801.73L2212.53 809.65C2212.46 813.097 2211.65 815.48 2210.11 816.8C2208.57 818.047 2206.92 818.67 2205.16 818.67C2203.47 818.67 2202.12 818.267 2201.09 817.46C2200.14 816.58 2199.4 815.297 2198.89 813.61C2199.33 809.577 2201.49 806.313 2205.38 803.82C2209.34 801.327 2214.55 800.08 2221 800.08C2225.25 800.08 2228.7 800.777 2231.34 802.17C2234.05 803.49 2236.03 805.58 2237.28 808.44C2238.53 811.3 2239.15 814.967 2239.15 819.44V844.08C2239.15 845.18 2239.37 846.023 2239.81 846.61C2240.25 847.123 2240.8 847.38 2241.46 847.38C2242.27 847.38 2242.93 847.197 2243.44 846.83C2244.03 846.463 2244.69 845.803 2245.42 844.85L2246.96 846.06C2246.08 848.333 2244.69 850.167 2242.78 851.56C2240.87 852.88 2238.53 853.54 2235.74 853.54ZM2249.86 852V849.58L2259.21 848.04H2267.35L2276.26 849.58V852H2249.86ZM2255.47 852C2255.62 850.093 2255.73 847.82 2255.8 845.18C2255.88 842.54 2255.91 839.79 2255.91 836.93C2255.99 834.07 2256.02 831.43 2256.02 829.01V825.6C2256.02 823.327 2256.02 821.31 2256.02 819.55C2256.02 817.717 2255.99 816.03 2255.91 814.49C2255.91 812.877 2255.88 811.263 2255.8 809.65L2249.42 807.78V805.8L2269.11 800.08L2270.65 801.18V811.74V811.96V829.01C2270.65 831.43 2270.65 834.07 2270.65 836.93C2270.73 839.79 2270.8 842.54 2270.87 845.18C2270.95 847.82 2271.06 850.093 2271.2 852H2255.47ZM2281.21 852V849.58L2290.23 848.04H2298.26L2307.28 849.58V852H2281.21ZM2286.38 852C2286.6 850.093 2286.75 847.82 2286.82 845.18C2286.9 842.54 2286.93 839.79 2286.93 836.93C2286.93 834.07 2286.93 831.43 2286.93 829.01V817.24C2286.93 813.867 2286.38 811.557 2285.28 810.31C2284.26 809.063 2282.64 808.44 2280.44 808.44C2279.12 808.44 2277.73 808.733 2276.26 809.32C2274.8 809.833 2273.37 810.64 2271.97 811.74C2270.58 812.767 2269.22 814.013 2267.9 815.48L2267.68 812.73H2268.67C2270.51 809.87 2272.41 807.523 2274.39 805.69C2276.37 803.783 2278.46 802.39 2280.66 801.51C2282.94 800.557 2285.36 800.08 2287.92 800.08C2292.1 800.08 2295.44 801.437 2297.93 804.15C2300.43 806.79 2301.67 811.043 2301.67 816.91V829.01C2301.67 831.43 2301.67 834.07 2301.67 836.93C2301.75 839.79 2301.82 842.54 2301.89 845.18C2301.97 847.82 2302.08 850.093 2302.22 852H2286.38ZM2332.4 853.65C2328.66 853.65 2325.36 852.697 2322.5 850.79C2319.72 848.81 2317.52 845.95 2315.9 842.21C2314.29 838.397 2313.48 833.777 2313.48 828.35C2313.48 822.483 2314.4 817.46 2316.23 813.28C2318.07 809.027 2320.52 805.763 2323.6 803.49C2326.76 801.217 2330.35 800.08 2334.38 800.08C2336.44 800.08 2338.31 800.483 2339.99 801.29C2341.75 802.023 2343.37 803.233 2344.83 804.92C2346.3 806.607 2347.62 808.807 2348.79 811.52H2350.11L2348.79 813.39C2347.03 811.263 2345.49 809.76 2344.17 808.88C2342.85 807.927 2341.17 807.45 2339.11 807.45C2337.28 807.45 2335.56 808.11 2333.94 809.43C2332.4 810.75 2331.16 812.877 2330.2 815.81C2329.32 818.743 2328.88 822.63 2328.88 827.47C2328.88 832.163 2329.29 835.867 2330.09 838.58C2330.97 841.293 2332.18 843.237 2333.72 844.41C2335.34 845.583 2337.13 846.17 2339.11 846.17C2341.02 846.17 2342.74 845.547 2344.28 844.3C2345.82 842.98 2347.25 841.367 2348.57 839.46L2349.34 841.77H2348.35C2347.25 844.19 2345.93 846.317 2344.39 848.15C2342.85 849.91 2341.09 851.267 2339.11 852.22C2337.13 853.173 2334.9 853.65 2332.4 853.65ZM2346.81 853.43V843.64V843.2V810.31L2347.03 809.1V780.61L2340.54 778.85V776.87L2360.45 771.59L2361.88 772.8L2361.44 795.35V848.7L2367.16 849.58V852L2346.81 853.43ZM2398.08 853.65C2392.8 853.65 2388.25 852.55 2384.44 850.35C2380.7 848.077 2377.8 844.96 2375.75 841C2373.77 836.967 2372.78 832.273 2372.78 826.92C2372.78 821.567 2373.84 816.873 2375.97 812.84C2378.17 808.807 2381.18 805.69 2384.99 803.49C2388.8 801.217 2393.17 800.08 2398.08 800.08C2403.51 800.08 2408.09 801.18 2411.83 803.38C2415.57 805.58 2418.43 808.697 2420.41 812.73C2422.46 816.69 2423.49 821.383 2423.49 826.81C2423.49 832.09 2422.39 836.747 2420.19 840.78C2417.99 844.813 2414.98 847.967 2411.17 850.24C2407.36 852.513 2402.99 853.65 2398.08 853.65ZM2398.08 850.79C2400.13 850.79 2401.86 850.057 2403.25 848.59C2404.72 847.05 2405.82 844.557 2406.55 841.11C2407.28 837.59 2407.65 832.823 2407.65 826.81C2407.65 820.65 2407.28 815.847 2406.55 812.4C2405.82 808.953 2404.72 806.497 2403.25 805.03C2401.86 803.563 2400.13 802.83 2398.08 802.83C2396.1 802.83 2394.38 803.6 2392.91 805.14C2391.52 806.607 2390.42 809.1 2389.61 812.62C2388.88 816.067 2388.51 820.833 2388.51 826.92C2388.51 832.933 2388.88 837.7 2389.61 841.22C2390.42 844.667 2391.52 847.123 2392.91 848.59C2394.38 850.057 2396.1 850.79 2398.08 850.79ZM2477.89 853.65C2472.61 853.65 2468.07 852.55 2464.25 850.35C2460.51 848.077 2457.62 844.96 2455.56 841C2453.58 836.967 2452.59 832.273 2452.59 826.92C2452.59 821.567 2453.66 816.873 2455.78 812.84C2457.98 808.807 2460.99 805.69 2464.8 803.49C2468.62 801.217 2472.98 800.08 2477.89 800.08C2483.32 800.08 2487.9 801.18 2491.64 803.38C2495.38 805.58 2498.24 808.697 2500.22 812.73C2502.28 816.69 2503.3 821.383 2503.3 826.81C2503.3 832.09 2502.2 836.747 2500 840.78C2497.8 844.813 2494.8 847.967 2490.98 850.24C2487.17 852.513 2482.81 853.65 2477.89 853.65ZM2477.89 850.79C2479.95 850.79 2481.67 850.057 2483.06 848.59C2484.53 847.05 2485.63 844.557 2486.36 841.11C2487.1 837.59 2487.46 832.823 2487.46 826.81C2487.46 820.65 2487.1 815.847 2486.36 812.4C2485.63 808.953 2484.53 806.497 2483.06 805.03C2481.67 803.563 2479.95 802.83 2477.89 802.83C2475.91 802.83 2474.19 803.6 2472.72 805.14C2471.33 806.607 2470.23 809.1 2469.42 812.62C2468.69 816.067 2468.32 820.833 2468.32 826.92C2468.32 832.933 2468.69 837.7 2469.42 841.22C2470.23 844.667 2471.33 847.123 2472.72 848.59C2474.19 850.057 2475.91 850.79 2477.89 850.79ZM2527.32 853.65C2524.24 853.65 2521.38 853.247 2518.74 852.44C2516.1 851.633 2513.49 850.497 2510.93 849.03L2511.37 835.39H2513.57L2519.51 850.02H2515.77V847.71C2517.6 848.737 2519.32 849.543 2520.94 850.13C2522.55 850.717 2524.64 851.01 2527.21 851.01C2529.19 851.01 2530.87 850.68 2532.27 850.02C2533.66 849.36 2534.72 848.407 2535.46 847.16C2536.26 845.913 2536.67 844.447 2536.67 842.76C2536.67 840.12 2535.68 838.14 2533.7 836.82C2531.79 835.5 2529.52 834.253 2526.88 833.08L2523.8 831.76C2521.74 830.88 2519.76 829.853 2517.86 828.68C2515.95 827.433 2514.37 825.857 2513.13 823.95C2511.88 821.97 2511.26 819.44 2511.26 816.36C2511.26 813.207 2511.95 810.42 2513.35 808C2514.74 805.507 2516.87 803.563 2519.73 802.17C2522.59 800.777 2526.14 800.08 2530.4 800.08C2533.26 800.08 2535.79 800.41 2537.99 801.07C2540.26 801.73 2542.5 802.683 2544.7 803.93L2544.26 816.91H2542.06L2536.23 802.83H2540.08V806.13C2538.68 804.883 2537.25 804.003 2535.79 803.49C2534.32 802.977 2532.52 802.72 2530.4 802.72C2527.76 802.72 2525.63 803.38 2524.02 804.7C2522.48 805.947 2521.71 807.743 2521.71 810.09C2521.71 812.73 2522.7 814.747 2524.68 816.14C2526.66 817.46 2528.97 818.67 2531.61 819.77L2534.69 821.09C2536.81 822.043 2538.83 823.107 2540.74 824.28C2542.72 825.453 2544.33 827.03 2545.58 829.01C2546.82 830.917 2547.45 833.447 2547.45 836.6C2547.45 840.193 2546.64 843.273 2545.03 845.84C2543.49 848.333 2541.21 850.277 2538.21 851.67C2535.2 852.99 2531.57 853.65 2527.32 853.65ZM2599.88 853.65C2595.41 853.65 2591.37 852.66 2587.78 850.68C2584.19 848.627 2581.36 845.657 2579.31 841.77C2577.26 837.883 2576.23 833.117 2576.23 827.47C2576.23 821.53 2577.37 816.543 2579.64 812.51C2581.91 808.403 2584.99 805.323 2588.88 803.27C2592.84 801.143 2597.28 800.08 2602.19 800.08C2605.78 800.08 2608.83 800.703 2611.32 801.95C2613.81 803.123 2615.72 804.773 2617.04 806.9C2618.43 808.953 2619.2 811.227 2619.35 813.72C2618.91 815.407 2618.18 816.653 2617.15 817.46C2616.2 818.267 2614.84 818.67 2613.08 818.67C2611.39 818.67 2609.82 818.047 2608.35 816.8C2606.96 815.48 2606.15 813.133 2605.93 809.76L2605.27 801.73L2611.54 805.14C2610.22 804.26 2608.9 803.673 2607.58 803.38C2606.33 803.087 2604.98 802.94 2603.51 802.94C2601.46 802.94 2599.51 803.673 2597.68 805.14C2595.85 806.607 2594.34 808.99 2593.17 812.29C2592.07 815.517 2591.52 819.733 2591.52 824.94C2591.52 829.193 2592.11 832.86 2593.28 835.94C2594.45 839.02 2596.14 841.403 2598.34 843.09C2600.54 844.703 2603.22 845.51 2606.37 845.51C2607.98 845.51 2609.45 845.29 2610.77 844.85C2612.16 844.41 2613.45 843.787 2614.62 842.98C2615.79 842.173 2616.86 841.22 2617.81 840.12L2619.46 841.44C2618.14 844.3 2616.49 846.647 2614.51 848.48C2612.53 850.24 2610.33 851.523 2607.91 852.33C2605.49 853.21 2602.81 853.65 2599.88 853.65ZM2638.62 853.65C2634.73 853.65 2631.54 852.55 2629.05 850.35C2626.63 848.077 2625.42 844.96 2625.42 841C2625.42 838.507 2626.04 836.197 2627.29 834.07C2628.54 831.943 2630.55 830 2633.34 828.24C2636.2 826.407 2640.01 824.757 2644.78 823.29C2646.1 822.923 2647.64 822.483 2649.4 821.97C2651.23 821.457 2653.14 820.943 2655.12 820.43C2657.17 819.917 2659.12 819.403 2660.95 818.89V821.31C2658.16 822.117 2655.6 822.887 2653.25 823.62C2650.98 824.28 2649.29 824.867 2648.19 825.38C2646.36 826.26 2644.78 827.25 2643.46 828.35C2642.14 829.45 2641.11 830.77 2640.38 832.31C2639.65 833.777 2639.28 835.573 2639.28 837.7C2639.28 840.633 2639.94 842.797 2641.26 844.19C2642.58 845.51 2644.23 846.17 2646.21 846.17C2647.31 846.17 2648.34 846.023 2649.29 845.73C2650.24 845.363 2651.27 844.813 2652.37 844.08C2653.47 843.273 2654.75 842.173 2656.22 840.78L2657.1 845.18H2653.8C2652.33 847.233 2650.79 848.883 2649.18 850.13C2647.64 851.377 2645.99 852.257 2644.23 852.77C2642.54 853.357 2640.67 853.65 2638.62 853.65ZM2664.14 853.54C2660.62 853.54 2657.94 852.77 2656.11 851.23C2654.28 849.617 2653.21 847.527 2652.92 844.96V844.52V817.24C2652.92 813.647 2652.66 810.86 2652.15 808.88C2651.64 806.827 2650.79 805.36 2649.62 804.48C2648.45 803.6 2646.8 803.16 2644.67 803.16C2643.57 803.16 2642.47 803.307 2641.37 803.6C2640.34 803.893 2639.39 804.26 2638.51 804.7L2641.7 801.73L2640.93 809.65C2640.86 813.097 2640.05 815.48 2638.51 816.8C2636.97 818.047 2635.32 818.67 2633.56 818.67C2631.87 818.67 2630.52 818.267 2629.49 817.46C2628.54 816.58 2627.8 815.297 2627.29 813.61C2627.73 809.577 2629.89 806.313 2633.78 803.82C2637.74 801.327 2642.95 800.08 2649.4 800.08C2653.65 800.08 2657.1 800.777 2659.74 802.17C2662.45 803.49 2664.43 805.58 2665.68 808.44C2666.93 811.3 2667.55 814.967 2667.55 819.44V844.08C2667.55 845.18 2667.77 846.023 2668.21 846.61C2668.65 847.123 2669.2 847.38 2669.86 847.38C2670.67 847.38 2671.33 847.197 2671.84 846.83C2672.43 846.463 2673.09 845.803 2673.82 844.85L2675.36 846.06C2674.48 848.333 2673.09 850.167 2671.18 851.56C2669.27 852.88 2666.93 853.54 2664.14 853.54ZM2678.26 852V849.58L2687.61 848.04H2695.75L2705.98 849.58V852H2678.26ZM2683.87 852C2684.02 850.093 2684.13 847.82 2684.2 845.18C2684.27 842.54 2684.31 839.79 2684.31 836.93C2684.38 834.07 2684.42 831.43 2684.42 829.01V825.6C2684.42 823.327 2684.42 821.31 2684.42 819.55C2684.42 817.717 2684.38 816.03 2684.31 814.49C2684.31 812.877 2684.27 811.263 2684.2 809.65L2677.82 807.78V805.8L2697.51 800.08L2699.05 801.18V815.48V815.81V829.01C2699.05 831.43 2699.05 834.07 2699.05 836.93C2699.12 839.79 2699.2 842.54 2699.27 845.18C2699.34 847.82 2699.45 850.093 2699.6 852H2683.87ZM2698.5 821.75L2696.85 816.58H2698.39C2699.56 812.84 2700.88 809.76 2702.35 807.34C2703.89 804.92 2705.58 803.123 2707.41 801.95C2709.32 800.703 2711.37 800.08 2713.57 800.08C2715.84 800.08 2717.71 800.667 2719.18 801.84C2720.65 802.94 2721.6 804.737 2722.04 807.23C2721.89 809.943 2721.05 811.923 2719.51 813.17C2718.04 814.417 2716.32 815.04 2714.34 815.04C2712.73 815.04 2711.22 814.637 2709.83 813.83C2708.51 813.023 2707.3 811.593 2706.2 809.54L2704.33 806.24L2707.3 806.68C2705.69 807.853 2703.96 809.833 2702.13 812.62C2700.37 815.407 2699.16 818.45 2698.5 821.75ZM2725.96 852V849.58L2735.31 848.04H2743.45L2753.68 849.58V852H2725.96ZM2731.57 852C2731.71 850.093 2731.82 847.82 2731.9 845.18C2731.97 842.54 2732.01 839.79 2732.01 836.93C2732.08 834.07 2732.12 831.43 2732.12 829.01V825.6C2732.12 823.327 2732.12 821.31 2732.12 819.55C2732.12 817.717 2732.08 816.03 2732.01 814.49C2732.01 812.877 2731.97 811.263 2731.9 809.65L2725.52 807.78V805.8L2745.21 800.08L2746.75 801.18V815.48V815.81V829.01C2746.75 831.43 2746.75 834.07 2746.75 836.93C2746.82 839.79 2746.89 842.54 2746.97 845.18C2747.04 847.82 2747.15 850.093 2747.3 852H2731.57ZM2746.2 821.75L2744.55 816.58H2746.09C2747.26 812.84 2748.58 809.76 2750.05 807.34C2751.59 804.92 2753.27 803.123 2755.11 801.95C2757.01 800.703 2759.07 800.08 2761.27 800.08C2763.54 800.08 2765.41 800.667 2766.88 801.84C2768.34 802.94 2769.3 804.737 2769.74 807.23C2769.59 809.943 2768.75 811.923 2767.21 813.17C2765.74 814.417 2764.02 815.04 2762.04 815.04C2760.42 815.04 2758.92 814.637 2757.53 813.83C2756.21 813.023 2755 811.593 2753.9 809.54L2752.03 806.24L2755 806.68C2753.38 807.853 2751.66 809.833 2749.83 812.62C2748.07 815.407 2746.86 818.45 2746.2 821.75ZM2797.69 853.65C2792.41 853.65 2787.86 852.55 2784.05 850.35C2780.31 848.077 2777.41 844.96 2775.36 841C2773.38 836.967 2772.39 832.273 2772.39 826.92C2772.39 821.567 2773.45 816.873 2775.58 812.84C2777.78 808.807 2780.79 805.69 2784.6 803.49C2788.41 801.217 2792.78 800.08 2797.69 800.08C2803.12 800.08 2807.7 801.18 2811.44 803.38C2815.18 805.58 2818.04 808.697 2820.02 812.73C2822.07 816.69 2823.1 821.383 2823.1 826.81C2823.1 832.09 2822 836.747 2819.8 840.78C2817.6 844.813 2814.59 847.967 2810.78 850.24C2806.97 852.513 2802.6 853.65 2797.69 853.65ZM2797.69 850.79C2799.74 850.79 2801.47 850.057 2802.86 848.59C2804.33 847.05 2805.43 844.557 2806.16 841.11C2806.89 837.59 2807.26 832.823 2807.26 826.81C2807.26 820.65 2806.89 815.847 2806.16 812.4C2805.43 808.953 2804.33 806.497 2802.86 805.03C2801.47 803.563 2799.74 802.83 2797.69 802.83C2795.71 802.83 2793.99 803.6 2792.52 805.14C2791.13 806.607 2790.03 809.1 2789.22 812.62C2788.49 816.067 2788.12 820.833 2788.12 826.92C2788.12 832.933 2788.49 837.7 2789.22 841.22C2790.03 844.667 2791.13 847.123 2792.52 848.59C2793.99 850.057 2795.71 850.79 2797.69 850.79ZM2847.11 853.65C2844.03 853.65 2841.17 853.247 2838.53 852.44C2835.89 851.633 2833.29 850.497 2830.72 849.03L2831.16 835.39H2833.36L2839.3 850.02H2835.56V847.71C2837.39 848.737 2839.12 849.543 2840.73 850.13C2842.34 850.717 2844.43 851.01 2847 851.01C2848.98 851.01 2850.67 850.68 2852.06 850.02C2853.45 849.36 2854.52 848.407 2855.25 847.16C2856.06 845.913 2856.46 844.447 2856.46 842.76C2856.46 840.12 2855.47 838.14 2853.49 836.82C2851.58 835.5 2849.31 834.253 2846.67 833.08L2843.59 831.76C2841.54 830.88 2839.56 829.853 2837.65 828.68C2835.74 827.433 2834.17 825.857 2832.92 823.95C2831.67 821.97 2831.05 819.44 2831.05 816.36C2831.05 813.207 2831.75 810.42 2833.14 808C2834.53 805.507 2836.66 803.563 2839.52 802.17C2842.38 800.777 2845.94 800.08 2850.19 800.08C2853.05 800.08 2855.58 800.41 2857.78 801.07C2860.05 801.73 2862.29 802.683 2864.49 803.93L2864.05 816.91H2861.85L2856.02 802.83H2859.87V806.13C2858.48 804.883 2857.05 804.003 2855.58 803.49C2854.11 802.977 2852.32 802.72 2850.19 802.72C2847.55 802.72 2845.42 803.38 2843.81 804.7C2842.27 805.947 2841.5 807.743 2841.5 810.09C2841.5 812.73 2842.49 814.747 2844.47 816.14C2846.45 817.46 2848.76 818.67 2851.4 819.77L2854.48 821.09C2856.61 822.043 2858.62 823.107 2860.53 824.28C2862.51 825.453 2864.12 827.03 2865.37 829.01C2866.62 830.917 2867.24 833.447 2867.24 836.6C2867.24 840.193 2866.43 843.273 2864.82 845.84C2863.28 848.333 2861.01 850.277 2858 851.67C2854.99 852.99 2851.36 853.65 2847.11 853.65ZM2920.12 853.65C2915.64 853.65 2911.57 852.66 2907.91 850.68C2904.31 848.627 2901.42 845.657 2899.22 841.77C2897.09 837.883 2896.03 833.153 2896.03 827.58C2896.03 821.567 2897.16 816.543 2899.44 812.51C2901.71 808.403 2904.68 805.323 2908.35 803.27C2912.01 801.143 2915.9 800.08 2920.01 800.08C2924.19 800.08 2927.78 800.923 2930.79 802.61C2933.87 804.297 2936.21 806.643 2937.83 809.65C2939.44 812.583 2940.25 815.957 2940.25 819.77C2940.25 820.87 2940.21 821.75 2940.14 822.41C2940.06 823.07 2939.92 823.877 2939.7 824.83H2901.86V822.08H2919.35C2922.35 822.08 2924.44 821.567 2925.62 820.54C2926.79 819.44 2927.38 817.387 2927.38 814.38C2927.38 811.593 2927.08 809.393 2926.5 807.78C2925.91 806.093 2925.07 804.883 2923.97 804.15C2922.94 803.343 2921.69 802.94 2920.23 802.94C2918.61 802.94 2917.11 803.637 2915.72 805.03C2914.4 806.35 2913.33 808.623 2912.53 811.85C2911.79 815.003 2911.43 819.367 2911.43 824.94C2911.43 829.34 2912.09 833.08 2913.41 836.16C2914.73 839.24 2916.52 841.587 2918.8 843.2C2921.07 844.74 2923.67 845.51 2926.61 845.51C2929.1 845.51 2931.3 845.033 2933.21 844.08C2935.19 843.053 2936.91 841.733 2938.38 840.12L2940.03 841.44C2938.71 844.3 2937.02 846.647 2934.97 848.48C2932.91 850.24 2930.64 851.523 2928.15 852.33C2925.65 853.21 2922.98 853.65 2920.12 853.65ZM2946.82 852V849.58L2956.17 848.04H2964.31L2973.22 849.58V852H2946.82ZM2952.43 852C2952.57 850.093 2952.68 847.82 2952.76 845.18C2952.83 842.54 2952.87 839.79 2952.87 836.93C2952.94 834.07 2952.98 831.43 2952.98 829.01V825.6C2952.98 823.327 2952.98 821.31 2952.98 819.55C2952.98 817.717 2952.94 816.03 2952.87 814.49C2952.87 812.877 2952.83 811.263 2952.76 809.65L2946.38 807.78V805.8L2966.07 800.08L2967.61 801.18V811.08V811.96V829.01C2967.61 831.43 2967.61 834.07 2967.61 836.93C2967.68 839.79 2967.75 842.54 2967.83 845.18C2967.9 847.82 2968.01 850.093 2968.16 852H2952.43ZM2978.06 852V849.58L2987.08 848.04H2995.11L3004.13 849.58V852H2978.06ZM2983.23 852C2983.45 850.093 2983.59 847.82 2983.67 845.18C2983.74 842.54 2983.78 839.79 2983.78 836.93C2983.85 834.07 2983.89 831.43 2983.89 829.01V817.24C2983.89 813.867 2983.34 811.557 2982.24 810.31C2981.21 809.063 2979.6 808.44 2977.4 808.44C2976 808.44 2974.57 808.733 2973.11 809.32C2971.71 809.833 2970.32 810.64 2968.93 811.74C2967.53 812.767 2966.18 814.013 2964.86 815.48L2964.64 812.73H2965.63C2967.46 809.87 2969.33 807.523 2971.24 805.69C2973.22 803.783 2975.34 802.39 2977.62 801.51C2979.89 800.557 2982.27 800.08 2984.77 800.08C2988.95 800.08 2992.25 801.437 2994.67 804.15C2997.16 806.79 2998.41 811.043 2998.41 816.91V829.01C2998.41 831.43 2998.41 834.07 2998.41 836.93C2998.48 839.79 2998.55 842.54 2998.63 845.18C2998.7 847.82 2998.85 850.093 2999.07 852H2983.23ZM3008.86 852V849.58L3017.88 848.04H3025.91L3034.93 849.58V852H3008.86ZM3014.03 852C3014.25 850.093 3014.39 847.82 3014.47 845.18C3014.61 842.54 3014.69 839.79 3014.69 836.93C3014.69 834.07 3014.69 831.43 3014.69 829.01V817.24C3014.69 813.867 3014.14 811.557 3013.04 810.31C3012.01 809.063 3010.4 808.44 3008.2 808.44C3006.88 808.44 3005.48 808.733 3004.02 809.32C3002.55 809.907 3001.12 810.75 2999.73 811.85C2998.33 812.877 2997.01 814.16 2995.77 815.7L2995.44 812.73H2996.54C2998.3 809.87 3000.17 807.523 3002.15 805.69C3004.13 803.783 3006.22 802.39 3008.42 801.51C3010.69 800.557 3013.11 800.08 3015.68 800.08C3019.86 800.08 3023.16 801.437 3025.58 804.15C3028.07 806.79 3029.32 811.043 3029.32 816.91V829.01C3029.32 831.43 3029.32 834.07 3029.32 836.93C3029.32 839.79 3029.35 842.54 3029.43 845.18C3029.57 847.82 3029.72 850.093 3029.87 852H3014.03ZM3088.05 853.65C3082.77 853.65 3078.22 852.55 3074.41 850.35C3070.67 848.077 3067.77 844.96 3065.72 841C3063.74 836.967 3062.75 832.273 3062.75 826.92C3062.75 821.567 3063.81 816.873 3065.94 812.84C3068.14 808.807 3071.15 805.69 3074.96 803.49C3078.77 801.217 3083.14 800.08 3088.05 800.08C3093.48 800.08 3098.06 801.18 3101.8 803.38C3105.54 805.58 3108.4 808.697 3110.38 812.73C3112.43 816.69 3113.46 821.383 3113.46 826.81C3113.46 832.09 3112.36 836.747 3110.16 840.78C3107.96 844.813 3104.95 847.967 3101.14 850.24C3097.33 852.513 3092.96 853.65 3088.05 853.65ZM3088.05 850.79C3090.1 850.79 3091.83 850.057 3093.22 848.59C3094.69 847.05 3095.79 844.557 3096.52 841.11C3097.25 837.59 3097.62 832.823 3097.62 826.81C3097.62 820.65 3097.25 815.847 3096.52 812.4C3095.79 808.953 3094.69 806.497 3093.22 805.03C3091.83 803.563 3090.1 802.83 3088.05 802.83C3086.07 802.83 3084.35 803.6 3082.88 805.14C3081.49 806.607 3080.39 809.1 3079.58 812.62C3078.85 816.067 3078.48 820.833 3078.48 826.92C3078.48 832.933 3078.85 837.7 3079.58 841.22C3080.39 844.667 3081.49 847.123 3082.88 848.59C3084.35 850.057 3086.07 850.79 3088.05 850.79ZM3119.67 852V849.58L3125.39 848.59C3125.46 846.683 3125.5 844.63 3125.5 842.43C3125.57 840.23 3125.61 838.03 3125.61 835.83C3125.68 833.557 3125.72 831.467 3125.72 829.56V780.61L3119.23 778.85V776.87L3139.14 771.59L3140.57 772.8L3140.13 795.35V809.98H3140.35V843.2V843.42V853.43L3119.67 852ZM3153.77 853.65C3151.71 853.65 3149.77 853.247 3147.94 852.44C3146.18 851.633 3144.49 850.387 3142.88 848.7C3141.34 847.013 3139.94 844.813 3138.7 842.1H3137.38L3138.37 840.23C3140.13 842.357 3141.67 843.897 3142.99 844.85C3144.38 845.73 3146.1 846.17 3148.16 846.17C3150.06 846.17 3151.79 845.51 3153.33 844.19C3154.94 842.797 3156.22 840.633 3157.18 837.7C3158.13 834.693 3158.61 830.843 3158.61 826.15C3158.61 819.33 3157.62 814.527 3155.64 811.74C3153.66 808.88 3151.13 807.45 3148.05 807.45C3146.8 807.45 3145.63 807.743 3144.53 808.33C3143.43 808.917 3142.36 809.723 3141.34 810.75C3140.38 811.703 3139.47 812.84 3138.59 814.16L3137.82 811.85H3138.81C3139.91 809.43 3141.26 807.34 3142.88 805.58C3144.49 803.82 3146.32 802.463 3148.38 801.51C3150.43 800.557 3152.67 800.08 3155.09 800.08C3158.83 800.08 3162.09 801.033 3164.88 802.94C3167.74 804.847 3169.97 807.67 3171.59 811.41C3173.2 815.15 3174.01 819.807 3174.01 825.38C3174.01 831.173 3173.16 836.197 3171.48 840.45C3169.79 844.703 3167.41 847.967 3164.33 850.24C3161.32 852.513 3157.8 853.65 3153.77 853.65ZM3180.35 879.06C3178.44 879.06 3176.72 878.84 3175.18 878.4C3173.64 877.96 3172.39 877.263 3171.44 876.31C3170.41 875.357 3169.68 874.11 3169.24 872.57C3169.39 870.81 3170.12 869.417 3171.44 868.39C3172.69 867.363 3174.26 866.85 3176.17 866.85C3177.71 866.85 3179.1 867.143 3180.35 867.73C3181.6 868.39 3182.88 869.857 3184.2 872.13L3186.95 876.64V877.19H3184.97V875.98C3185.56 875.32 3185.96 874.55 3186.18 873.67C3186.47 872.863 3186.66 871.873 3186.73 870.7C3187.02 868.207 3187.13 865.603 3187.06 862.89C3186.99 860.177 3186.88 857.317 3186.73 854.31C3186.58 851.303 3186.51 848.15 3186.51 844.85V825.38C3186.51 821.86 3186.47 818.963 3186.4 816.69C3186.4 814.417 3186.36 812.07 3186.29 809.65L3179.91 807.78V805.8L3200.04 800.08L3201.58 801.18L3201.14 815.7V852C3201.14 855.74 3200.92 858.857 3200.48 861.35C3200.11 863.917 3199.49 866.08 3198.61 867.84C3197.73 869.6 3196.52 871.25 3194.98 872.79C3192.63 875.21 3190.14 876.86 3187.5 877.74C3184.86 878.62 3182.48 879.06 3180.35 879.06ZM3193.33 791.72C3191.28 791.72 3189.48 791.023 3187.94 789.63C3186.4 788.237 3185.63 786.44 3185.63 784.24C3185.63 781.967 3186.4 780.133 3187.94 778.74C3189.48 777.347 3191.28 776.65 3193.33 776.65C3195.46 776.65 3197.25 777.347 3198.72 778.74C3200.26 780.133 3201.03 781.967 3201.03 784.24C3201.03 786.44 3200.26 788.237 3198.72 789.63C3197.25 791.023 3195.46 791.72 3193.33 791.72ZM3236.15 853.65C3231.68 853.65 3227.61 852.66 3223.94 850.68C3220.35 848.627 3217.45 845.657 3215.25 841.77C3213.12 837.883 3212.06 833.153 3212.06 827.58C3212.06 821.567 3213.2 816.543 3215.47 812.51C3217.74 808.403 3220.71 805.323 3224.38 803.27C3228.05 801.143 3231.93 800.08 3236.04 800.08C3240.22 800.08 3243.81 800.923 3246.82 802.61C3249.9 804.297 3252.25 806.643 3253.86 809.65C3255.47 812.583 3256.28 815.957 3256.28 819.77C3256.28 820.87 3256.24 821.75 3256.17 822.41C3256.1 823.07 3255.95 823.877 3255.73 824.83H3217.89V822.08H3235.38C3238.39 822.08 3240.48 821.567 3241.65 820.54C3242.82 819.44 3243.41 817.387 3243.41 814.38C3243.41 811.593 3243.12 809.393 3242.53 807.78C3241.94 806.093 3241.1 804.883 3240 804.15C3238.97 803.343 3237.73 802.94 3236.26 802.94C3234.65 802.94 3233.14 803.637 3231.75 805.03C3230.43 806.35 3229.37 808.623 3228.56 811.85C3227.83 815.003 3227.46 819.367 3227.46 824.94C3227.46 829.34 3228.12 833.08 3229.44 836.16C3230.76 839.24 3232.56 841.587 3234.83 843.2C3237.1 844.74 3239.71 845.51 3242.64 845.51C3245.13 845.51 3247.33 845.033 3249.24 844.08C3251.22 843.053 3252.94 841.733 3254.41 840.12L3256.06 841.44C3254.74 844.3 3253.05 846.647 3251 848.48C3248.95 850.24 3246.67 851.523 3244.18 852.33C3241.69 853.21 3239.01 853.65 3236.15 853.65ZM3275.94 804.92V801.62H3294.31V804.92H3275.94ZM3282.32 853.65C3277.85 853.65 3274.33 852.513 3271.76 850.24C3269.27 847.967 3268.02 844.483 3268.02 839.79C3268.02 837.517 3268.02 835.463 3268.02 833.63C3268.02 831.797 3268.02 829.45 3268.02 826.59L3268.24 804.92H3261.75V802.5L3271.54 800.52L3267.91 802.94L3278.14 784.9H3283.31L3282.87 802.94V804.04V839.9C3282.87 842.467 3283.42 844.263 3284.52 845.29C3285.62 846.317 3287.01 846.83 3288.7 846.83C3290.17 846.83 3291.38 846.573 3292.33 846.06C3293.36 845.547 3294.31 844.74 3295.19 843.64L3296.84 844.85C3295.96 846.757 3294.9 848.37 3293.65 849.69C3292.4 850.937 3290.83 851.89 3288.92 852.55C3287.09 853.283 3284.89 853.65 3282.32 853.65ZM3325.77 853.65C3320.49 853.65 3315.95 852.55 3312.13 850.35C3308.39 848.077 3305.5 844.96 3303.44 841C3301.46 836.967 3300.47 832.273 3300.47 826.92C3300.47 821.567 3301.54 816.873 3303.66 812.84C3305.86 808.807 3308.87 805.69 3312.68 803.49C3316.5 801.217 3320.86 800.08 3325.77 800.08C3331.2 800.08 3335.78 801.18 3339.52 803.38C3343.26 805.58 3346.12 808.697 3348.1 812.73C3350.16 816.69 3351.18 821.383 3351.18 826.81C3351.18 832.09 3350.08 836.747 3347.88 840.78C3345.68 844.813 3342.68 847.967 3338.86 850.24C3335.05 852.513 3330.69 853.65 3325.77 853.65ZM3325.77 850.79C3327.83 850.79 3329.55 850.057 3330.94 848.59C3332.41 847.05 3333.51 844.557 3334.24 841.11C3334.98 837.59 3335.34 832.823 3335.34 826.81C3335.34 820.65 3334.98 815.847 3334.24 812.4C3333.51 808.953 3332.41 806.497 3330.94 805.03C3329.55 803.563 3327.83 802.83 3325.77 802.83C3323.79 802.83 3322.07 803.6 3320.6 805.14C3319.21 806.607 3318.11 809.1 3317.3 812.62C3316.57 816.067 3316.2 820.833 3316.2 826.92C3316.2 832.933 3316.57 837.7 3317.3 841.22C3318.11 844.667 3319.21 847.123 3320.6 848.59C3322.07 850.057 3323.79 850.79 3325.77 850.79ZM3375.2 853.65C3372.12 853.65 3369.26 853.247 3366.62 852.44C3363.98 851.633 3361.37 850.497 3358.81 849.03L3359.25 835.39H3361.45L3367.39 850.02H3363.65V847.71C3365.48 848.737 3367.2 849.543 3368.82 850.13C3370.43 850.717 3372.52 851.01 3375.09 851.01C3377.07 851.01 3378.75 850.68 3380.15 850.02C3381.54 849.36 3382.6 848.407 3383.34 847.16C3384.14 845.913 3384.55 844.447 3384.55 842.76C3384.55 840.12 3383.56 838.14 3381.58 836.82C3379.67 835.5 3377.4 834.253 3374.76 833.08L3371.68 831.76C3369.62 830.88 3367.64 829.853 3365.74 828.68C3363.83 827.433 3362.25 825.857 3361.01 823.95C3359.76 821.97 3359.14 819.44 3359.14 816.36C3359.14 813.207 3359.83 810.42 3361.23 808C3362.62 805.507 3364.75 803.563 3367.61 802.17C3370.47 800.777 3374.02 800.08 3378.28 800.08C3381.14 800.08 3383.67 800.41 3385.87 801.07C3388.14 801.73 3390.38 802.683 3392.58 803.93L3392.14 816.91H3389.94L3384.11 802.83H3387.96V806.13C3386.56 804.883 3385.13 804.003 3383.67 803.49C3382.2 802.977 3380.4 802.72 3378.28 802.72C3375.64 802.72 3373.51 803.38 3371.9 804.7C3370.36 805.947 3369.59 807.743 3369.59 810.09C3369.59 812.73 3370.58 814.747 3372.56 816.14C3374.54 817.46 3376.85 818.67 3379.49 819.77L3382.57 821.09C3384.69 822.043 3386.71 823.107 3388.62 824.28C3390.6 825.453 3392.21 827.03 3393.46 829.01C3394.7 830.917 3395.33 833.447 3395.33 836.6C3395.33 840.193 3394.52 843.273 3392.91 845.84C3391.37 848.333 3389.09 850.277 3386.09 851.67C3383.08 852.99 3379.45 853.65 3375.2 853.65Z" fill="black"/>
<path d="M1373.98 969V967.24L1385.42 965.92H1388.5V969H1373.98ZM1382.78 969C1382.93 966.067 1383.04 962.657 1383.11 958.77C1383.19 954.81 1383.22 950.703 1383.22 946.45C1383.22 942.197 1383.22 938.127 1383.22 934.24V929.4C1383.22 925.587 1383.22 921.627 1383.22 917.52C1383.22 913.34 1383.19 909.343 1383.11 905.53C1383.04 901.643 1382.93 898.233 1382.78 895.3H1391.47C1391.33 898.233 1391.22 901.643 1391.14 905.53C1391.07 909.343 1391.03 913.34 1391.03 917.52C1391.03 921.627 1391.03 925.587 1391.03 929.4V934.24C1391.03 938.127 1391.03 942.197 1391.03 946.45C1391.03 950.703 1391.07 954.81 1391.14 958.77C1391.22 962.657 1391.33 966.067 1391.47 969H1382.78ZM1387.07 969V966.36H1420.4L1416.22 967.68L1422.93 948.32H1424.69L1423.37 969H1387.07ZM1387.07 932.7V930.06H1406.87V932.7H1387.07ZM1408.74 943.48L1405.44 932.48V930.28L1408.74 919.28H1410.5V943.48H1408.74ZM1373.98 897.06V895.3H1388.5V898.38H1385.42L1373.98 897.06ZM1421.17 914.99L1414.46 896.62L1418.64 897.94H1386.96V895.3H1421.61L1422.93 914.99H1421.17ZM1442.73 921.92V919.28H1459.78V921.92H1442.73ZM1449.77 970.32C1446.32 970.32 1443.57 969.403 1441.52 967.57C1439.47 965.663 1438.44 962.877 1438.44 959.21C1438.44 957.157 1438.44 955.287 1438.44 953.6C1438.44 951.84 1438.44 949.713 1438.44 947.22L1438.66 921.92H1430.3V920.16L1442.51 918.18L1438.55 920.6L1444.05 902.56H1446.47L1446.03 920.6V921.04V958.33C1446.03 961.19 1446.58 963.243 1447.68 964.49C1448.78 965.663 1450.28 966.25 1452.19 966.25C1453.66 966.25 1455.01 965.957 1456.26 965.37C1457.51 964.71 1458.64 963.793 1459.67 962.62L1460.88 963.61C1460.15 965.003 1459.27 966.213 1458.24 967.24C1457.29 968.193 1456.11 968.927 1454.72 969.44C1453.4 970.027 1451.75 970.32 1449.77 970.32ZM1480.2 970.32C1476.61 970.32 1473.57 969.293 1471.07 967.24C1468.58 965.113 1467.33 962.033 1467.33 958C1467.33 955.947 1467.74 954.003 1468.54 952.17C1469.35 950.337 1470.89 948.613 1473.16 947C1475.44 945.313 1478.81 943.737 1483.28 942.27C1484.38 941.903 1485.67 941.5 1487.13 941.06C1488.6 940.62 1490.32 940.143 1492.3 939.63C1494.36 939.043 1496.67 938.457 1499.23 937.87V939.63C1495.49 940.73 1492.49 941.647 1490.21 942.38C1488.01 943.113 1486.4 943.7 1485.37 944.14C1482.29 945.46 1480.02 946.817 1478.55 948.21C1477.16 949.603 1476.24 950.96 1475.8 952.28C1475.36 953.6 1475.14 954.883 1475.14 956.13C1475.14 959.283 1475.91 961.557 1477.45 962.95C1479.07 964.27 1481.05 964.93 1483.39 964.93C1485.01 964.93 1486.51 964.747 1487.9 964.38C1489.3 964.013 1490.8 963.317 1492.41 962.29C1494.03 961.19 1495.93 959.54 1498.13 957.34L1499.01 961.52H1495.71C1494.17 963.573 1492.56 965.26 1490.87 966.58C1489.26 967.9 1487.54 968.853 1485.7 969.44C1483.94 970.027 1482.11 970.32 1480.2 970.32ZM1503.63 969.88C1500.85 969.88 1498.72 969.11 1497.25 967.57C1495.86 965.957 1495.13 963.683 1495.05 960.75V960.53V935.12C1495.05 931.527 1494.69 928.703 1493.95 926.65C1493.29 924.523 1492.23 923.02 1490.76 922.14C1489.3 921.26 1487.39 920.82 1485.04 920.82C1483.65 920.82 1482.29 921.003 1480.97 921.37C1479.65 921.663 1478.26 922.067 1476.79 922.58L1479.87 920.49L1477.78 929.29C1477.49 930.757 1476.94 931.893 1476.13 932.7C1475.33 933.507 1474.3 933.91 1473.05 933.91C1471.81 933.91 1470.89 933.543 1470.3 932.81C1469.72 932.077 1469.35 931.087 1469.2 929.84C1470.01 926.247 1472.14 923.387 1475.58 921.26C1479.03 919.06 1483.1 917.96 1487.79 917.96C1491.17 917.96 1493.92 918.583 1496.04 919.83C1498.24 921.003 1499.86 922.873 1500.88 925.44C1501.98 928.007 1502.53 931.307 1502.53 935.34V959.87C1502.53 962.143 1502.83 963.72 1503.41 964.6C1504.07 965.407 1504.92 965.81 1505.94 965.81C1506.9 965.81 1507.7 965.59 1508.36 965.15C1509.02 964.71 1509.83 963.977 1510.78 962.95L1511.88 963.83C1511.15 965.59 1510.12 967.057 1508.8 968.23C1507.48 969.33 1505.76 969.88 1503.63 969.88ZM1514.7 997.49V995.73L1525.26 994.41H1527.13L1538.9 995.73V997.49H1514.7ZM1522.4 997.49C1522.54 995.803 1522.62 993.567 1522.62 990.78C1522.69 988.067 1522.73 985.207 1522.73 982.2C1522.8 979.193 1522.84 976.517 1522.84 974.17V940.62C1522.84 938.567 1522.8 936.733 1522.73 935.12C1522.73 933.507 1522.69 932.003 1522.62 930.61C1522.62 929.143 1522.58 927.677 1522.51 926.21L1514.26 924.34V922.8L1529.33 917.96L1530.21 918.84V928.08V928.52V960.64V961.08V974.17C1530.21 976.517 1530.21 979.193 1530.21 982.2C1530.28 985.207 1530.35 988.067 1530.43 990.78C1530.5 993.567 1530.57 995.803 1530.65 997.49H1522.4ZM1544.62 970.32C1542.64 970.32 1540.69 969.99 1538.79 969.33C1536.88 968.67 1535.08 967.607 1533.4 966.14C1531.71 964.6 1530.17 962.62 1528.78 960.2H1527.24L1528.01 957.45C1530.72 960.677 1533.21 962.95 1535.49 964.27C1537.76 965.517 1540.4 966.14 1543.41 966.14C1546.12 966.14 1548.54 965.297 1550.67 963.61C1552.79 961.923 1554.48 959.393 1555.73 956.02C1557.05 952.647 1557.71 948.467 1557.71 943.48C1557.71 936.073 1556.31 930.647 1553.53 927.2C1550.74 923.753 1547.26 922.03 1543.08 922.03C1541.1 922.03 1539.23 922.47 1537.47 923.35C1535.78 924.157 1534.17 925.33 1532.63 926.87C1531.16 928.41 1529.77 930.207 1528.45 932.26L1527.79 929.07H1529.22C1530.32 926.943 1531.64 925.073 1533.18 923.46C1534.79 921.773 1536.62 920.453 1538.68 919.5C1540.73 918.473 1543 917.96 1545.5 917.96C1549.16 917.96 1552.5 918.913 1555.51 920.82C1558.51 922.653 1560.93 925.44 1562.77 929.18C1564.6 932.847 1565.52 937.467 1565.52 943.04C1565.52 948.833 1564.56 953.783 1562.66 957.89C1560.75 961.923 1558.22 965.003 1555.07 967.13C1551.91 969.257 1548.43 970.32 1544.62 970.32ZM1587.95 970.32C1584.35 970.32 1581.31 969.293 1578.82 967.24C1576.32 965.113 1575.08 962.033 1575.08 958C1575.08 955.947 1575.48 954.003 1576.29 952.17C1577.09 950.337 1578.63 948.613 1580.91 947C1583.18 945.313 1586.55 943.737 1591.03 942.27C1592.13 941.903 1593.41 941.5 1594.88 941.06C1596.34 940.62 1598.07 940.143 1600.05 939.63C1602.1 939.043 1604.41 938.457 1606.98 937.87V939.63C1603.24 940.73 1600.23 941.647 1597.96 942.38C1595.76 943.113 1594.14 943.7 1593.12 944.14C1590.04 945.46 1587.76 946.817 1586.3 948.21C1584.9 949.603 1583.99 950.96 1583.55 952.28C1583.11 953.6 1582.89 954.883 1582.89 956.13C1582.89 959.283 1583.66 961.557 1585.2 962.95C1586.81 964.27 1588.79 964.93 1591.14 964.93C1592.75 964.93 1594.25 964.747 1595.65 964.38C1597.04 964.013 1598.54 963.317 1600.16 962.29C1601.77 961.19 1603.68 959.54 1605.88 957.34L1606.76 961.52H1603.46C1601.92 963.573 1600.3 965.26 1598.62 966.58C1597 967.9 1595.28 968.853 1593.45 969.44C1591.69 970.027 1589.85 970.32 1587.95 970.32ZM1611.38 969.88C1608.59 969.88 1606.46 969.11 1605 967.57C1603.6 965.957 1602.87 963.683 1602.8 960.75V960.53V935.12C1602.8 931.527 1602.43 928.703 1601.7 926.65C1601.04 924.523 1599.97 923.02 1598.51 922.14C1597.04 921.26 1595.13 920.82 1592.79 920.82C1591.39 920.82 1590.04 921.003 1588.72 921.37C1587.4 921.663 1586 922.067 1584.54 922.58L1587.62 920.49L1585.53 929.29C1585.23 930.757 1584.68 931.893 1583.88 932.7C1583.07 933.507 1582.04 933.91 1580.8 933.91C1579.55 933.91 1578.63 933.543 1578.05 932.81C1577.46 932.077 1577.09 931.087 1576.95 929.84C1577.75 926.247 1579.88 923.387 1583.33 921.26C1586.77 919.06 1590.84 917.96 1595.54 917.96C1598.91 917.96 1601.66 918.583 1603.79 919.83C1605.99 921.003 1607.6 922.873 1608.63 925.44C1609.73 928.007 1610.28 931.307 1610.28 935.34V959.87C1610.28 962.143 1610.57 963.72 1611.16 964.6C1611.82 965.407 1612.66 965.81 1613.69 965.81C1614.64 965.81 1615.45 965.59 1616.11 965.15C1616.77 964.71 1617.57 963.977 1618.53 962.95L1619.63 963.83C1618.89 965.59 1617.87 967.057 1616.55 968.23C1615.23 969.33 1613.5 969.88 1611.38 969.88ZM1651.11 969V967.24L1668.71 965.26H1670.69L1688.73 967.24V969H1651.11ZM1665.74 969C1665.89 967.313 1665.96 965.077 1665.96 962.29C1666.03 959.503 1666.07 956.643 1666.07 953.71C1666.14 950.703 1666.18 948.027 1666.18 945.68V903.99L1652.1 905.31V903.77L1673.11 897.39L1673.99 898.27L1673.55 919.83V945.68C1673.55 948.027 1673.55 950.703 1673.55 953.71C1673.62 956.643 1673.7 959.503 1673.77 962.29C1673.84 965.077 1673.95 967.313 1674.1 969H1665.74ZM1742.06 970.32C1738.47 970.32 1735.17 969.403 1732.16 967.57C1729.15 965.663 1726.73 962.877 1724.9 959.21C1723.07 955.47 1722.15 950.813 1722.15 945.24C1722.15 939.447 1723.1 934.533 1725.01 930.5C1726.99 926.393 1729.59 923.277 1732.82 921.15C1736.05 919.023 1739.57 917.96 1743.38 917.96C1745.36 917.96 1747.27 918.29 1749.1 918.95C1751.01 919.61 1752.77 920.673 1754.38 922.14C1756.07 923.607 1757.57 925.587 1758.89 928.08H1760.43L1759.66 930.83C1756.95 927.603 1754.49 925.367 1752.29 924.12C1750.16 922.8 1747.6 922.14 1744.59 922.14C1741.95 922.14 1739.49 922.983 1737.22 924.67C1735.02 926.283 1733.26 928.777 1731.94 932.15C1730.62 935.523 1729.96 939.74 1729.96 944.8C1729.96 949.713 1730.58 953.747 1731.83 956.9C1733.08 960.053 1734.8 962.4 1737 963.94C1739.27 965.48 1741.8 966.25 1744.59 966.25C1747.6 966.25 1750.27 965.297 1752.62 963.39C1754.97 961.483 1757.17 959.027 1759.22 956.02L1759.88 959.21H1758.45C1757.35 961.263 1755.99 963.133 1754.38 964.82C1752.77 966.507 1750.93 967.863 1748.88 968.89C1746.83 969.843 1744.55 970.32 1742.06 970.32ZM1757.46 970.1V959.65V959.32V927.64V926.76V894.53L1749.21 892.66V891.12L1764.39 887.16L1765.27 888.04L1764.83 909.6V966.25L1772.42 967.24V969L1757.46 970.1ZM1792.69 970.32C1789.1 970.32 1786.06 969.293 1783.56 967.24C1781.07 965.113 1779.82 962.033 1779.82 958C1779.82 955.947 1780.23 954.003 1781.03 952.17C1781.84 950.337 1783.38 948.613 1785.65 947C1787.93 945.313 1791.3 943.737 1795.77 942.27C1796.87 941.903 1798.16 941.5 1799.62 941.06C1801.09 940.62 1802.81 940.143 1804.79 939.63C1806.85 939.043 1809.16 938.457 1811.72 937.87V939.63C1807.98 940.73 1804.98 941.647 1802.7 942.38C1800.5 943.113 1798.89 943.7 1797.86 944.14C1794.78 945.46 1792.51 946.817 1791.04 948.21C1789.65 949.603 1788.73 950.96 1788.29 952.28C1787.85 953.6 1787.63 954.883 1787.63 956.13C1787.63 959.283 1788.4 961.557 1789.94 962.95C1791.56 964.27 1793.54 964.93 1795.88 964.93C1797.5 964.93 1799 964.747 1800.39 964.38C1801.79 964.013 1803.29 963.317 1804.9 962.29C1806.52 961.19 1808.42 959.54 1810.62 957.34L1811.5 961.52H1808.2C1806.66 963.573 1805.05 965.26 1803.36 966.58C1801.75 967.9 1800.03 968.853 1798.19 969.44C1796.43 970.027 1794.6 970.32 1792.69 970.32ZM1816.12 969.88C1813.34 969.88 1811.21 969.11 1809.74 967.57C1808.35 965.957 1807.62 963.683 1807.54 960.75V960.53V935.12C1807.54 931.527 1807.18 928.703 1806.44 926.65C1805.78 924.523 1804.72 923.02 1803.25 922.14C1801.79 921.26 1799.88 920.82 1797.53 920.82C1796.14 920.82 1794.78 921.003 1793.46 921.37C1792.14 921.663 1790.75 922.067 1789.28 922.58L1792.36 920.49L1790.27 929.29C1789.98 930.757 1789.43 931.893 1788.62 932.7C1787.82 933.507 1786.79 933.91 1785.54 933.91C1784.3 933.91 1783.38 933.543 1782.79 932.81C1782.21 932.077 1781.84 931.087 1781.69 929.84C1782.5 926.247 1784.63 923.387 1788.07 921.26C1791.52 919.06 1795.59 917.96 1800.28 917.96C1803.66 917.96 1806.41 918.583 1808.53 919.83C1810.73 921.003 1812.35 922.873 1813.37 925.44C1814.47 928.007 1815.02 931.307 1815.02 935.34V959.87C1815.02 962.143 1815.32 963.72 1815.9 964.6C1816.56 965.407 1817.41 965.81 1818.43 965.81C1819.39 965.81 1820.19 965.59 1820.85 965.15C1821.51 964.71 1822.32 963.977 1823.27 962.95L1824.37 963.83C1823.64 965.59 1822.61 967.057 1821.29 968.23C1819.97 969.33 1818.25 969.88 1816.12 969.88ZM1851.79 969V967.24L1862.35 965.92H1864.44L1874.89 967.24V969H1851.79ZM1859.49 969C1859.63 967.313 1859.71 965.077 1859.71 962.29C1859.78 959.503 1859.82 956.643 1859.82 953.71C1859.89 950.703 1859.93 948.027 1859.93 945.68V940.62C1859.93 938.567 1859.89 936.733 1859.82 935.12C1859.82 933.507 1859.78 932.003 1859.71 930.61C1859.71 929.143 1859.67 927.677 1859.6 926.21L1851.35 924.34V922.8L1866.42 917.96L1867.3 918.84V929.29V929.84V945.68C1867.3 948.027 1867.3 950.703 1867.3 953.71C1867.37 956.643 1867.44 959.503 1867.52 962.29C1867.59 965.077 1867.66 967.313 1867.74 969H1859.49ZM1882.92 969V967.24L1893.37 965.92H1895.46L1905.91 967.24V969H1882.92ZM1890.4 969C1890.54 967.313 1890.65 965.077 1890.73 962.29C1890.8 959.503 1890.84 956.643 1890.84 953.71C1890.91 950.703 1890.95 948.027 1890.95 945.68V935.45C1890.95 930.683 1890.29 927.493 1888.97 925.88C1887.65 924.193 1885.37 923.35 1882.15 923.35C1880.39 923.35 1878.66 923.68 1876.98 924.34C1875.29 924.927 1873.6 925.843 1871.92 927.09C1870.23 928.263 1868.43 929.693 1866.53 931.38L1865.65 929.84H1866.09C1867.55 927.933 1869.28 926.063 1871.26 924.23C1873.31 922.397 1875.55 920.893 1877.97 919.72C1880.46 918.547 1883.03 917.96 1885.67 917.96C1889.85 917.96 1893 919.28 1895.13 921.92C1897.25 924.487 1898.32 928.997 1898.32 935.45V945.68C1898.32 948.027 1898.32 950.703 1898.32 953.71C1898.39 956.643 1898.46 959.503 1898.54 962.29C1898.61 965.077 1898.68 967.313 1898.76 969H1890.4ZM1913.83 969V967.24L1924.39 965.92H1926.37L1936.93 967.24V969H1913.83ZM1921.42 969C1921.56 967.313 1921.67 965.077 1921.75 962.29C1921.82 959.503 1921.86 956.643 1921.86 953.71C1921.86 950.703 1921.86 948.027 1921.86 945.68V935.45C1921.86 930.683 1921.2 927.493 1919.88 925.88C1918.63 924.193 1916.39 923.35 1913.17 923.35C1911.41 923.35 1909.68 923.68 1908 924.34C1906.31 924.927 1904.62 925.843 1902.94 927.09C1901.25 928.263 1899.45 929.73 1897.55 931.49L1896.56 929.84H1897C1898.46 927.933 1900.22 926.063 1902.28 924.23C1904.33 922.397 1906.57 920.893 1908.99 919.72C1911.48 918.547 1914.05 917.96 1916.69 917.96C1920.87 917.96 1924.02 919.28 1926.15 921.92C1928.27 924.487 1929.34 928.997 1929.34 935.45V945.68C1929.34 948.027 1929.34 950.703 1929.34 953.71C1929.41 956.643 1929.48 959.503 1929.56 962.29C1929.63 965.077 1929.7 967.313 1929.78 969H1921.42ZM1943.85 969V967.24L1954.41 965.92H1956.5L1966.95 967.24V969H1943.85ZM1951.55 969C1951.69 967.313 1951.77 965.077 1951.77 962.29C1951.84 959.503 1951.88 956.643 1951.88 953.71C1951.95 950.703 1951.99 948.027 1951.99 945.68V940.62C1951.99 937.54 1951.95 934.937 1951.88 932.81C1951.88 930.683 1951.8 928.483 1951.66 926.21L1943.41 924.34V922.8L1958.92 917.96L1959.8 918.84L1959.36 932.7V945.68C1959.36 948.027 1959.36 950.703 1959.36 953.71C1959.43 956.643 1959.5 959.503 1959.58 962.29C1959.65 965.077 1959.72 967.313 1959.8 969H1951.55ZM1955.4 906.41C1953.78 906.41 1952.39 905.897 1951.22 904.87C1950.12 903.843 1949.57 902.413 1949.57 900.58C1949.57 898.82 1950.12 897.427 1951.22 896.4C1952.39 895.373 1953.78 894.86 1955.4 894.86C1957.08 894.86 1958.48 895.373 1959.58 896.4C1960.68 897.427 1961.23 898.82 1961.23 900.58C1961.23 902.413 1960.68 903.843 1959.58 904.87C1958.48 905.897 1957.08 906.41 1955.4 906.41ZM1993.39 997.49C1988.7 997.49 1984.85 996.903 1981.84 995.73C1978.84 994.63 1976.6 993.053 1975.13 991C1973.74 989.02 1973.04 986.673 1973.04 983.96C1973.04 982.053 1973.56 980.257 1974.58 978.57C1975.68 976.883 1977.26 975.307 1979.31 973.84C1981.37 972.373 1983.86 971.017 1986.79 969.77L1987.23 970.43C1986.21 971.237 1985.11 972.153 1983.93 973.18C1982.83 974.207 1981.88 975.453 1981.07 976.92C1980.34 978.46 1979.97 980.44 1979.97 982.86C1979.97 985.573 1980.6 987.847 1981.84 989.68C1983.09 991.587 1984.81 992.98 1987.01 993.86C1989.21 994.813 1991.71 995.29 1994.49 995.29C1998.45 995.29 2001.79 994.593 2004.5 993.2C2007.22 991.88 2009.23 990.12 2010.55 987.92C2011.95 985.72 2012.64 983.3 2012.64 980.66C2012.64 977.873 2011.73 975.673 2009.89 974.06C2008.13 972.52 2005.27 971.75 2001.31 971.75H1989.43C1988.85 971.75 1988.08 971.713 1987.12 971.64C1986.24 971.64 1985.4 971.53 1984.59 971.31V971.09C1981.88 970.87 1979.68 969.99 1977.99 968.45C1976.31 966.91 1975.46 964.82 1975.46 962.18C1975.46 959.907 1976.12 957.853 1977.44 956.02C1978.84 954.113 1980.93 952.023 1983.71 949.75V949.09L1985.14 950.85C1983.53 952.317 1982.47 953.747 1981.95 955.14C1981.44 956.46 1981.18 957.743 1981.18 958.99C1981.18 960.897 1981.81 962.327 1983.05 963.28C1984.37 964.16 1986.39 964.6 1989.1 964.6H2002.74C2006.41 964.6 2009.49 965.077 2011.98 966.03C2014.48 966.983 2016.35 968.413 2017.59 970.32C2018.84 972.3 2019.46 974.83 2019.46 977.91C2019.46 980.403 2018.91 982.823 2017.81 985.17C2016.79 987.517 2015.17 989.607 2012.97 991.44C2010.85 993.347 2008.13 994.813 2004.83 995.84C2001.61 996.94 1997.79 997.49 1993.39 997.49ZM1994.27 953.49C1991.27 953.49 1988.37 952.867 1985.58 951.62C1982.8 950.3 1980.52 948.357 1978.76 945.79C1977 943.15 1976.12 939.85 1976.12 935.89C1976.12 932.003 1977 928.74 1978.76 926.1C1980.52 923.387 1982.8 921.37 1985.58 920.05C1988.37 918.657 1991.27 917.96 1994.27 917.96C1996.11 917.96 1997.87 918.18 1999.55 918.62C2001.24 918.987 2002.82 919.61 2004.28 920.49C2005.82 921.297 2007.14 922.36 2008.24 923.68L2008.68 924.12C2009.93 925.513 2010.85 927.163 2011.43 929.07C2012.09 930.977 2012.42 933.14 2012.42 935.56C2012.42 939.447 2011.54 942.747 2009.78 945.46C2008.1 948.1 2005.86 950.117 2003.07 951.51C2000.29 952.83 1997.35 953.49 1994.27 953.49ZM1994.27 951.29C1996.4 951.29 1998.27 950.703 1999.88 949.53C2001.5 948.283 2002.74 946.487 2003.62 944.14C2004.5 941.793 2004.94 938.933 2004.94 935.56C2004.94 932.113 2004.5 929.253 2003.62 926.98C2002.74 924.707 2001.5 923.02 1999.88 921.92C1998.27 920.747 1996.4 920.16 1994.27 920.16C1992.15 920.16 1990.28 920.783 1988.66 922.03C1987.12 923.203 1985.91 924.963 1985.03 927.31C1984.15 929.657 1983.71 932.517 1983.71 935.89C1983.71 939.263 1984.15 942.123 1985.03 944.47C1985.91 946.743 1987.12 948.467 1988.66 949.64C1990.28 950.74 1992.15 951.29 1994.27 951.29ZM2006.81 925.55L2006.7 923.68H2007.14L2019.13 917.96L2020.01 918.84V925.55H2006.81ZM2026.35 969V967.24L2036.91 965.92H2039L2050.77 967.24V969H2026.35ZM2034.05 969C2034.19 967.313 2034.27 965.077 2034.27 962.29C2034.34 959.503 2034.38 956.643 2034.38 953.71C2034.45 950.703 2034.49 948.027 2034.49 945.68V940.62C2034.49 938.567 2034.45 936.733 2034.38 935.12C2034.38 933.507 2034.34 932.003 2034.27 930.61C2034.27 929.143 2034.23 927.677 2034.16 926.21L2025.91 924.34V922.8L2040.98 917.96L2041.86 918.84V935.56V935.89V945.68C2041.86 948.027 2041.86 950.703 2041.86 953.71C2041.93 956.643 2042 959.503 2042.08 962.29C2042.15 965.077 2042.22 967.313 2042.3 969H2034.05ZM2041.09 941.17L2039.77 935.01H2041.31C2042.55 931.197 2044.02 928.043 2045.71 925.55C2047.39 923.057 2049.26 921.187 2051.32 919.94C2053.37 918.62 2055.53 917.96 2057.81 917.96C2059.42 917.96 2060.81 918.327 2061.99 919.06C2063.23 919.72 2064.08 920.857 2064.52 922.47C2064.44 924.157 2063.82 925.477 2062.65 926.43C2061.47 927.383 2060.15 927.86 2058.69 927.86C2057.51 927.86 2056.41 927.603 2055.39 927.09C2054.43 926.503 2053.48 925.733 2052.53 924.78L2049.89 922.03L2054.18 921.37C2051.68 922.397 2049.19 924.633 2046.7 928.08C2044.2 931.453 2042.33 935.817 2041.09 941.17ZM2081.44 970.32C2077.85 970.32 2074.81 969.293 2072.31 967.24C2069.82 965.113 2068.57 962.033 2068.57 958C2068.57 955.947 2068.98 954.003 2069.78 952.17C2070.59 950.337 2072.13 948.613 2074.4 947C2076.68 945.313 2080.05 943.737 2084.52 942.27C2085.62 941.903 2086.91 941.5 2088.37 941.06C2089.84 940.62 2091.56 940.143 2093.54 939.63C2095.6 939.043 2097.91 938.457 2100.47 937.87V939.63C2096.73 940.73 2093.73 941.647 2091.45 942.38C2089.25 943.113 2087.64 943.7 2086.61 944.14C2083.53 945.46 2081.26 946.817 2079.79 948.21C2078.4 949.603 2077.48 950.96 2077.04 952.28C2076.6 953.6 2076.38 954.883 2076.38 956.13C2076.38 959.283 2077.15 961.557 2078.69 962.95C2080.31 964.27 2082.29 964.93 2084.63 964.93C2086.25 964.93 2087.75 964.747 2089.14 964.38C2090.54 964.013 2092.04 963.317 2093.65 962.29C2095.27 961.19 2097.17 959.54 2099.37 957.34L2100.25 961.52H2096.95C2095.41 963.573 2093.8 965.26 2092.11 966.58C2090.5 967.9 2088.78 968.853 2086.94 969.44C2085.18 970.027 2083.35 970.32 2081.44 970.32ZM2104.87 969.88C2102.09 969.88 2099.96 969.11 2098.49 967.57C2097.1 965.957 2096.37 963.683 2096.29 960.75V960.53V935.12C2096.29 931.527 2095.93 928.703 2095.19 926.65C2094.53 924.523 2093.47 923.02 2092 922.14C2090.54 921.26 2088.63 920.82 2086.28 920.82C2084.89 920.82 2083.53 921.003 2082.21 921.37C2080.89 921.663 2079.5 922.067 2078.03 922.58L2081.11 920.49L2079.02 929.29C2078.73 930.757 2078.18 931.893 2077.37 932.7C2076.57 933.507 2075.54 933.91 2074.29 933.91C2073.05 933.91 2072.13 933.543 2071.54 932.81C2070.96 932.077 2070.59 931.087 2070.44 929.84C2071.25 926.247 2073.38 923.387 2076.82 921.26C2080.27 919.06 2084.34 917.96 2089.03 917.96C2092.41 917.96 2095.16 918.583 2097.28 919.83C2099.48 921.003 2101.1 922.873 2102.12 925.44C2103.22 928.007 2103.77 931.307 2103.77 935.34V959.87C2103.77 962.143 2104.07 963.72 2104.65 964.6C2105.31 965.407 2106.16 965.81 2107.18 965.81C2108.14 965.81 2108.94 965.59 2109.6 965.15C2110.26 964.71 2111.07 963.977 2112.02 962.95L2113.12 963.83C2112.39 965.59 2111.36 967.057 2110.04 968.23C2108.72 969.33 2107 969.88 2104.87 969.88ZM2140.76 970.32C2136.28 970.32 2132.32 969.33 2128.88 967.35C2125.5 965.37 2122.86 962.473 2120.96 958.66C2119.05 954.847 2118.1 950.227 2118.1 944.8C2118.1 938.933 2119.23 934.02 2121.51 930.06C2123.85 926.027 2126.82 923.02 2130.42 921.04C2134.08 918.987 2137.93 917.96 2141.97 917.96C2144.9 917.96 2147.47 918.473 2149.67 919.5C2151.94 920.527 2153.77 921.957 2155.17 923.79C2156.63 925.623 2157.59 927.713 2158.03 930.06C2157.95 931.307 2157.55 932.26 2156.82 932.92C2156.16 933.58 2155.2 933.91 2153.96 933.91C2152.78 933.91 2151.79 933.507 2150.99 932.7C2150.18 931.893 2149.59 930.757 2149.23 929.29L2147.14 920.49L2149.78 923.24C2148.6 921.92 2147.28 921.113 2145.82 920.82C2144.35 920.527 2143.07 920.38 2141.97 920.38C2138.45 920.38 2135.48 921.443 2133.06 923.57C2130.71 925.623 2128.91 928.373 2127.67 931.82C2126.49 935.193 2125.91 938.897 2125.91 942.93C2125.91 946.817 2126.49 950.447 2127.67 953.82C2128.91 957.193 2130.78 959.907 2133.28 961.96C2135.77 963.94 2138.92 964.93 2142.74 964.93C2144.94 964.93 2146.92 964.637 2148.68 964.05C2150.44 963.39 2152.01 962.473 2153.41 961.3C2154.87 960.127 2156.19 958.733 2157.37 957.12L2158.91 958C2157.66 960.787 2156.12 963.097 2154.29 964.93C2152.53 966.763 2150.51 968.12 2148.24 969C2145.96 969.88 2143.47 970.32 2140.76 970.32ZM2137.68 978.57L2139.33 968.78H2142.08L2140.87 976.48L2139.11 975.05C2141.09 975.197 2142.96 975.637 2144.72 976.37C2146.48 977.103 2147.87 978.093 2148.9 979.34C2150 980.66 2150.55 982.347 2150.55 984.4C2150.55 986.967 2149.59 989.02 2147.69 990.56C2145.78 992.173 2142.99 992.98 2139.33 992.98C2138.08 992.98 2136.94 992.907 2135.92 992.76C2134.89 992.613 2133.97 992.43 2133.17 992.21L2133.72 989.46C2134.45 989.533 2135.22 989.607 2136.03 989.68C2136.91 989.827 2137.75 989.9 2138.56 989.9C2140.9 989.9 2142.63 989.423 2143.73 988.47C2144.9 987.517 2145.49 986.233 2145.49 984.62C2145.49 982.86 2144.83 981.503 2143.51 980.55C2142.26 979.597 2140.32 978.937 2137.68 978.57ZM2178.87 970.32C2175.28 970.32 2172.24 969.293 2169.74 967.24C2167.25 965.113 2166 962.033 2166 958C2166 955.947 2166.41 954.003 2167.21 952.17C2168.02 950.337 2169.56 948.613 2171.83 947C2174.11 945.313 2177.48 943.737 2181.95 942.27C2183.05 941.903 2184.34 941.5 2185.8 941.06C2187.27 940.62 2188.99 940.143 2190.97 939.63C2193.03 939.043 2195.34 938.457 2197.9 937.87V939.63C2194.16 940.73 2191.16 941.647 2188.88 942.38C2186.68 943.113 2185.07 943.7 2184.04 944.14C2180.96 945.46 2178.69 946.817 2177.22 948.21C2175.83 949.603 2174.91 950.96 2174.47 952.28C2174.03 953.6 2173.81 954.883 2173.81 956.13C2173.81 959.283 2174.58 961.557 2176.12 962.95C2177.74 964.27 2179.72 964.93 2182.06 964.93C2183.68 964.93 2185.18 964.747 2186.57 964.38C2187.97 964.013 2189.47 963.317 2191.08 962.29C2192.7 961.19 2194.6 959.54 2196.8 957.34L2197.68 961.52H2194.38C2192.84 963.573 2191.23 965.26 2189.54 966.58C2187.93 967.9 2186.21 968.853 2184.37 969.44C2182.61 970.027 2180.78 970.32 2178.87 970.32ZM2202.3 969.88C2199.52 969.88 2197.39 969.11 2195.92 967.57C2194.53 965.957 2193.8 963.683 2193.72 960.75V960.53V935.12C2193.72 931.527 2193.36 928.703 2192.62 926.65C2191.96 924.523 2190.9 923.02 2189.43 922.14C2187.97 921.26 2186.06 920.82 2183.71 920.82C2182.32 920.82 2180.96 921.003 2179.64 921.37C2178.32 921.663 2176.93 922.067 2175.46 922.58L2178.54 920.49L2176.45 929.29C2176.16 930.757 2175.61 931.893 2174.8 932.7C2174 933.507 2172.97 933.91 2171.72 933.91C2170.48 933.91 2169.56 933.543 2168.97 932.81C2168.39 932.077 2168.02 931.087 2167.87 929.84C2168.68 926.247 2170.81 923.387 2174.25 921.26C2177.7 919.06 2181.77 917.96 2186.46 917.96C2189.84 917.96 2192.59 918.583 2194.71 919.83C2196.91 921.003 2198.53 922.873 2199.55 925.44C2200.65 928.007 2201.2 931.307 2201.2 935.34V959.87C2201.2 962.143 2201.5 963.72 2202.08 964.6C2202.74 965.407 2203.59 965.81 2204.61 965.81C2205.57 965.81 2206.37 965.59 2207.03 965.15C2207.69 964.71 2208.5 963.977 2209.45 962.95L2210.55 963.83C2209.82 965.59 2208.79 967.057 2207.47 968.23C2206.15 969.33 2204.43 969.88 2202.3 969.88ZM2169.08 907.07C2169.67 903.037 2170.7 899.883 2172.16 897.61C2173.63 895.337 2175.76 894.2 2178.54 894.2C2180.23 894.2 2181.62 894.53 2182.72 895.19C2183.9 895.85 2185.22 896.913 2186.68 898.38C2188 899.7 2189.18 900.873 2190.2 901.9C2191.23 902.853 2192.4 903.33 2193.72 903.33C2195.56 903.33 2196.99 902.56 2198.01 901.02C2199.04 899.48 2199.96 897.353 2200.76 894.64L2202.52 895.08C2201.94 899.113 2200.91 902.267 2199.44 904.54C2197.98 906.813 2195.85 907.95 2193.06 907.95C2191.38 907.95 2189.95 907.62 2188.77 906.96C2187.67 906.227 2186.39 905.127 2184.92 903.66C2183.68 902.413 2182.5 901.313 2181.4 900.36C2180.38 899.333 2179.2 898.82 2177.88 898.82C2176.05 898.82 2174.62 899.59 2173.59 901.13C2172.57 902.597 2171.65 904.723 2170.84 907.51L2169.08 907.07ZM2238.74 970.32C2234.71 970.32 2230.97 969.367 2227.52 967.46C2224.07 965.48 2221.29 962.583 2219.16 958.77C2217.03 954.883 2215.97 950.08 2215.97 944.36C2215.97 938.64 2217.03 933.837 2219.16 929.95C2221.29 925.99 2224.07 923.02 2227.52 921.04C2230.97 918.987 2234.71 917.96 2238.74 917.96C2242.77 917.96 2246.51 918.95 2249.96 920.93C2253.41 922.837 2256.19 925.697 2258.32 929.51C2260.45 933.323 2261.51 938.127 2261.51 943.92C2261.51 949.567 2260.45 954.37 2258.32 958.33C2256.19 962.29 2253.41 965.297 2249.96 967.35C2246.51 969.33 2242.77 970.32 2238.74 970.32ZM2238.74 968.01C2241.75 968.01 2244.35 967.093 2246.55 965.26C2248.75 963.353 2250.44 960.603 2251.61 957.01C2252.78 953.417 2253.37 949.053 2253.37 943.92C2253.37 938.787 2252.78 934.497 2251.61 931.05C2250.44 927.53 2248.75 924.853 2246.55 923.02C2244.35 921.187 2241.75 920.27 2238.74 920.27C2235.73 920.27 2233.09 921.223 2230.82 923.13C2228.62 924.963 2226.93 927.677 2225.76 931.27C2224.59 934.863 2224 939.227 2224 944.36C2224 949.42 2224.59 953.71 2225.76 957.23C2226.93 960.75 2228.62 963.427 2230.82 965.26C2233.09 967.093 2235.73 968.01 2238.74 968.01ZM2280.43 969.77C2278.81 969.77 2277.42 969.257 2276.25 968.23C2275.07 967.13 2274.49 965.663 2274.49 963.83C2274.49 962.07 2275.07 960.64 2276.25 959.54C2277.42 958.44 2278.81 957.89 2280.43 957.89C2282.11 957.89 2283.51 958.44 2284.61 959.54C2285.78 960.64 2286.37 962.07 2286.37 963.83C2286.37 965.663 2285.78 967.13 2284.61 968.23C2283.51 969.257 2282.11 969.77 2280.43 969.77ZM2280.43 931.16C2278.81 931.16 2277.42 930.647 2276.25 929.62C2275.07 928.52 2274.49 927.053 2274.49 925.22C2274.49 923.46 2275.07 922.03 2276.25 920.93C2277.42 919.83 2278.81 919.28 2280.43 919.28C2282.11 919.28 2283.51 919.83 2284.61 920.93C2285.78 922.03 2286.37 923.46 2286.37 925.22C2286.37 927.053 2285.78 928.52 2284.61 929.62C2283.51 930.647 2282.11 931.16 2280.43 931.16ZM2344.22 970.32C2340.04 970.32 2336.22 969.33 2332.78 967.35C2329.4 965.297 2326.73 962.4 2324.75 958.66C2322.77 954.92 2321.78 950.447 2321.78 945.24C2321.78 939.74 2322.8 934.973 2324.86 930.94C2326.91 926.833 2329.59 923.643 2332.89 921.37C2336.26 919.097 2339.93 917.96 2343.89 917.96C2347.26 917.96 2350.3 918.73 2353.02 920.27C2355.8 921.737 2358 923.863 2359.62 926.65C2361.23 929.363 2362.04 932.627 2362.04 936.44C2362.04 937.613 2361.96 938.677 2361.82 939.63C2361.74 940.51 2361.6 941.28 2361.38 941.94H2324.64V939.52H2349.72C2351.77 939.52 2353.2 939.08 2354.01 938.2C2354.81 937.32 2355.22 935.963 2355.22 934.13C2355.22 931.343 2354.74 928.923 2353.79 926.87C2352.91 924.817 2351.62 923.24 2349.94 922.14C2348.25 920.967 2346.23 920.38 2343.89 920.38C2341.54 920.38 2339.23 921.15 2336.96 922.69C2334.76 924.23 2332.96 926.687 2331.57 930.06C2330.17 933.433 2329.48 937.87 2329.48 943.37C2329.48 947.843 2330.21 951.693 2331.68 954.92C2333.14 958.147 2335.12 960.64 2337.62 962.4C2340.18 964.087 2343.08 964.93 2346.31 964.93C2349.61 964.93 2352.47 964.233 2354.89 962.84C2357.31 961.373 2359.4 959.467 2361.16 957.12L2362.7 958C2361.45 960.86 2359.87 963.207 2357.97 965.04C2356.06 966.8 2353.93 968.12 2351.59 969C2349.31 969.88 2346.86 970.32 2344.22 970.32ZM2370.1 969V967.24L2380.66 965.92H2382.75L2393.2 967.24V969H2370.1ZM2377.8 969C2377.94 967.313 2378.02 965.077 2378.02 962.29C2378.09 959.503 2378.13 956.643 2378.13 953.71C2378.2 950.703 2378.24 948.027 2378.24 945.68V894.53L2369.66 892.66V891.12L2385.17 887.16L2386.05 888.04L2385.61 907.07V945.68C2385.61 948.027 2385.61 950.703 2385.61 953.71C2385.68 956.643 2385.75 959.503 2385.83 962.29C2385.9 965.077 2385.97 967.313 2386.05 969H2377.8ZM2422.96 970.32C2418.78 970.32 2414.96 969.33 2411.52 967.35C2408.14 965.297 2405.47 962.4 2403.49 958.66C2401.51 954.92 2400.52 950.447 2400.52 945.24C2400.52 939.74 2401.54 934.973 2403.6 930.94C2405.65 926.833 2408.33 923.643 2411.63 921.37C2415 919.097 2418.67 917.96 2422.63 917.96C2426 917.96 2429.04 918.73 2431.76 920.27C2434.54 921.737 2436.74 923.863 2438.36 926.65C2439.97 929.363 2440.78 932.627 2440.78 936.44C2440.78 937.613 2440.7 938.677 2440.56 939.63C2440.48 940.51 2440.34 941.28 2440.12 941.94H2403.38V939.52H2428.46C2430.51 939.52 2431.94 939.08 2432.75 938.2C2433.55 937.32 2433.96 935.963 2433.96 934.13C2433.96 931.343 2433.48 928.923 2432.53 926.87C2431.65 924.817 2430.36 923.24 2428.68 922.14C2426.99 920.967 2424.97 920.38 2422.63 920.38C2420.28 920.38 2417.97 921.15 2415.7 922.69C2413.5 924.23 2411.7 926.687 2410.31 930.06C2408.91 933.433 2408.22 937.87 2408.22 943.37C2408.22 947.843 2408.95 951.693 2410.42 954.92C2411.88 958.147 2413.86 960.64 2416.36 962.4C2418.92 964.087 2421.82 964.93 2425.05 964.93C2428.35 964.93 2431.21 964.233 2433.63 962.84C2436.05 961.373 2438.14 959.467 2439.9 957.12L2441.44 958C2440.19 960.86 2438.61 963.207 2436.71 965.04C2434.8 966.8 2432.67 968.12 2430.33 969C2428.05 969.88 2425.6 970.32 2422.96 970.32ZM2449.91 969V967.24L2460.47 965.92H2462.56L2473.01 967.24V969H2449.91ZM2457.61 969C2457.76 967.313 2457.83 965.077 2457.83 962.29C2457.9 959.503 2457.94 956.643 2457.94 953.71C2458.01 950.703 2458.05 948.027 2458.05 945.68V940.62C2458.05 938.567 2458.01 936.733 2457.94 935.12C2457.94 933.507 2457.9 932.003 2457.83 930.61C2457.83 929.143 2457.79 927.677 2457.72 926.21L2449.47 924.34V922.8L2464.54 917.96L2465.42 918.84V929.29V929.84V945.68C2465.42 948.027 2465.42 950.703 2465.42 953.71C2465.49 956.643 2465.57 959.503 2465.64 962.29C2465.71 965.077 2465.79 967.313 2465.86 969H2457.61ZM2481.04 969V967.24L2491.49 965.92H2493.58L2504.03 967.24V969H2481.04ZM2488.52 969C2488.67 967.313 2488.78 965.077 2488.85 962.29C2488.92 959.503 2488.96 956.643 2488.96 953.71C2489.03 950.703 2489.07 948.027 2489.07 945.68V935.45C2489.07 930.683 2488.41 927.493 2487.09 925.88C2485.77 924.193 2483.5 923.35 2480.27 923.35C2478.51 923.35 2476.79 923.68 2475.1 924.34C2473.41 924.927 2471.73 925.843 2470.04 927.09C2468.35 928.263 2466.56 929.693 2464.65 931.38L2463.77 929.84H2464.21C2465.68 927.933 2467.4 926.063 2469.38 924.23C2471.43 922.397 2473.67 920.893 2476.09 919.72C2478.58 918.547 2481.15 917.96 2483.79 917.96C2487.97 917.96 2491.12 919.28 2493.25 921.92C2495.38 924.487 2496.44 928.997 2496.44 935.45V945.68C2496.44 948.027 2496.44 950.703 2496.44 953.71C2496.51 956.643 2496.59 959.503 2496.66 962.29C2496.73 965.077 2496.81 967.313 2496.88 969H2488.52ZM2511.95 969V967.24L2522.51 965.92H2524.49L2535.05 967.24V969H2511.95ZM2519.54 969C2519.69 967.313 2519.8 965.077 2519.87 962.29C2519.94 959.503 2519.98 956.643 2519.98 953.71C2519.98 950.703 2519.98 948.027 2519.98 945.68V935.45C2519.98 930.683 2519.32 927.493 2518 925.88C2516.75 924.193 2514.52 923.35 2511.29 923.35C2509.53 923.35 2507.81 923.68 2506.12 924.34C2504.43 924.927 2502.75 925.843 2501.06 927.09C2499.37 928.263 2497.58 929.73 2495.67 931.49L2494.68 929.84H2495.12C2496.59 927.933 2498.35 926.063 2500.4 924.23C2502.45 922.397 2504.69 920.893 2507.11 919.72C2509.6 918.547 2512.17 917.96 2514.81 917.96C2518.99 917.96 2522.14 919.28 2524.27 921.92C2526.4 924.487 2527.46 928.997 2527.46 935.45V945.68C2527.46 948.027 2527.46 950.703 2527.46 953.71C2527.53 956.643 2527.61 959.503 2527.68 962.29C2527.75 965.077 2527.83 967.313 2527.9 969H2519.54ZM2565.29 970.32C2561.11 970.32 2557.3 969.33 2553.85 967.35C2550.48 965.297 2547.8 962.4 2545.82 958.66C2543.84 954.92 2542.85 950.447 2542.85 945.24C2542.85 939.74 2543.88 934.973 2545.93 930.94C2547.98 926.833 2550.66 923.643 2553.96 921.37C2557.33 919.097 2561 917.96 2564.96 917.96C2568.33 917.96 2571.38 918.73 2574.09 920.27C2576.88 921.737 2579.08 923.863 2580.69 926.65C2582.3 929.363 2583.11 932.627 2583.11 936.44C2583.11 937.613 2583.04 938.677 2582.89 939.63C2582.82 940.51 2582.67 941.28 2582.45 941.94H2545.71V939.52H2570.79C2572.84 939.52 2574.27 939.08 2575.08 938.2C2575.89 937.32 2576.29 935.963 2576.29 934.13C2576.29 931.343 2575.81 928.923 2574.86 926.87C2573.98 924.817 2572.7 923.24 2571.01 922.14C2569.32 920.967 2567.31 920.38 2564.96 920.38C2562.61 920.38 2560.3 921.15 2558.03 922.69C2555.83 924.23 2554.03 926.687 2552.64 930.06C2551.25 933.433 2550.55 937.87 2550.55 943.37C2550.55 947.843 2551.28 951.693 2552.75 954.92C2554.22 958.147 2556.2 960.64 2558.69 962.4C2561.26 964.087 2564.15 964.93 2567.38 964.93C2570.68 964.93 2573.54 964.233 2575.96 962.84C2578.38 961.373 2580.47 959.467 2582.23 957.12L2583.77 958C2582.52 960.86 2580.95 963.207 2579.04 965.04C2577.13 966.8 2575.01 968.12 2572.66 969C2570.39 969.88 2567.93 970.32 2565.29 970.32ZM2592.24 969V967.24L2602.8 965.92H2604.89L2615.34 967.24V969H2592.24ZM2599.94 969C2600.09 967.313 2600.16 965.077 2600.16 962.29C2600.24 959.503 2600.27 956.643 2600.27 953.71C2600.35 950.703 2600.38 948.027 2600.38 945.68V940.62C2600.38 938.567 2600.35 936.733 2600.27 935.12C2600.27 933.507 2600.24 932.003 2600.16 930.61C2600.16 929.143 2600.13 927.677 2600.05 926.21L2591.8 924.34V922.8L2606.87 917.96L2607.75 918.84V929.62V929.84V945.68C2607.75 948.027 2607.75 950.703 2607.75 953.71C2607.83 956.643 2607.9 959.503 2607.97 962.29C2608.05 965.077 2608.12 967.313 2608.19 969H2599.94ZM2623.7 969V967.24L2634.26 965.92H2636.24L2646.8 967.24V969H2623.7ZM2631.29 969C2631.44 967.313 2631.51 965.077 2631.51 962.29C2631.59 959.503 2631.62 956.643 2631.62 953.71C2631.7 950.703 2631.73 948.027 2631.73 945.68V935.45C2631.73 930.683 2631.04 927.493 2629.64 925.88C2628.32 924.193 2626.05 923.35 2622.82 923.35C2621.06 923.35 2619.3 923.68 2617.54 924.34C2615.86 924.927 2614.13 925.843 2612.37 927.09C2610.69 928.263 2608.89 929.693 2606.98 931.38L2606.1 929.84H2606.54C2608.01 927.933 2609.77 926.063 2611.82 924.23C2613.88 922.397 2616.15 920.893 2618.64 919.72C2621.14 918.547 2623.7 917.96 2626.34 917.96C2630.52 917.96 2633.71 919.28 2635.91 921.92C2638.11 924.487 2639.21 928.997 2639.21 935.45V945.68C2639.21 948.027 2639.21 950.703 2639.21 953.71C2639.29 956.643 2639.36 959.503 2639.43 962.29C2639.51 965.077 2639.58 967.313 2639.65 969H2631.29ZM2662.51 921.92V919.28H2679.56V921.92H2662.51ZM2669.55 970.32C2666.1 970.32 2663.35 969.403 2661.3 967.57C2659.24 965.663 2658.22 962.877 2658.22 959.21C2658.22 957.157 2658.22 955.287 2658.22 953.6C2658.22 951.84 2658.22 949.713 2658.22 947.22L2658.44 921.92H2650.08V920.16L2662.29 918.18L2658.33 920.6L2663.83 902.56H2666.25L2665.81 920.6V921.04V958.33C2665.81 961.19 2666.36 963.243 2667.46 964.49C2668.56 965.663 2670.06 966.25 2671.97 966.25C2673.43 966.25 2674.79 965.957 2676.04 965.37C2677.28 964.71 2678.42 963.793 2679.45 962.62L2680.66 963.61C2679.92 965.003 2679.04 966.213 2678.02 967.24C2677.06 968.193 2675.89 968.927 2674.5 969.44C2673.18 970.027 2671.53 970.32 2669.55 970.32ZM2709.57 970.32C2705.54 970.32 2701.8 969.367 2698.35 967.46C2694.9 965.48 2692.12 962.583 2689.99 958.77C2687.86 954.883 2686.8 950.08 2686.8 944.36C2686.8 938.64 2687.86 933.837 2689.99 929.95C2692.12 925.99 2694.9 923.02 2698.35 921.04C2701.8 918.987 2705.54 917.96 2709.57 917.96C2713.6 917.96 2717.34 918.95 2720.79 920.93C2724.24 922.837 2727.02 925.697 2729.15 929.51C2731.28 933.323 2732.34 938.127 2732.34 943.92C2732.34 949.567 2731.28 954.37 2729.15 958.33C2727.02 962.29 2724.24 965.297 2720.79 967.35C2717.34 969.33 2713.6 970.32 2709.57 970.32ZM2709.57 968.01C2712.58 968.01 2715.18 967.093 2717.38 965.26C2719.58 963.353 2721.27 960.603 2722.44 957.01C2723.61 953.417 2724.2 949.053 2724.2 943.92C2724.2 938.787 2723.61 934.497 2722.44 931.05C2721.27 927.53 2719.58 924.853 2717.38 923.02C2715.18 921.187 2712.58 920.27 2709.57 920.27C2706.56 920.27 2703.92 921.223 2701.65 923.13C2699.45 924.963 2697.76 927.677 2696.59 931.27C2695.42 934.863 2694.83 939.227 2694.83 944.36C2694.83 949.42 2695.42 953.71 2696.59 957.23C2697.76 960.75 2699.45 963.427 2701.65 965.26C2703.92 967.093 2706.56 968.01 2709.57 968.01ZM2757.75 970.32C2754.59 970.32 2751.92 969.99 2749.72 969.33C2747.59 968.743 2745.28 967.79 2742.79 966.47L2743.56 952.72H2745.1L2749.5 967.46H2745.76V965.48C2747.52 966.433 2749.31 967.13 2751.15 967.57C2753.05 968.01 2755.25 968.23 2757.75 968.23C2760.31 968.23 2762.4 967.79 2764.02 966.91C2765.7 965.957 2766.95 964.747 2767.76 963.28C2768.64 961.74 2769.08 960.09 2769.08 958.33C2769.08 955.323 2768.01 953.087 2765.89 951.62C2763.83 950.08 2761.41 948.723 2758.63 947.55L2755.55 946.23C2753.49 945.35 2751.51 944.36 2749.61 943.26C2747.7 942.087 2746.12 940.62 2744.88 938.86C2743.7 937.1 2743.12 934.863 2743.12 932.15C2743.12 929.437 2743.74 927.017 2744.99 924.89C2746.23 922.763 2748.07 921.077 2750.49 919.83C2752.91 918.583 2755.91 917.96 2759.51 917.96C2762.22 917.96 2764.64 918.29 2766.77 918.95C2768.97 919.537 2771.13 920.453 2773.26 921.7L2772.82 934.24H2771.17L2766.99 921.04H2771.39V923.9C2769.55 922.58 2767.68 921.627 2765.78 921.04C2763.87 920.453 2761.78 920.16 2759.51 920.16C2756.06 920.16 2753.46 921.04 2751.7 922.8C2749.94 924.487 2749.06 926.577 2749.06 929.07C2749.06 932.003 2750.05 934.24 2752.03 935.78C2754.01 937.32 2756.35 938.677 2759.07 939.85L2762.15 941.17C2764.35 942.123 2766.47 943.187 2768.53 944.36C2770.58 945.46 2772.23 946.927 2773.48 948.76C2774.8 950.52 2775.46 952.83 2775.46 955.69C2775.46 958.477 2774.8 960.97 2773.48 963.17C2772.16 965.37 2770.18 967.13 2767.54 968.45C2764.9 969.697 2761.63 970.32 2757.75 970.32ZM2829.65 970.32C2825.18 970.32 2821.22 969.33 2817.77 967.35C2814.4 965.37 2811.76 962.473 2809.85 958.66C2807.95 954.847 2806.99 950.227 2806.99 944.8C2806.99 938.933 2808.13 934.02 2810.4 930.06C2812.75 926.027 2815.72 923.02 2819.31 921.04C2822.98 918.987 2826.83 917.96 2830.86 917.96C2833.8 917.96 2836.36 918.473 2838.56 919.5C2840.84 920.527 2842.67 921.957 2844.06 923.79C2845.53 925.623 2846.48 927.713 2846.92 930.06C2846.85 931.307 2846.45 932.26 2845.71 932.92C2845.05 933.58 2844.1 933.91 2842.85 933.91C2841.68 933.91 2840.69 933.507 2839.88 932.7C2839.08 931.893 2838.49 930.757 2838.12 929.29L2836.03 920.49L2838.67 923.24C2837.5 921.92 2836.18 921.113 2834.71 920.82C2833.25 920.527 2831.96 920.38 2830.86 920.38C2827.34 920.38 2824.37 921.443 2821.95 923.57C2819.61 925.623 2817.81 928.373 2816.56 931.82C2815.39 935.193 2814.8 938.897 2814.8 942.93C2814.8 946.817 2815.39 950.447 2816.56 953.82C2817.81 957.193 2819.68 959.907 2822.17 961.96C2824.67 963.94 2827.82 964.93 2831.63 964.93C2833.83 964.93 2835.81 964.637 2837.57 964.05C2839.33 963.39 2840.91 962.473 2842.3 961.3C2843.77 960.127 2845.09 958.733 2846.26 957.12L2847.8 958C2846.56 960.787 2845.02 963.097 2843.18 964.93C2841.42 966.763 2839.41 968.12 2837.13 969C2834.86 969.88 2832.37 970.32 2829.65 970.32ZM2878.44 970.32C2874.4 970.32 2870.66 969.367 2867.22 967.46C2863.77 965.48 2860.98 962.583 2858.86 958.77C2856.73 954.883 2855.67 950.08 2855.67 944.36C2855.67 938.64 2856.73 933.837 2858.86 929.95C2860.98 925.99 2863.77 923.02 2867.22 921.04C2870.66 918.987 2874.4 917.96 2878.44 917.96C2882.47 917.96 2886.21 918.95 2889.66 920.93C2893.1 922.837 2895.89 925.697 2898.02 929.51C2900.14 933.323 2901.21 938.127 2901.21 943.92C2901.21 949.567 2900.14 954.37 2898.02 958.33C2895.89 962.29 2893.1 965.297 2889.66 967.35C2886.21 969.33 2882.47 970.32 2878.44 970.32ZM2878.44 968.01C2881.44 968.01 2884.05 967.093 2886.25 965.26C2888.45 963.353 2890.13 960.603 2891.31 957.01C2892.48 953.417 2893.07 949.053 2893.07 943.92C2893.07 938.787 2892.48 934.497 2891.31 931.05C2890.13 927.53 2888.45 924.853 2886.25 923.02C2884.05 921.187 2881.44 920.27 2878.44 920.27C2875.43 920.27 2872.79 921.223 2870.52 923.13C2868.32 924.963 2866.63 927.677 2865.46 931.27C2864.28 934.863 2863.7 939.227 2863.7 944.36C2863.7 949.42 2864.28 953.71 2865.46 957.23C2866.63 960.75 2868.32 963.427 2870.52 965.26C2872.79 967.093 2875.43 968.01 2878.44 968.01ZM2909.78 969V967.24L2920.34 965.92H2922.43L2932.88 967.24V969H2909.78ZM2917.48 969C2917.63 967.313 2917.7 965.077 2917.7 962.29C2917.78 959.503 2917.81 956.643 2917.81 953.71C2917.89 950.703 2917.92 948.027 2917.92 945.68V940.62C2917.92 938.567 2917.89 936.733 2917.81 935.12C2917.81 933.507 2917.78 932.003 2917.7 930.61C2917.7 929.143 2917.67 927.677 2917.59 926.21L2909.34 924.34V922.8L2924.41 917.96L2925.29 918.84V929.29V929.84V945.68C2925.29 948.027 2925.29 950.703 2925.29 953.71C2925.37 956.643 2925.44 959.503 2925.51 962.29C2925.59 965.077 2925.66 967.313 2925.73 969H2917.48ZM2940.91 969V967.24L2951.36 965.92H2953.45L2963.9 967.24V969H2940.91ZM2948.39 969C2948.54 967.313 2948.65 965.077 2948.72 962.29C2948.8 959.503 2948.83 956.643 2948.83 953.71C2948.91 950.703 2948.94 948.027 2948.94 945.68V935.45C2948.94 930.683 2948.28 927.493 2946.96 925.88C2945.64 924.193 2943.37 923.35 2940.14 923.35C2938.38 923.35 2936.66 923.68 2934.97 924.34C2933.29 924.927 2931.6 925.843 2929.91 927.09C2928.23 928.263 2926.43 929.693 2924.52 931.38L2923.64 929.84H2924.08C2925.55 927.933 2927.27 926.063 2929.25 924.23C2931.31 922.397 2933.54 920.893 2935.96 919.72C2938.46 918.547 2941.02 917.96 2943.66 917.96C2947.84 917.96 2951 919.28 2953.12 921.92C2955.25 924.487 2956.31 928.997 2956.31 935.45V945.68C2956.31 948.027 2956.31 950.703 2956.31 953.71C2956.39 956.643 2956.46 959.503 2956.53 962.29C2956.61 965.077 2956.68 967.313 2956.75 969H2948.39ZM2971.82 969V967.24L2982.38 965.92H2984.36L2994.92 967.24V969H2971.82ZM2979.41 969C2979.56 967.313 2979.67 965.077 2979.74 962.29C2979.82 959.503 2979.85 956.643 2979.85 953.71C2979.85 950.703 2979.85 948.027 2979.85 945.68V935.45C2979.85 930.683 2979.19 927.493 2977.87 925.88C2976.63 924.193 2974.39 923.35 2971.16 923.35C2969.4 923.35 2967.68 923.68 2965.99 924.34C2964.31 924.927 2962.62 925.843 2960.93 927.09C2959.25 928.263 2957.45 929.73 2955.54 931.49L2954.55 929.84H2954.99C2956.46 927.933 2958.22 926.063 2960.27 924.23C2962.33 922.397 2964.56 920.893 2966.98 919.72C2969.48 918.547 2972.04 917.96 2974.68 917.96C2978.86 917.96 2982.02 919.28 2984.14 921.92C2986.27 924.487 2987.33 928.997 2987.33 935.45V945.68C2987.33 948.027 2987.33 950.703 2987.33 953.71C2987.41 956.643 2987.48 959.503 2987.55 962.29C2987.63 965.077 2987.7 967.313 2987.77 969H2979.41ZM3025.6 970.32C3021.57 970.32 3017.83 969.367 3014.38 967.46C3010.94 965.48 3008.15 962.583 3006.02 958.77C3003.9 954.883 3002.83 950.08 3002.83 944.36C3002.83 938.64 3003.9 933.837 3006.02 929.95C3008.15 925.99 3010.94 923.02 3014.38 921.04C3017.83 918.987 3021.57 917.96 3025.6 917.96C3029.64 917.96 3033.38 918.95 3036.82 920.93C3040.27 922.837 3043.06 925.697 3045.18 929.51C3047.31 933.323 3048.37 938.127 3048.37 943.92C3048.37 949.567 3047.31 954.37 3045.18 958.33C3043.06 962.29 3040.27 965.297 3036.82 967.35C3033.38 969.33 3029.64 970.32 3025.6 970.32ZM3025.6 968.01C3028.61 968.01 3031.21 967.093 3033.41 965.26C3035.61 963.353 3037.3 960.603 3038.47 957.01C3039.65 953.417 3040.23 949.053 3040.23 943.92C3040.23 938.787 3039.65 934.497 3038.47 931.05C3037.3 927.53 3035.61 924.853 3033.41 923.02C3031.21 921.187 3028.61 920.27 3025.6 920.27C3022.6 920.27 3019.96 921.223 3017.68 923.13C3015.48 924.963 3013.8 927.677 3012.62 931.27C3011.45 934.863 3010.86 939.227 3010.86 944.36C3010.86 949.42 3011.45 953.71 3012.62 957.23C3013.8 960.75 3015.48 963.427 3017.68 965.26C3019.96 967.093 3022.6 968.01 3025.6 968.01ZM3103.16 970.32C3099.13 970.32 3095.39 969.367 3091.94 967.46C3088.5 965.48 3085.71 962.583 3083.58 958.77C3081.46 954.883 3080.39 950.08 3080.39 944.36C3080.39 938.64 3081.46 933.837 3083.58 929.95C3085.71 925.99 3088.5 923.02 3091.94 921.04C3095.39 918.987 3099.13 917.96 3103.16 917.96C3107.2 917.96 3110.94 918.95 3114.38 920.93C3117.83 922.837 3120.62 925.697 3122.74 929.51C3124.87 933.323 3125.93 938.127 3125.93 943.92C3125.93 949.567 3124.87 954.37 3122.74 958.33C3120.62 962.29 3117.83 965.297 3114.38 967.35C3110.94 969.33 3107.2 970.32 3103.16 970.32ZM3103.16 968.01C3106.17 968.01 3108.77 967.093 3110.97 965.26C3113.17 963.353 3114.86 960.603 3116.03 957.01C3117.21 953.417 3117.79 949.053 3117.79 943.92C3117.79 938.787 3117.21 934.497 3116.03 931.05C3114.86 927.53 3113.17 924.853 3110.97 923.02C3108.77 921.187 3106.17 920.27 3103.16 920.27C3100.16 920.27 3097.52 921.223 3095.24 923.13C3093.04 924.963 3091.36 927.677 3090.18 931.27C3089.01 934.863 3088.42 939.227 3088.42 944.36C3088.42 949.42 3089.01 953.71 3090.18 957.23C3091.36 960.75 3093.04 963.427 3095.24 965.26C3097.52 967.093 3100.16 968.01 3103.16 968.01ZM3133.55 969V967.24L3141.25 966.25C3141.32 964.05 3141.36 961.74 3141.36 959.32C3141.43 956.827 3141.47 954.407 3141.47 952.06C3141.54 949.64 3141.58 947.513 3141.58 945.68V894.53L3133.11 892.66V891.12L3148.51 887.16L3149.39 888.04L3148.95 909.6V928.41V928.74V960.75V960.97V970.1L3133.55 969ZM3163.36 970.32C3161.38 970.32 3159.43 969.99 3157.53 969.33C3155.62 968.67 3153.82 967.607 3152.14 966.14C3150.45 964.6 3148.91 962.62 3147.52 960.2H3145.98L3146.75 957.45C3149.46 960.677 3151.95 962.95 3154.23 964.27C3156.5 965.517 3159.18 966.14 3162.26 966.14C3164.97 966.14 3167.39 965.297 3169.52 963.61C3171.64 961.923 3173.33 959.393 3174.58 956.02C3175.82 952.647 3176.45 948.467 3176.45 943.48C3176.45 936.073 3175.05 930.647 3172.27 927.2C3169.55 923.753 3166.07 922.03 3161.82 922.03C3159.84 922.03 3157.97 922.47 3156.21 923.35C3154.52 924.157 3152.91 925.33 3151.37 926.87C3149.9 928.41 3148.51 930.207 3147.19 932.26L3146.53 929.07H3147.96C3149.06 926.943 3150.41 925.073 3152.03 923.46C3153.64 921.773 3155.47 920.453 3157.53 919.5C3159.58 918.473 3161.85 917.96 3164.35 917.96C3167.94 917.96 3171.24 918.913 3174.25 920.82C3177.25 922.653 3179.67 925.44 3181.51 929.18C3183.34 932.847 3184.26 937.467 3184.26 943.04C3184.26 948.833 3183.3 953.783 3181.4 957.89C3179.56 961.923 3177.07 965.003 3173.92 967.13C3170.76 969.257 3167.24 970.32 3163.36 970.32ZM3191.74 997.49C3190.27 997.49 3188.95 997.307 3187.78 996.94C3186.6 996.573 3185.65 996.023 3184.92 995.29C3184.11 994.63 3183.52 993.823 3183.16 992.87C3183.3 991.623 3183.89 990.67 3184.92 990.01C3185.94 989.35 3187.15 989.02 3188.55 989.02C3189.79 989.02 3190.93 989.203 3191.96 989.57C3192.98 990.01 3193.97 990.707 3194.93 991.66L3198.45 994.85V995.62H3196.47V994.96C3196.98 994.813 3197.38 994.557 3197.68 994.19C3198.04 993.897 3198.41 993.383 3198.78 992.65C3199.66 990.89 3200.24 988.727 3200.54 986.16C3200.9 983.667 3201.09 980.66 3201.09 977.14C3201.09 973.62 3201.09 969.55 3201.09 964.93V940.62C3201.09 937.467 3201.05 934.863 3200.98 932.81C3200.98 930.683 3200.9 928.483 3200.76 926.21L3192.51 924.34V922.8L3208.02 917.96L3208.9 918.84L3208.46 932.7V965.04C3208.46 970.1 3208.31 974.353 3208.02 977.8C3207.72 981.247 3207.14 984.143 3206.26 986.49C3205.45 988.837 3204.28 990.853 3202.74 992.54C3201.12 994.153 3199.44 995.363 3197.68 996.17C3195.92 997.05 3193.94 997.49 3191.74 997.49ZM3204.72 906.41C3203.1 906.41 3201.71 905.897 3200.54 904.87C3199.44 903.843 3198.89 902.413 3198.89 900.58C3198.89 898.82 3199.44 897.427 3200.54 896.4C3201.71 895.373 3203.1 894.86 3204.72 894.86C3206.33 894.86 3207.69 895.373 3208.79 896.4C3209.96 897.427 3210.55 898.82 3210.55 900.58C3210.55 902.413 3209.96 903.843 3208.79 904.87C3207.69 905.897 3206.33 906.41 3204.72 906.41ZM3244.95 970.32C3240.77 970.32 3236.96 969.33 3233.51 967.35C3230.14 965.297 3227.46 962.4 3225.48 958.66C3223.5 954.92 3222.51 950.447 3222.51 945.24C3222.51 939.74 3223.54 934.973 3225.59 930.94C3227.64 926.833 3230.32 923.643 3233.62 921.37C3236.99 919.097 3240.66 917.96 3244.62 917.96C3247.99 917.96 3251.04 918.73 3253.75 920.27C3256.54 921.737 3258.74 923.863 3260.35 926.65C3261.96 929.363 3262.77 932.627 3262.77 936.44C3262.77 937.613 3262.7 938.677 3262.55 939.63C3262.48 940.51 3262.33 941.28 3262.11 941.94H3225.37V939.52H3250.45C3252.5 939.52 3253.93 939.08 3254.74 938.2C3255.55 937.32 3255.95 935.963 3255.95 934.13C3255.95 931.343 3255.47 928.923 3254.52 926.87C3253.64 924.817 3252.36 923.24 3250.67 922.14C3248.98 920.967 3246.97 920.38 3244.62 920.38C3242.27 920.38 3239.96 921.15 3237.69 922.69C3235.49 924.23 3233.69 926.687 3232.3 930.06C3230.91 933.433 3230.21 937.87 3230.21 943.37C3230.21 947.843 3230.94 951.693 3232.41 954.92C3233.88 958.147 3235.86 960.64 3238.35 962.4C3240.92 964.087 3243.81 964.93 3247.04 964.93C3250.34 964.93 3253.2 964.233 3255.62 962.84C3258.04 961.373 3260.13 959.467 3261.89 957.12L3263.43 958C3262.18 960.86 3260.61 963.207 3258.7 965.04C3256.79 966.8 3254.67 968.12 3252.32 969C3250.05 969.88 3247.59 970.32 3244.95 970.32ZM3281.36 921.92V919.28H3298.41V921.92H3281.36ZM3288.4 970.32C3284.96 970.32 3282.21 969.403 3280.15 967.57C3278.1 965.663 3277.07 962.877 3277.07 959.21C3277.07 957.157 3277.07 955.287 3277.07 953.6C3277.07 951.84 3277.07 949.713 3277.07 947.22L3277.29 921.92H3268.93V920.16L3281.14 918.18L3277.18 920.6L3282.68 902.56H3285.1L3284.66 920.6V921.04V958.33C3284.66 961.19 3285.21 963.243 3286.31 964.49C3287.41 965.663 3288.92 966.25 3290.82 966.25C3292.29 966.25 3293.65 965.957 3294.89 965.37C3296.14 964.71 3297.28 963.793 3298.3 962.62L3299.51 963.61C3298.78 965.003 3297.9 966.213 3296.87 967.24C3295.92 968.193 3294.75 968.927 3293.35 969.44C3292.03 970.027 3290.38 970.32 3288.4 970.32ZM3328.43 970.32C3324.39 970.32 3320.65 969.367 3317.21 967.46C3313.76 965.48 3310.97 962.583 3308.85 958.77C3306.72 954.883 3305.66 950.08 3305.66 944.36C3305.66 938.64 3306.72 933.837 3308.85 929.95C3310.97 925.99 3313.76 923.02 3317.21 921.04C3320.65 918.987 3324.39 917.96 3328.43 917.96C3332.46 917.96 3336.2 918.95 3339.65 920.93C3343.09 922.837 3345.88 925.697 3348.01 929.51C3350.13 933.323 3351.2 938.127 3351.2 943.92C3351.2 949.567 3350.13 954.37 3348.01 958.33C3345.88 962.29 3343.09 965.297 3339.65 967.35C3336.2 969.33 3332.46 970.32 3328.43 970.32ZM3328.43 968.01C3331.43 968.01 3334.04 967.093 3336.24 965.26C3338.44 963.353 3340.12 960.603 3341.3 957.01C3342.47 953.417 3343.06 949.053 3343.06 943.92C3343.06 938.787 3342.47 934.497 3341.3 931.05C3340.12 927.53 3338.44 924.853 3336.24 923.02C3334.04 921.187 3331.43 920.27 3328.43 920.27C3325.42 920.27 3322.78 921.223 3320.51 923.13C3318.31 924.963 3316.62 927.677 3315.45 931.27C3314.27 934.863 3313.69 939.227 3313.69 944.36C3313.69 949.42 3314.27 953.71 3315.45 957.23C3316.62 960.75 3318.31 963.427 3320.51 965.26C3322.78 967.093 3325.42 968.01 3328.43 968.01ZM3376.6 970.32C3373.45 970.32 3370.77 969.99 3368.57 969.33C3366.45 968.743 3364.14 967.79 3361.64 966.47L3362.41 952.72H3363.95L3368.35 967.46H3364.61V965.48C3366.37 966.433 3368.17 967.13 3370 967.57C3371.91 968.01 3374.11 968.23 3376.6 968.23C3379.17 968.23 3381.26 967.79 3382.87 966.91C3384.56 965.957 3385.81 964.747 3386.61 963.28C3387.49 961.74 3387.93 960.09 3387.93 958.33C3387.93 955.323 3386.87 953.087 3384.74 951.62C3382.69 950.08 3380.27 948.723 3377.48 947.55L3374.4 946.23C3372.35 945.35 3370.37 944.36 3368.46 943.26C3366.56 942.087 3364.98 940.62 3363.73 938.86C3362.56 937.1 3361.97 934.863 3361.97 932.15C3361.97 929.437 3362.6 927.017 3363.84 924.89C3365.09 922.763 3366.92 921.077 3369.34 919.83C3371.76 918.583 3374.77 917.96 3378.36 917.96C3381.08 917.96 3383.5 918.29 3385.62 918.95C3387.82 919.537 3389.99 920.453 3392.11 921.7L3391.67 934.24H3390.02L3385.84 921.04H3390.24V923.9C3388.41 922.58 3386.54 921.627 3384.63 921.04C3382.73 920.453 3380.64 920.16 3378.36 920.16C3374.92 920.16 3372.31 921.04 3370.55 922.8C3368.79 924.487 3367.91 926.577 3367.91 929.07C3367.91 932.003 3368.9 934.24 3370.88 935.78C3372.86 937.32 3375.21 938.677 3377.92 939.85L3381 941.17C3383.2 942.123 3385.33 943.187 3387.38 944.36C3389.44 945.46 3391.09 946.927 3392.33 948.76C3393.65 950.52 3394.31 952.83 3394.31 955.69C3394.31 958.477 3393.65 960.97 3392.33 963.17C3391.01 965.37 3389.03 967.13 3386.39 968.45C3383.75 969.697 3380.49 970.32 3376.6 970.32Z" fill="black"/>
</svg>
