<svg width="1184" height="752" viewBox="0 0 1184 752" fill="none" xmlns="http://www.w3.org/2000/svg">
<rect width="1184" height="752" rx="6" fill="#B3B3B3"/>
<rect x="122" y="24" width="944" height="705" rx="6" fill="white"/>
<rect x="275" y="294" width="444" height="16" rx="3" fill="#1E1E1E"/>
<rect x="275" y="321" width="444" height="16" rx="3" fill="#1E1E1E"/>
<rect x="275" y="349" width="444" height="16" rx="3" fill="#1E1E1E"/>
<rect x="275" y="378" width="444" height="16" rx="3" fill="#1E1E1E"/>
<rect x="275" y="405" width="444" height="16" rx="3" fill="#1E1E1E"/>
<rect x="275" y="433" width="444" height="16" rx="3" fill="#1E1E1E"/>
<rect x="275" y="462" width="266" height="16" rx="3" fill="#1E1E1E"/>
<rect x="275" y="517" width="444" height="16" rx="3" fill="#1E1E1E"/>
<rect x="275" y="546" width="444" height="16" rx="3" fill="#1E1E1E"/>
<rect x="275" y="573" width="444" height="16" rx="3" fill="#1E1E1E"/>
<rect x="275" y="601" width="444" height="16" rx="3" fill="#1E1E1E"/>
<rect x="275" y="631" width="444" height="16" rx="3" fill="#757575"/>
<rect x="275" y="79" width="615" height="58" rx="6" fill="#1E1E1E"/>
<rect x="275" y="229" width="523" height="32" rx="3" fill="#1E1E1E"/>
<rect x="275" y="660" width="444" height="16" rx="3" fill="#B3B3B3"/>
<rect x="1066" y="59" width="16" height="157" rx="3" fill="#1E1E1E"/>
<rect x="1066" y="24" width="16" height="705" rx="3" fill="#1E1E1E" fill-opacity="0.5"/>
<rect x="752" y="294" width="160" height="16" rx="3" fill="#505050"/>
<rect x="753" y="319" width="160" height="16" rx="3" fill="#505050"/>
<rect x="753" y="344" width="160" height="16" rx="3" fill="#505050"/>
<rect x="753" y="368" width="160" height="16" rx="3" fill="#505050"/>
<rect x="753" y="393" width="160" height="16" rx="3" fill="#505050"/>
<rect x="753" y="418" width="89" height="16" rx="3" fill="#505050"/>
<rect x="170" y="294" width="64" height="16" rx="3" fill="#1E1E1E"/>
<rect x="170" y="517" width="64" height="16" rx="3" fill="#1E1E1E"/>
<rect x="170" y="237" width="64" height="16" rx="3" fill="#1E1E1E"/>
<rect x="979" y="679" width="64" height="16" rx="3" fill="#B3B3B3"/>
<rect x="954" y="649" width="89" height="16" rx="3" fill="#B3B3B3"/>
<rect x="999" y="619" width="44" height="16" rx="3" fill="#B3B3B3"/>
<rect x="979" y="589" width="64" height="16" rx="3" fill="#B3B3B3"/>
</svg>
